<svg width="150" height="50" viewBox="0 0 150 50" fill="none" xmlns="http://www.w3.org/2000/svg">
<path d="M68.8728 31C65.6616 31 63.1693 29.4871 63 27.2193H65.4923C65.7478 28.3203 67.0964 29.0267 68.8401 29.0267C70.4621 29.0267 71.6087 28.3689 71.6087 27.4824C71.6087 24.7369 63.1545 27.531 63.1545 22.2717C63.1545 20.2498 65.3765 19 68.3114 19C71.4186 19 73.6049 20.4299 73.795 22.5176H71.3176C71.1126 21.6282 69.8501 20.9075 68.3114 20.9075C66.6389 20.9075 65.5458 21.5167 65.5458 22.3375C65.5458 24.8856 74 22.2231 74 27.5481C74 29.4557 72.0691 31 68.8758 31H68.8728Z" fill="#130933"/>
<path d="M78.9915 22C81.8944 22 84 23.8165 84 26.5162C84 29.2159 81.8944 31 78.9915 31C76.0885 31 74 29.0801 74 26.5162C74 23.9524 76.1197 22 78.9915 22ZM78.9915 28.7906C80.6232 28.7906 81.7157 27.8395 81.7157 26.5162C81.7157 25.193 80.6232 24.1917 78.9915 24.1917C77.3598 24.1917 76.2843 25.1605 76.2843 26.5162C76.2843 27.872 77.4421 28.7906 78.9915 28.7906Z" fill="#130933"/>
<path d="M93.5941 23H96V30.7676H93.8362L93.6121 29.4784C92.8559 30.427 91.7233 31 90.3814 31C87.8051 31 86 29.1973 86 26.6189V23H88.4059V26.6189C88.4059 28.0162 89.4878 28.9811 91.0179 28.9811C92.5481 28.9811 93.5941 28.0027 93.5941 26.6189V23Z" fill="#130933"/>
<path d="M100 31H98V20H100V31Z" fill="#130933"/>
<path d="M104.912 22.0278H101V20H111V22.0278H107.121V31H104.912V22.0278Z" fill="#130933"/>
<path d="M113.401 27.0952C113.65 28.318 114.717 29.1332 116.117 29.1332C117.118 29.1332 117.918 28.7611 118.35 28.1467H120.716C120.081 29.8805 118.298 31 116.016 31C113.148 31 111 29.0801 111 26.5162C111 23.9524 113.134 22 116.016 22C118.898 22 121 23.8165 121 26.5162C121 26.7023 121 26.9061 120.965 27.0952H113.398H113.401ZM118.602 25.9048C118.367 24.6997 117.384 23.9199 116.019 23.9199C114.653 23.9199 113.653 24.7174 113.401 25.9048H118.602Z" fill="#130933"/>
<path d="M130.056 30.743L129.835 29.6236C129.037 30.489 127.891 31 126.561 31C123.96 31 122 29.0801 122 26.5162C122 23.9524 123.944 22 126.561 22C127.878 22 129.037 22.4933 129.835 23.3764L130.056 22.257H132V30.746H130.056V30.743ZM127.033 28.891C128.693 28.891 129.805 27.9222 129.805 26.5133C129.805 25.1044 128.677 24.0853 127.033 24.0853C125.389 24.0853 124.197 25.1044 124.197 26.5133C124.197 27.9222 125.389 28.891 127.033 28.891Z" fill="#130933"/>
<path d="M136.268 30.9973H134V23.2324H136.025L136.237 24.459C136.915 23.5566 137.935 23 139.135 23C140.738 23 142.017 23.8376 142.665 25.2047C143.296 23.8538 144.513 23 146 23C148.332 23 150 24.7859 150 27.3796V31H147.732V27.3796C147.732 25.9828 146.777 25.0047 145.417 25.0047C144.056 25.0047 143.132 25.9828 143.132 27.3796V31H140.865V27.3796C140.865 25.9828 139.91 25.0047 138.549 25.0047C137.189 25.0047 136.265 25.9828 136.265 27.3796V31L136.268 30.9973Z" fill="#130933"/>
<path d="M28.2508 35.486C26.3622 35.1331 25.2279 33.912 24.5967 32.1716L24.6102 32.1656C23.0456 26.7088 31.011 23.8073 33.3862 28.9875L33.4037 28.9804C34.2909 31.423 33.6099 33.4196 32.2276 32.7733C29.9289 31.6989 31.3127 31.7709 30.7344 30.1811L30.7436 30.162C29.772 28.2812 26.9247 29.3066 27.392 31.3584L27.4091 31.3662C28.0243 33.0615 29.4819 32.2724 29.4714 33.6127C29.4679 34.065 29.6357 35.7434 28.2508 35.486ZM4.38756 17.4712C3.1827 19.0734 2.92425 20.8766 3.01295 22.8396C4.16778 23.4447 4.23966 24.9085 3.44355 25.6916C4.76552 26.7163 5.75781 29.8772 6.48619 34.8665C6.76474 36.792 1.16993 37.0731 0.550787 35.7109C-0.305398 31.8883 -0.204026 28.5907 1.14197 25.963C0.0581377 25.3962 -0.151592 24.003 0.728187 23.1591C0.621355 20.6991 0.805739 18.4333 2.2199 16.3444C1.26278 15.1027 1.68006 13.3831 3.09596 12.5136L22.6324 0.524152C23.3956 0.056867 24.2786 -0.103517 25.159 0.0653215L47.7102 4.41003C50.2796 4.90765 50.8371 7.92245 48.6101 9.28984C47.7351 9.82692 43.6648 12.3589 39.5099 14.9289C52.3846 23.3015 50.5735 42.6517 36.3194 48.5084C20.5637 54.9817 4.67856 39.2245 11.2038 23.5923C11.849 22.047 12.6966 20.5927 13.7208 19.2688L4.38756 17.4712ZM35.8064 17.215C32.4446 19.2844 29.7093 20.9488 29.5584 20.9761C28.1423 21.7518 27.6168 22.0407 25.6915 21.5747L18.0909 20.1109C8.44805 29.7036 15.3244 46.1297 28.9711 46.1297C42.6303 46.1297 49.4966 29.6787 39.8407 20.0987C38.6607 18.929 37.2977 17.9515 35.8064 17.215ZM24.0488 4.086L8.31325 13.7412C8.0288 13.917 8.10592 14.35 8.43734 14.4129L25.2172 17.6479C26.2562 17.8486 26.8509 18.1479 27.8681 17.5907L43.3928 8.06225C43.6794 7.88626 43.5995 7.45431 43.2689 7.39124L25.1079 3.89289C24.7289 3.82006 24.3778 3.88444 24.0488 4.086ZM35.8934 21.192C44.5341 27.2636 41.4178 40.8253 30.9789 42.5778C20.5388 44.3301 13.0755 32.6779 19.209 24.0119C20.4774 22.2193 22.7039 24.4495 22.8273 25.1747C23.0582 26.5295 20.4097 27.8391 21.1569 32.1931C22.1103 37.75 28.44 40.4952 33.1957 37.53C37.9559 34.5616 38.1679 27.717 33.5535 24.4612C31.7505 23.189 34.0049 20.9943 34.728 20.8733C35.1932 20.7958 35.5263 20.9301 35.8934 21.192Z" fill="#130933"/>
</svg>
