<svg width="48" height="48" viewBox="0 0 48 48" fill="none" xmlns="http://www.w3.org/2000/svg">
<path fill-rule="evenodd" clip-rule="evenodd" d="M24 45C35.598 45 45 35.598 45 24C45 12.402 35.598 3 24 3C12.402 3 3 12.402 3 24C3 35.598 12.402 45 24 45ZM24 48C37.2548 48 48 37.2548 48 24C48 10.7452 37.2548 0 24 0C10.7452 0 0 10.7452 0 24C0 37.2548 10.7452 48 24 48Z" fill="#6236FF" fill-opacity="0.8"/>
<path d="M24 22C26.2091 22 28 20.2091 28 18C28 15.7909 26.2091 14 24 14C21.7909 14 20 15.7909 20 18C20 20.2091 21.7909 22 24 22Z" stroke="#693DFF" stroke-width="1.5"/>
<path d="M32 29.5C32 31.985 32 34 24 34C16 34 16 31.985 16 29.5C16 27.015 19.582 25 24 25C28.418 25 32 27.015 32 29.5Z" stroke="#693DFF" stroke-width="1.5"/>
</svg>
