<svg width="94" height="93" viewBox="0 0 94 93" fill="none" xmlns="http://www.w3.org/2000/svg">
<ellipse cx="47" cy="46.5" rx="24" ry="23.5" fill="white"/>
<g filter="url(#filter0_ddif_515_23086)">
<circle cx="47" cy="46.5" r="22.4681" stroke="#6236FF" stroke-opacity="0.8" stroke-width="3.06383"/>
</g>
<g filter="url(#filter1_ddif_515_23086)">
<path d="M46.5 34.9167C46.9577 34.9167 47.3761 35.1664 47.5808 35.5617L50.6969 41.5791L57.5489 42.5414C58.004 42.6053 58.3821 42.9131 58.5242 43.3354C58.6663 43.7577 58.5478 44.2213 58.2185 44.5312L53.2316 49.2259L54.3534 55.845C54.4275 56.2825 54.2385 56.7227 53.8655 56.9812C53.4926 57.2397 53.0001 57.2718 52.5946 57.064L46.5 53.9416L40.4054 57.064C39.9999 57.2718 39.5074 57.2397 39.1344 56.9812C38.7615 56.7227 38.5724 56.2825 38.6466 55.845L39.7684 49.2259L34.7815 44.5312C34.4522 44.2213 34.3337 43.7577 34.4758 43.3354C34.6179 42.9131 34.996 42.6053 35.4511 42.5414L42.303 41.5791L45.4192 35.5617C45.6239 35.1664 46.0423 34.9167 46.5 34.9167ZM46.5 38.6922L44.1823 43.1677C44.0055 43.5091 43.6668 43.7455 43.2755 43.8004L38.221 44.5103L41.906 47.9793C42.1884 48.2452 42.3187 48.6273 42.255 49.0031L41.425 53.9002L45.9336 51.5903C46.2878 51.4089 46.7122 51.4089 47.0664 51.5903L51.575 53.9002L50.745 49.0031C50.6813 48.6273 50.8116 48.2452 51.094 47.9793L54.779 44.5103L49.7245 43.8004C49.3332 43.7455 48.9945 43.5091 48.8177 43.1677L46.5 38.6922Z" fill="url(#paint0_linear_515_23086)"/>
<path d="M46.5 34.9167C46.9577 34.9167 47.3761 35.1664 47.5808 35.5617L50.6969 41.5791L57.5489 42.5414C58.004 42.6053 58.3821 42.9131 58.5242 43.3354C58.6663 43.7577 58.5478 44.2213 58.2185 44.5312L53.2316 49.2259L54.3534 55.845C54.4275 56.2825 54.2385 56.7227 53.8655 56.9812C53.4926 57.2397 53.0001 57.2718 52.5946 57.064L46.5 53.9416L40.4054 57.064C39.9999 57.2718 39.5074 57.2397 39.1344 56.9812C38.7615 56.7227 38.5724 56.2825 38.6466 55.845L39.7684 49.2259L34.7815 44.5312C34.4522 44.2213 34.3337 43.7577 34.4758 43.3354C34.6179 42.9131 34.996 42.6053 35.4511 42.5414L42.303 41.5791L45.4192 35.5617C45.6239 35.1664 46.0423 34.9167 46.5 34.9167ZM46.5 38.6922L44.1823 43.1677C44.0055 43.5091 43.6668 43.7455 43.2755 43.8004L38.221 44.5103L41.906 47.9793C42.1884 48.2452 42.3187 48.6273 42.255 49.0031L41.425 53.9002L45.9336 51.5903C46.2878 51.4089 46.7122 51.4089 47.0664 51.5903L51.575 53.9002L50.745 49.0031C50.6813 48.6273 50.8116 48.2452 51.094 47.9793L54.779 44.5103L49.7245 43.8004C49.3332 43.7455 48.9945 43.5091 48.8177 43.1677L46.5 38.6922Z" fill="#6236FF"/>
</g>
<defs>
<filter id="filter0_ddif_515_23086" x="0.824913" y="0.324913" width="92.3502" height="92.3502" filterUnits="userSpaceOnUse" color-interpolation-filters="sRGB">
<feFlood flood-opacity="0" result="BackgroundImageFix"/>
<feColorMatrix in="SourceAlpha" type="matrix" values="0 0 0 0 0 0 0 0 0 0 0 0 0 0 0 0 0 0 127 0" result="hardAlpha"/>
<feOffset/>
<feGaussianBlur stdDeviation="11.0875"/>
<feColorMatrix type="matrix" values="0 0 0 0 0.384314 0 0 0 0 0.211765 0 0 0 0 1 0 0 0 0.4 0"/>
<feBlend mode="normal" in2="BackgroundImageFix" result="effect1_dropShadow_515_23086"/>
<feColorMatrix in="SourceAlpha" type="matrix" values="0 0 0 0 0 0 0 0 0 0 0 0 0 0 0 0 0 0 127 0" result="hardAlpha"/>
<feOffset/>
<feGaussianBlur stdDeviation="2.86402"/>
<feColorMatrix type="matrix" values="0 0 0 0 0.384314 0 0 0 0 0.211765 0 0 0 0 1 0 0 0 0.5 0"/>
<feBlend mode="normal" in2="effect1_dropShadow_515_23086" result="effect2_dropShadow_515_23086"/>
<feBlend mode="normal" in="SourceGraphic" in2="effect2_dropShadow_515_23086" result="shape"/>
<feColorMatrix in="SourceAlpha" type="matrix" values="0 0 0 0 0 0 0 0 0 0 0 0 0 0 0 0 0 0 127 0" result="hardAlpha"/>
<feOffset/>
<feGaussianBlur stdDeviation="1.10875"/>
<feComposite in2="hardAlpha" operator="arithmetic" k2="-1" k3="1"/>
<feColorMatrix type="matrix" values="0 0 0 0 0.384314 0 0 0 0 0.211765 0 0 0 0 1 0 0 0 0.4 0"/>
<feBlend mode="normal" in2="shape" result="effect3_innerShadow_515_23086"/>
<feGaussianBlur stdDeviation="0.204573" result="effect4_foregroundBlur_515_23086"/>
</filter>
<filter id="filter1_ddif_515_23086" x="12.7035" y="13.2036" width="67.593" height="65.7095" filterUnits="userSpaceOnUse" color-interpolation-filters="sRGB">
<feFlood flood-opacity="0" result="BackgroundImageFix"/>
<feColorMatrix in="SourceAlpha" type="matrix" values="0 0 0 0 0 0 0 0 0 0 0 0 0 0 0 0 0 0 127 0" result="hardAlpha"/>
<feOffset/>
<feGaussianBlur stdDeviation="10.8566"/>
<feColorMatrix type="matrix" values="0 0 0 0 0.384314 0 0 0 0 0.211765 0 0 0 0 1 0 0 0 0.1 0"/>
<feBlend mode="normal" in2="BackgroundImageFix" result="effect1_dropShadow_515_23086"/>
<feColorMatrix in="SourceAlpha" type="matrix" values="0 0 0 0 0 0 0 0 0 0 0 0 0 0 0 0 0 0 127 0" result="hardAlpha"/>
<feOffset/>
<feGaussianBlur stdDeviation="2.805"/>
<feColorMatrix type="matrix" values="0 0 0 0 0.384314 0 0 0 0 0.211765 0 0 0 0 1 0 0 0 0.4 0"/>
<feBlend mode="normal" in2="effect1_dropShadow_515_23086" result="effect2_dropShadow_515_23086"/>
<feBlend mode="normal" in="SourceGraphic" in2="effect2_dropShadow_515_23086" result="shape"/>
<feColorMatrix in="SourceAlpha" type="matrix" values="0 0 0 0 0 0 0 0 0 0 0 0 0 0 0 0 0 0 127 0" result="hardAlpha"/>
<feOffset/>
<feGaussianBlur stdDeviation="1.08566"/>
<feComposite in2="hardAlpha" operator="arithmetic" k2="-1" k3="1"/>
<feColorMatrix type="matrix" values="0 0 0 0 0.384314 0 0 0 0 0.211765 0 0 0 0 1 0 0 0 0.4 0"/>
<feBlend mode="normal" in2="shape" result="effect3_innerShadow_515_23086"/>
<feGaussianBlur stdDeviation="0.200311" result="effect4_foregroundBlur_515_23086"/>
</filter>
<linearGradient id="paint0_linear_515_23086" x1="46.5" y1="34.9167" x2="46.5" y2="57.2001" gradientUnits="userSpaceOnUse">
<stop stop-color="white"/>
<stop offset="1" stop-color="white" stop-opacity="0"/>
</linearGradient>
</defs>
</svg>
