<svg width="131" height="132" viewBox="0 0 131 132" fill="none" xmlns="http://www.w3.org/2000/svg">
<g id="streamline:piggy-bank-solid">
<path id="Vector" opacity="0.5" d="M14.4969 101.222C14.3806 100.838 14.2604 100.455 14.1362 100.074C14.1358 100.073 14.1355 100.072 14.1351 100.07L13.9502 99.4878L13.9494 99.4852C13.5277 98.169 13.1177 96.849 12.7195 95.5255L12.7153 95.5114L12.7106 95.4974L12.6687 95.3717C9.45714 84.6382 3.64236 65.1329 12.0092 46.5756L12.0092 46.5756C12.633 45.1919 13.3342 43.8444 14.1094 42.5395L14.5554 41.7889L13.8718 41.2457C9.55591 37.8168 5.26237 33.0308 2.8907 26.6718C2.50813 25.4875 2.59556 24.2012 3.13537 23.0793C3.67794 21.9517 4.63552 21.0775 5.8078 20.6397C6.98008 20.2018 8.27626 20.2342 9.42521 20.73C10.5684 21.2234 11.4778 22.1376 11.9652 23.2829C13.5934 27.6106 16.6382 31.0931 20.0339 33.7577L20.6953 34.2767L21.3202 33.7142C24.4029 30.9394 27.8741 28.6294 31.624 26.8573L31.6283 26.8552C40.7705 22.4812 52.8848 20.1816 68.7316 20.7207L69.7656 20.7559V19.9571C76.2104 7.73362 89.4042 4.55426 96.352 4.86925L96.3521 4.86925C98.6166 4.97163 100.228 6.01377 101.294 7.41519C102.38 8.84229 102.902 10.6487 102.902 12.1981V28.6012V29.2177L103.452 29.4946C109.829 32.7013 114.049 36.9501 116.637 42.2071C119.192 47.4159 119.989 53.3105 120.128 59.4649L120.139 59.9242L120.494 60.2156L126.997 65.5491L126.997 65.5492C127.419 65.8946 127.758 66.3291 127.991 66.8215C128.224 67.3139 128.344 67.8518 128.344 68.3965V68.3971L128.344 89.1573C128.344 89.1581 128.344 89.1588 128.344 89.1595C128.342 89.6927 128.224 90.2192 127.998 90.7023L127.997 90.7041C123.022 101.408 114.206 107.234 103.537 111.407L102.902 111.656V112.338V118.299C102.902 120.515 102.021 122.641 100.454 124.208C98.8867 125.775 96.761 126.656 94.5445 126.656H78.1695C75.9531 126.656 73.8274 125.775 72.2602 124.208C70.6929 122.641 69.8124 120.515 69.8124 118.299V113.77V112.77H68.8124H48.7881H47.7881V113.77V117.569C47.7881 119.785 46.9076 121.911 45.3404 123.478C43.7731 125.046 41.6474 125.926 39.431 125.926H22.8969C20.6805 125.926 18.5548 125.046 16.9875 123.478C15.4202 121.911 14.5398 119.785 14.5398 117.569V101.512V101.364L14.4969 101.222ZM63.1607 52.966C66.9412 52.966 70.0089 49.8983 70.0089 46.1178C70.0089 42.3383 66.9516 39.2696 63.1607 39.2696H45.8125C43.9963 39.2696 42.2544 39.9911 40.9701 41.2754C39.6858 42.5596 38.9643 44.3015 38.9643 46.1178C38.9643 47.934 39.6858 49.6759 40.9701 50.9602C42.2544 52.2445 43.9963 52.966 45.8125 52.966H63.1607ZM91.967 65.9898C93.0733 66.0464 94.1795 65.8774 95.2184 65.493C96.2573 65.1086 97.2071 64.5169 98.0102 63.7539C98.8132 62.9909 99.4526 62.0725 99.8895 61.0547C100.326 60.0368 100.552 58.9406 100.552 57.8329C100.552 56.7252 100.326 55.6291 99.8895 54.6112C99.4526 53.5933 98.8132 52.6749 98.0101 51.9119C97.2071 51.1489 96.2573 50.5572 95.2184 50.1728C94.1795 49.7885 93.0733 49.6194 91.967 49.676C89.8758 49.783 87.9056 50.689 86.4632 52.207C85.0209 53.725 84.2167 55.739 84.2167 57.8329C84.2167 59.9269 85.0209 61.9408 86.4632 63.4588C87.9056 64.9768 89.8758 65.8829 91.967 65.9898Z" stroke="#45167A" stroke-width="2"/>
</g>
</svg>
