<svg width="133" height="107" viewBox="0 0 133 107" fill="none" xmlns="http://www.w3.org/2000/svg">
<g id="fa-solid:user-friends">
<path id="Vector" opacity="0.5" d="M62.175 30.0615C62.175 42.3209 52.2149 52.249 39.9 52.249C27.5851 52.249 17.625 42.3209 17.625 30.0615C17.625 17.8021 27.5851 7.87402 39.9 7.87402C52.2149 7.87402 62.175 17.8021 62.175 30.0615ZM39.9 64.1865C45.0954 64.1865 49.9713 62.9432 54.3607 60.874H55.86C68.5281 60.874 78.8 71.1127 78.8 83.724V89.6865C78.8 94.617 74.7833 98.624 69.825 98.624H9.975C5.0167 98.624 1 94.617 1 89.6865V83.724C1 71.1127 11.2719 60.874 23.94 60.874H25.4403C29.8474 62.9425 34.703 64.1865 39.9 64.1865ZM118.7 33.374C118.7 43.7908 110.215 52.249 99.75 52.249C89.2847 52.249 80.8 43.7908 80.8 33.374C80.8 22.9572 89.2847 14.499 99.75 14.499C110.215 14.499 118.7 22.9572 118.7 33.374ZM99.75 62.5303C103.069 62.5303 106.183 61.8638 109.101 60.874H109.725C122.04 60.874 132 70.8021 132 83.0615C132 87.992 127.983 91.999 123.025 91.999H87.4377C87.4452 91.8947 87.45 91.7857 87.45 91.674V83.724C87.45 75.9214 84.5178 68.832 79.7893 63.3387C82.8127 61.7983 86.1728 60.874 89.775 60.874H90.3986C93.3167 61.8638 96.4306 62.5303 99.75 62.5303Z" stroke="#45167A" stroke-width="2"/>
</g>
</svg>
