<svg width="133" height="144" viewBox="0 0 133 144" fill="none" xmlns="http://www.w3.org/2000/svg">
<path id="Vector" opacity="0.5" d="M59.6475 2.4934L60.5989 2.80122C60.6219 2.73032 60.662 2.66576 60.7657 2.59543C62.0643 1.72184 64.2391 1.13352 66.2483 1.26812C68.259 1.40282 69.7716 2.21542 70.3075 3.77967C74.2324 15.2993 78.6094 25.627 86.5319 33.2151L86.5325 33.2158C91.3608 37.8319 97.2988 42.4359 102.481 46.4544C104.939 48.3598 107.226 50.1335 109.145 51.7144C132.162 70.6872 139.412 101.186 123.39 125.879L123.39 125.879C122.815 126.766 121.86 127.177 120.591 127.158C119.301 127.138 117.8 126.663 116.43 125.896C115.057 125.127 113.925 124.125 113.314 123.161C112.705 122.199 112.72 121.498 113.107 120.979L113.107 120.978C125.075 104.902 121.035 82.4021 109.78 67.5197C104.582 60.6443 97.8419 55.3151 91.2768 50.124C89.6077 48.8043 87.9499 47.4935 86.3316 46.1684C78.2925 39.5862 71.131 32.5958 67.6755 22.2464L67.6722 22.237C67.473 21.6595 67.0615 21.2378 66.5117 21.0038L66.5079 21.0022C65.692 20.6589 64.8542 20.6605 64.1364 21.0532C63.444 21.432 63.0049 22.0968 62.7855 22.8112C59.5737 33.1804 51.7872 40.4603 43.1531 47.3881C41.7084 48.5473 40.2378 49.6978 38.7625 50.852C31.5019 56.5321 24.1287 62.3002 19.1742 69.6294L19.1741 69.6295C3.03409 93.5125 15.5808 126.174 46.7769 132.369C61.4776 135.292 77.5664 130.549 86.6028 119.436L85.827 118.805L86.6028 119.436C98.1733 105.206 93.8893 81.4066 74.4766 74.5617C69.8452 72.9256 65.4524 72.4891 61.3219 73.3064L61.3208 73.3067C52.8924 74.9851 47.0538 80.8207 45.6518 87.2371C44.9488 90.4547 45.3695 93.8074 47.146 96.7891C48.9209 99.7682 52.0028 102.301 56.4942 103.98C57.769 104.457 58.9454 104.761 59.9474 105.02C60.0726 105.052 60.1951 105.084 60.3148 105.115C61.4287 105.405 62.2315 105.643 62.8399 106.003C63.392 106.329 63.7863 106.758 64.0377 107.502C64.3063 108.297 64.423 109.49 64.2757 111.344L64.2756 111.344C64.1415 113.035 63.6041 113.762 62.9475 114.118C62.1877 114.531 60.9808 114.619 59.154 114.357C51.7849 113.292 45.7717 110.642 41.5996 106.627C37.4442 102.628 35.0488 97.2139 34.9977 90.4618L34.9977 90.461C34.8915 77.7594 43.3564 69.0621 54.4128 65.5235C65.4937 61.977 78.9994 63.6906 88.625 71.7191C95.443 77.4064 99.8838 83.6575 102.025 90.463C104.165 97.2649 104.034 104.703 101.572 112.814C97.9599 124.694 88.7499 133.217 77.2649 137.949C65.7737 142.684 52.0732 143.588 39.6501 140.264C2.65102 130.362 -9.51195 90.69 10.7206 62.5243L10.7206 62.5242C15.8209 55.4231 22.8471 50.0957 30.0209 44.6565C30.8644 44.017 31.71 43.3759 32.5547 42.7301C40.5288 36.6345 48.3904 30.1479 53.1797 20.7493C56.1382 14.9463 58.6115 8.96322 60.5992 2.80037L59.6475 2.4934ZM59.6475 2.4934C57.6761 8.6054 55.2232 14.5393 52.2887 20.2952L71.2539 3.45661C69.8091 -0.763993 63.2113 -0.25612 60.2061 1.76662C59.93 1.95342 59.7438 2.19568 59.6475 2.4934Z" stroke="#45167A" stroke-width="2"/>
</svg>
