<svg width="134" height="135" viewBox="0 0 134 135" fill="none" xmlns="http://www.w3.org/2000/svg">
<g id="mingcute:time-fill" clip-path="url(#clip0_2297_48599)">
<g id="Group">
<path id="Vector" opacity="0.5" d="M60.4167 67.2489V67.2491C60.4171 68.9949 61.1109 70.6691 62.3455 71.9034C62.3455 71.9034 62.3456 71.9035 62.3456 71.9035L79.0955 88.6534L79.1016 88.6595L79.1079 88.6656C80.3495 89.8648 82.0125 90.5283 83.7386 90.5133C85.4647 90.4983 87.1159 89.806 88.3365 88.5854C89.5571 87.3648 90.2495 85.7136 90.2645 83.9874C90.2795 82.2613 89.6159 80.5984 88.4167 79.3567L88.4107 79.3505L88.4045 79.3443L73.5834 64.5231V39.3322C73.5834 37.5862 72.8897 35.9117 71.6551 34.6771C70.4205 33.4425 68.746 32.7489 67 32.7489C65.254 32.7489 63.5795 33.4425 62.3449 34.6771C61.1103 35.9117 60.4167 37.5862 60.4167 39.3322V67.2489ZM67 12.4155C97.2845 12.4155 121.833 36.9644 121.833 67.2489C121.833 97.5333 97.2845 122.082 67 122.082C36.7156 122.082 12.1667 97.5333 12.1667 67.2489C12.1667 36.9644 36.7156 12.4155 67 12.4155Z" stroke="#45167A" stroke-width="2"/>
</g>
</g>
<defs>
<clipPath id="clip0_2297_48599">
<rect width="134" height="134" fill="white" transform="translate(0 0.249023)"/>
</clipPath>
</defs>
</svg>
