<svg width="29" height="29" viewBox="0 0 29 29" fill="none" xmlns="http://www.w3.org/2000/svg">
<g id="icon">
<path id="Vector" d="M17.0206 14.119C19.088 16.006 19.7473 18.2987 18.9985 20.9972C17.8896 24.9878 13.3508 26.6895 9.58329 25.5865C3.96292 23.9405 2.11005 17.3352 5.18668 12.6488C6.9189 10.0098 10.1119 8.84821 11.5065 5.85346C11.9441 4.91427 12.3099 3.94603 12.6039 2.94874C12.6183 2.90016 12.646 2.86063 12.6872 2.83015C13.1353 2.5001 14.1192 2.41723 14.3347 3.1059C14.9193 4.98333 15.5628 6.63501 16.7161 7.84377C17.7733 8.94965 19.1766 10.0398 20.08 10.8542C23.5603 13.9933 24.672 19.0598 22.2345 23.1704C21.7476 23.9919 20.0183 22.8275 20.4563 22.1845C22.1886 19.6384 21.614 16.0493 19.9608 13.6575C18.0447 10.8842 14.7182 9.69262 13.6596 6.22352C13.6443 6.17494 13.6141 6.14017 13.5691 6.11922C13.3953 6.03921 13.2632 6.13779 13.2143 6.3121C12.2276 9.79835 8.4371 11.17 6.69195 13.9947C4.34642 17.7924 6.16338 22.9918 10.7137 23.9805C12.861 24.4477 15.2008 23.6862 16.5079 21.9273C18.1769 19.6813 17.5506 15.9364 14.7656 14.862C14.0953 14.6029 13.4676 14.5367 12.8826 14.6634C10.4695 15.1892 9.60771 18.3011 12.1859 19.3555C13.0061 19.6913 13.5332 19.477 13.4427 20.7229C13.3982 21.3373 13.0635 21.4501 12.5091 21.363C10.267 21.0086 8.79475 19.5898 8.77895 17.3038C8.74591 12.9817 14.0618 11.4186 17.0206 14.119Z" fill="white"/>
</g>
</svg>
