<svg width="48" height="48" viewBox="0 0 48 48" fill="none" xmlns="http://www.w3.org/2000/svg">
<path d="M41.3288 10.5052C42.1543 11.239 42.2287 12.5032 41.4948 13.3287L20.1615 37.3287C19.782 37.7557 19.238 38 18.6667 38C18.0954 38 17.5514 37.7557 17.1719 37.3287L6.5052 25.3287C5.77137 24.5032 5.84573 23.239 6.67129 22.5052C7.49686 21.7714 8.761 21.8457 9.49484 22.6713L18.6667 32.9896L38.5052 10.6713C39.239 9.84573 40.5032 9.77137 41.3288 10.5052Z" fill="url(#paint0_linear_233_28318)"/>
<path d="M41.3288 10.5052C42.1543 11.239 42.2287 12.5032 41.4948 13.3287L20.1615 37.3287C19.782 37.7557 19.238 38 18.6667 38C18.0954 38 17.5514 37.7557 17.1719 37.3287L6.5052 25.3287C5.77137 24.5032 5.84573 23.239 6.67129 22.5052C7.49686 21.7714 8.761 21.8457 9.49484 22.6713L18.6667 32.9896L38.5052 10.6713C39.239 9.84573 40.5032 9.77137 41.3288 10.5052Z" fill="white" fill-opacity="0.8"/>
<defs>
<linearGradient id="paint0_linear_233_28318" x1="24" y1="10" x2="24" y2="38" gradientUnits="userSpaceOnUse">
<stop stop-color="white"/>
<stop offset="1" stop-color="white" stop-opacity="0"/>
</linearGradient>
</defs>
</svg>
