<svg width="24" height="24" viewBox="0 0 24 24" fill="none" xmlns="http://www.w3.org/2000/svg">
<g id="ph:crown">
<path id="Vector" d="M22.86 7.14291C22.6908 6.99539 22.4816 6.90148 22.2589 6.8731C22.0362 6.84472 21.8102 6.88316 21.6094 6.98353L16.9022 9.32728L12.9722 2.79947C12.8712 2.63196 12.7286 2.4934 12.5582 2.39721C12.3879 2.30103 12.1956 2.25049 12 2.25049C11.8044 2.25049 11.6121 2.30103 11.4418 2.39721C11.2714 2.4934 11.1288 2.63196 11.0278 2.79947L7.09781 9.33009L2.3925 6.98634C2.19219 6.88686 1.96697 6.84876 1.74509 6.87682C1.52321 6.90488 1.31455 6.99784 1.14531 7.14405C0.976076 7.29025 0.853789 7.48319 0.7938 7.69864C0.733812 7.91409 0.738794 8.14246 0.808121 8.35509L4.27687 18.9826C4.31175 19.0894 4.37016 19.1869 4.44779 19.2681C4.52542 19.3493 4.62029 19.412 4.7254 19.4516C4.83051 19.4912 4.94317 19.5066 5.05506 19.4969C5.16695 19.4871 5.27522 19.4523 5.37187 19.3951C5.39531 19.381 7.7925 18.0001 12 18.0001C16.2075 18.0001 18.6047 19.381 18.6262 19.3942C18.7229 19.4519 18.8314 19.4872 18.9436 19.4973C19.0557 19.5074 19.1687 19.4921 19.2742 19.4526C19.3797 19.4131 19.4749 19.3503 19.5527 19.2689C19.6306 19.1875 19.6892 19.0897 19.7241 18.9826L23.1928 8.3579C23.2641 8.14522 23.2706 7.91612 23.2113 7.69976C23.152 7.4834 23.0297 7.28956 22.86 7.14291ZM18.5625 17.7029C17.4375 17.2257 15.195 16.5001 12 16.5001C8.805 16.5001 6.5625 17.2257 5.4375 17.7029L2.50406 8.71884L6.72937 10.8254C6.98513 10.9515 7.27884 10.9773 7.55266 10.8977C7.82648 10.818 8.06054 10.6387 8.20875 10.3951L12 4.09322L15.7912 10.3932C15.9396 10.6364 16.1735 10.8154 16.447 10.8951C16.7206 10.9747 17.014 10.9492 17.2697 10.8235L21.4959 8.71884L18.5625 17.7029ZM16.4878 14.7029C16.4572 14.8764 16.3665 15.0336 16.2316 15.1469C16.0967 15.2602 15.9262 15.3224 15.75 15.3226C15.706 15.3225 15.6621 15.3188 15.6187 15.3113C13.2231 14.9001 10.775 14.9001 8.37937 15.3113C8.18344 15.3459 7.98181 15.3012 7.81883 15.1871C7.65585 15.073 7.54487 14.8988 7.51031 14.7029C7.47575 14.507 7.52043 14.3053 7.63454 14.1424C7.74864 13.9794 7.92282 13.8684 8.11875 13.8338C10.6868 13.3926 13.3113 13.3926 15.8794 13.8338C16.0749 13.8682 16.2489 13.9786 16.3631 14.141C16.4773 14.3034 16.5225 14.5045 16.4887 14.7001L16.4878 14.7029Z" fill="#F4B740"/>
</g>
</svg>
