<svg width="48" height="48" viewBox="0 0 48 48" fill="none" xmlns="http://www.w3.org/2000/svg">
<path fill-rule="evenodd" clip-rule="evenodd" d="M24 45C35.598 45 45 35.598 45 24C45 12.402 35.598 3 24 3C12.402 3 3 12.402 3 24C3 35.598 12.402 45 24 45ZM24 48C37.2548 48 48 37.2548 48 24C48 10.7452 37.2548 0 24 0C10.7452 0 0 10.7452 0 24C0 37.2548 10.7452 48 24 48Z" fill="#6236FF" fill-opacity="0.8"/>
<path d="M24 36C17.3724 36 12 30.6276 12 24C12 17.3724 17.3724 12 24 12C30.6276 12 36 17.3724 36 24C36 30.6276 30.6276 36 24 36ZM24 33.6C26.5461 33.6 28.9879 32.5886 30.7882 30.7882C32.5886 28.9879 33.6 26.5461 33.6 24C33.6 21.4539 32.5886 19.0121 30.7882 17.2118C28.9879 15.4114 26.5461 14.4 24 14.4C21.4539 14.4 19.0121 15.4114 17.2118 17.2118C15.4114 19.0121 14.4 21.4539 14.4 24C14.4 26.5461 15.4114 28.9879 17.2118 30.7882C19.0121 32.5886 21.4539 33.6 24 33.6ZM22.8 28.8H19.2V19.2H22.8V16.8H25.2V19.2H26.4C26.9571 19.2 27.5033 19.3551 27.9772 19.648C28.4511 19.941 28.8341 20.36 29.0833 20.8584C29.3324 21.3567 29.4379 21.9145 29.3879 22.4694C29.3378 23.0243 29.1343 23.5543 28.8 24C29.1343 24.4457 29.3378 24.9757 29.3879 25.5306C29.4379 26.0855 29.3324 26.6433 29.0833 27.1416C28.8341 27.64 28.4511 28.059 27.9772 28.352C27.5033 28.6449 26.9571 28.8 26.4 28.8H25.2V31.2H22.8V28.8ZM21.6 25.2V26.4H26.4C26.5591 26.4 26.7117 26.3368 26.8243 26.2243C26.9368 26.1117 27 25.9591 27 25.8C27 25.6409 26.9368 25.4883 26.8243 25.3757C26.7117 25.2632 26.5591 25.2 26.4 25.2H21.6ZM21.6 21.6V22.8H26.4C26.5591 22.8 26.7117 22.7368 26.8243 22.6243C26.9368 22.5117 27 22.3591 27 22.2C27 22.0409 26.9368 21.8883 26.8243 21.7757C26.7117 21.6632 26.5591 21.6 26.4 21.6H21.6Z" fill="#663AFF"/>
</svg>
