<svg width="48" height="48" viewBox="0 0 48 48" fill="none" xmlns="http://www.w3.org/2000/svg">
<path fill-rule="evenodd" clip-rule="evenodd" d="M24 45C35.598 45 45 35.598 45 24C45 12.402 35.598 3 24 3C12.402 3 3 12.402 3 24C3 35.598 12.402 45 24 45ZM24 48C37.2548 48 48 37.2548 48 24C48 10.7452 37.2548 0 24 0C10.7452 0 0 10.7452 0 24C0 37.2548 10.7452 48 24 48Z" fill="#6236FF" fill-opacity="0.8"/>
<path d="M29.0004 14.4562C29.7414 14.5972 30.1814 14.7532 30.5604 15.2212C31.0374 15.8072 31.0124 16.4402 30.9614 17.7062C30.7814 22.2592 29.7614 28.0002 24.0014 28.0002C18.2414 28.0002 17.2204 22.2602 17.0384 17.7062C16.9884 16.4402 16.9634 15.8062 17.4384 15.2212C17.9144 14.6352 18.4834 14.5392 19.6224 14.3472C21.0695 14.1101 22.534 13.994 24.0004 14.0002C24.7184 14.0002 25.3864 14.0252 26.0004 14.0682" stroke="#683CFF" stroke-width="1.5" stroke-linecap="round"/>
<path d="M31 17L31.949 17.316C32.939 17.646 33.434 17.811 33.717 18.204C34 18.597 34 19.119 34 20.162V20.235C34 21.095 34 21.526 33.793 21.878C33.586 22.23 33.209 22.439 32.457 22.858L29.5 24.5M17 17L16.051 17.316C15.061 17.646 14.566 17.811 14.283 18.204C14 18.597 14 19.12 14 20.162V20.235C14 21.095 14 21.526 14.207 21.878C14.414 22.23 14.791 22.439 15.543 22.858L18.5 24.5" stroke="#683CFF" stroke-width="1.5"/>
<path d="M24 29V31" stroke="#683CFF" stroke-width="1.5" stroke-linecap="round"/>
<path d="M27.5 34H20.5L20.84 32.304C20.8853 32.0774 21.0077 31.8735 21.1863 31.7269C21.365 31.5803 21.5889 31.5001 21.82 31.5H26.18C26.4111 31.5001 26.635 31.5803 26.8137 31.7269C26.9923 31.8735 27.1147 32.0774 27.16 32.304L27.5 34Z" stroke="#683CFF" stroke-width="1.5" stroke-linecap="round" stroke-linejoin="round"/>
<path d="M30 34H18" stroke="#683CFF" stroke-width="1.5" stroke-linecap="round"/>
</svg>
