<svg width="273" height="346" viewBox="0 0 273 346" fill="none" xmlns="http://www.w3.org/2000/svg">
<g clip-path="url(#clip0_20_979)">
<g opacity="0.4">
<path d="M362.17 92.1772L337.156 77.7344C335.007 76.4935 332.362 76.4935 330.213 77.7344L305.199 92.1772C303.049 93.418 301.727 95.7099 301.727 98.1916C301.727 98.9046 301.727 114.598 301.727 113.668C301.727 113.674 301.724 113.679 301.724 113.685C301.724 113.691 301.727 113.696 301.727 113.702V115.927L242.072 148.865L205.947 128.712V86.0411C207.863 84.9348 228.789 72.8522 227.486 73.6049C229.457 72.467 230.799 70.225 230.912 67.9283C231.003 66.0978 230.957 38.0492 230.957 38.7456C230.957 36.2638 229.635 33.972 227.486 32.7311L202.472 18.2883C200.322 17.0475 197.678 17.0475 195.528 18.2883L170.514 32.7311C168.365 33.972 167.043 36.2638 167.043 38.7456V67.5905C167.043 69.6957 168.297 72.3249 170.514 73.6049L192.06 86.0453V128.708L155.924 148.866L96.273 115.961V98.1916C96.273 95.7099 94.9508 93.418 92.8013 92.1772L67.7874 77.7344C65.638 76.4935 62.9935 76.4935 60.844 77.7344L35.8302 92.1772C33.6807 93.418 32.3585 95.7099 32.3585 98.1916V127.037C32.3585 129.518 33.6807 131.81 35.8302 133.051L60.844 147.494C62.7902 148.617 65.7224 148.685 67.7874 147.494C68.5299 147.065 93.9956 132.361 92.8013 133.051C93.6654 132.552 94.3507 131.851 94.9152 131.069L149.003 160.906V207.092L94.9071 236.919C94.3435 236.141 93.6616 235.444 92.8013 234.947C92.0973 234.541 66.4258 219.718 67.7874 220.505C64.4201 218.558 61.5475 220.329 60.844 220.505L35.8302 234.947C33.6807 236.188 32.3585 238.48 32.3585 240.962V269.807C32.3585 272.288 33.6807 274.58 35.8302 275.821L60.844 290.264C61.9188 290.884 63.1156 291.193 64.3157 291.193C65.5159 291.193 66.7127 290.884 67.7874 290.264L92.8013 275.821C94.9508 274.58 96.273 272.288 96.273 269.807V252.021L155.926 219.13L192.06 239.29V281.953L170.514 294.393C168.238 295.708 167.043 298.406 167.043 300.408V329.253C167.043 331.734 168.365 334.026 170.514 335.264L195.528 349.71C196.603 350.33 197.8 350.642 199 350.642C200.2 350.642 201.397 350.33 202.472 349.71L227.486 335.264C229.635 334.026 230.957 331.734 230.957 329.253C230.957 328.554 230.951 299.682 230.953 300.381C230.945 298.315 229.717 295.682 227.486 294.393L205.947 281.957V239.286L242.07 219.132L301.727 252.055V254.343C301.727 254.349 301.724 254.354 301.724 254.36C301.724 254.366 301.727 254.371 301.727 254.377V267.728C301.727 267.74 301.724 267.751 301.724 267.762C301.724 267.773 301.727 267.784 301.727 267.795C301.87 268.527 300.836 273.303 305.199 275.821L330.213 290.264C331.287 290.884 332.484 291.193 333.684 291.193C334.884 291.193 336.081 290.884 337.156 290.264L362.17 275.821C364.319 274.58 365.642 272.288 365.642 269.807V240.962C365.642 238.48 364.319 236.188 362.17 234.947L337.156 220.505C334.541 218.988 332.661 219.56 330.213 220.505C329.511 220.91 303.942 235.673 305.467 234.793C304.77 235.149 303.679 235.927 302.991 236.89L248.997 207.092V160.906L302.996 131.091C303.659 131.96 304.649 132.734 305.199 133.051C305.931 133.474 331.29 148.116 330.213 147.494C332.163 148.621 335.077 148.692 337.156 147.494C358.987 133.717 365.642 133.904 365.642 127.037V98.1916C365.642 95.7099 364.319 93.418 362.17 92.1772ZM82.3862 123.029L64.3157 133.461L46.2453 123.029V102.199L64.3157 91.7669L82.3862 102.199C82.3862 104.312 82.3862 124.024 82.3862 123.029ZM82.3862 265.799L64.3157 276.231L46.2453 265.799V244.969L64.3157 234.537L82.3862 244.969C82.3862 247.323 82.3862 266.765 82.3862 265.799ZM180.93 63.5831C180.93 62.2028 180.93 41.7932 180.93 42.7529L199 32.3209L217.07 42.7529V63.5831L199 74.0152L180.93 63.5831ZM192.057 223.386L162.89 207.113V168.633L192.057 184.906V223.386ZM170.199 156.807L199 140.74L227.801 156.807L199 172.877L170.199 156.807ZM217.07 304.415V325.245L199 335.681L180.93 325.245C180.93 322.606 180.93 303.426 180.93 304.415C182.596 303.453 200.117 293.339 199 293.983C199.74 294.411 218.203 305.069 217.07 304.415ZM235.11 207.113L205.943 223.386V184.906L235.11 168.633V207.113ZM315.614 244.969L333.684 234.537L351.755 244.969V265.799L333.684 276.231L315.614 265.799V244.969ZM351.755 123.029L333.684 133.461L315.614 123.029V102.199L333.684 91.7669L351.755 102.199V123.029Z" fill="url(#paint0_linear_20_979)"/>
</g>
</g>
<defs>
<linearGradient id="paint0_linear_20_979" x1="199" y1="17.3577" x2="199" y2="350.642" gradientUnits="userSpaceOnUse">
<stop stop-color="white"/>
<stop offset="1" stop-color="white" stop-opacity="0"/>
</linearGradient>
<clipPath id="clip0_20_979">
<rect width="273" height="346" fill="white"/>
</clipPath>
</defs>
</svg>
