<svg width="273" height="346" viewBox="0 0 273 346" fill="none" xmlns="http://www.w3.org/2000/svg">
<g clip-path="url(#clip0_23_2726)">
<g clip-path="url(#clip1_23_2726)">
<path opacity="0.4" fill-rule="evenodd" clip-rule="evenodd" d="M174.475 121.219C175.697 121.419 176.949 121.129 177.96 120.413C178.97 119.698 179.658 118.613 179.875 117.394C181.501 108.186 185.843 99.6742 192.344 92.9534C198.845 86.2326 207.208 81.6097 216.357 79.6787C225.505 77.7478 235.023 78.5972 243.685 82.1177C252.348 85.6382 259.759 91.6689 264.967 99.4347C270.175 107.2 272.942 116.346 272.911 125.697C272.881 135.047 270.054 144.175 264.795 151.906C259.537 159.638 252.086 165.62 243.401 169.084C234.715 172.547 225.193 173.334 216.057 171.344C215.449 171.193 214.817 171.165 214.199 171.263C213.58 171.36 212.987 171.581 212.456 171.911C211.924 172.242 211.464 172.676 211.103 173.187C210.742 173.699 210.487 174.278 210.354 174.889C210.22 175.501 210.211 176.134 210.326 176.749C210.442 177.364 210.679 177.95 211.025 178.472C211.371 178.994 211.818 179.442 212.34 179.788C212.862 180.134 213.447 180.372 214.063 180.487C221.783 182.141 229.764 182.154 237.489 180.526C245.215 178.898 252.512 175.665 258.909 171.037C265.305 166.409 270.658 160.489 274.621 153.661C278.583 146.832 281.067 139.247 281.912 131.398C282.756 123.548 281.942 115.608 279.523 108.093C277.103 100.578 273.132 93.6549 267.866 87.7724C262.6 81.8899 256.158 77.1791 248.955 73.9453C241.753 70.7114 233.952 69.0266 226.057 68.9999C212.774 68.9807 199.915 73.6747 189.768 82.2468C179.621 90.8189 172.844 102.713 170.644 115.812C170.436 117.037 170.722 118.295 171.441 119.309C172.159 120.322 173.251 121.009 174.475 121.219ZM192.661 152.591C202.219 166.814 207.348 183.551 207.4 200.687C207.41 223.708 198.288 245.792 182.035 262.095C165.783 278.398 143.727 287.589 120.706 287.65C103.57 287.651 86.817 282.574 72.5641 273.059C58.3113 263.545 47.1977 250.02 40.627 234.193C34.0563 218.366 32.3232 200.947 35.6466 184.136C38.97 167.324 47.2008 151.875 59.2996 139.739C71.3983 127.602 86.8222 119.324 103.623 115.948C120.424 112.573 137.849 114.252 153.696 120.774C169.543 127.296 183.102 138.367 192.661 152.591ZM77.5212 265.34C90.3177 273.835 105.347 278.341 120.706 278.287C141.244 278.228 160.92 270.024 175.417 255.477C189.914 240.929 198.049 221.225 198.038 200.687C198.038 185.328 193.48 170.314 184.941 157.547C176.402 144.78 164.267 134.834 150.071 128.969C135.876 123.104 120.26 121.583 105.2 124.599C90.1393 127.615 76.3128 135.032 65.471 145.912C54.6293 156.791 47.2599 170.643 44.2961 185.714C41.3323 200.784 42.9074 216.396 48.822 230.57C54.7366 244.745 64.7246 256.846 77.5212 265.34ZM149.902 166.903C153.315 171.118 155.178 176.377 155.181 181.8C155.182 185.491 154.321 189.131 152.665 192.43C151.009 195.729 148.604 198.595 145.644 200.8C149.295 203.522 152.085 207.238 153.679 211.504C155.273 215.77 155.604 220.405 154.632 224.854C153.66 229.303 151.426 233.378 148.198 236.591C144.971 239.804 140.885 242.018 136.431 242.969V251.387C136.431 252.631 135.938 253.823 135.058 254.702C134.179 255.581 132.987 256.075 131.744 256.075C130.501 256.075 129.308 255.581 128.429 254.702C127.55 253.823 127.056 252.631 127.056 251.387V243.487H117.4V251.387C117.4 252.631 116.906 253.823 116.027 254.702C115.148 255.581 113.956 256.075 112.713 256.075C111.469 256.075 110.277 255.581 109.398 254.702C108.519 253.823 108.025 252.631 108.025 251.387V243.487H97.7501C96.5086 243.487 95.3179 242.994 94.44 242.116C93.5621 241.238 93.0689 240.048 93.0689 238.806V162.8C93.0689 161.558 93.5621 160.368 94.44 159.49C95.3179 158.612 96.5086 158.119 97.7501 158.119H108.038V150.781C108.038 150.166 108.159 149.556 108.394 148.987C108.63 148.419 108.975 147.902 109.411 147.467C109.846 147.031 110.363 146.686 110.931 146.451C111.5 146.215 112.11 146.094 112.725 146.094C113.341 146.094 113.95 146.215 114.519 146.451C115.088 146.686 115.604 147.031 116.04 147.467C116.475 147.902 116.82 148.419 117.056 148.987C117.291 149.556 117.413 150.166 117.413 150.781V158.119H127.056V150.781C127.056 149.538 127.55 148.346 128.429 147.467C129.308 146.588 130.501 146.094 131.744 146.094C132.987 146.094 134.179 146.588 135.058 147.467C135.938 148.346 136.431 149.538 136.431 150.781V158.637C141.735 159.77 146.49 162.688 149.902 166.903ZM141.645 229.906C144.315 227.221 145.811 223.587 145.806 219.8H145.819C145.824 216.012 144.325 212.376 141.653 209.692C138.98 207.007 135.351 205.493 131.563 205.481H102.456V234.125H131.563C135.349 234.108 138.975 232.591 141.645 229.906ZM102.456 196.119H131.563C135.36 196.119 139.002 194.61 141.688 191.925C144.373 189.24 145.881 185.598 145.881 181.8C145.881 178.002 144.373 174.36 141.688 171.675C139.002 168.99 135.36 167.481 131.563 167.481H102.456V196.119ZM285.932 278.431C284.727 278.732 283.692 279.499 283.053 280.563C282.415 281.628 282.225 282.902 282.525 284.106C284.644 292.439 284.965 301.127 283.467 309.593C281.969 318.059 278.686 326.109 273.836 333.208C268.987 340.307 262.681 346.293 255.34 350.767C247.998 355.242 239.788 358.102 231.256 359.158C222.723 360.215 214.064 359.443 205.853 356.894C197.642 354.345 190.067 350.078 183.633 344.376C177.198 338.673 172.051 331.667 168.534 323.822C165.016 315.976 163.209 307.473 163.232 298.875C163.232 297.112 163.307 295.367 163.457 293.637C163.525 292.421 163.117 291.225 162.319 290.305C161.52 289.385 160.394 288.812 159.18 288.709C157.966 288.605 156.759 288.98 155.816 289.752C154.874 290.524 154.269 291.633 154.132 292.844C153.957 294.831 153.869 296.842 153.869 298.875C153.881 308.774 155.994 318.557 160.069 327.578C164.145 336.599 170.089 344.651 177.51 351.203C184.93 357.754 193.658 362.655 203.114 365.582C212.57 368.508 222.54 369.393 232.364 368.178C242.188 366.962 251.642 363.675 260.1 358.533C268.558 353.391 275.828 346.511 281.429 338.349C287.029 330.187 290.832 320.928 292.587 311.186C294.342 301.444 294.007 291.441 291.607 281.837C291.459 281.24 291.195 280.678 290.829 280.184C290.464 279.689 290.004 279.271 289.477 278.955C288.95 278.638 288.365 278.429 287.757 278.339C287.148 278.249 286.528 278.281 285.932 278.431ZM286.82 149.574C287.917 148.993 289.201 148.872 290.388 149.237C303.06 153.115 314.145 160.972 322.001 171.644C329.856 182.316 334.064 195.236 334 208.487C334.017 217.234 332.178 225.884 328.605 233.868C325.032 241.851 319.806 248.986 313.272 254.801C306.739 260.615 299.046 264.978 290.701 267.6C282.357 270.222 273.552 271.044 264.866 270.012C256.181 268.98 247.813 266.117 240.316 261.613C232.819 257.108 226.362 251.065 221.373 243.881C216.384 236.697 212.975 228.536 211.372 219.938C209.77 211.34 210.009 202.499 212.075 194C212.219 193.402 212.48 192.838 212.842 192.341C213.203 191.844 213.66 191.423 214.184 191.102C214.709 190.781 215.292 190.566 215.899 190.471C216.507 190.375 217.127 190.4 217.725 190.544C218.323 190.688 218.887 190.948 219.384 191.31C219.881 191.672 220.303 192.128 220.623 192.653C220.944 193.178 221.159 193.76 221.255 194.368C221.35 194.975 221.326 195.596 221.181 196.194C220.223 200.221 219.74 204.347 219.744 208.487C219.739 218.232 222.44 227.787 227.548 236.086C232.656 244.385 239.968 251.103 248.67 255.488C257.373 259.874 267.122 261.756 276.831 260.925C286.541 260.094 295.828 256.582 303.658 250.78C311.488 244.979 317.552 237.116 321.175 228.07C324.797 219.023 325.835 209.148 324.173 199.546C322.511 189.944 318.215 180.992 311.762 173.689C305.31 166.386 296.956 161.02 287.631 158.187C286.445 157.822 285.452 157 284.871 155.902C284.29 154.805 284.169 153.521 284.535 152.334C284.9 151.147 285.722 150.154 286.82 149.574ZM249.11 312.33C249.139 312.365 249.169 312.4 249.169 312.444C249.387 313.043 249.479 313.682 249.438 314.319C249.436 314.343 249.429 314.367 249.421 314.391C249.417 314.401 249.414 314.41 249.41 314.42L249.41 314.421C249.396 314.459 249.382 314.498 249.382 314.537C249.294 315.161 249.082 315.761 248.757 316.3C248.736 316.335 248.726 316.375 248.717 316.415C248.706 316.459 248.695 316.504 248.669 316.544L227.713 347.594C227.285 348.229 226.708 348.75 226.031 349.11C225.355 349.47 224.601 349.658 223.835 349.658C223.069 349.658 222.314 349.47 221.638 349.11C220.962 348.75 220.384 348.229 219.957 347.594L199 316.544C198.974 316.504 198.963 316.459 198.953 316.415C198.943 316.375 198.933 316.335 198.913 316.3C198.585 315.762 198.372 315.162 198.288 314.537C198.282 314.505 198.27 314.474 198.258 314.443L198.258 314.443C198.241 314.402 198.225 314.361 198.225 314.319C198.173 313.685 198.25 313.047 198.45 312.444C198.475 312.369 198.563 312.25 198.563 312.25V312.081L219.519 263.956C219.937 263.182 220.556 262.535 221.311 262.084C222.067 261.634 222.93 261.396 223.81 261.396C224.689 261.396 225.553 261.634 226.308 262.084C227.063 262.535 227.683 263.182 228.1 263.956L249.057 312.081L249.056 312.089C249.056 312.103 249.054 312.116 249.051 312.13C249.046 312.165 249.04 312.203 249.057 312.25C249.067 312.279 249.088 312.304 249.11 312.33ZM238.413 311.15L223.782 277.525L209.144 311.15L223.782 316.1L238.413 311.15ZM214.469 322.831L223.782 336.625L233.094 322.831L225.282 325.475C224.309 325.808 223.254 325.808 222.282 325.475L214.469 322.831ZM231.457 141.869H220.769C219.21 141.864 217.716 141.24 216.616 140.135C215.516 139.031 214.899 137.534 214.9 135.975C214.9 134.732 214.406 133.539 213.527 132.66C212.648 131.781 211.456 131.287 210.213 131.287C208.97 131.287 207.777 131.781 206.898 132.66C206.019 133.539 205.525 134.732 205.525 135.975C205.527 140.016 207.131 143.892 209.987 146.752C212.842 149.612 216.715 151.223 220.757 151.231H221.419V159C221.419 160.243 221.913 161.435 222.792 162.315C223.671 163.194 224.863 163.687 226.107 163.687C227.35 163.687 228.542 163.194 229.421 162.315C230.3 161.435 230.794 160.243 230.794 159V151.231H231.457C235.504 151.231 239.387 149.623 242.249 146.761C245.111 143.899 246.719 140.017 246.719 135.969C246.719 131.921 245.111 128.039 242.249 125.176C239.387 122.314 235.504 120.706 231.457 120.706H220.769C219.206 120.706 217.707 120.085 216.602 118.98C215.496 117.875 214.875 116.376 214.875 114.812C214.875 113.249 215.496 111.75 216.602 110.645C217.707 109.54 219.206 108.919 220.769 108.919H231.457C233.016 108.924 234.51 109.547 235.61 110.652C236.71 111.757 237.327 113.253 237.325 114.812C237.325 116.056 237.819 117.248 238.698 118.127C239.577 119.006 240.77 119.5 242.013 119.5C243.256 119.5 244.448 119.006 245.327 118.127C246.206 117.248 246.7 116.056 246.7 114.812C246.699 110.771 245.094 106.895 242.239 104.035C239.384 101.175 235.51 99.5645 231.469 99.5562H230.807V91.7687C230.807 90.5255 230.313 89.3332 229.434 88.4541C228.555 87.575 227.362 87.0812 226.119 87.0812C224.876 87.0812 223.684 87.575 222.804 88.4541C221.925 89.3332 221.432 90.5255 221.432 91.7687V99.5562H220.769C216.723 99.5562 212.842 101.164 209.981 104.025C207.12 106.886 205.513 110.766 205.513 114.812C205.513 118.859 207.12 122.739 209.981 125.6C212.842 128.461 216.723 130.069 220.769 130.069H231.457C233.021 130.069 234.522 130.69 235.628 131.797C236.735 132.903 237.357 134.404 237.357 135.969C237.357 137.533 236.735 139.034 235.628 140.141C234.522 141.247 233.021 141.869 231.457 141.869ZM263.554 178.278C266.226 176.917 269.188 176.221 272.188 176.25C275.187 176.221 278.149 176.917 280.822 178.278C283.495 179.639 285.8 181.625 287.541 184.068C289.282 186.51 290.408 189.337 290.823 192.307C291.238 195.278 290.93 198.305 289.925 201.131C294.206 201.981 298.061 204.288 300.832 207.66C303.604 211.032 305.121 215.26 305.125 219.625C305.135 223.454 303.972 227.194 301.794 230.342C299.615 233.491 296.524 235.897 292.938 237.237C289.351 238.577 285.44 238.787 281.731 237.838C278.021 236.89 274.691 234.828 272.188 231.931C270.442 233.975 268.276 235.617 265.837 236.746C263.398 237.876 260.744 238.465 258.057 238.475C253.378 238.465 248.87 236.715 245.41 233.566C241.95 230.417 239.784 226.094 239.335 221.437C238.885 216.78 240.183 212.122 242.977 208.369C245.771 204.616 249.86 202.036 254.45 201.131C253.445 198.305 253.137 195.278 253.552 192.307C253.967 189.337 255.093 186.51 256.834 184.068C258.576 181.625 260.881 179.639 263.554 178.278ZM277.479 187.198C275.91 186.161 274.068 185.614 272.188 185.625V185.612C269.679 185.624 267.276 186.63 265.507 188.409C263.738 190.189 262.747 192.597 262.75 195.106C262.748 196.987 263.304 198.826 264.348 200.39C265.392 201.954 266.878 203.173 268.615 203.891C270.353 204.61 272.265 204.797 274.109 204.427C275.953 204.058 277.646 203.149 278.973 201.816C280.299 200.483 281.2 198.786 281.561 196.941C281.922 195.095 281.727 193.184 281 191.449C280.273 189.715 279.048 188.235 277.479 187.198ZM252.771 227.547C254.338 228.584 256.177 229.134 258.057 229.125V229.112C260.567 229.104 262.971 228.101 264.743 226.322C266.514 224.544 267.508 222.135 267.507 219.625C267.505 217.746 266.946 215.909 265.9 214.348C264.855 212.786 263.369 211.571 261.631 210.854C259.894 210.138 257.983 209.953 256.141 210.324C254.298 210.695 252.607 211.604 251.282 212.936C249.957 214.268 249.057 215.964 248.696 217.808C248.335 219.653 248.529 221.563 249.255 223.296C249.98 225.03 251.204 226.509 252.771 227.547ZM294.148 224.864C295.192 223.315 295.754 221.492 295.763 219.625C295.768 217.114 294.776 214.704 293.005 212.924C291.235 211.144 288.83 210.139 286.319 210.131C284.452 210.13 282.626 210.682 281.072 211.718C279.518 212.754 278.306 214.226 277.588 215.95C276.871 217.675 276.68 219.573 277.041 221.405C277.401 223.237 278.296 224.922 279.613 226.246C280.93 227.57 282.61 228.474 284.44 228.844C286.271 229.214 288.17 229.033 289.897 228.325C291.625 227.617 293.105 226.412 294.148 224.864Z" fill="url(#paint0_linear_23_2726)"/>
</g>
</g>
<defs>
<linearGradient id="paint0_linear_23_2726" x1="184.001" y1="68.9999" x2="184.001" y2="368.706" gradientUnits="userSpaceOnUse">
<stop stop-color="white"/>
<stop offset="1" stop-color="white" stop-opacity="0"/>
</linearGradient>
<clipPath id="clip0_23_2726">
<rect width="273" height="346" fill="white"/>
</clipPath>
<clipPath id="clip1_23_2726">
<rect width="300" height="300" fill="white" transform="translate(34 69)"/>
</clipPath>
</defs>
</svg>
