<svg width="273" height="346" viewBox="0 0 273 346" fill="none" xmlns="http://www.w3.org/2000/svg">
<g clip-path="url(#clip0_20_783)">
<g opacity="0.4" clip-path="url(#clip1_20_783)">
<g clip-path="url(#clip2_20_783)">
<path d="M85.582 53.1797H140.746C141.7 53.1797 142.615 52.8006 143.29 52.126C143.965 51.4513 144.344 50.5362 144.344 49.582C144.344 48.6279 143.965 47.7128 143.29 47.0381C142.615 46.3634 141.7 45.9844 140.746 45.9844H85.582C84.6279 45.9844 83.7128 46.3634 83.0381 47.0381C82.3634 47.7128 81.9844 48.6279 81.9844 49.582C81.9844 50.5362 82.3634 51.4513 83.0381 52.126C83.7128 52.8006 84.6279 53.1797 85.582 53.1797Z" fill="url(#paint0_linear_20_783)"/>
<path d="M186.077 98.1432C185.129 96.5037 183.767 95.1424 182.126 94.196C180.486 93.2496 178.626 92.7513 176.732 92.7513C174.839 92.7513 172.978 93.2496 171.338 94.196C169.698 95.1424 168.336 96.5037 167.388 98.1432L143.883 138.821C143.172 140.052 142.711 141.412 142.527 142.822C142.343 144.232 142.44 145.665 142.812 147.038C143.183 148.411 143.822 149.696 144.692 150.821C145.562 151.946 146.646 152.888 147.881 153.593L171.386 167C173.016 167.924 174.858 168.41 176.732 168.41C178.606 168.41 180.448 167.924 182.078 167L205.583 153.597C206.819 152.893 207.903 151.951 208.773 150.826C209.643 149.701 210.282 148.415 210.654 147.042C211.026 145.669 211.122 144.236 210.938 142.825C210.754 141.415 210.293 140.055 209.581 138.823L186.077 98.1432ZM203.703 145.153C203.581 145.61 203.371 146.038 203.082 146.413C202.794 146.789 202.434 147.103 202.024 147.338L178.519 160.74C177.976 161.048 177.362 161.21 176.737 161.21C176.112 161.21 175.499 161.048 174.955 160.74L151.45 147.333C151.039 147.098 150.678 146.784 150.389 146.409C150.099 146.034 149.886 145.606 149.762 145.148C149.639 144.691 149.607 144.214 149.668 143.744C149.729 143.274 149.882 142.821 150.119 142.411L173.624 101.734C173.939 101.186 174.394 100.73 174.941 100.414C175.488 100.097 176.11 99.9308 176.742 99.9308C177.374 99.9308 177.995 100.097 178.543 100.414C179.09 100.73 179.544 101.186 179.86 101.734L203.365 142.411C203.6 142.824 203.75 143.28 203.807 143.752C203.863 144.224 203.824 144.703 203.693 145.16L203.703 145.153Z" fill="url(#paint1_linear_20_783)"/>
<path d="M201.75 161.229L178.641 175.795C178.066 176.155 177.401 176.345 176.723 176.345C176.044 176.345 175.379 176.155 174.804 175.795L151.695 161.229C150.489 160.463 149.049 160.153 147.635 160.354C146.221 160.555 144.925 161.255 143.98 162.327C143.036 163.399 142.506 164.772 142.484 166.201C142.463 167.629 142.952 169.018 143.864 170.118L168.398 199.842C169.417 201.059 170.69 202.038 172.128 202.71C173.567 203.382 175.135 203.731 176.723 203.731C178.31 203.731 179.878 203.382 181.317 202.71C182.755 202.038 184.029 201.059 185.048 199.842L209.581 170.116C210.486 169.016 210.97 167.63 210.946 166.206C210.923 164.782 210.393 163.413 209.452 162.344C208.511 161.275 207.22 160.576 205.811 160.372C204.402 160.167 202.966 160.471 201.76 161.229H201.75ZM179.498 195.263C179.16 195.672 178.736 196.002 178.257 196.228C177.777 196.454 177.253 196.571 176.723 196.571C176.192 196.571 175.668 196.454 175.189 196.228C174.709 196.002 174.285 195.672 173.948 195.263L154.177 171.296L170.966 181.882C172.692 182.963 174.687 183.537 176.723 183.537C178.759 183.537 180.754 182.963 182.479 181.882L199.268 171.296L179.498 195.263Z" fill="url(#paint2_linear_20_783)"/>
<path d="M356.035 198.81L327.028 182.065L361.784 107.531C364.598 101.476 364.896 94.553 362.612 88.2793C360.329 82.0056 355.65 76.8938 349.602 74.0653L295.445 48.8097V47.1836C295.438 40.5068 292.782 34.1057 288.061 29.3845C283.34 24.6633 276.938 22.0076 270.262 22H83.1836C76.5068 22.0076 70.1057 24.6633 65.3845 29.3845C60.6633 34.1057 58.0076 40.5068 58 47.1836V303.816C58.0076 310.493 60.6633 316.894 65.3845 321.615C70.1057 326.337 76.5068 328.992 83.1836 329H270.262C274.699 329.002 279.056 327.821 282.885 325.577C285.618 327.145 288.714 327.969 291.865 327.966C295.016 327.964 298.111 327.135 300.842 325.563L356.035 293.697C358.768 292.114 361.037 289.84 362.615 287.105C364.194 284.369 365.026 281.266 365.029 278.108V214.388C365.024 211.232 364.191 208.132 362.612 205.398C361.034 202.664 358.766 200.393 356.035 198.81ZM295.445 56.7486L346.563 80.5842C350.883 82.6052 354.225 86.2573 355.856 90.7393C357.487 95.2213 357.274 100.167 355.262 104.492L320.773 178.452L300.842 166.94C299.162 165.988 297.34 165.315 295.445 164.947V56.7486ZM270.262 321.805H83.1836C78.4144 321.8 73.8419 319.903 70.4696 316.53C67.0972 313.158 65.2004 308.586 65.1953 303.816V47.1836C65.2004 42.4144 67.0972 37.8419 70.4696 34.4696C73.8419 31.0972 78.4144 29.2004 83.1836 29.1953H270.262C275.031 29.2004 279.603 31.0972 282.976 34.4696C286.348 37.8419 288.245 42.4144 288.25 47.1836V164.947C286.355 165.318 284.532 165.995 282.854 166.95L271.461 173.524V78.3633C271.458 75.5018 270.32 72.7584 268.296 70.735C266.273 68.7116 263.529 67.5735 260.668 67.5703H92.7773C89.9158 67.5735 87.1725 68.7116 85.1491 70.735C83.1257 72.7584 81.9875 75.5018 81.9844 78.3633V217.473C81.9875 220.334 83.1257 223.078 85.1491 225.101C87.1725 227.124 89.9158 228.262 92.7773 228.266H218.667V252.25H85.582C84.6279 252.25 83.7128 252.629 83.0381 253.304C82.3634 253.978 81.9844 254.893 81.9844 255.848C81.9844 256.802 82.3634 257.717 83.0381 258.392C83.7128 259.066 84.6279 259.445 85.582 259.445H218.667V278.12C218.676 279.096 218.766 280.07 218.935 281.031H85.582C84.6279 281.031 83.7128 281.41 83.0381 282.085C82.3634 282.76 81.9844 283.675 81.9844 284.629C81.9844 285.583 82.3634 286.498 83.0381 287.173C83.7128 287.848 84.6279 288.227 85.582 288.227H221.828C223.335 290.466 225.329 292.336 227.661 293.697L275.116 321.097C273.538 321.556 271.905 321.794 270.262 321.805ZM264.266 78.3633V177.678L227.661 198.81C224.928 200.394 222.658 202.667 221.08 205.403C219.502 208.139 218.669 211.242 218.667 214.4V221.07H92.7773C91.8232 221.07 90.9081 220.691 90.2334 220.017C89.5587 219.342 89.1797 218.427 89.1797 217.473V78.3633C89.1797 77.4091 89.5587 76.494 90.2334 75.8194C90.9081 75.1447 91.8232 74.7656 92.7773 74.7656H260.668C261.622 74.7656 262.537 75.1447 263.212 75.8194C263.887 76.494 264.266 77.4091 264.266 78.3633ZM357.833 278.12C357.832 280.015 357.332 281.876 356.385 283.518C355.438 285.159 354.077 286.523 352.437 287.473L297.244 319.332C295.602 320.276 293.742 320.773 291.848 320.773C289.954 320.773 288.093 320.276 286.451 319.332L231.258 287.466C229.619 286.516 228.257 285.152 227.31 283.51C226.363 281.869 225.864 280.007 225.862 278.112V214.388C225.864 212.493 226.363 210.632 227.31 208.99C228.257 207.349 229.619 205.985 231.258 205.034L286.451 173.176C288.093 172.232 289.954 171.735 291.848 171.735C293.742 171.735 295.602 172.232 297.244 173.176L352.437 205.042C354.077 205.992 355.438 207.356 356.385 208.997C357.332 210.639 357.832 212.5 357.833 214.395V278.12Z" fill="url(#paint3_linear_20_783)"/>
<path d="M302.641 224.668H281.055C280.101 224.668 279.185 225.047 278.511 225.722C277.836 226.396 277.457 227.311 277.457 228.266V264.242C277.457 265.196 277.836 266.111 278.511 266.786C279.185 267.461 280.101 267.84 281.055 267.84C282.009 267.84 282.924 267.461 283.599 266.786C284.273 266.111 284.652 265.196 284.652 264.242V251.051H300.242C301.196 251.051 302.111 250.672 302.786 249.997C303.461 249.322 303.84 248.407 303.84 247.453C303.84 246.499 303.461 245.584 302.786 244.909C302.111 244.234 301.196 243.855 300.242 243.855H284.652V231.863H302.641C303.595 231.863 304.51 231.484 305.185 230.81C305.859 230.135 306.238 229.22 306.238 228.266C306.238 227.311 305.859 226.396 305.185 225.722C304.51 225.047 303.595 224.668 302.641 224.668Z" fill="url(#paint4_linear_20_783)"/>
<path d="M266.664 224.668C265.71 224.668 264.795 225.047 264.12 225.722C263.445 226.396 263.066 227.311 263.066 228.266V251.252L248.163 226.414C247.758 225.74 247.143 225.216 246.412 224.925C245.682 224.633 244.876 224.589 244.117 224.799C243.359 225.009 242.691 225.462 242.215 226.088C241.738 226.714 241.481 227.479 241.48 228.266V264.242C241.48 265.196 241.859 266.111 242.534 266.786C243.209 267.461 244.124 267.84 245.078 267.84C246.032 267.84 246.947 267.461 247.622 266.786C248.297 266.111 248.676 265.196 248.676 264.242V241.256L263.58 266.094C263.985 266.768 264.599 267.291 265.33 267.583C266.061 267.875 266.867 267.919 267.625 267.709C268.383 267.499 269.051 267.046 269.527 266.42C270.004 265.794 270.262 265.029 270.262 264.242V228.266C270.262 227.311 269.883 226.396 269.208 225.722C268.533 225.047 267.618 224.668 266.664 224.668Z" fill="url(#paint5_linear_20_783)"/>
<path d="M338.617 224.668H317.031C316.077 224.668 315.162 225.047 314.487 225.722C313.813 226.396 313.434 227.311 313.434 228.266C313.434 229.22 313.813 230.135 314.487 230.81C315.162 231.484 316.077 231.863 317.031 231.863H324.227V264.242C324.227 265.196 324.606 266.111 325.28 266.786C325.955 267.461 326.87 267.84 327.824 267.84C328.778 267.84 329.693 267.461 330.368 266.786C331.043 266.111 331.422 265.196 331.422 264.242V231.863H338.617C339.571 231.863 340.486 231.484 341.161 230.81C341.836 230.135 342.215 229.22 342.215 228.266C342.215 227.311 341.836 226.396 341.161 225.722C340.486 225.047 339.571 224.668 338.617 224.668Z" fill="url(#paint6_linear_20_783)"/>
</g>
</g>
</g>
<defs>
<linearGradient id="paint0_linear_20_783" x1="211.514" y1="22" x2="211.514" y2="329" gradientUnits="userSpaceOnUse">
<stop stop-color="white"/>
<stop offset="1" stop-color="white" stop-opacity="0"/>
</linearGradient>
<linearGradient id="paint1_linear_20_783" x1="211.514" y1="22" x2="211.514" y2="329" gradientUnits="userSpaceOnUse">
<stop stop-color="white"/>
<stop offset="1" stop-color="white" stop-opacity="0"/>
</linearGradient>
<linearGradient id="paint2_linear_20_783" x1="211.514" y1="22" x2="211.514" y2="329" gradientUnits="userSpaceOnUse">
<stop stop-color="white"/>
<stop offset="1" stop-color="white" stop-opacity="0"/>
</linearGradient>
<linearGradient id="paint3_linear_20_783" x1="211.514" y1="22" x2="211.514" y2="329" gradientUnits="userSpaceOnUse">
<stop stop-color="white"/>
<stop offset="1" stop-color="white" stop-opacity="0"/>
</linearGradient>
<linearGradient id="paint4_linear_20_783" x1="211.514" y1="22" x2="211.514" y2="329" gradientUnits="userSpaceOnUse">
<stop stop-color="white"/>
<stop offset="1" stop-color="white" stop-opacity="0"/>
</linearGradient>
<linearGradient id="paint5_linear_20_783" x1="211.514" y1="22" x2="211.514" y2="329" gradientUnits="userSpaceOnUse">
<stop stop-color="white"/>
<stop offset="1" stop-color="white" stop-opacity="0"/>
</linearGradient>
<linearGradient id="paint6_linear_20_783" x1="211.514" y1="22" x2="211.514" y2="329" gradientUnits="userSpaceOnUse">
<stop stop-color="white"/>
<stop offset="1" stop-color="white" stop-opacity="0"/>
</linearGradient>
<clipPath id="clip0_20_783">
<rect width="273" height="346" fill="white"/>
</clipPath>
<clipPath id="clip1_20_783">
<rect width="329" height="329" fill="white" transform="translate(15)"/>
</clipPath>
<clipPath id="clip2_20_783">
<rect width="307" height="307" fill="white" transform="translate(58 22)"/>
</clipPath>
</defs>
</svg>
