<svg width="273" height="346" viewBox="0 0 273 346" fill="none" xmlns="http://www.w3.org/2000/svg">
<g clip-path="url(#clip0_20_810)">
<g opacity="0.4">
<path d="M329.804 140.937H29.1959C28.0168 140.937 26.8859 140.468 26.0522 139.634C25.2184 138.801 24.75 137.67 24.75 136.491V104.062C24.75 103.296 24.9476 102.544 25.3238 101.877C25.7001 101.21 26.2421 100.652 26.8974 100.256L177.17 9.53213C177.863 9.11411 178.657 8.89319 179.467 8.89319C180.276 8.89319 181.07 9.11411 181.763 9.53213L332.098 100.256C332.754 100.652 333.296 101.21 333.672 101.877C334.048 102.544 334.246 103.296 334.246 104.062V136.491C334.246 137.669 333.778 138.799 332.945 139.633C332.112 140.466 330.982 140.935 329.804 140.937ZM33.6463 132.045H325.358V106.569L179.473 18.5307L33.6463 106.56V132.045Z" fill="url(#paint0_linear_20_810)"/>
<path d="M179.5 108.094C174.241 108.094 169.1 106.535 164.727 103.613C160.354 100.691 156.946 96.538 154.933 91.6791C152.92 86.8202 152.394 81.4736 153.42 76.3154C154.446 71.1572 156.978 66.4191 160.697 62.7003C164.416 58.9814 169.154 56.4489 174.312 55.4228C179.471 54.3968 184.817 54.9234 189.676 56.936C194.535 58.9487 198.688 62.3569 201.61 66.7298C204.532 71.1027 206.091 76.2439 206.091 81.5031C206.083 88.553 203.279 95.3118 198.294 100.297C193.309 105.282 186.55 108.086 179.5 108.094ZM179.5 63.7993C175.999 63.7993 172.577 64.8374 169.667 66.7822C166.756 68.727 164.488 71.4913 163.148 74.7254C161.808 77.9595 161.458 81.5183 162.141 84.9516C162.824 88.3849 164.509 91.5387 166.985 94.014C169.46 96.4893 172.614 98.1749 176.047 98.8579C179.48 99.5408 183.039 99.1903 186.273 97.8507C189.507 96.5111 192.272 94.2425 194.216 91.3319C196.161 88.4212 197.199 84.9992 197.199 81.4986C197.193 76.8063 195.327 72.3078 192.009 68.9898C188.691 65.6719 184.192 63.8052 179.5 63.7993Z" fill="url(#paint1_linear_20_810)"/>
<path d="M303.862 169.022H256.553C254.006 169.018 251.565 168.005 249.765 166.203C247.964 164.402 246.952 161.96 246.949 159.414V136.491C246.949 135.311 247.418 134.181 248.252 133.347C249.085 132.513 250.216 132.045 251.395 132.045H309.019C310.198 132.045 311.329 132.513 312.163 133.347C312.997 134.181 313.465 135.311 313.465 136.491V159.427C313.459 161.972 312.445 164.41 310.646 166.208C308.846 168.006 306.406 169.018 303.862 169.022ZM255.846 140.923V159.414C255.846 159.603 255.921 159.784 256.054 159.918C256.187 160.053 256.368 160.128 256.557 160.13H303.862C304.051 160.128 304.232 160.053 304.365 159.918C304.499 159.784 304.573 159.603 304.573 159.414V140.937L255.846 140.923Z" fill="url(#paint2_linear_20_810)"/>
<path d="M299.825 258.825H260.585C259.406 258.825 258.275 258.357 257.441 257.523C256.608 256.689 256.139 255.558 256.139 254.379V164.571C256.139 163.392 256.608 162.261 257.441 161.427C258.275 160.594 259.406 160.125 260.585 160.125H299.825C301.004 160.125 302.135 160.594 302.969 161.427C303.803 162.261 304.271 163.392 304.271 164.571V254.379C304.271 255.558 303.803 256.689 302.969 257.523C302.135 258.357 301.004 258.825 299.825 258.825ZM265.031 249.933H295.379V169.017H265.031V249.933Z" fill="url(#paint3_linear_20_810)"/>
<path d="M309.019 286.924H251.395C250.216 286.924 249.085 286.455 248.252 285.621C247.418 284.788 246.949 283.657 246.949 282.478V259.541C246.952 256.994 247.964 254.553 249.765 252.752C251.565 250.95 254.006 249.937 256.553 249.933H303.862C306.409 249.937 308.85 250.95 310.65 252.752C312.451 254.553 313.463 256.994 313.465 259.541V282.478C313.465 283.657 312.997 284.788 312.163 285.621C311.329 286.455 310.198 286.924 309.019 286.924ZM255.841 278.032H304.573V259.541C304.573 259.352 304.499 259.171 304.365 259.036C304.232 258.902 304.051 258.826 303.862 258.825H256.553C256.364 258.826 256.183 258.902 256.049 259.036C255.916 259.171 255.841 259.352 255.841 259.541V278.032Z" fill="url(#paint4_linear_20_810)"/>
<path d="M203.152 169.022H155.848C153.301 169.018 150.86 168.005 149.059 166.203C147.259 164.402 146.247 161.96 146.244 159.414V136.491C146.244 135.311 146.713 134.181 147.547 133.347C148.38 132.513 149.511 132.045 150.69 132.045H208.31C209.489 132.045 210.62 132.513 211.454 133.347C212.287 134.181 212.756 135.311 212.756 136.491V159.427C212.75 161.972 211.736 164.41 209.936 166.208C208.136 168.006 205.697 169.018 203.152 169.022ZM155.136 140.937V159.427C155.136 159.616 155.211 159.798 155.344 159.932C155.478 160.066 155.659 160.142 155.848 160.143H203.152C203.342 160.142 203.522 160.066 203.656 159.932C203.789 159.798 203.864 159.616 203.864 159.427V140.937H155.136Z" fill="url(#paint5_linear_20_810)"/>
<path d="M199.062 258.825H159.938C158.759 258.825 157.628 258.357 156.794 257.523C155.96 256.689 155.492 255.558 155.492 254.379V164.571C155.492 163.392 155.96 162.261 156.794 161.427C157.628 160.594 158.759 160.125 159.938 160.125H199.062C200.241 160.125 201.372 160.594 202.206 161.427C203.04 162.261 203.508 163.392 203.508 164.571V254.379C203.508 255.558 203.04 256.689 202.206 257.523C201.372 258.357 200.241 258.825 199.062 258.825ZM164.384 249.933H194.616V169.017H164.384V249.933Z" fill="url(#paint6_linear_20_810)"/>
<path d="M208.31 286.924H150.69C149.511 286.924 148.38 286.455 147.547 285.621C146.713 284.788 146.244 283.657 146.244 282.478V259.541C146.247 256.994 147.259 254.553 149.059 252.752C150.86 250.95 153.301 249.937 155.848 249.933H203.152C205.699 249.937 208.14 250.95 209.941 252.752C211.741 254.553 212.753 256.994 212.756 259.541V282.478C212.756 283.657 212.287 284.788 211.454 285.621C210.62 286.455 209.489 286.924 208.31 286.924ZM155.132 278.032H203.864V259.541C203.864 259.352 203.789 259.171 203.656 259.036C203.522 258.902 203.342 258.826 203.152 258.825H155.848C155.659 258.826 155.478 258.902 155.344 259.036C155.211 259.171 155.136 259.352 155.136 259.541L155.132 278.032Z" fill="url(#paint7_linear_20_810)"/>
<path d="M106.893 169.022H59.584C57.0373 169.018 54.5961 168.005 52.7958 166.203C50.9955 164.402 49.9831 161.96 49.9807 159.414V136.491C49.9807 135.311 50.4491 134.181 51.2829 133.347C52.1167 132.513 53.2475 132.045 54.4267 132.045H112.051C113.23 132.045 114.361 132.513 115.194 133.347C116.028 134.181 116.497 135.311 116.497 136.491V159.427C116.491 161.972 115.477 164.41 113.677 166.208C111.877 168.006 109.438 169.018 106.893 169.022ZM58.8726 140.937V159.427C58.8726 159.616 58.9474 159.798 59.0807 159.932C59.214 160.066 59.3949 160.142 59.584 160.143H106.893C107.082 160.142 107.263 160.066 107.397 159.932C107.53 159.798 107.605 159.616 107.605 159.427V140.937H58.8726Z" fill="url(#paint8_linear_20_810)"/>
<path d="M103.03 258.825H63.4608C62.2817 258.825 61.1508 258.357 60.3171 257.523C59.4833 256.689 59.0149 255.558 59.0149 254.379V164.571C59.0149 163.392 59.4833 162.261 60.3171 161.427C61.1508 160.594 62.2817 160.125 63.4608 160.125H103.03C104.209 160.125 105.34 160.594 106.174 161.427C107.007 162.261 107.476 163.392 107.476 164.571V254.379C107.476 255.558 107.007 256.689 106.174 257.523C105.34 258.357 104.209 258.825 103.03 258.825ZM67.9068 249.933H98.5838V169.017H67.9068V249.933Z" fill="url(#paint9_linear_20_810)"/>
<path d="M112.051 286.924H54.4267C53.2475 286.924 52.1167 286.455 51.2829 285.621C50.4491 284.788 49.9807 283.657 49.9807 282.478V259.541C49.9831 256.994 50.9955 254.553 52.7958 252.752C54.5961 250.95 57.0373 249.937 59.584 249.933H106.893C109.44 249.937 111.881 250.95 113.681 252.752C115.482 254.553 116.494 256.994 116.497 259.541V282.478C116.497 283.657 116.028 284.788 115.194 285.621C114.361 286.455 113.23 286.924 112.051 286.924ZM58.8726 278.032H107.605V259.541C107.605 259.352 107.53 259.171 107.397 259.036C107.263 258.902 107.082 258.826 106.893 258.825H59.584C59.3949 258.826 59.214 258.902 59.0807 259.036C58.9474 259.171 58.8726 259.352 58.8726 259.541V278.032Z" fill="url(#paint10_linear_20_810)"/>
<path d="M330.662 320.108H28.3379C27.1587 320.108 26.0279 319.64 25.1941 318.806C24.3603 317.972 23.8919 316.841 23.8919 315.662V282.478C23.8919 281.299 24.3603 280.168 25.1941 279.334C26.0279 278.5 27.1587 278.032 28.3379 278.032H330.662C331.841 278.032 332.972 278.5 333.806 279.334C334.64 280.168 335.108 281.299 335.108 282.478V315.662C335.108 316.841 334.64 317.972 333.806 318.806C332.972 319.64 331.841 320.108 330.662 320.108ZM32.7838 311.216H326.216V286.924H32.7838V311.216Z" fill="url(#paint11_linear_20_810)"/>
</g>
</g>
<defs>
<linearGradient id="paint0_linear_20_810" x1="179.5" y1="9" x2="179.5" y2="320.108" gradientUnits="userSpaceOnUse">
<stop stop-color="white"/>
<stop offset="1" stop-color="white" stop-opacity="0"/>
</linearGradient>
<linearGradient id="paint1_linear_20_810" x1="179.5" y1="9" x2="179.5" y2="320.108" gradientUnits="userSpaceOnUse">
<stop stop-color="white"/>
<stop offset="1" stop-color="white" stop-opacity="0"/>
</linearGradient>
<linearGradient id="paint2_linear_20_810" x1="179.5" y1="9" x2="179.5" y2="320.108" gradientUnits="userSpaceOnUse">
<stop stop-color="white"/>
<stop offset="1" stop-color="white" stop-opacity="0"/>
</linearGradient>
<linearGradient id="paint3_linear_20_810" x1="179.5" y1="9" x2="179.5" y2="320.108" gradientUnits="userSpaceOnUse">
<stop stop-color="white"/>
<stop offset="1" stop-color="white" stop-opacity="0"/>
</linearGradient>
<linearGradient id="paint4_linear_20_810" x1="179.5" y1="9" x2="179.5" y2="320.108" gradientUnits="userSpaceOnUse">
<stop stop-color="white"/>
<stop offset="1" stop-color="white" stop-opacity="0"/>
</linearGradient>
<linearGradient id="paint5_linear_20_810" x1="179.5" y1="9" x2="179.5" y2="320.108" gradientUnits="userSpaceOnUse">
<stop stop-color="white"/>
<stop offset="1" stop-color="white" stop-opacity="0"/>
</linearGradient>
<linearGradient id="paint6_linear_20_810" x1="179.5" y1="9" x2="179.5" y2="320.108" gradientUnits="userSpaceOnUse">
<stop stop-color="white"/>
<stop offset="1" stop-color="white" stop-opacity="0"/>
</linearGradient>
<linearGradient id="paint7_linear_20_810" x1="179.5" y1="9" x2="179.5" y2="320.108" gradientUnits="userSpaceOnUse">
<stop stop-color="white"/>
<stop offset="1" stop-color="white" stop-opacity="0"/>
</linearGradient>
<linearGradient id="paint8_linear_20_810" x1="179.5" y1="9" x2="179.5" y2="320.108" gradientUnits="userSpaceOnUse">
<stop stop-color="white"/>
<stop offset="1" stop-color="white" stop-opacity="0"/>
</linearGradient>
<linearGradient id="paint9_linear_20_810" x1="179.5" y1="9" x2="179.5" y2="320.108" gradientUnits="userSpaceOnUse">
<stop stop-color="white"/>
<stop offset="1" stop-color="white" stop-opacity="0"/>
</linearGradient>
<linearGradient id="paint10_linear_20_810" x1="179.5" y1="9" x2="179.5" y2="320.108" gradientUnits="userSpaceOnUse">
<stop stop-color="white"/>
<stop offset="1" stop-color="white" stop-opacity="0"/>
</linearGradient>
<linearGradient id="paint11_linear_20_810" x1="179.5" y1="9" x2="179.5" y2="320.108" gradientUnits="userSpaceOnUse">
<stop stop-color="white"/>
<stop offset="1" stop-color="white" stop-opacity="0"/>
</linearGradient>
<clipPath id="clip0_20_810">
<rect width="273" height="346" fill="white"/>
</clipPath>
</defs>
</svg>
