<svg width="273" height="346" viewBox="0 0 273 346" fill="none" xmlns="http://www.w3.org/2000/svg">
<g clip-path="url(#clip0_23_2676)">
<path opacity="0.4" fill-rule="evenodd" clip-rule="evenodd" d="M133.958 84.1748V19.1443C133.958 17.78 134.533 16.4715 135.557 15.5067C136.58 14.542 137.969 14 139.416 14C140.864 14 142.252 14.542 143.276 15.5067C144.299 16.4715 144.874 17.78 144.874 19.1443V84.1748H167.843C169.196 84.1748 170.493 84.7243 171.45 85.7023C172.407 86.6803 172.944 88.0068 172.944 89.39V238.023C172.944 239.406 172.407 240.732 171.45 241.71C170.493 242.688 169.196 243.238 167.843 243.238H144.874V287.91C144.874 289.297 144.299 290.628 143.276 291.608C142.252 292.589 140.864 293.14 139.416 293.14C137.969 293.14 136.58 292.589 135.557 291.608C134.533 290.628 133.958 289.297 133.958 287.91V243.238H110.989C109.636 243.238 108.339 242.688 107.382 241.71C106.426 240.732 105.888 239.406 105.888 238.023V89.39C105.888 88.0068 106.426 86.6803 107.382 85.7023C108.339 84.7243 109.636 84.1748 110.989 84.1748H133.958ZM162.742 232.807H141.713C141 232.49 140.217 232.322 139.416 232.322C138.615 232.322 137.832 232.49 137.119 232.807H116.116L116.091 94.6052H162.742V232.807ZM321.091 212.049H343.939C345.324 212.049 346.652 211.5 347.631 210.524C348.611 209.547 349.161 208.223 349.161 206.842V129.928C349.161 128.547 348.611 127.222 347.631 126.245C346.652 125.269 345.324 124.72 343.939 124.72H321.091V75.2754C321.091 73.9133 320.516 72.6071 319.492 71.644C318.469 70.6809 317.08 70.1399 315.633 70.1399C314.185 70.1399 312.797 70.6809 311.773 71.644C310.75 72.6071 310.175 73.9133 310.175 75.2754V124.72H285.767C284.382 124.72 283.054 125.269 282.075 126.245C281.096 127.222 280.545 128.547 280.545 129.928V206.842C280.545 208.223 281.096 209.547 282.075 210.524C283.054 211.5 284.382 212.049 285.767 212.049H310.175V272.374C310.175 273.745 310.75 275.061 311.773 276.031C312.797 277.001 314.185 277.545 315.633 277.545C317.08 277.545 318.469 277.001 319.492 276.031C320.516 275.061 321.091 273.745 321.091 272.374V212.049ZM317.977 201.634H338.717V135.135H290.989V201.634H313.289C314.014 201.307 314.814 201.133 315.633 201.133C316.452 201.133 317.251 201.307 317.977 201.634ZM260.303 124.779C259.323 125.74 257.995 126.28 256.61 126.28H232.203V216.27C232.203 217.632 231.71 218.938 230.833 219.901C229.955 220.865 228.765 221.406 227.524 221.406C226.284 221.406 225.094 220.865 224.216 219.901C223.339 218.938 222.846 217.632 222.846 216.27V126.28H198.439C197.054 126.28 195.726 125.74 194.746 124.779C193.767 123.818 193.217 122.515 193.217 121.156V59.6693C193.217 58.3104 193.767 57.0071 194.746 56.0462C195.726 55.0853 197.054 54.5455 198.439 54.5455H222.846V19.1712C222.846 17.7997 223.339 16.4844 224.216 15.5146C225.094 14.5448 226.284 14 227.524 14C228.765 14 229.955 14.5448 230.833 15.5146C231.71 16.4844 232.203 17.7997 232.203 19.1712V54.5455H256.61C257.995 54.5455 259.323 55.0853 260.303 56.0462C261.282 57.0071 261.832 58.3104 261.832 59.6693V121.156C261.832 122.515 261.282 123.818 260.303 124.779ZM203.661 64.7932V116.032H251.388V64.7932H203.661ZM22.2219 296.259H46.6294V341.008C46.6294 342.375 47.1223 343.685 47.9996 344.652C48.877 345.618 50.0669 346.161 51.3077 346.161C52.5485 346.161 53.7384 345.618 54.6158 344.652C55.4931 343.685 55.986 342.375 55.986 341.008V296.259H80.3935C81.7784 296.259 83.1066 295.714 84.0859 294.744C85.0652 293.774 85.6154 292.458 85.6154 291.086V248.411C85.6154 247.039 85.0652 245.723 84.0859 244.753C83.1066 243.783 81.7784 243.238 80.3935 243.238H55.986V111.189C55.986 109.814 55.4931 108.496 54.6158 107.525C53.7384 106.553 52.5485 106.007 51.3077 106.007C50.0669 106.007 48.877 106.553 47.9996 107.525C47.1223 108.496 46.6294 109.814 46.6294 111.189V243.238H22.2219C20.8369 243.238 19.5087 243.783 18.5295 244.753C17.5502 245.723 17 247.039 17 248.411V291.086C17 292.458 17.5502 293.774 18.5295 294.744C19.5087 295.714 20.8369 296.259 22.2219 296.259ZM49.1736 253.583H27.4437V285.913H75.1716V253.583H53.4418C52.7873 253.955 52.0568 254.154 51.3077 254.154C50.5586 254.154 49.828 253.955 49.1736 253.583Z" fill="url(#paint0_linear_23_2676)"/>
</g>
<defs>
<linearGradient id="paint0_linear_23_2676" x1="183.08" y1="14" x2="183.08" y2="346.161" gradientUnits="userSpaceOnUse">
<stop stop-color="white"/>
<stop offset="1" stop-color="white" stop-opacity="0"/>
</linearGradient>
<clipPath id="clip0_23_2676">
<rect width="273" height="346" fill="white"/>
</clipPath>
</defs>
</svg>
