<svg width="48" height="48" viewBox="0 0 48 48" fill="none" xmlns="http://www.w3.org/2000/svg">
<path fill-rule="evenodd" clip-rule="evenodd" d="M24 45C35.598 45 45 35.598 45 24C45 12.402 35.598 3 24 3C12.402 3 3 12.402 3 24C3 35.598 12.402 45 24 45ZM24 48C37.2548 48 48 37.2548 48 24C48 10.7452 37.2548 0 24 0C10.7452 0 0 10.7452 0 24C0 37.2548 10.7452 48 24 48Z" fill="#6236FF" fill-opacity="0.8"/>
<path d="M20.3333 19.2H22V24H20.3333V19.2ZM16.1667 20.8H17.8333V24H16.1667V20.8ZM12 16H13.6667V24H12V16Z" fill="#673BFF"/>
<path d="M36 34.7431L29.3006 28.0302C30.7648 26.2773 31.5663 24.0637 31.5645 21.7778C31.5645 16.3867 27.1867 12 21.8065 12C19.6748 12 17.6504 12.6756 15.9507 13.9556L17.0152 15.3778C18.3951 14.3345 20.0779 13.7725 21.8065 13.7778C26.2091 13.7778 29.7903 17.3662 29.7903 21.7778C29.7903 26.1893 26.2091 29.7778 21.8065 29.7778C20.5662 29.7825 19.3421 29.4954 18.2327 28.9396C17.1234 28.3838 16.1597 27.5749 15.4194 26.5778L14 27.6462C14.9051 28.8645 16.083 29.853 17.4388 30.5319C18.7947 31.2109 20.2907 31.5615 21.8065 31.5556C24.1777 31.5556 26.3537 30.7022 28.0463 29.2871L34.7456 36L36 34.7431Z" fill="#673BFF"/>
</svg>
