<svg width="721" height="721" viewBox="0 0 721 721" fill="none" xmlns="http://www.w3.org/2000/svg">
<path d="M339.404 385.712C353.414 397.469 374.303 395.642 386.06 381.632C397.816 367.621 395.99 346.733 381.98 334.976C367.969 323.22 347.081 325.046 335.324 339.056C323.567 353.067 325.394 373.955 339.404 385.712Z" stroke="url(#paint0_linear_333_23062)" stroke-opacity="0.4" stroke-width="0.8" stroke-miterlimit="10"/>
<path d="M323.698 381.188C335.259 401.617 361.192 408.806 381.621 397.245C402.051 385.684 409.24 359.751 397.679 339.322C386.118 318.893 360.185 311.703 339.756 323.264C319.326 334.825 312.137 360.758 323.698 381.188Z" stroke="url(#paint1_linear_333_23062)" stroke-opacity="0.4" stroke-width="0.8" stroke-miterlimit="10"/>
<path d="M307.998 376.7C317.111 405.803 348.091 422.009 377.194 412.896C406.297 403.784 422.503 372.804 413.39 343.7C404.278 314.597 373.298 298.392 344.195 307.504C315.091 316.617 298.886 347.597 307.998 376.7Z" stroke="url(#paint2_linear_333_23062)" stroke-opacity="0.4" stroke-width="0.8" stroke-miterlimit="10"/>
<path d="M292.263 372.394C298.922 410.171 334.945 435.397 372.722 428.738C410.499 422.078 435.725 386.056 429.066 348.279C422.406 310.502 386.383 285.276 348.606 291.935C310.829 298.594 285.604 334.617 292.263 372.394Z" stroke="url(#paint3_linear_333_23062)" stroke-opacity="0.4" stroke-width="0.8" stroke-miterlimit="10"/>
<path d="M292.819 376.454C302.07 414.858 340.702 438.49 379.105 429.239C417.509 419.987 441.141 381.356 431.89 342.952C422.639 304.549 384.007 280.917 345.604 290.168C307.2 299.419 283.568 338.051 292.819 376.454Z" stroke="url(#paint4_linear_333_23062)" stroke-opacity="0.4" stroke-width="0.8" stroke-miterlimit="10"/>
<path d="M293.323 380.458C305.167 419.485 346.406 441.522 385.433 429.678C424.461 417.834 446.497 376.595 434.653 337.568C422.809 298.541 381.57 276.504 342.543 288.348C303.516 300.192 281.479 341.431 293.323 380.458Z" stroke="url(#paint5_linear_333_23062)" stroke-opacity="0.4" stroke-width="0.8" stroke-miterlimit="10"/>
<path d="M293.815 384.65C308.246 424.302 352.089 444.748 391.741 430.316C431.393 415.885 451.839 372.042 437.408 332.39C422.976 292.738 379.133 272.293 339.481 286.724C299.829 301.155 279.384 344.998 293.815 384.65Z" stroke="url(#paint6_linear_333_23062)" stroke-opacity="0.4" stroke-width="0.8" stroke-miterlimit="10"/>
<path d="M291.817 390.447C309.176 430.28 355.539 448.498 395.371 431.139C435.203 413.78 453.421 367.417 436.062 327.585C418.703 287.753 372.341 269.535 332.508 286.894C292.676 304.253 274.458 350.615 291.817 390.447Z" stroke="url(#paint7_linear_333_23062)" stroke-opacity="0.4" stroke-width="0.8" stroke-miterlimit="10"/>
<path d="M289.925 396.442C310.207 436.46 359.091 452.459 399.109 432.176C439.127 411.894 455.125 363.01 434.843 322.992C414.56 282.974 365.677 266.976 325.659 287.258C285.641 307.541 269.642 356.424 289.925 396.442Z" stroke="url(#paint8_linear_333_23062)" stroke-opacity="0.4" stroke-width="0.8" stroke-miterlimit="10"/>
<path d="M287.888 402.283C311.096 442.48 362.496 456.252 402.693 433.043C442.89 409.835 456.662 358.435 433.454 318.238C410.246 278.041 358.845 264.269 318.648 287.477C278.451 310.686 264.679 362.086 287.888 402.283Z" stroke="url(#paint9_linear_333_23062)" stroke-opacity="0.4" stroke-width="0.8" stroke-miterlimit="10"/>
<path d="M288.639 408.122C315.052 447.96 368.759 458.845 408.598 432.432C448.437 406.019 459.321 352.312 432.908 312.473C406.496 272.634 352.788 261.75 312.949 288.162C273.11 314.575 262.226 368.283 288.639 408.122Z" stroke="url(#paint10_linear_333_23062)" stroke-opacity="0.4" stroke-width="0.8" stroke-miterlimit="10"/>
<path d="M289.208 413.934C318.822 453.408 374.83 461.401 414.304 431.787C453.778 402.172 461.771 346.165 432.157 306.69C402.543 267.216 346.535 259.223 307.061 288.837C267.586 318.452 259.593 374.459 289.208 413.934Z" stroke="url(#paint11_linear_333_23062)" stroke-opacity="0.4" stroke-width="0.8" stroke-miterlimit="10"/>
<path d="M289.842 419.658C322.663 458.769 380.975 463.868 420.086 431.048C459.197 398.227 464.296 339.915 431.476 300.804C398.655 261.693 340.343 256.593 301.232 289.414C262.121 322.235 257.021 380.547 289.842 419.658Z" stroke="url(#paint12_linear_333_23062)" stroke-opacity="0.4" stroke-width="0.8" stroke-miterlimit="10"/>
<path d="M291.644 425.874C327.864 463.981 388.118 465.511 426.226 429.291C464.333 393.071 465.863 332.817 429.643 294.71C393.423 256.602 333.169 255.072 295.062 291.292C256.954 327.512 255.424 387.766 291.644 425.874Z" stroke="url(#paint13_linear_333_23062)" stroke-opacity="0.4" stroke-width="0.8" stroke-miterlimit="10"/>
<path d="M293.464 432.011C333.086 469.115 395.285 467.073 432.388 427.451C469.492 387.828 467.45 325.63 427.828 288.526C388.205 251.423 326.007 253.464 288.903 293.087C251.8 332.709 253.841 394.908 293.464 432.011Z" stroke="url(#paint14_linear_333_23062)" stroke-opacity="0.4" stroke-width="0.8" stroke-miterlimit="10"/>
<path d="M295.323 438.248C338.345 474.351 402.488 468.741 438.591 425.719C474.693 382.697 469.084 318.554 426.062 282.452C383.04 246.349 318.896 251.958 282.794 294.98C246.691 338.002 252.301 402.146 295.323 438.248Z" stroke="url(#paint15_linear_333_23062)" stroke-opacity="0.4" stroke-width="0.8" stroke-miterlimit="10"/>
<path d="M298.476 444.537C344.992 478.902 410.558 469.052 444.923 422.536C479.288 376.02 469.438 310.454 422.922 276.089C376.406 241.724 310.84 251.575 276.475 298.09C242.11 344.606 251.96 410.172 298.476 444.537Z" stroke="url(#paint16_linear_333_23062)" stroke-opacity="0.4" stroke-width="0.8" stroke-miterlimit="10"/>
<path d="M301.606 450.85C351.615 483.477 418.604 469.386 451.231 419.377C483.858 369.368 469.766 302.379 419.758 269.752C369.749 237.125 302.76 251.216 270.133 301.225C237.506 351.234 251.597 418.223 301.606 450.85Z" stroke="url(#paint17_linear_333_23062)" stroke-opacity="0.4" stroke-width="0.8" stroke-miterlimit="10"/>
<path d="M304.756 457.186C358.258 488.076 426.672 469.746 457.563 416.244C488.453 362.742 470.123 294.328 416.62 263.437C363.118 232.547 294.704 250.877 263.814 304.38C232.923 357.882 251.254 426.296 304.756 457.186Z" stroke="url(#paint18_linear_333_23062)" stroke-opacity="0.4" stroke-width="0.8" stroke-miterlimit="10"/>
<path d="M309.404 463.387C366.36 491.729 435.508 468.532 463.849 411.575C492.191 354.619 468.994 285.472 412.037 257.13C355.081 228.789 285.933 251.986 257.592 308.942C229.251 365.898 252.448 435.046 309.404 463.387Z" stroke="url(#paint19_linear_333_23062)" stroke-opacity="0.4" stroke-width="0.8" stroke-miterlimit="10"/>
<path d="M314.049 469.647C374.459 495.441 444.341 467.38 470.135 406.97C495.929 346.56 467.868 276.678 407.458 250.884C347.048 225.089 277.166 253.151 251.372 313.561C225.577 373.971 253.639 443.853 314.049 469.647Z" stroke="url(#paint20_linear_333_23062)" stroke-opacity="0.4" stroke-width="0.8" stroke-miterlimit="10"/>
<path d="M318.599 475.883C382.459 499.125 453.069 466.197 476.31 402.337C499.552 338.478 466.624 267.868 402.764 244.626C338.904 221.385 268.295 254.313 245.053 318.172C221.812 382.032 254.739 452.642 318.599 475.883Z" stroke="url(#paint21_linear_333_23062)" stroke-opacity="0.4" stroke-width="0.8" stroke-miterlimit="10"/>
<path d="M324.833 481.871C391.943 501.697 462.419 463.364 482.244 396.254C502.069 329.143 463.737 258.668 396.626 238.843C329.516 219.018 259.04 257.35 239.215 324.46C219.39 391.571 257.722 462.046 324.833 481.871Z" stroke="url(#paint22_linear_333_23062)" stroke-opacity="0.4" stroke-width="0.8" stroke-miterlimit="10"/>
<path d="M331.003 487.671C401.369 504.072 471.707 460.325 488.108 389.959C504.51 319.593 460.763 249.255 390.397 232.854C320.031 216.453 249.693 260.2 233.292 330.566C216.89 400.931 260.637 471.27 331.003 487.671Z" stroke="url(#paint23_linear_333_23062)" stroke-opacity="0.4" stroke-width="0.8" stroke-miterlimit="10"/>
<path d="M337.141 493.555C410.759 506.533 480.958 457.374 493.936 383.756C506.913 310.138 457.754 239.938 384.136 226.961C310.518 213.983 240.318 263.142 227.341 336.76C214.364 410.379 263.523 480.578 337.141 493.555Z" stroke="url(#paint24_linear_333_23062)" stroke-opacity="0.4" stroke-width="0.8" stroke-miterlimit="10"/>
<path d="M345.746 498.118C422.237 506.77 491.26 451.775 499.912 375.284C508.564 298.793 453.569 229.77 377.078 221.118C300.587 212.466 231.564 267.461 222.912 343.952C214.26 420.443 269.255 489.466 345.746 498.118Z" stroke="url(#paint25_linear_333_23062)" stroke-opacity="0.4" stroke-width="0.8" stroke-miterlimit="10"/>
<path d="M354.231 502.771C433.589 507.094 501.427 446.267 505.75 366.908C510.074 287.55 449.246 219.712 369.888 215.389C290.529 211.065 222.692 271.893 218.368 351.251C214.045 430.61 274.872 498.447 354.231 502.771Z" stroke="url(#paint26_linear_333_23062)" stroke-opacity="0.4" stroke-width="0.8" stroke-miterlimit="10"/>
<path d="M213.942 358.495C213.942 440.725 280.603 507.386 362.833 507.386C445.063 507.386 511.724 440.725 511.724 358.495C511.724 276.265 445.063 209.604 362.833 209.604C280.603 209.604 213.942 276.265 213.942 358.495Z" stroke="url(#paint27_linear_333_23062)" stroke-opacity="0.4" stroke-width="0.8" stroke-miterlimit="10"/>
<path d="M209.096 368.61C214.329 453.123 287.083 517.393 371.596 512.16C456.109 506.927 520.378 434.174 515.145 349.661C509.912 265.148 437.159 200.878 352.646 206.111C268.133 211.344 203.864 284.097 209.096 368.61Z" stroke="url(#paint28_linear_333_23062)" stroke-opacity="0.4" stroke-width="0.8" stroke-miterlimit="10"/>
<path d="M204.27 378.614C214.744 465.41 293.596 527.281 380.391 516.807C467.187 506.334 529.058 427.482 518.585 340.686C508.111 253.891 429.259 192.019 342.463 202.493C255.668 212.966 193.797 291.819 204.27 378.614Z" stroke="url(#paint29_linear_333_23062)" stroke-opacity="0.4" stroke-width="0.8" stroke-miterlimit="10"/>
<path d="M199.371 388.771C215.074 477.849 300.015 537.331 389.092 521.629C478.17 505.926 537.652 420.985 521.95 331.907C506.247 242.83 421.306 183.347 332.228 199.05C243.151 214.752 183.668 299.694 199.371 388.771Z" stroke="url(#paint30_linear_333_23062)" stroke-opacity="0.4" stroke-width="0.8" stroke-miterlimit="10"/>
<path d="M196.756 399.797C218.57 490.351 309.662 546.075 400.215 524.261C490.769 502.447 546.493 411.355 524.679 320.802C502.865 230.248 411.773 174.524 321.219 196.338C230.666 218.152 174.942 309.244 196.756 399.797Z" stroke="url(#paint31_linear_333_23062)" stroke-opacity="0.4" stroke-width="0.8" stroke-miterlimit="10"/>
<path d="M194.088 410.772C222.015 502.794 319.253 554.754 411.276 526.827C503.298 498.9 555.258 401.662 527.331 309.64C499.404 217.617 402.166 165.657 310.143 193.584C218.121 221.511 166.161 318.75 194.088 410.772Z" stroke="url(#paint32_linear_333_23062)" stroke-opacity="0.4" stroke-width="0.8" stroke-miterlimit="10"/>
<path d="M191.408 421.924C225.407 515.341 328.898 563.602 422.315 529.603C515.732 495.605 563.993 392.114 529.995 298.697C495.996 205.28 392.505 157.019 299.088 191.017C205.671 225.016 157.41 328.507 191.408 421.924Z" stroke="url(#paint33_linear_333_23062)" stroke-opacity="0.4" stroke-width="0.8" stroke-miterlimit="10"/>
<path d="M291.604 187.947L281.495 192.352C190.364 232.067 148.684 338.138 188.399 429.268L192.804 439.377C232.519 530.508 338.59 572.188 429.721 532.473L439.83 528.068C530.96 488.353 572.64 382.282 532.926 291.152L528.52 281.043C488.805 189.912 382.734 148.232 291.604 187.947Z" stroke="url(#paint34_linear_333_23062)" stroke-opacity="0.4" stroke-width="0.8" stroke-miterlimit="10"/>
<path d="M284.446 184.245L263.861 194.678C175.186 239.622 139.735 347.941 184.679 436.616L195.112 457.201C240.056 545.876 348.376 581.327 437.05 536.383L457.635 525.95C546.31 481.006 581.761 372.687 536.817 284.012L526.384 263.427C481.44 174.752 373.121 139.301 284.446 184.245Z" stroke="url(#paint35_linear_333_23062)" stroke-opacity="0.4" stroke-width="0.8" stroke-miterlimit="10"/>
<path d="M277.326 179.555L245.849 197.729C159.759 247.435 130.264 357.519 179.969 443.609L198.143 475.086C247.849 561.176 357.933 590.672 444.023 540.966L475.5 522.792C561.59 473.087 591.086 363.003 541.38 276.912L523.206 245.435C473.501 159.345 363.416 129.85 277.326 179.555Z" stroke="url(#paint36_linear_333_23062)" stroke-opacity="0.4" stroke-width="0.8" stroke-miterlimit="10"/>
<path d="M268.064 176.916L227.947 203.513C145.087 258.447 122.45 370.152 177.385 453.011L203.982 493.128C258.916 575.987 370.621 598.625 453.48 543.69L493.597 517.093C576.456 462.158 599.094 350.454 544.159 267.595L517.562 227.477C462.627 144.618 350.923 121.981 268.064 176.916Z" stroke="url(#paint37_linear_333_23062)" stroke-opacity="0.4" stroke-width="0.8" stroke-miterlimit="10"/>
<path d="M258.794 173.364L209.692 210.201C130.173 269.857 114.072 382.682 173.728 462.201L210.565 511.302C270.222 590.821 383.046 606.923 462.565 547.266L511.667 510.429C591.186 450.773 607.288 337.948 547.631 258.429L510.794 209.328C451.137 129.809 338.313 113.707 258.794 173.364Z" stroke="url(#paint38_linear_333_23062)" stroke-opacity="0.4" stroke-width="0.8" stroke-miterlimit="10"/>
<path d="M249.631 168.832L191.431 217.671C115.282 281.572 105.354 395.106 169.255 471.255L218.094 529.454C281.996 605.603 395.529 615.532 471.678 551.63L529.878 502.791C606.027 438.89 615.955 325.356 552.054 249.207L503.215 191.008C439.313 114.859 325.78 104.93 249.631 168.832Z" stroke="url(#paint39_linear_333_23062)" stroke-opacity="0.4" stroke-width="0.8" stroke-miterlimit="10"/>
<path d="M238.238 166.959L173.772 228.232C101.718 296.717 98.8253 410.645 167.31 482.698L228.583 547.165C297.067 619.218 410.996 622.111 483.049 553.626L547.515 492.353C619.569 423.869 622.462 309.94 553.977 237.887L492.704 173.421C424.22 101.367 310.291 98.4745 238.238 166.959Z" stroke="url(#paint40_linear_333_23062)" stroke-opacity="0.4" stroke-width="0.8" stroke-miterlimit="10"/>
<path d="M226.86 164.075L156.1 239.639C88.1522 312.199 91.8915 426.103 164.452 494.051L240.015 564.811C312.576 632.759 426.48 629.019 494.427 556.459L565.188 480.895C633.135 408.335 629.396 294.431 556.836 226.483L481.272 155.723C408.712 87.7757 294.808 91.5149 226.86 164.075Z" stroke="url(#paint41_linear_333_23062)" stroke-opacity="0.4" stroke-width="0.8" stroke-miterlimit="10"/>
<path d="M215.445 160.413L138.58 252.01C74.6789 328.159 84.6076 441.692 160.757 505.594L252.354 582.459C328.503 646.36 442.036 636.432 505.938 560.283L582.803 468.686C646.704 392.536 636.776 279.003 560.627 215.101L469.03 138.236C392.881 74.3349 279.347 84.2635 215.445 160.413Z" stroke="url(#paint42_linear_333_23062)" stroke-opacity="0.4" stroke-width="0.8" stroke-miterlimit="10"/>
<path d="M201.868 159.777L122.341 267.423C63.2706 347.379 80.2022 460.083 160.159 519.153L267.805 598.68C347.762 657.75 460.465 640.818 519.535 560.862L599.062 453.216C658.132 373.259 641.201 260.556 561.244 201.486L453.598 121.959C373.641 62.8884 260.938 79.82 201.868 159.777Z" stroke="url(#paint43_linear_333_23062)" stroke-opacity="0.4" stroke-width="0.8" stroke-miterlimit="10"/>
<path d="M188.116 158.237L106.222 283.761C51.9033 367.018 75.3627 478.545 158.62 532.863L284.144 614.758C367.401 669.076 478.928 645.616 533.246 562.36L615.14 436.835C669.459 353.578 645.999 242.052 562.742 187.733L437.218 105.839C353.961 51.5205 242.434 74.9799 188.116 158.237Z" stroke="url(#paint44_linear_333_23062)" stroke-opacity="0.4" stroke-width="0.8" stroke-miterlimit="10"/>
<path d="M174.152 155.88L90.3828 300.968C40.6772 387.058 70.1727 497.142 156.263 546.848L301.351 630.617C387.441 680.323 497.525 650.827 547.231 564.737L631 419.649C680.705 333.559 651.21 223.475 565.12 173.769L420.032 89.9999C333.942 40.2942 223.858 69.7897 174.152 155.88Z" stroke="url(#paint45_linear_333_23062)" stroke-opacity="0.4" stroke-width="0.8" stroke-miterlimit="10"/>
<defs>
<linearGradient id="paint0_linear_333_23062" x1="357.394" y1="327.108" x2="359.595" y2="394.524" gradientUnits="userSpaceOnUse">
<stop stop-color="#AD7CBE"/>
<stop offset="0.594904" stop-color="#504CA3"/>
</linearGradient>
<linearGradient id="paint1_linear_333_23062" x1="371.656" y1="318.816" x2="344.013" y2="400.854" gradientUnits="userSpaceOnUse">
<stop stop-color="#AD7CBE"/>
<stop offset="0.594904" stop-color="#504CA3"/>
</linearGradient>
<linearGradient id="paint2_linear_333_23062" x1="385.929" y1="310.555" x2="328.438" y2="407.221" gradientUnits="userSpaceOnUse">
<stop stop-color="#AD7CBE"/>
<stop offset="0.594904" stop-color="#504CA3"/>
</linearGradient>
<linearGradient id="paint3_linear_333_23062" x1="400.172" y1="302.492" x2="312.823" y2="413.773" gradientUnits="userSpaceOnUse">
<stop stop-color="#AD7CBE"/>
<stop offset="0.594904" stop-color="#504CA3"/>
</linearGradient>
<linearGradient id="paint4_linear_333_23062" x1="399.276" y1="297.733" x2="316.587" y2="417.674" gradientUnits="userSpaceOnUse">
<stop stop-color="#AD7CBE"/>
<stop offset="0.594904" stop-color="#504CA3"/>
</linearGradient>
<linearGradient id="paint5_linear_333_23062" x1="398.319" y1="292.92" x2="320.299" y2="421.515" gradientUnits="userSpaceOnUse">
<stop stop-color="#AD7CBE"/>
<stop offset="0.594904" stop-color="#504CA3"/>
</linearGradient>
<linearGradient id="paint6_linear_333_23062" x1="397.36" y1="288.309" x2="323.993" y2="425.548" gradientUnits="userSpaceOnUse">
<stop stop-color="#AD7CBE"/>
<stop offset="0.594904" stop-color="#504CA3"/>
</linearGradient>
<linearGradient id="paint7_linear_333_23062" x1="392.094" y1="284.833" x2="325.439" y2="430.556" gradientUnits="userSpaceOnUse">
<stop stop-color="#AD7CBE"/>
<stop offset="0.594904" stop-color="#504CA3"/>
</linearGradient>
<linearGradient id="paint8_linear_333_23062" x1="386.956" y1="281.561" x2="326.988" y2="435.77" gradientUnits="userSpaceOnUse">
<stop stop-color="#AD7CBE"/>
<stop offset="0.594904" stop-color="#504CA3"/>
</linearGradient>
<linearGradient id="paint9_linear_333_23062" x1="381.649" y1="278.137" x2="328.392" y2="440.821" gradientUnits="userSpaceOnUse">
<stop stop-color="#AD7CBE"/>
<stop offset="0.594904" stop-color="#504CA3"/>
</linearGradient>
<linearGradient id="paint10_linear_333_23062" x1="377.109" y1="274.552" x2="332.723" y2="445.155" gradientUnits="userSpaceOnUse">
<stop stop-color="#AD7CBE"/>
<stop offset="0.594904" stop-color="#504CA3"/>
</linearGradient>
<linearGradient id="paint11_linear_333_23062" x1="372.371" y1="270.958" x2="336.867" y2="449.455" gradientUnits="userSpaceOnUse">
<stop stop-color="#AD7CBE"/>
<stop offset="0.594904" stop-color="#504CA3"/>
</linearGradient>
<linearGradient id="paint12_linear_333_23062" x1="367.696" y1="267.26" x2="341.082" y2="453.668" gradientUnits="userSpaceOnUse">
<stop stop-color="#AD7CBE"/>
<stop offset="0.594904" stop-color="#504CA3"/>
</linearGradient>
<linearGradient id="paint13_linear_333_23062" x1="361.959" y1="264.294" x2="346.47" y2="457.566" gradientUnits="userSpaceOnUse">
<stop stop-color="#AD7CBE"/>
<stop offset="0.594904" stop-color="#504CA3"/>
</linearGradient>
<linearGradient id="paint14_linear_333_23062" x1="356.236" y1="261.24" x2="351.879" y2="461.385" gradientUnits="userSpaceOnUse">
<stop stop-color="#AD7CBE"/>
<stop offset="0.594904" stop-color="#504CA3"/>
</linearGradient>
<linearGradient id="paint15_linear_333_23062" x1="350.564" y1="258.291" x2="357.325" y2="465.308" gradientUnits="userSpaceOnUse">
<stop stop-color="#AD7CBE"/>
<stop offset="0.594904" stop-color="#504CA3"/>
</linearGradient>
<linearGradient id="paint16_linear_333_23062" x1="343.79" y1="256.066" x2="363.923" y2="468.399" gradientUnits="userSpaceOnUse">
<stop stop-color="#AD7CBE"/>
<stop offset="0.594904" stop-color="#504CA3"/>
</linearGradient>
<linearGradient id="paint17_linear_333_23062" x1="336.992" y1="253.867" x2="370.497" y2="471.514" gradientUnits="userSpaceOnUse">
<stop stop-color="#AD7CBE"/>
<stop offset="0.594904" stop-color="#504CA3"/>
</linearGradient>
<linearGradient id="paint18_linear_333_23062" x1="330.219" y1="251.687" x2="377.092" y2="474.654" gradientUnits="userSpaceOnUse">
<stop stop-color="#AD7CBE"/>
<stop offset="0.594904" stop-color="#504CA3"/>
</linearGradient>
<linearGradient id="paint19_linear_333_23062" x1="322.487" y1="250.556" x2="384.862" y2="476.734" gradientUnits="userSpaceOnUse">
<stop stop-color="#AD7CBE"/>
<stop offset="0.594904" stop-color="#504CA3"/>
</linearGradient>
<linearGradient id="paint20_linear_333_23062" x1="314.758" y1="249.483" x2="392.63" y2="478.875" gradientUnits="userSpaceOnUse">
<stop stop-color="#AD7CBE"/>
<stop offset="0.594904" stop-color="#504CA3"/>
</linearGradient>
<linearGradient id="paint21_linear_333_23062" x1="306.922" y1="248.405" x2="400.297" y2="480.987" gradientUnits="userSpaceOnUse">
<stop stop-color="#AD7CBE"/>
<stop offset="0.594904" stop-color="#504CA3"/>
</linearGradient>
<linearGradient id="paint22_linear_333_23062" x1="298.364" y1="248.822" x2="409.122" y2="481.921" gradientUnits="userSpaceOnUse">
<stop stop-color="#AD7CBE"/>
<stop offset="0.594904" stop-color="#504CA3"/>
</linearGradient>
<linearGradient id="paint23_linear_333_23062" x1="289.713" y1="249.046" x2="417.888" y2="482.655" gradientUnits="userSpaceOnUse">
<stop stop-color="#AD7CBE"/>
<stop offset="0.594904" stop-color="#504CA3"/>
</linearGradient>
<linearGradient id="paint24_linear_333_23062" x1="281.034" y1="249.363" x2="426.617" y2="483.477" gradientUnits="userSpaceOnUse">
<stop stop-color="#AD7CBE"/>
<stop offset="0.594904" stop-color="#504CA3"/>
</linearGradient>
<linearGradient id="paint25_linear_333_23062" x1="272.535" y1="250.707" x2="437.069" y2="482.063" gradientUnits="userSpaceOnUse">
<stop stop-color="#AD7CBE"/>
<stop offset="0.594904" stop-color="#504CA3"/>
</linearGradient>
<linearGradient id="paint26_linear_333_23062" x1="263.914" y1="252.164" x2="447.392" y2="480.739" gradientUnits="userSpaceOnUse">
<stop stop-color="#AD7CBE"/>
<stop offset="0.594904" stop-color="#504CA3"/>
</linearGradient>
<linearGradient id="paint27_linear_333_23062" x1="467.766" y1="251.081" x2="241.948" y2="453.502" gradientUnits="userSpaceOnUse">
<stop stop-color="#AD7CBE"/>
<stop offset="0.594904" stop-color="#504CA3"/>
</linearGradient>
<linearGradient id="paint28_linear_333_23062" x1="463.131" y1="242.062" x2="243.926" y2="464.472" gradientUnits="userSpaceOnUse">
<stop stop-color="#AD7CBE"/>
<stop offset="0.594904" stop-color="#504CA3"/>
</linearGradient>
<linearGradient id="paint29_linear_333_23062" x1="458.505" y1="232.907" x2="245.932" y2="475.328" gradientUnits="userSpaceOnUse">
<stop stop-color="#AD7CBE"/>
<stop offset="0.594904" stop-color="#504CA3"/>
</linearGradient>
<linearGradient id="paint30_linear_333_23062" x1="453.819" y1="223.943" x2="247.851" y2="486.341" gradientUnits="userSpaceOnUse">
<stop stop-color="#AD7CBE"/>
<stop offset="0.594904" stop-color="#504CA3"/>
</linearGradient>
<linearGradient id="paint31_linear_333_23062" x1="447.776" y1="214.176" x2="252.8" y2="496.991" gradientUnits="userSpaceOnUse">
<stop stop-color="#AD7CBE"/>
<stop offset="0.594904" stop-color="#504CA3"/>
</linearGradient>
<linearGradient id="paint32_linear_333_23062" x1="441.658" y1="204.363" x2="257.695" y2="507.581" gradientUnits="userSpaceOnUse">
<stop stop-color="#AD7CBE"/>
<stop offset="0.594904" stop-color="#504CA3"/>
</linearGradient>
<linearGradient id="paint33_linear_333_23062" x1="435.563" y1="194.755" x2="262.567" y2="518.36" gradientUnits="userSpaceOnUse">
<stop stop-color="#AD7CBE"/>
<stop offset="0.594904" stop-color="#504CA3"/>
</linearGradient>
<linearGradient id="paint34_linear_333_23062" x1="427.047" y1="185.292" x2="269.88" y2="528.897" gradientUnits="userSpaceOnUse">
<stop stop-color="#AD7CBE"/>
<stop offset="0.594904" stop-color="#504CA3"/>
</linearGradient>
<linearGradient id="paint35_linear_333_23062" x1="418.687" y1="176.028" x2="277.288" y2="539.641" gradientUnits="userSpaceOnUse">
<stop stop-color="#AD7CBE"/>
<stop offset="0.594904" stop-color="#504CA3"/>
</linearGradient>
<linearGradient id="paint36_linear_333_23062" x1="410.141" y1="166.618" x2="284.564" y2="550.219" gradientUnits="userSpaceOnUse">
<stop stop-color="#AD7CBE"/>
<stop offset="0.594904" stop-color="#504CA3"/>
</linearGradient>
<linearGradient id="paint37_linear_333_23062" x1="399.291" y1="158.122" x2="294.632" y2="560.391" gradientUnits="userSpaceOnUse">
<stop stop-color="#AD7CBE"/>
<stop offset="0.594904" stop-color="#504CA3"/>
</linearGradient>
<linearGradient id="paint38_linear_333_23062" x1="388.24" y1="149.623" x2="304.526" y2="570.509" gradientUnits="userSpaceOnUse">
<stop stop-color="#AD7CBE"/>
<stop offset="0.594904" stop-color="#504CA3"/>
</linearGradient>
<linearGradient id="paint39_linear_333_23062" x1="377.246" y1="141.013" x2="314.495" y2="580.547" gradientUnits="userSpaceOnUse">
<stop stop-color="#AD7CBE"/>
<stop offset="0.594904" stop-color="#504CA3"/>
</linearGradient>
<linearGradient id="paint40_linear_333_23062" x1="363.746" y1="133.935" x2="327.223" y2="589.661" gradientUnits="userSpaceOnUse">
<stop stop-color="#AD7CBE"/>
<stop offset="0.594904" stop-color="#504CA3"/>
</linearGradient>
<linearGradient id="paint41_linear_333_23062" x1="350.245" y1="126.765" x2="339.973" y2="598.693" gradientUnits="userSpaceOnUse">
<stop stop-color="#AD7CBE"/>
<stop offset="0.594904" stop-color="#504CA3"/>
</linearGradient>
<linearGradient id="paint42_linear_333_23062" x1="336.81" y1="119.699" x2="352.752" y2="607.831" gradientUnits="userSpaceOnUse">
<stop stop-color="#AD7CBE"/>
<stop offset="0.594904" stop-color="#504CA3"/>
</linearGradient>
<linearGradient id="paint43_linear_333_23062" x1="320.83" y1="114.508" x2="368.303" y2="615.182" gradientUnits="userSpaceOnUse">
<stop stop-color="#AD7CBE"/>
<stop offset="0.594904" stop-color="#504CA3"/>
</linearGradient>
<linearGradient id="paint44_linear_333_23062" x1="304.82" y1="109.329" x2="383.824" y2="622.536" gradientUnits="userSpaceOnUse">
<stop stop-color="#AD7CBE"/>
<stop offset="0.594904" stop-color="#504CA3"/>
</linearGradient>
<linearGradient id="paint45_linear_333_23062" x1="288.847" y1="104.179" x2="399.37" y2="629.922" gradientUnits="userSpaceOnUse">
<stop stop-color="#AD7CBE"/>
<stop offset="0.594904" stop-color="#504CA3"/>
</linearGradient>
</defs>
</svg>
