<svg width="48" height="48" viewBox="0 0 48 48" fill="none" xmlns="http://www.w3.org/2000/svg">
<path fill-rule="evenodd" clip-rule="evenodd" d="M24 45C35.598 45 45 35.598 45 24C45 12.402 35.598 3 24 3C12.402 3 3 12.402 3 24C3 35.598 12.402 45 24 45ZM24 48C37.2548 48 48 37.2548 48 24C48 10.7452 37.2548 0 24 0C10.7452 0 0 10.7452 0 24C0 37.2548 10.7452 48 24 48Z" fill="#6236FF" fill-opacity="0.8"/>
<path d="M34 34H14" stroke="#673BFF" stroke-width="1.5" stroke-linecap="round"/>
<path d="M33 34V26.5C33 26.1022 32.842 25.7206 32.5607 25.4393C32.2794 25.158 31.8978 25 31.5 25H28.5C28.1022 25 27.7206 25.158 27.4393 25.4393C27.158 25.7206 27 26.1022 27 26.5V34V17C27 15.586 27 14.879 26.56 14.44C26.122 14 25.415 14 24 14C22.586 14 21.879 14 21.44 14.44C21 14.878 21 15.585 21 17V34V21.5C21 21.1022 20.842 20.7206 20.5607 20.4393C20.2794 20.158 19.8978 20 19.5 20H16.5C16.1022 20 15.7206 20.158 15.4393 20.4393C15.158 20.7206 15 21.1022 15 21.5V34" stroke="#673BFF" stroke-width="1.5"/>
</svg>
