<svg width="25" height="24" viewBox="0 0 25 24" fill="none" xmlns="http://www.w3.org/2000/svg">
<g id="lock" opacity="0.4">
<path id="Icon" d="M12.7998 4C14.4475 4 15.7998 5.35228 15.7998 7V10H9.7998V7C9.7998 5.35228 11.1521 4 12.7998 4ZM17.7998 10V7C17.7998 4.24772 15.5521 2 12.7998 2C10.0475 2 7.7998 4.24772 7.7998 7V10H6.7998C5.69524 10 4.7998 10.8954 4.7998 12V20C4.7998 21.1046 5.69524 22 6.79981 22H18.7998C19.9044 22 20.7998 21.1046 20.7998 20V12C20.7998 10.8954 19.9044 10 18.7998 10H17.7998ZM6.7998 12H18.7998V20H6.7998V12Z" fill="#45167A"/>
</g>
</svg>
