<svg width="212" height="67" viewBox="0 0 212 67" fill="none" xmlns="http://www.w3.org/2000/svg">
<g id="Logo">
<path id="Vector" d="M24.5875 29.4549L18.4183 28.2865C18.2911 28.263 18.1937 28.3069 18.1262 28.4184C17.4902 29.4847 17.224 30.6437 17.3276 31.8952C17.3339 31.9785 17.3708 32.0452 17.4383 32.0955C18.1379 32.6278 18.0508 33.212 17.6668 33.9234C17.6476 33.9588 17.6399 33.9993 17.645 34.0391C17.6501 34.0789 17.6676 34.1159 17.6951 34.1448C18.8752 35.3697 19.3581 37.9561 19.5725 39.5932C19.6243 39.9842 19.8245 40.493 19.5348 40.8958C18.9883 41.6543 15.9284 41.9699 15.6175 40.8558C15.0019 38.6306 15.1079 36.447 15.9355 34.305C15.9669 34.2233 15.9496 34.1542 15.8837 34.0977C15.2634 33.5795 15.2006 32.9811 15.6952 32.3027C15.7422 32.2393 15.7632 32.1601 15.7541 32.0813C15.5798 30.4843 15.8852 28.9955 16.6704 27.6152C16.7191 27.5304 16.7215 27.444 16.6775 27.3561C15.985 25.9475 16.7317 25.2196 17.9307 24.4823C22.2853 21.8048 26.6384 19.1226 30.9899 16.4357C31.6471 16.0282 32.4126 16.08 33.2465 16.2402C41.092 17.7399 46.1651 18.723 48.4657 19.1894C50.0086 19.5027 50.5127 21.5543 49.1559 22.4118C47.061 23.7372 44.945 25.0618 42.8077 26.3856C42.7889 26.3969 42.7733 26.4127 42.7624 26.4316C42.7514 26.4506 42.7454 26.472 42.7449 26.4938C42.7445 26.5157 42.7495 26.5373 42.7597 26.5567C42.7698 26.5761 42.7847 26.5926 42.803 26.6047C51.8153 32.7197 50.1971 46.3913 39.9103 50.1532C30.9922 53.4132 21.2685 46.2194 22.0387 36.6699C22.2429 34.1322 23.1199 31.7971 24.6699 29.6645C24.6834 29.6467 24.692 29.6258 24.695 29.6036C24.698 29.5815 24.6952 29.5589 24.687 29.538C24.6787 29.517 24.6653 29.4984 24.6479 29.4839C24.6305 29.4694 24.6097 29.4594 24.5875 29.4549ZM45.2457 21.1657C41.0748 20.3475 36.863 19.549 32.6105 18.7701C32.3858 18.7291 32.1537 18.7718 31.958 18.8902C28.4074 21.0605 24.801 23.2794 21.1389 25.547C21.0164 25.624 20.9269 25.7095 20.8704 25.8038C20.8524 25.8345 20.842 25.869 20.8402 25.9045C20.8384 25.9401 20.8452 25.9755 20.86 26.0079C20.8748 26.0402 20.8972 26.0685 20.9252 26.0904C20.9533 26.1123 20.9862 26.1271 21.0211 26.1335L33.6422 28.5833C33.9421 28.6409 34.2531 28.5837 34.5138 28.4231L45.4247 21.7004C45.4621 21.6767 45.4927 21.6438 45.5138 21.6051C45.5348 21.5663 45.5455 21.5229 45.5448 21.479C45.5433 21.3078 45.4435 21.2034 45.2457 21.1657ZM34.2287 31.2498C33.1075 31.1619 31.0982 30.8015 28.2009 30.1686C27.9214 30.1074 27.6819 30.189 27.4824 30.4136C24.472 33.815 23.8478 38.1681 25.7252 42.2314C29.3174 50.0095 40.2166 50.2639 44.5155 43.11C47.7261 37.7676 45.7898 31.0166 40.2566 28.1428C40.2044 28.1157 40.1457 28.103 40.0866 28.1059C40.0275 28.1088 39.9699 28.1272 39.9198 28.1593C38.8291 28.8636 35.3099 31.3323 34.2287 31.2498Z" fill="#161616"/>
<path id="Vector_2" d="M64.7119 26.1911C66.2595 24.4574 68.1864 23.9698 70.5419 23.8497C73.7455 23.6872 78.2634 24.7943 78.8264 28.6904C78.8308 28.7202 78.8287 28.7505 78.8203 28.7795C78.8119 28.8084 78.7974 28.8351 78.7778 28.8579C78.7581 28.8807 78.7337 28.899 78.7064 28.9116C78.679 28.9241 78.6492 28.9306 78.6191 28.9306L75.6229 28.9377C75.5349 28.9377 75.4713 28.8977 75.4321 28.8176C74.2496 26.4597 71.1544 26.2005 68.9001 26.9143C67.084 27.489 66.3184 29.6561 68.5727 30.2403C70.9989 30.8716 74.8078 30.6832 77.1775 32.3132C79.1421 33.6629 80.0419 36.777 78.3106 38.9041C74.968 43.0074 64.9993 42.1005 63.6284 36.3271C63.5656 36.0601 63.6716 35.9258 63.9464 35.9243L66.9167 35.8937C67.0062 35.8921 67.0698 35.9321 67.1075 36.0138C68.1675 38.3317 70.9471 38.7698 73.199 38.4C74.3909 38.2045 76.0327 37.38 75.7713 35.9243C75.4509 34.1293 70.8623 33.8797 68.7823 33.6135C67.4773 33.4439 65.6541 32.683 64.8132 31.6372C63.6401 30.1744 63.3645 27.6987 64.7119 26.1911Z" fill="#161616"/>
<path id="Vector_3" d="M119.238 24.1382H116.496C116.327 24.1382 116.19 24.2753 116.19 24.4444V40.7307C116.19 40.8998 116.327 41.0369 116.496 41.0369H119.238C119.407 41.0369 119.544 40.8998 119.544 40.7307V24.4444C119.544 24.2753 119.407 24.1382 119.238 24.1382Z" fill="#161616"/>
<path id="Vector_4" d="M122.609 24.1525L137.213 24.1313C137.307 24.1313 137.396 24.1683 137.462 24.2341C137.527 24.3 137.564 24.3892 137.564 24.4823V26.8826C137.564 26.9753 137.528 27.0642 137.462 27.13C137.397 27.1957 137.309 27.233 137.216 27.2336L131.965 27.2737C131.873 27.2743 131.784 27.3115 131.719 27.3773C131.653 27.443 131.617 27.532 131.617 27.6246V40.6885C131.617 40.7346 131.608 40.7803 131.59 40.8229C131.572 40.8654 131.546 40.9041 131.514 40.9367C131.481 40.9693 131.443 40.9952 131.4 41.0128C131.357 41.0304 131.312 41.0395 131.266 41.0395H128.611C128.565 41.0395 128.519 41.0304 128.477 41.0128C128.434 40.9952 128.395 40.9693 128.363 40.9367C128.33 40.9041 128.304 40.8654 128.287 40.8229C128.269 40.7803 128.26 40.7346 128.26 40.6885V27.6105C128.26 27.5174 128.223 27.4281 128.157 27.3623C128.091 27.2965 128.002 27.2595 127.909 27.2595H122.602C122.509 27.2595 122.42 27.2225 122.354 27.1567C122.288 27.0909 122.251 27.0016 122.251 26.9085L122.26 24.5012C122.261 24.4089 122.298 24.3206 122.363 24.2553C122.428 24.1901 122.517 24.1532 122.609 24.1525Z" fill="#161616"/>
<path id="Vector_5" d="M96.479 35.0147C96.479 36.7196 95.692 38.3547 94.2912 39.5602C92.8904 40.7658 90.9905 41.443 89.0095 41.443C87.0285 41.443 85.1286 40.7658 83.7278 39.5602C82.327 38.3547 81.54 36.7196 81.54 35.0147C81.54 33.3098 82.327 31.6748 83.7278 30.4692C85.1286 29.2637 87.0285 28.5864 89.0095 28.5864C90.9905 28.5864 92.8904 29.2637 94.2912 30.4692C95.692 31.6748 96.479 33.3098 96.479 35.0147ZM93.0822 35.0243C93.0838 34.589 92.9797 34.1577 92.7759 33.7549C92.5722 33.3521 92.2728 32.9857 91.8948 32.6766C91.5168 32.3675 91.0676 32.1218 90.5729 31.9535C90.0783 31.7852 89.5477 31.6977 89.0116 31.6958C87.929 31.692 86.8895 32.0376 86.1217 32.6564C85.354 33.2753 84.921 34.1168 84.9179 34.9958C84.9164 35.431 85.0205 35.8623 85.2242 36.2652C85.428 36.668 85.7274 37.0344 86.1054 37.3435C86.4834 37.6526 86.9325 37.8982 87.4272 38.0665C87.9219 38.2348 88.4524 38.3224 88.9885 38.3243C90.0712 38.328 91.1107 37.9825 91.8784 37.3636C92.6461 36.7448 93.0792 35.9033 93.0822 35.0243Z" fill="#161616"/>
<path id="Vector_6" d="M140.605 36.0968C140.759 37.1403 141.548 37.913 142.532 38.3417C144.373 39.141 146.096 38.8528 147.7 37.4772C147.759 37.4269 147.826 37.401 147.903 37.3994L150.525 37.3523C150.587 37.351 150.649 37.366 150.704 37.3959C150.76 37.4258 150.806 37.4696 150.839 37.523C150.872 37.5763 150.891 37.6375 150.894 37.7005C150.897 37.7635 150.883 37.8261 150.855 37.8823C148.339 42.756 139.842 42.4898 137.572 37.595C136.139 34.5068 137.437 31.0112 140.497 29.4801C142.298 28.5787 144.279 28.4028 146.44 28.9524C149.806 29.8098 151.51 31.9801 151.554 35.4632C151.555 35.5145 151.546 35.5655 151.527 35.6132C151.507 35.6609 151.479 35.7043 151.443 35.7409C151.407 35.7775 151.363 35.8066 151.316 35.8265C151.268 35.8463 151.217 35.8566 151.165 35.8566H140.813C140.783 35.8566 140.753 35.8631 140.726 35.8756C140.698 35.8882 140.674 35.9065 140.654 35.9293C140.634 35.9521 140.62 35.9788 140.612 36.0077C140.603 36.0367 140.601 36.067 140.605 36.0968ZM140.657 34.2077L147.894 34.1935C147.901 34.1935 147.908 34.1906 147.914 34.1853C147.919 34.18 147.922 34.1728 147.922 34.1653V34.1606C147.92 33.4185 147.544 32.7077 146.875 32.1842C146.206 31.6608 145.3 31.3676 144.356 31.3692H144.186C143.718 31.37 143.255 31.4432 142.823 31.5847C142.391 31.7261 141.999 31.933 141.668 32.1935C141.338 32.454 141.076 32.7631 140.898 33.103C140.72 33.443 140.628 33.8071 140.629 34.1747V34.1794C140.629 34.1869 140.632 34.1941 140.637 34.1994C140.643 34.2047 140.65 34.2077 140.657 34.2077Z" fill="#161616"/>
<path id="Vector_7" d="M166.222 39.9364C166.175 39.7589 166.074 39.7197 165.92 39.8186C163.628 41.2869 161.3 41.7164 158.939 41.1071C152.663 39.4864 152.303 31.1666 158.519 29.0584C161.079 28.19 163.534 28.5881 165.885 30.2527C165.914 30.2729 165.946 30.2859 165.981 30.2905C166.016 30.2951 166.051 30.2912 166.083 30.2791C166.116 30.267 166.146 30.2472 166.169 30.2212C166.192 30.1953 166.209 30.164 166.217 30.1302L166.448 29.2351C166.467 29.1597 166.511 29.0929 166.573 29.0452C166.634 28.9974 166.709 28.9714 166.787 28.9713L169.178 28.9665C169.218 28.9662 169.257 28.9738 169.294 28.9888C169.331 29.0038 169.365 29.026 169.393 29.054C169.421 29.082 169.444 29.1154 169.459 29.1521C169.474 29.1889 169.482 29.2283 169.482 29.2681V40.8032C169.482 40.8657 169.457 40.9256 169.413 40.9698C169.369 41.0139 169.309 41.0388 169.246 41.0388H166.691C166.64 41.0387 166.59 41.0216 166.549 40.9901C166.509 40.9585 166.48 40.9144 166.467 40.8644L166.222 39.9364ZM166.151 35.0109C166.151 34.0944 165.689 33.2155 164.867 32.5674C164.044 31.9194 162.928 31.5553 161.765 31.5553C160.602 31.5553 159.486 31.9194 158.664 32.5674C157.841 33.2155 157.379 34.0944 157.379 35.0109C157.379 35.9274 157.841 36.8063 158.664 37.4544C159.486 38.1024 160.602 38.4665 161.765 38.4665C162.928 38.4665 164.044 38.1024 164.867 37.4544C165.689 36.8063 166.151 35.9274 166.151 35.0109Z" fill="#161616"/>
<path id="Vector_8" d="M187.008 33.3403C186.089 34.8832 186.497 38.8193 186.504 40.6897C186.504 40.7821 186.467 40.8708 186.402 40.9362C186.337 41.0015 186.248 41.0383 186.155 41.0383H183.444C183.212 41.0383 183.095 40.9221 183.093 40.6897C183.081 38.7463 183.446 35.2059 182.742 33.6489C181.583 31.0908 177.744 31.0931 176.604 33.6136C175.855 35.2695 176.187 38.7487 176.201 40.7886C176.201 40.8213 176.195 40.8537 176.183 40.884C176.17 40.9142 176.152 40.9418 176.129 40.965C176.106 40.9882 176.079 41.0066 176.049 41.0192C176.018 41.0318 175.986 41.0383 175.953 41.0383H173.202C172.934 41.0383 172.799 40.904 172.799 40.6355L172.788 29.3241C172.788 29.2298 172.825 29.1393 172.892 29.0726C172.958 29.0059 173.049 28.9684 173.143 28.9684L175.567 28.966C175.644 28.9659 175.718 28.9927 175.777 29.0418C175.836 29.0909 175.876 29.1591 175.89 29.2346L176.059 30.1744C176.071 30.2342 176.098 30.2897 176.139 30.3348C176.179 30.38 176.232 30.413 176.29 30.4303C176.348 30.4476 176.41 30.4485 176.469 30.4329C176.527 30.4172 176.581 30.3857 176.622 30.3417C179.291 27.4985 183.661 28.3489 185.564 31.5831C185.584 31.6171 185.612 31.6457 185.646 31.6663C185.68 31.6868 185.718 31.6987 185.757 31.7008C185.797 31.7029 185.836 31.6952 185.871 31.6783C185.906 31.6615 185.937 31.636 185.96 31.6043C186.455 30.9235 187.001 30.1744 187.658 29.6939C190.822 27.3737 195 29.0414 196.284 32.5465C197.055 34.6429 196.772 38.2399 196.739 40.8074C196.738 40.8689 196.713 40.9276 196.67 40.9708C196.626 41.014 196.567 41.0383 196.506 41.0383H193.745C193.65 41.0383 193.559 41.0006 193.492 40.9334C193.425 40.8663 193.387 40.7752 193.387 40.6802C193.396 39.1727 193.396 37.6447 193.387 36.0963C193.379 35.0238 193.289 34.2606 193.116 33.8067C192.146 31.258 188.412 30.9848 187.008 33.3403Z" fill="#161616"/>
<path id="Vector_9" d="M106.249 41.2249C103.064 41.908 100.219 40.2332 99.187 37.2181C98.9577 36.5538 98.8345 35.5597 98.8172 34.2359C98.7952 32.5431 98.796 30.8369 98.8195 29.1173C98.8211 29.0278 98.8667 28.983 98.9562 28.983L101.87 28.9595C101.909 28.9592 101.947 28.9665 101.983 28.981C102.019 28.9955 102.051 29.0169 102.079 29.0441C102.106 29.0712 102.128 29.1035 102.143 29.1391C102.159 29.1747 102.166 29.2129 102.167 29.2516C102.178 30.789 102.178 32.3413 102.167 33.9085C102.161 34.8099 102.255 35.5111 102.449 36.012C103.606 38.98 107.954 39.0789 109.191 36.1416C109.367 35.7207 109.459 35.113 109.467 34.3184C109.479 32.682 109.48 31.0567 109.469 29.4424C109.469 29.38 109.481 29.3182 109.504 29.2605C109.528 29.2027 109.563 29.1503 109.607 29.1061C109.651 29.0618 109.703 29.0268 109.761 29.0028C109.818 28.9789 109.88 28.9665 109.942 28.9665H112.508C112.609 28.9665 112.706 29.007 112.778 29.079C112.849 29.151 112.889 29.2487 112.889 29.3505V40.7373C112.889 40.8172 112.858 40.8939 112.801 40.9505C112.744 41.007 112.668 41.0388 112.588 41.0388H110.107C110.013 41.0388 109.943 40.9972 109.898 40.9139C109.734 40.6187 109.665 40.3015 109.69 39.9623C109.694 39.9142 109.687 39.8659 109.671 39.8208C109.654 39.7756 109.628 39.7347 109.594 39.7008C109.366 39.4684 109.109 39.4998 108.824 39.795C108.109 40.5347 107.251 41.0113 106.249 41.2249Z" fill="#161616"/>
<path id="Vector_10" d="M30.1932 35.6707C28.582 40.4242 33.0882 44.5535 37.6792 42.6313C40.9699 41.2557 41.8203 36.8273 39.6437 34.1372C39.4223 33.864 38.0655 32.9477 38.1762 32.2386C38.3097 31.3734 38.7777 30.8449 39.5801 30.6533C39.6526 30.6367 39.7286 30.6485 39.7921 30.6863C45.9755 34.5117 44.3666 43.828 37.406 45.6488C30.0566 47.5709 24.1395 39.1004 28.5703 32.8676C29.211 31.9701 30.5536 32.5849 30.9164 33.3881C31.3027 34.2432 30.4453 34.9263 30.1932 35.6707Z" fill="#161616"/>
<path id="Vector_11" d="M36.6649 38.115C37.1902 35.4367 33.174 36.3671 34.4201 38.3081C34.9666 39.1585 36.2527 38.8546 35.539 40.5176C35.4463 40.7312 35.2422 40.8184 34.9265 40.7791C31.6076 40.3669 31.2378 35.6534 34.5002 34.6075C36.321 34.0234 38.0076 34.9656 38.6012 36.7911C39.0511 38.1809 38.2809 40.0183 36.7285 38.3387C36.7008 38.3096 36.6806 38.2741 36.6695 38.2351C36.6585 38.1962 36.6569 38.155 36.6649 38.115Z" fill="#161616"/>
<path id="Vector_12" d="M179.742 47.3944C179.796 47.2735 179.891 47.2138 180.027 47.2154C180.178 47.2169 180.308 47.2986 180.416 47.4603C180.435 47.4899 180.461 47.5149 180.491 47.5336C180.521 47.5523 180.555 47.5643 180.59 47.5687C182.331 47.7972 182.303 49.9007 180.586 50.0515C180.549 50.0544 180.514 50.066 180.484 50.0853C180.453 50.1045 180.427 50.1309 180.409 50.1622L180.338 50.2799C180.31 50.3271 180.271 50.3608 180.221 50.3812C180.007 50.4692 179.845 50.4079 179.733 50.1975C179.717 50.1673 179.694 50.141 179.667 50.1207C179.64 50.1003 179.608 50.0863 179.575 50.0797C177.693 49.6981 177.787 48.0304 179.575 47.5357C179.654 47.5153 179.709 47.4682 179.742 47.3944ZM179.801 49.4437L179.719 48.1882C179.716 48.1599 179.703 48.1336 179.681 48.1151C179.66 48.0966 179.632 48.0873 179.603 48.0893L179.568 48.0916C179.377 48.1043 179.198 48.189 179.072 48.3272C178.945 48.4654 178.88 48.6459 178.892 48.8289L178.899 48.9184C178.911 49.1014 178.999 49.2718 179.142 49.3923C179.286 49.5129 179.474 49.5737 179.665 49.5615L179.7 49.5591C179.714 49.5582 179.728 49.5545 179.741 49.5482C179.754 49.542 179.765 49.5332 179.775 49.5225C179.784 49.5117 179.791 49.4993 179.796 49.4858C179.8 49.4722 179.802 49.458 179.801 49.4437ZM180.378 48.1976L180.374 49.4367C180.374 49.461 180.383 49.4844 180.401 49.5016C180.418 49.5188 180.441 49.5285 180.466 49.5285L180.529 49.5309C180.717 49.5315 180.897 49.4574 181.03 49.3249C181.163 49.1923 181.238 49.0123 181.238 48.8242V48.8195C181.239 48.7264 181.221 48.6341 181.185 48.548C181.15 48.4618 181.098 48.3835 181.033 48.3174C180.968 48.2514 180.89 48.1989 180.804 48.163C180.719 48.1271 180.627 48.1084 180.534 48.1081L180.47 48.1058C180.446 48.1058 180.423 48.1154 180.405 48.1327C180.388 48.1499 180.378 48.1733 180.378 48.1976Z" fill="#161616"/>
<path id="Vector_13" d="M80.564 48.7423L81.1293 47.5457C81.1702 47.4593 81.2377 47.4106 81.3319 47.3996L81.7229 47.3501C81.8439 47.3344 81.8776 47.3808 81.8242 47.4891C81.2919 48.5703 80.5899 50.5537 79.3391 50.3182C79.2685 50.304 79.2394 50.2608 79.252 50.1886L79.3085 49.8824C79.3126 49.8604 79.3234 49.8402 79.3394 49.8246C79.3555 49.809 79.3759 49.7987 79.398 49.7952L79.9586 49.7034C79.9834 49.6993 80.0069 49.6893 80.0271 49.6743C80.0473 49.6593 80.0636 49.6396 80.0746 49.6171C80.0857 49.5945 80.0912 49.5696 80.0907 49.5444C80.0902 49.5193 80.0837 49.4946 80.0717 49.4725L79.0423 47.5692C79.033 47.5517 79.0284 47.532 79.0288 47.5122C79.0293 47.4923 79.035 47.4729 79.0451 47.4559C79.0553 47.4388 79.0697 47.4247 79.087 47.4148C79.1042 47.405 79.1237 47.3997 79.1436 47.3996H79.5511C79.6343 47.3996 79.694 47.4373 79.7301 47.5127L80.3379 48.7446C80.3482 48.766 80.3643 48.784 80.3845 48.7966C80.4046 48.8091 80.428 48.8156 80.4517 48.8154C80.4754 48.8151 80.4986 48.8081 80.5185 48.7952C80.5384 48.7822 80.5542 48.7639 80.564 48.7423Z" fill="#161616"/>
<path id="Vector_14" d="M95.8888 48.7657C95.9033 49.1627 95.7499 49.5497 95.4622 49.8414C95.1745 50.1331 94.7762 50.3056 94.3548 50.3211C94.1461 50.3287 93.9381 50.2976 93.7425 50.2294C93.547 50.1612 93.3678 50.0574 93.2151 49.9238C93.0625 49.7902 92.9394 49.6294 92.8529 49.4507C92.7664 49.272 92.7181 49.0788 92.7109 48.8822C92.6964 48.4851 92.8498 48.0982 93.1375 47.8065C93.4252 47.5148 93.8235 47.3423 94.2449 47.3268C94.4536 47.3192 94.6616 47.3503 94.8572 47.4185C95.0527 47.4866 95.2319 47.5905 95.3846 47.7241C95.5372 47.8577 95.6603 48.0185 95.7468 48.1972C95.8333 48.3759 95.8816 48.5691 95.8888 48.7657ZM95.2162 48.831C95.2162 48.5886 95.1199 48.3561 94.9485 48.1847C94.7771 48.0133 94.5446 47.9171 94.3022 47.9171C94.0598 47.9171 93.8273 48.0133 93.6559 48.1847C93.4845 48.3561 93.3882 48.5886 93.3882 48.831C93.3882 49.0734 93.4845 49.3059 93.6559 49.4773C93.8273 49.6487 94.0598 49.745 94.3022 49.745C94.5446 49.745 94.7771 49.6487 94.9485 49.4773C95.1199 49.3059 95.2162 49.0734 95.2162 48.831Z" fill="#161616"/>
<path id="Vector_15" d="M115.696 48.8484C115.69 49.2463 115.517 49.6256 115.215 49.9028C114.912 50.18 114.505 50.3324 114.083 50.3265C113.874 50.3236 113.667 50.2819 113.475 50.2038C113.283 50.1257 113.109 50.0128 112.963 49.8714C112.817 49.73 112.702 49.563 112.625 49.3798C112.547 49.1967 112.509 49.001 112.511 48.804C112.517 48.406 112.69 48.0268 112.993 47.7496C113.295 47.4724 113.702 47.32 114.125 47.3258C114.334 47.3288 114.54 47.3705 114.732 47.4486C114.924 47.5267 115.098 47.6396 115.244 47.781C115.39 47.9224 115.505 48.0894 115.583 48.2726C115.66 48.4557 115.699 48.6514 115.696 48.8484ZM115.018 48.8285C115.018 48.5855 114.921 48.3525 114.749 48.1806C114.577 48.0088 114.344 47.9122 114.101 47.9122C113.858 47.9122 113.625 48.0088 113.453 48.1806C113.281 48.3525 113.185 48.5855 113.185 48.8285C113.185 49.0716 113.281 49.3046 113.453 49.4765C113.625 49.6483 113.858 49.7449 114.101 49.7449C114.344 49.7449 114.577 49.6483 114.749 49.4765C114.921 49.3046 115.018 49.0716 115.018 48.8285Z" fill="#161616"/>
<path id="Vector_16" d="M127.606 49.0575L126.812 49.0386C126.774 49.038 126.738 49.0226 126.712 48.9957C126.685 48.9689 126.67 48.9327 126.67 48.895V48.7324C126.67 48.6955 126.685 48.66 126.71 48.6332C126.735 48.6065 126.77 48.5905 126.807 48.5887L127.478 48.5487C127.563 48.5432 127.643 48.506 127.702 48.4444C127.761 48.3827 127.794 48.3013 127.796 48.2161C127.797 48.1309 127.767 48.0483 127.71 47.9847C127.653 47.9211 127.575 47.8811 127.49 47.8726C127.162 47.8412 126.84 47.8876 126.524 48.0116C126.418 48.054 126.353 48.0187 126.331 47.9056L126.284 47.6536C126.268 47.5656 126.302 47.5067 126.385 47.4769C127.16 47.1942 129.149 47.378 128.216 48.6429C128.196 48.6701 128.187 48.7036 128.19 48.7367C128.194 48.7699 128.21 48.8003 128.235 48.8219C128.739 49.2718 128.67 49.8866 128.032 50.1481C127.457 50.3821 126.871 50.3632 126.272 50.0916C126.203 50.0617 126.177 50.0099 126.195 49.9361L126.235 49.7524C126.263 49.633 126.334 49.5938 126.449 49.6346C126.848 49.7712 127.252 49.7995 127.662 49.7194C127.742 49.7029 127.814 49.6575 127.863 49.5919C127.912 49.5262 127.935 49.4449 127.928 49.3633C127.921 49.2817 127.884 49.2055 127.825 49.1492C127.765 49.0928 127.687 49.0602 127.606 49.0575Z" fill="#161616"/>
<path id="Vector_17" d="M132.333 48.752C132.343 48.9491 132.311 49.1463 132.24 49.3321C132.169 49.518 132.06 49.689 131.919 49.8354C131.778 49.9817 131.609 50.1005 131.42 50.1851C131.231 50.2696 131.027 50.3181 130.818 50.3279C130.398 50.3478 129.987 50.2086 129.676 49.9411C129.366 49.6736 129.181 49.2997 129.162 48.9016C129.152 48.7044 129.184 48.5073 129.255 48.3214C129.326 48.1355 129.435 47.9645 129.576 47.8182C129.717 47.6718 129.886 47.553 130.075 47.4685C130.264 47.384 130.469 47.3354 130.677 47.3256C131.097 47.3058 131.508 47.4449 131.819 47.7124C132.13 47.9799 132.315 48.3538 132.333 48.752ZM131.664 48.8315C131.664 48.5878 131.567 48.3542 131.395 48.1819C131.223 48.0096 130.989 47.9128 130.745 47.9128C130.502 47.9128 130.268 48.0096 130.096 48.1819C129.923 48.3542 129.827 48.5878 129.827 48.8315C129.827 49.0751 129.923 49.3088 130.096 49.4811C130.268 49.6534 130.502 49.7501 130.745 49.7501C130.989 49.7501 131.223 49.6534 131.395 49.4811C131.567 49.3088 131.664 49.0751 131.664 48.8315Z" fill="#161616"/>
<path id="Vector_18" d="M185.623 48.8541C185.616 49.2489 185.44 49.6245 185.135 49.8984C184.83 50.1723 184.42 50.322 183.995 50.3146C183.785 50.3109 183.577 50.2688 183.384 50.1906C183.191 50.1124 183.017 49.9997 182.87 49.8589C182.724 49.7181 182.609 49.5519 182.532 49.3699C182.454 49.1879 182.416 48.9937 182.42 48.7982C182.427 48.4034 182.602 48.0278 182.907 47.7539C183.212 47.48 183.622 47.3302 184.047 47.3377C184.257 47.3413 184.465 47.3835 184.658 47.4617C184.851 47.5399 185.026 47.6526 185.172 47.7934C185.318 47.9342 185.433 48.1004 185.511 48.2824C185.588 48.4643 185.626 48.6586 185.623 48.8541ZM184.933 48.8356C184.933 48.5938 184.837 48.3619 184.666 48.191C184.495 48.02 184.263 47.924 184.021 47.924C183.779 47.924 183.548 48.02 183.377 48.191C183.206 48.3619 183.11 48.5938 183.11 48.8356C183.11 49.0773 183.206 49.3092 183.377 49.4802C183.548 49.6511 183.779 49.7472 184.021 49.7472C184.263 49.7472 184.495 49.6511 184.666 49.4802C184.837 49.3092 184.933 49.0773 184.933 48.8356Z" fill="#161616"/>
<path id="Vector_19" d="M64.4409 48.8687C64.4294 48.8489 64.4116 48.8335 64.3903 48.8249C64.369 48.8163 64.3455 48.815 64.3234 48.8212C64.3013 48.8274 64.2819 48.8407 64.2682 48.8591C64.2545 48.8775 64.2474 48.9 64.2478 48.9229V50.103C64.2478 50.1721 64.2164 50.2216 64.1536 50.2514C63.9667 50.3378 63.8175 50.3253 63.706 50.2138C63.6338 50.1415 63.5977 50.023 63.5977 49.8581C63.5992 49.0807 63.6 48.367 63.6 47.7169C63.6 47.6381 63.6258 47.5616 63.6735 47.4989C63.7211 47.4362 63.788 47.3909 63.8638 47.3698C63.9397 47.3487 64.0204 47.353 64.0935 47.3821C64.1667 47.4111 64.2283 47.4634 64.269 47.5308L65.1806 49.0454C65.1904 49.0614 65.2042 49.0746 65.2206 49.0836C65.2371 49.0927 65.2556 49.0973 65.2743 49.0971C65.2931 49.0968 65.3114 49.0917 65.3276 49.0823C65.3438 49.0728 65.3573 49.0593 65.3667 49.043L66.2429 47.5166C66.2815 47.4499 66.3411 47.3977 66.4123 47.3681C66.4836 47.3385 66.5626 47.3333 66.6371 47.3531C66.7116 47.373 66.7776 47.4168 66.8247 47.4779C66.8718 47.5389 66.8975 47.6138 66.8978 47.691V50.1643C66.8978 50.2114 66.875 50.2428 66.8295 50.2585C66.5892 50.3355 66.422 50.3111 66.3277 50.1855C66.2744 50.1164 66.2516 49.9829 66.2594 49.785C66.2704 49.4741 66.2626 49.1648 66.2359 48.857C66.2217 48.6779 66.1691 48.6662 66.0781 48.8216L65.4915 49.8133C65.4673 49.8544 65.4328 49.8886 65.3914 49.9123C65.35 49.9361 65.3032 49.9487 65.2555 49.949C65.2077 49.9492 65.1608 49.9371 65.1191 49.9137C65.0775 49.8903 65.0427 49.8565 65.0181 49.8157L64.4409 48.8687Z" fill="#161616"/>
<path id="Vector_20" d="M68.5465 49.1999V49.6428C68.5465 49.6722 68.5582 49.7003 68.5789 49.7211C68.5997 49.7418 68.6279 49.7535 68.6572 49.7535H69.9669C69.9814 49.7535 69.9958 49.7564 70.0093 49.7619C70.0227 49.7675 70.0349 49.7757 70.0452 49.7859C70.0555 49.7962 70.0636 49.8084 70.0692 49.8219C70.0748 49.8353 70.0776 49.8497 70.0776 49.8642V50.1728C70.0776 50.1873 70.0748 50.2017 70.0692 50.2152C70.0636 50.2286 70.0555 50.2408 70.0452 50.2511C70.0349 50.2614 70.0227 50.2695 70.0093 50.2751C69.9958 50.2806 69.9814 50.2835 69.9669 50.2835H67.9506C67.936 50.2835 67.9216 50.2806 67.9082 50.2751C67.8948 50.2695 67.8826 50.2614 67.8723 50.2511C67.862 50.2408 67.8538 50.2286 67.8483 50.2152C67.8427 50.2017 67.8398 50.1873 67.8398 50.1728V47.5087C67.8398 47.4941 67.8427 47.4797 67.8483 47.4663C67.8538 47.4529 67.862 47.4407 67.8723 47.4304C67.8826 47.4201 67.8948 47.4119 67.9082 47.4064C67.9216 47.4008 67.936 47.398 67.9506 47.398H69.9763C69.9919 47.3979 70.0073 47.4011 70.0216 47.4074C70.0359 47.4136 70.0486 47.4229 70.0591 47.4344C70.0695 47.446 70.0774 47.4596 70.0823 47.4744C70.0871 47.4893 70.0887 47.5049 70.087 47.5204L70.0541 47.829C70.0512 47.8559 70.0386 47.8808 70.0186 47.899C69.9987 47.9172 69.9727 47.9275 69.9457 47.928H68.6572C68.6279 47.928 68.5997 47.9396 68.5789 47.9604C68.5582 47.9811 68.5465 48.0093 68.5465 48.0387V48.465C68.5465 48.4944 68.5582 48.5225 68.5789 48.5433C68.5997 48.5641 68.6279 48.5757 68.6572 48.5757H69.7997C69.8153 48.5756 69.8307 48.5788 69.8449 48.5851C69.8592 48.5914 69.872 48.6006 69.8824 48.6122C69.8929 48.6238 69.9008 48.6374 69.9056 48.6522C69.9104 48.667 69.912 48.6827 69.9104 48.6982L69.8774 49.0139C69.8745 49.0411 69.8615 49.0664 69.8411 49.0846C69.8206 49.1029 69.7941 49.113 69.7667 49.1128L68.6596 49.0892C68.6448 49.0889 68.6302 49.0916 68.6165 49.097C68.6028 49.1024 68.5903 49.1105 68.5798 49.1208C68.5692 49.1311 68.5609 49.1434 68.5552 49.157C68.5494 49.1706 68.5465 49.1852 68.5465 49.1999Z" fill="#161616"/>
<path id="Vector_21" d="M71.8918 49.2338C71.6987 49.6814 71.3759 50.593 70.6905 50.2302C70.6308 50.1988 70.6182 50.154 70.6528 50.0959L71.383 48.8404C71.3987 48.8147 71.407 48.7851 71.407 48.7548C71.407 48.7245 71.3987 48.6946 71.383 48.6685L70.6905 47.5284C70.6825 47.5155 70.678 47.5006 70.6777 47.4854C70.6774 47.4702 70.6812 47.4552 70.6886 47.442C70.6961 47.4287 70.707 47.4178 70.7202 47.4102C70.7333 47.4026 70.7483 47.3987 70.7635 47.3988H71.2111C71.2572 47.3989 71.3024 47.4114 71.3419 47.4351C71.3813 47.4587 71.4134 47.4926 71.4348 47.5331L71.9389 48.4871C71.9679 48.5432 72.0155 48.5872 72.0735 48.6116C72.1316 48.636 72.1964 48.6393 72.2569 48.6209C72.3173 48.6025 72.3697 48.5636 72.405 48.5108C72.4402 48.458 72.4562 48.3947 72.4501 48.3316L72.37 47.5567C72.368 47.5366 72.3702 47.5164 72.3764 47.4973C72.3826 47.4781 72.3927 47.4606 72.406 47.4457C72.4194 47.4308 72.4356 47.4189 72.4538 47.4109C72.4719 47.4028 72.4915 47.3987 72.5113 47.3988H72.9636C73.0421 47.3988 73.0814 47.4381 73.0814 47.5166V48.3481C73.0812 48.4004 73.0976 48.4515 73.1283 48.4939C73.1589 48.5363 73.2022 48.5679 73.252 48.5841C73.3017 48.6003 73.3553 48.6004 73.4051 48.5842C73.4548 48.568 73.4982 48.5365 73.5289 48.4942C73.8281 48.0749 74.0283 47.1751 74.6926 47.4271C74.7899 47.4648 74.8119 47.5276 74.7585 47.6155L74.1272 48.6426C74.0864 48.7101 74.0856 48.7784 74.1249 48.8475L74.8527 50.0912C74.8645 50.1107 74.8709 50.1329 74.8712 50.1556C74.8715 50.1784 74.8656 50.2007 74.8543 50.2205C74.843 50.2402 74.8267 50.2565 74.8069 50.2677C74.7872 50.279 74.7648 50.2847 74.742 50.2844H74.3392C74.2434 50.2844 74.172 50.2436 74.1249 50.1619L73.5289 49.1514C73.5022 49.1058 73.4612 49.0703 73.4123 49.0503C73.3633 49.0304 73.3092 49.0272 73.2582 49.0411C73.2072 49.0551 73.1623 49.0854 73.1303 49.1275C73.0984 49.1696 73.0811 49.221 73.0814 49.2739V50.1266C73.0814 50.1664 73.0656 50.2046 73.0375 50.2332C73.0093 50.2618 72.971 50.2785 72.9306 50.2797L72.5537 50.2867C72.4736 50.2883 72.4336 50.2491 72.4336 50.169V49.3445C72.4331 49.2798 72.4103 49.2171 72.3692 49.1671C72.328 49.1171 72.271 49.0828 72.2075 49.0698C72.1441 49.0568 72.0781 49.0661 72.0206 49.0959C71.9632 49.1258 71.9177 49.1744 71.8918 49.2338Z" fill="#161616"/>
<path id="Vector_22" d="M78.29 49.7441L78.4455 49.7559C78.5209 49.7621 78.5585 49.803 78.5585 49.8783V50.7546C78.5585 50.8331 78.5193 50.8724 78.4408 50.8724H78.1275C78.0914 50.8726 78.0566 50.8592 78.0296 50.8348C78.0027 50.8105 77.9855 50.7769 77.9814 50.7405L77.9508 50.4201C77.9467 50.3808 77.9279 50.3444 77.8983 50.3182C77.8686 50.2921 77.8302 50.278 77.7906 50.2788C77.2551 50.2835 76.7236 50.2921 76.1959 50.3047C75.9054 50.3126 75.7821 50.4217 75.8261 50.6321C75.8352 50.6679 75.8372 50.705 75.832 50.7415C75.8267 50.778 75.8144 50.8131 75.7955 50.8449C75.7767 50.8766 75.7519 50.9043 75.7223 50.9264C75.6928 50.9485 75.6593 50.9646 75.6235 50.9737C75.5878 50.9828 75.5506 50.9848 75.5141 50.9796C75.4776 50.9743 75.4425 50.9619 75.4108 50.9431C75.3791 50.9243 75.3514 50.8994 75.3293 50.8699C75.3072 50.8404 75.2911 50.8068 75.282 50.7711C75.1139 50.2262 75.238 49.8265 75.6542 49.5721C75.7327 49.525 75.7759 49.4551 75.7837 49.3625L75.9462 47.4922C75.9486 47.4663 75.9605 47.4423 75.9797 47.4249C75.9989 47.4075 76.024 47.3978 76.0499 47.398H78.0285C78.1071 47.398 78.1463 47.4372 78.1463 47.5157V49.5886C78.1463 49.686 78.1942 49.7378 78.29 49.7441ZM77.5523 48.1057C77.5546 48.0702 77.5427 48.0352 77.5192 48.0084C77.4957 47.9817 77.4625 47.9654 77.427 47.9631L76.6183 47.9108C76.5828 47.9085 76.5478 47.9204 76.5211 47.9439C76.4943 47.9674 76.478 48.0006 76.4757 48.0361L76.3754 49.5875C76.3731 49.623 76.385 49.658 76.4085 49.6848C76.432 49.7115 76.4652 49.7279 76.5007 49.7302L77.3093 49.7825C77.3449 49.7848 77.3799 49.7728 77.4066 49.7493C77.4334 49.7258 77.4497 49.6927 77.452 49.6571L77.5523 48.1057Z" fill="#161616"/>
<path id="Vector_23" d="M83.2778 48.5168H84.319C84.3527 48.5168 84.385 48.5034 84.4089 48.4796C84.4328 48.4557 84.4462 48.4234 84.4462 48.3896V47.5251C84.4462 47.4914 84.4596 47.4591 84.4834 47.4352C84.5073 47.4113 84.5396 47.3979 84.5734 47.3979H84.9809C85.0146 47.3979 85.047 47.4113 85.0708 47.4352C85.0947 47.4591 85.1081 47.4914 85.1081 47.5251L85.0869 50.1563C85.0869 50.19 85.0735 50.2224 85.0496 50.2462C85.0258 50.2701 84.9934 50.2835 84.9597 50.2835H84.5734C84.5396 50.2835 84.5073 50.2701 84.4834 50.2462C84.4596 50.2224 84.4462 50.19 84.4462 50.1563V49.2329C84.4462 49.1992 84.4328 49.1668 84.4089 49.143C84.385 49.1191 84.3527 49.1057 84.319 49.1057H83.2802C83.2464 49.1057 83.2141 49.1191 83.1902 49.143C83.1664 49.1668 83.153 49.1992 83.153 49.2329L83.1459 50.1563C83.1459 50.19 83.1325 50.2224 83.1086 50.2462C83.0848 50.2701 83.0524 50.2835 83.0187 50.2835H82.6465C82.6136 50.2835 82.5819 50.2708 82.5582 50.2479C82.5345 50.2251 82.5205 50.1939 82.5193 50.161L82.4439 47.5299C82.4433 47.5128 82.4461 47.4957 82.4522 47.4797C82.4583 47.4638 82.4676 47.4492 82.4795 47.4369C82.4914 47.4245 82.5056 47.4147 82.5213 47.4081C82.5371 47.4014 82.554 47.3979 82.5711 47.3979H83.0234C83.0571 47.3979 83.0895 47.4113 83.1133 47.4352C83.1372 47.4591 83.1506 47.4914 83.1506 47.5251V48.3896C83.1506 48.4234 83.164 48.4557 83.1879 48.4796C83.2117 48.5034 83.2441 48.5168 83.2778 48.5168Z" fill="#161616"/>
<path id="Vector_24" d="M88.0108 49.6744L86.7953 49.6768C86.7515 49.6765 86.7092 49.6925 86.6766 49.7217C86.644 49.7508 86.6233 49.7911 86.6186 49.8346C86.5778 50.1958 86.3666 50.345 85.985 50.2821C85.9605 50.2781 85.9372 50.2686 85.917 50.2542C85.8968 50.2398 85.8801 50.221 85.8683 50.1991C85.8564 50.1773 85.8498 50.153 85.8488 50.1282C85.8478 50.1034 85.8525 50.0787 85.8625 50.056L86.939 47.6439C86.9779 47.5569 87.0411 47.483 87.121 47.431C87.2008 47.3791 87.294 47.3513 87.3893 47.3511C87.4846 47.3508 87.578 47.3781 87.6581 47.4296C87.7383 47.4812 87.8018 47.5548 87.8412 47.6416L88.9318 50.0466C88.9419 50.0697 88.9468 50.0947 88.9461 50.1198C88.9454 50.145 88.9392 50.1696 88.928 50.192C88.9167 50.2143 88.9006 50.2338 88.8809 50.2489C88.8612 50.2641 88.8383 50.2747 88.814 50.2798C88.423 50.3599 88.2118 50.2107 88.1804 49.8322C88.1774 49.7893 88.1582 49.7491 88.1267 49.7198C88.0952 49.6905 88.0538 49.6743 88.0108 49.6744ZM87.0026 48.9654C86.9937 48.9868 86.9902 49.01 86.9925 49.0331C86.9947 49.0562 87.0025 49.0783 87.0153 49.0976C87.0281 49.1169 87.0455 49.1328 87.0658 49.1438C87.0862 49.1549 87.109 49.1607 87.1322 49.1609L87.6622 49.1703C87.6854 49.1708 87.7085 49.1655 87.7292 49.1549C87.7499 49.1443 87.7677 49.1288 87.781 49.1097C87.7943 49.0906 87.8026 49.0685 87.8053 49.0454C87.808 49.0222 87.805 48.9988 87.7964 48.9772L87.542 48.3223C87.5323 48.2955 87.5146 48.2722 87.4913 48.2556C87.4681 48.239 87.4403 48.2298 87.4117 48.2293C87.3832 48.2288 87.3551 48.237 87.3313 48.2527C87.3074 48.2685 87.2889 48.2911 87.2782 48.3176L87.0026 48.9654Z" fill="#161616"/>
<path id="Vector_25" d="M90.2748 49.6196L90.3478 50.0365C90.3529 50.0659 90.3516 50.0961 90.344 50.125C90.3363 50.1539 90.3225 50.1808 90.3035 50.2038C90.2845 50.2269 90.2607 50.2455 90.2338 50.2585C90.2069 50.2715 90.1775 50.2785 90.1476 50.2791L89.7778 50.2862C89.7584 50.2865 89.7392 50.2829 89.7212 50.2756C89.7032 50.2683 89.6868 50.2574 89.673 50.2436C89.6592 50.2298 89.6482 50.2133 89.6407 50.1951C89.6333 50.177 89.6294 50.1575 89.6294 50.1378V47.5749C89.6294 47.4776 89.6781 47.4258 89.7754 47.4195C90.4868 47.3677 91.0019 47.3661 91.3207 47.4148C92.1734 47.5443 92.4655 48.7574 91.7965 49.2191C91.4934 49.4295 91.0404 49.5041 90.4373 49.4429C90.4145 49.4407 90.3914 49.4439 90.3699 49.4522C90.3484 49.4605 90.3291 49.4737 90.3134 49.4908C90.2978 49.5078 90.2861 49.5283 90.2794 49.5506C90.2727 49.5729 90.2712 49.5965 90.2748 49.6196ZM90.2984 48.1332L90.2889 48.7127C90.2886 48.7399 90.2937 48.7669 90.3038 48.7922C90.314 48.8174 90.329 48.8405 90.348 48.8599C90.367 48.8794 90.3897 48.8949 90.4147 48.9056C90.4398 48.9163 90.4667 48.922 90.4939 48.9223L90.9768 48.9294C91.0392 48.9304 91.1013 48.9205 91.1593 48.9001C91.2173 48.8798 91.2702 48.8495 91.3148 48.811C91.3595 48.7724 91.3951 48.7264 91.4195 48.6756C91.444 48.6248 91.4568 48.5701 91.4573 48.5148V48.3593C91.4583 48.2486 91.4098 48.1419 91.3224 48.0625C91.2351 47.9831 91.1159 47.9374 90.9909 47.9353L90.508 47.9283C90.4808 47.928 90.4538 47.933 90.4285 47.9431C90.4032 47.9533 90.3802 47.9683 90.3607 47.9873C90.3413 48.0063 90.3258 48.029 90.315 48.0541C90.3043 48.0791 90.2987 48.106 90.2984 48.1332Z" fill="#161616"/>
<path id="Vector_26" d="M98.7616 50.2835H97.1457C97.0672 50.2835 97.0036 50.3149 96.9549 50.3777C96.9031 50.4468 96.8858 50.5348 96.9031 50.6416C96.9148 50.7206 96.8958 50.8012 96.85 50.8667C96.8042 50.9322 96.7351 50.9778 96.6569 50.994C96.5786 51.0103 96.4971 50.996 96.429 50.9541C96.3609 50.9122 96.3114 50.8459 96.2906 50.7687C96.154 50.2034 96.2899 49.7731 96.6982 49.4779C96.7211 49.4617 96.7403 49.4405 96.7545 49.4157C96.7687 49.3909 96.7776 49.3631 96.7806 49.3342L96.9643 47.4945C96.9706 47.4301 97.0067 47.3979 97.0727 47.3979H99.0513C99.1299 47.3979 99.1691 47.4372 99.1691 47.5157V49.525C99.1691 49.6098 99.2052 49.6734 99.2775 49.7158L99.4047 49.7912C99.4832 49.8383 99.5225 49.9082 99.5225 50.0008V50.5944C99.5269 50.6686 99.5023 50.7415 99.4538 50.7978C99.4052 50.854 99.3367 50.8891 99.2627 50.8955C99.1887 50.902 99.1151 50.8793 99.0576 50.8323C99.0001 50.7853 98.9632 50.7177 98.9548 50.6439C98.9453 50.5842 98.9336 50.5096 98.9194 50.4201C98.9143 50.3824 98.8955 50.3478 98.8665 50.3227C98.8375 50.2976 98.8003 50.2837 98.7616 50.2835ZM98.5726 48.0386C98.5736 48.0224 98.5682 48.0064 98.5575 47.9942C98.5467 47.982 98.5316 47.9746 98.5154 47.9736L97.5281 47.9097C97.5201 47.9092 97.5121 47.9102 97.5044 47.9128C97.4968 47.9154 97.4898 47.9195 97.4837 47.9248C97.4777 47.9301 97.4728 47.9366 97.4692 47.9438C97.4657 47.951 97.4636 47.9588 97.463 47.9669L97.3536 49.6593C97.3526 49.6755 97.358 49.6915 97.3687 49.7037C97.3794 49.7159 97.3946 49.7233 97.4108 49.7244L98.398 49.7883C98.4061 49.7888 98.4141 49.7877 98.4217 49.7851C98.4293 49.7825 98.4364 49.7785 98.4424 49.7731C98.4485 49.7678 98.4534 49.7614 98.457 49.7542C98.4605 49.747 98.4626 49.7391 98.4631 49.7311L98.5726 48.0386Z" fill="#161616"/>
<path id="Vector_27" d="M101.063 48.5214L102.113 48.5426C102.139 48.5431 102.165 48.5376 102.188 48.5265C102.212 48.5154 102.232 48.4991 102.248 48.4788C102.264 48.4585 102.275 48.4347 102.28 48.4094C102.286 48.3841 102.285 48.3579 102.278 48.3329C102.206 48.055 102.19 47.8163 102.229 47.6169C102.246 47.5298 102.296 47.4524 102.367 47.3996C102.439 47.3469 102.527 47.3225 102.615 47.3314C102.704 47.3402 102.786 47.3815 102.845 47.4473C102.905 47.5131 102.938 47.5987 102.938 47.6875V50.0949C102.938 50.2142 102.878 50.2755 102.759 50.2786L102.401 50.2857C102.303 50.2873 102.255 50.2402 102.255 50.1444L102.252 49.2634C102.252 49.2215 102.236 49.1814 102.207 49.1518C102.178 49.1222 102.138 49.1056 102.097 49.1056H101.112C100.995 49.1056 100.936 49.1645 100.936 49.2822V50.1656C100.936 50.2441 100.896 50.2833 100.818 50.2833H100.413C100.365 50.2833 100.319 50.264 100.284 50.2295C100.25 50.1951 100.231 50.1483 100.231 50.0996L100.229 47.5156C100.229 47.437 100.268 47.3978 100.347 47.3978H100.759C100.877 47.3978 100.936 47.4567 100.936 47.5745V48.3918C100.936 48.4766 100.978 48.5198 101.063 48.5214Z" fill="#161616"/>
<path id="Vector_28" d="M104.74 47.6324C104.778 47.5462 104.84 47.4729 104.919 47.4212C104.998 47.3696 105.09 47.3418 105.184 47.3413C105.278 47.3408 105.371 47.3676 105.45 47.4184C105.529 47.4692 105.592 47.5419 105.631 47.6277L106.766 50.1269C106.774 50.1433 106.777 50.1612 106.776 50.1791C106.774 50.197 106.769 50.2143 106.759 50.2295C106.75 50.2447 106.736 50.2573 106.721 50.2661C106.705 50.2749 106.688 50.2797 106.67 50.2801L106.255 50.2871C106.218 50.2878 106.182 50.2773 106.152 50.2571C106.122 50.2368 106.098 50.2079 106.085 50.1741L105.923 49.7665C105.91 49.7354 105.889 49.7089 105.86 49.6903C105.832 49.6718 105.799 49.6623 105.765 49.6629L104.623 49.6841C104.585 49.6848 104.549 49.6966 104.518 49.7181C104.487 49.7395 104.464 49.7695 104.451 49.8042L104.326 50.1411C104.294 50.2227 104.236 50.2651 104.152 50.2683L103.713 50.2918C103.611 50.2965 103.581 50.2518 103.622 50.1576L104.74 47.6324ZM105.212 49.1659H105.452C105.612 49.1659 105.658 49.0936 105.591 48.9492L105.294 48.3085C105.283 48.285 105.266 48.2652 105.244 48.2515C105.222 48.2379 105.196 48.231 105.17 48.2318C105.144 48.2326 105.119 48.2409 105.098 48.2558C105.077 48.2707 105.061 48.2914 105.051 48.3155L104.771 49.0057C104.765 49.0213 104.762 49.038 104.763 49.0548C104.765 49.0715 104.77 49.0877 104.778 49.1023C104.786 49.1168 104.798 49.1292 104.812 49.1386C104.826 49.148 104.842 49.1541 104.858 49.1565C104.941 49.1674 105.028 49.1714 105.117 49.1682C105.149 49.1667 105.18 49.1659 105.212 49.1659Z" fill="#161616"/>
<path id="Vector_29" d="M109.004 49.7504C109.003 49.653 108.967 49.5589 108.903 49.4856C108.839 49.4122 108.75 49.3647 108.653 49.3517C108.557 49.3387 108.459 49.3613 108.379 49.4151C108.298 49.469 108.239 49.5505 108.214 49.6444C108.089 50.1046 107.789 50.3213 107.315 50.2946C107.197 50.2867 107.171 50.2333 107.237 50.1344L107.633 49.5361C107.645 49.5161 107.651 49.4933 107.651 49.4701C107.65 49.3492 107.587 49.2668 107.463 49.2228C107.421 49.2072 107.383 49.1833 107.351 49.1525C107.319 49.1218 107.294 49.0847 107.277 49.0438C106.521 47.2724 108.464 47.376 109.491 47.3996C109.598 47.4027 109.651 47.4577 109.651 47.5645V50.125C109.651 50.2239 109.601 50.2749 109.501 50.2781L109.124 50.2851C109.044 50.2867 109.004 50.2475 109.004 50.1674V49.7504ZM109.02 48.2947C109.02 48.1972 108.981 48.1038 108.912 48.0349C108.844 47.9659 108.75 47.9272 108.653 47.9272H108.214C108.117 47.9272 108.024 47.9659 107.955 48.0349C107.886 48.1038 107.847 48.1972 107.847 48.2947V48.6151C107.847 48.7125 107.886 48.806 107.955 48.8749C108.024 48.9438 108.117 48.9825 108.214 48.9825H108.653C108.75 48.9825 108.844 48.9438 108.912 48.8749C108.981 48.806 109.02 48.7125 109.02 48.6151V48.2947Z" fill="#161616"/>
<path id="Vector_30" d="M118.91 49.7676C118.597 50.4295 117.226 50.3283 116.616 50.2623C116.526 50.2513 116.481 50.2011 116.481 50.1116V47.5157C116.481 47.4372 116.521 47.3979 116.599 47.3979H118.693C118.794 47.3979 118.842 47.4482 118.839 47.5487L118.832 47.7513C118.83 47.7988 118.81 47.8437 118.776 47.8767C118.742 47.9096 118.696 47.928 118.649 47.9279H117.247C117.168 47.9279 117.129 47.9672 117.129 48.0457V48.3849C117.129 48.4791 117.176 48.5247 117.271 48.5216C117.989 48.4909 119.501 48.5215 118.91 49.7676ZM118.29 49.2477C118.291 49.218 118.287 49.1884 118.276 49.1606C118.266 49.1328 118.25 49.1073 118.23 49.0857C118.209 49.064 118.185 49.0465 118.158 49.0342C118.131 49.022 118.102 49.0151 118.072 49.0142L117.356 48.9904C117.296 48.9884 117.238 49.0103 117.194 49.0513C117.15 49.0923 117.125 49.149 117.123 49.2089L117.113 49.5103C117.112 49.54 117.117 49.5695 117.127 49.5973C117.138 49.6251 117.153 49.6506 117.174 49.6723C117.194 49.694 117.218 49.7114 117.245 49.7237C117.272 49.736 117.302 49.7428 117.331 49.7438L118.047 49.7675C118.107 49.7695 118.165 49.7476 118.209 49.7066C118.253 49.6657 118.278 49.609 118.28 49.549L118.29 49.2477Z" fill="#161616"/>
<path id="Vector_31" d="M120.429 49.5731L120.422 50.162C120.422 50.1945 120.409 50.2256 120.386 50.2486C120.363 50.2716 120.332 50.2845 120.3 50.2845H119.885C119.8 50.2845 119.757 50.2413 119.756 50.1549L119.709 47.5756C119.707 47.4641 119.762 47.4068 119.873 47.4036C120.693 47.3824 122.222 47.1516 122.309 48.4024C122.37 49.2669 121.357 49.5189 120.571 49.4459C120.476 49.438 120.429 49.4804 120.429 49.5731ZM120.425 48.1103V48.751C120.425 48.775 120.429 48.7988 120.439 48.821C120.448 48.8431 120.461 48.8632 120.479 48.8801C120.496 48.897 120.516 48.9103 120.538 48.9193C120.56 48.9282 120.584 48.9327 120.608 48.9324L121.016 48.93C121.172 48.9293 121.321 48.8803 121.431 48.7937C121.541 48.7071 121.603 48.5901 121.602 48.4683V48.3835C121.602 48.3232 121.587 48.2635 121.557 48.2079C121.527 48.1522 121.483 48.1018 121.428 48.0593C121.373 48.0169 121.308 47.9833 121.237 47.9605C121.165 47.9378 121.089 47.9262 121.011 47.9266L120.604 47.9289C120.556 47.9295 120.51 47.9489 120.477 47.9829C120.443 48.0168 120.425 48.0626 120.425 48.1103Z" fill="#161616"/>
<path id="Vector_32" d="M123.672 47.6408C123.71 47.5536 123.773 47.4795 123.853 47.4274C123.932 47.3753 124.026 47.3474 124.121 47.3472C124.216 47.3469 124.309 47.3743 124.389 47.426C124.469 47.4777 124.533 47.5515 124.572 47.6384L125.669 50.0694C125.68 50.0928 125.685 50.1187 125.683 50.1444C125.681 50.1702 125.672 50.195 125.658 50.2166C125.644 50.2382 125.625 50.2559 125.602 50.2681C125.579 50.2802 125.554 50.2864 125.528 50.2861L125.182 50.279C125.149 50.2783 125.116 50.2681 125.089 50.2498C125.061 50.2314 125.04 50.2056 125.026 50.1754L124.842 49.782C124.829 49.7524 124.807 49.7273 124.78 49.7093C124.752 49.6914 124.72 49.6815 124.687 49.6807L123.554 49.6619C123.519 49.6613 123.485 49.6714 123.456 49.6907C123.427 49.71 123.405 49.7377 123.391 49.7702L123.252 50.1141C123.215 50.2099 123.144 50.2609 123.04 50.2672L122.68 50.2908C122.554 50.2986 122.517 50.2445 122.567 50.1283L123.672 47.6408ZM124.131 49.1531C124.25 49.1829 124.363 49.1797 124.468 49.1436C124.548 49.1154 124.57 49.0628 124.534 48.9858L124.225 48.3239C124.216 48.3033 124.201 48.2859 124.182 48.2737C124.163 48.2614 124.141 48.2549 124.118 48.2549C124.095 48.2549 124.073 48.2614 124.054 48.2737C124.035 48.2859 124.02 48.3033 124.011 48.3239L123.731 48.9363C123.68 49.0416 123.711 49.113 123.822 49.1507C123.887 49.1727 123.945 49.175 123.997 49.1578C124.041 49.1421 124.085 49.1405 124.131 49.1531Z" fill="#161616"/>
<path id="Vector_33" d="M135.327 48.842C135.833 49.2495 135.711 49.8902 135.145 50.1752C134.787 50.3558 134.139 50.3723 133.202 50.2247C133.127 50.2121 133.089 50.1681 133.089 50.0928V47.5676C133.089 47.4624 133.141 47.4082 133.247 47.4051C133.883 47.3792 136.278 47.1365 135.294 48.6488C135.247 48.7226 135.258 48.787 135.327 48.842ZM134.832 48.1561C134.832 48.1189 134.825 48.0822 134.811 48.0478C134.797 48.0135 134.776 47.9822 134.75 47.9559C134.724 47.9296 134.693 47.9086 134.659 47.8943C134.624 47.88 134.588 47.8725 134.551 47.8724L134.009 47.8705C133.972 47.8704 133.935 47.8776 133.901 47.8917C133.866 47.9057 133.835 47.9265 133.809 47.9526C133.782 47.9788 133.761 48.0099 133.747 48.0441C133.733 48.0784 133.725 48.1151 133.725 48.1522L133.725 48.2888C133.724 48.3259 133.732 48.3627 133.746 48.3971C133.76 48.4314 133.781 48.4626 133.807 48.489C133.833 48.5153 133.864 48.5363 133.898 48.5506C133.932 48.5649 133.969 48.5723 134.006 48.5725L134.548 48.5744C134.585 48.5745 134.622 48.5673 134.656 48.5532C134.691 48.5391 134.722 48.5184 134.748 48.4923C134.775 48.4661 134.796 48.435 134.81 48.4008C134.824 48.3665 134.832 48.3298 134.832 48.2927L134.832 48.1561ZM134.955 49.2965C134.957 49.2366 134.935 49.1784 134.894 49.1348C134.852 49.0913 134.796 49.0658 134.736 49.0642L134.015 49.044C133.955 49.0424 133.897 49.0646 133.853 49.1058C133.81 49.147 133.784 49.2038 133.783 49.2638L133.776 49.5134C133.774 49.5733 133.796 49.6315 133.838 49.675C133.879 49.7186 133.936 49.744 133.996 49.7457L134.716 49.7658C134.776 49.7675 134.834 49.7453 134.878 49.7041C134.921 49.6629 134.947 49.606 134.948 49.5461L134.955 49.2965Z" fill="#161616"/>
<path id="Vector_34" d="M137.314 47.573C137.351 47.4921 137.409 47.4234 137.484 47.3752C137.558 47.3269 137.645 47.3013 137.734 47.3013C137.822 47.3013 137.909 47.3269 137.984 47.3752C138.058 47.4234 138.117 47.4921 138.153 47.573L139.288 50.1147C139.296 50.1325 139.3 50.152 139.298 50.1715C139.297 50.1909 139.291 50.2096 139.28 50.2259C139.27 50.2423 139.256 50.2557 139.239 50.2651C139.223 50.2745 139.204 50.2794 139.185 50.2796L138.782 50.2866C138.753 50.2867 138.724 50.278 138.699 50.2617C138.674 50.2453 138.655 50.2221 138.643 50.1948L138.469 49.8037C138.429 49.7127 138.359 49.6679 138.259 49.6695L137.086 49.6813C137.045 49.6818 137.005 49.6983 136.976 49.7273C136.946 49.7563 136.929 49.7955 136.928 49.8367C136.914 50.2105 136.712 50.3581 136.323 50.2796C136.298 50.2744 136.274 50.2636 136.253 50.2481C136.233 50.2326 136.216 50.2127 136.205 50.1899C136.193 50.1671 136.186 50.1419 136.186 50.1163C136.185 50.0906 136.19 50.0651 136.2 50.0417L137.314 47.573ZM137.343 48.9675C137.335 48.9889 137.332 49.012 137.335 49.0347C137.338 49.0574 137.346 49.0791 137.359 49.0977C137.373 49.1163 137.39 49.1314 137.411 49.1416C137.431 49.1518 137.454 49.1567 137.477 49.156L138 49.1395C138.022 49.1386 138.044 49.1323 138.064 49.121C138.083 49.1098 138.1 49.094 138.112 49.075C138.124 49.056 138.131 49.0344 138.133 49.012C138.135 48.9896 138.131 48.967 138.122 48.9463L137.842 48.2938C137.831 48.268 137.812 48.2462 137.789 48.2312C137.765 48.2162 137.737 48.2087 137.709 48.2097C137.681 48.2107 137.654 48.2202 137.632 48.2369C137.609 48.2536 137.592 48.2767 137.583 48.3033L137.343 48.9675Z" fill="#161616"/>
<path id="Vector_35" d="M140.301 47.9327L139.712 47.9256C139.674 47.925 139.636 47.9093 139.609 47.882C139.582 47.8547 139.566 47.8179 139.566 47.7796V47.5746C139.566 47.4568 139.625 47.398 139.743 47.398H141.96C141.98 47.3978 142 47.402 142.018 47.4102C142.037 47.4184 142.053 47.4304 142.067 47.4455C142.08 47.4606 142.09 47.4784 142.097 47.4978C142.103 47.5172 142.105 47.5378 142.103 47.5581L142.08 47.7796C142.076 47.819 142.057 47.8556 142.028 47.8825C141.998 47.9094 141.96 47.9247 141.92 47.9256L141.248 47.9327C141.208 47.9327 141.17 47.9488 141.142 47.9775C141.113 48.0062 141.098 48.0452 141.098 48.0858V50.1068C141.097 50.1458 141.084 50.1836 141.06 50.214C141.035 50.2443 141.001 50.2655 140.963 50.2741C140.657 50.3463 140.501 50.2717 140.494 50.0503C140.476 49.3876 140.455 48.7249 140.433 48.0622C140.432 47.9759 140.388 47.9327 140.301 47.9327Z" fill="#161616"/>
<path id="Vector_36" d="M143.395 49.2188V49.5768C143.395 49.6946 143.454 49.7535 143.571 49.7535H144.841C144.941 49.7535 144.99 49.8038 144.987 49.9043L144.98 50.1068C144.978 50.1543 144.958 50.1993 144.924 50.2322C144.889 50.2652 144.844 50.2835 144.796 50.2835H142.924C142.861 50.2835 142.801 50.2587 142.757 50.2145C142.713 50.1703 142.688 50.1104 142.688 50.0479V47.5157C142.688 47.4845 142.7 47.4545 142.722 47.4324C142.745 47.4104 142.775 47.3979 142.806 47.3979H144.808C144.887 47.3979 144.926 47.4372 144.926 47.5157V47.7513C144.926 47.8691 144.867 47.9279 144.749 47.9279H143.543C143.444 47.9279 143.395 47.9774 143.395 48.0764V48.3991C143.395 48.5168 143.454 48.5757 143.571 48.5757H144.631C144.702 48.5757 144.746 48.6103 144.763 48.6794C144.804 48.8364 144.771 48.9581 144.664 49.0445C144.597 49.0994 144.494 49.1206 144.356 49.1081C144.078 49.083 143.801 49.0751 143.524 49.0845C143.438 49.0877 143.395 49.1324 143.395 49.2188Z" fill="#161616"/>
<path id="Vector_37" d="M147.703 48.3449C147.705 48.0669 147.566 47.9279 147.286 47.9279H146.872C146.777 47.9279 146.726 47.9751 146.716 48.0693C146.62 48.9809 146.829 50.1657 145.755 50.3565C145.717 50.3629 145.679 50.3588 145.643 50.3446C145.608 50.3305 145.577 50.3069 145.555 50.2764C145.439 50.1225 145.431 49.9749 145.531 49.8336C145.633 49.6899 145.75 49.7135 145.887 49.5957C145.964 49.5297 146.006 49.4457 146.014 49.3436L146.134 47.4969C146.136 47.47 146.148 47.4448 146.168 47.4265C146.187 47.4081 146.213 47.3979 146.24 47.3979H148.224C148.302 47.3979 148.342 47.4372 148.342 47.5157V50.1068C148.342 50.2246 148.283 50.2835 148.165 50.2835H147.868C147.821 50.2835 147.776 50.2646 147.743 50.2311C147.71 50.1975 147.691 50.152 147.691 50.1045L147.703 48.3449Z" fill="#161616"/>
<path id="Vector_38" d="M150.153 48.3269C150.895 48.3551 151.788 48.2421 151.868 49.2785C151.955 50.3998 150.158 50.3527 149.494 50.2325C149.451 50.2248 149.413 50.2024 149.385 50.1692C149.358 50.1361 149.343 50.0943 149.343 50.0511V47.5849C149.343 47.4655 149.402 47.4043 149.522 47.4011L149.84 47.3941C149.94 47.3925 149.991 47.442 149.991 47.5425V48.1596C149.991 48.268 150.045 48.3237 150.153 48.3269ZM149.974 48.9346L149.927 49.5471C149.923 49.6038 149.942 49.6598 149.979 49.703C150.016 49.7462 150.068 49.7731 150.125 49.7779L150.422 49.8015C150.515 49.8087 150.609 49.8035 150.698 49.7861C150.786 49.7688 150.868 49.7396 150.938 49.7002C151.007 49.6608 151.064 49.612 151.104 49.5567C151.145 49.5013 151.168 49.4404 151.173 49.3775L151.18 49.2927C151.185 49.2296 151.171 49.1658 151.14 49.1048C151.109 49.0437 151.06 48.9868 150.997 48.9371C150.934 48.8874 150.858 48.846 150.773 48.8153C150.688 48.7845 150.596 48.7651 150.502 48.7579L150.207 48.7367C150.15 48.7322 150.094 48.7504 150.05 48.7875C150.006 48.8246 149.979 48.8775 149.974 48.9346Z" fill="#161616"/>
<path id="Vector_39" d="M153.229 49.2423V50.1398C153.228 50.1594 153.224 50.1788 153.216 50.1966C153.208 50.2145 153.196 50.2305 153.182 50.2435C153.167 50.2566 153.15 50.2665 153.131 50.2726C153.112 50.2786 153.093 50.2808 153.073 50.2788L152.687 50.2411C152.652 50.2376 152.62 50.2215 152.597 50.1959C152.573 50.1703 152.56 50.1369 152.56 50.1021L152.522 47.5416C152.522 47.5229 152.525 47.5042 152.532 47.4868C152.539 47.4694 152.549 47.4535 152.563 47.4402C152.576 47.4268 152.591 47.4162 152.609 47.4089C152.626 47.4017 152.645 47.3979 152.663 47.3979H153.08C153.117 47.3979 153.153 47.4125 153.179 47.4385C153.206 47.4645 153.221 47.4999 153.222 47.5369L153.243 48.3779C153.243 48.4149 153.259 48.4503 153.285 48.4763C153.311 48.5023 153.347 48.5168 153.384 48.5168H154.442C154.479 48.5168 154.515 48.5019 154.542 48.4754C154.568 48.4489 154.583 48.413 154.583 48.3755V47.5393C154.583 47.5018 154.598 47.4658 154.624 47.4393C154.651 47.4128 154.687 47.3979 154.724 47.3979H155.09C155.108 47.3979 155.126 47.4016 155.144 47.4087C155.161 47.4158 155.176 47.4262 155.189 47.4393C155.203 47.4525 155.213 47.468 155.22 47.4852C155.227 47.5023 155.231 47.5207 155.231 47.5393V50.1304C155.231 50.149 155.227 50.1673 155.22 50.1845C155.213 50.2016 155.203 50.2172 155.189 50.2303C155.176 50.2435 155.161 50.2539 155.144 50.261C155.126 50.2681 155.108 50.2717 155.09 50.2717H154.724C154.687 50.2717 154.651 50.2568 154.624 50.2303C154.598 50.2038 154.583 50.1679 154.583 50.1304V49.2094C154.583 49.1904 154.579 49.1716 154.572 49.1542C154.565 49.1367 154.554 49.1209 154.54 49.1077C154.526 49.0945 154.51 49.0842 154.493 49.0774C154.475 49.0706 154.456 49.0674 154.437 49.068L153.365 49.101C153.329 49.1022 153.294 49.1177 153.268 49.144C153.243 49.1704 153.229 49.2057 153.229 49.2423Z" fill="#161616"/>
<path id="Vector_40" d="M157.079 47.5852C157.116 47.5043 157.175 47.4356 157.249 47.3873C157.324 47.339 157.41 47.3132 157.499 47.313C157.588 47.3127 157.675 47.3381 157.749 47.3859C157.824 47.4338 157.883 47.5021 157.92 47.5828L159.082 50.1433C159.126 50.2407 159.094 50.2886 158.987 50.287L158.537 50.2799C158.514 50.28 158.49 50.2734 158.47 50.2609C158.45 50.2484 158.434 50.2305 158.424 50.2093L158.227 49.7876C158.19 49.7091 158.128 49.6714 158.04 49.6745L156.867 49.7052C156.838 49.7058 156.809 49.7166 156.786 49.7359C156.763 49.7552 156.748 49.7818 156.743 49.8112C156.672 50.2148 156.42 50.3679 155.986 50.2705C155.975 50.2681 155.964 50.2631 155.954 50.2558C155.945 50.2485 155.937 50.2391 155.932 50.2282C155.926 50.2174 155.923 50.2054 155.923 50.1932C155.923 50.1809 155.925 50.1687 155.93 50.1574L157.079 47.5852ZM157.098 48.942C157.088 48.9638 157.084 48.9877 157.086 49.0117C157.088 49.0356 157.095 49.0586 157.109 49.0787C157.122 49.0987 157.14 49.115 157.161 49.1261C157.182 49.1372 157.206 49.1428 157.23 49.1422L157.793 49.1328C157.817 49.1325 157.841 49.1262 157.862 49.1143C157.882 49.1025 157.9 49.0855 157.912 49.065C157.925 49.0445 157.932 49.0211 157.933 48.9971C157.934 48.9731 157.929 48.9493 157.918 48.9278L157.626 48.3342C157.614 48.3099 157.596 48.2894 157.573 48.2753C157.55 48.2611 157.523 48.2538 157.496 48.2543C157.469 48.2548 157.443 48.2631 157.42 48.2781C157.398 48.2931 157.38 48.3142 157.369 48.3389L157.098 48.942Z" fill="#161616"/>
<path id="Vector_41" d="M161.298 49.789C161.297 49.7082 161.271 49.6296 161.223 49.5647C161.175 49.4998 161.107 49.4521 161.03 49.4286C160.953 49.4051 160.87 49.407 160.795 49.4342C160.719 49.4613 160.654 49.5122 160.61 49.5793L160.221 50.1635C160.196 50.2005 160.162 50.2308 160.122 50.2517C160.082 50.2726 160.038 50.2836 159.993 50.2836H159.602C159.581 50.2834 159.562 50.2776 159.545 50.2668C159.528 50.2561 159.514 50.2408 159.505 50.2227C159.497 50.2046 159.493 50.1844 159.495 50.1644C159.497 50.1443 159.505 50.1253 159.517 50.1093L159.936 49.5628C159.96 49.5317 159.972 49.4926 159.969 49.4531C159.966 49.4136 159.948 49.3763 159.92 49.3485C159.686 49.12 159.446 48.9315 159.425 48.5853C159.343 47.1554 160.937 47.3839 161.83 47.4004C161.907 47.402 161.945 47.4413 161.945 47.5182V50.1376C161.945 50.2349 161.896 50.2836 161.797 50.2836H161.446C161.347 50.2836 161.298 50.2342 161.298 50.1352V49.789ZM161.288 48.7761L161.298 48.1495C161.298 48.1207 161.293 48.0922 161.282 48.0655C161.271 48.0388 161.255 48.0145 161.235 47.9939C161.215 47.9733 161.191 47.9569 161.165 47.9456C161.138 47.9343 161.11 47.9284 161.081 47.9281L160.711 47.9234C160.634 47.9222 160.558 47.9337 160.487 47.9572C160.415 47.9806 160.35 48.0156 160.295 48.06C160.24 48.1044 160.197 48.1575 160.167 48.2161C160.136 48.2747 160.121 48.3377 160.12 48.4015V48.4958C160.118 48.6242 160.178 48.7482 160.287 48.8405C160.395 48.9328 160.542 48.9859 160.697 48.9881L161.067 48.9928C161.096 48.9931 161.124 48.9877 161.151 48.977C161.177 48.9663 161.202 48.9504 161.222 48.9303C161.243 48.9102 161.259 48.8862 161.271 48.8597C161.282 48.8333 161.288 48.8048 161.288 48.7761Z" fill="#161616"/>
<path id="Vector_42" d="M165.725 49.9796C165.726 50.024 165.717 50.068 165.7 50.1088C165.683 50.1497 165.658 50.1864 165.625 50.2166C165.593 50.2468 165.555 50.2699 165.513 50.2842C165.472 50.2986 165.427 50.304 165.384 50.3C165.157 50.2812 165.042 50.2113 165.037 50.0903C165.011 49.2298 165 48.3724 165.007 47.5181C165.007 47.4862 165.019 47.4557 165.042 47.4331C165.064 47.4106 165.095 47.3979 165.127 47.3979H167.539C167.617 47.3979 167.657 47.4372 167.657 47.5157V50.1375C167.657 50.238 167.607 50.2874 167.508 50.2859L167.12 50.2788C167.033 50.2772 166.991 50.2333 166.992 50.1469L167.016 48.1093C167.016 48.0856 167.012 48.0621 167.003 48.0401C166.994 48.0181 166.981 47.9981 166.964 47.9812C166.948 47.9643 166.928 47.9509 166.906 47.9418C166.884 47.9327 166.861 47.9279 166.837 47.9279H165.815C165.797 47.9279 165.78 47.9314 165.764 47.9382C165.747 47.945 165.733 47.9549 165.721 47.9674C165.708 47.9799 165.699 47.9947 165.692 48.011C165.686 48.0273 165.682 48.0447 165.683 48.0622L165.725 49.9796Z" fill="#161616"/>
<path id="Vector_43" d="M170.368 47.928H169.671C169.578 47.928 169.533 47.9743 169.536 48.0669C169.565 48.8183 169.617 50.1751 168.655 50.3518C168.584 50.3643 168.51 50.3514 168.448 50.3154C168.385 50.2794 168.336 50.2225 168.311 50.1546C168.285 50.0867 168.284 50.012 168.308 49.9435C168.332 49.875 168.379 49.8169 168.441 49.7794C169.164 49.3554 168.898 48.2648 168.971 47.5369C168.975 47.4987 168.993 47.4633 169.021 47.4376C169.05 47.4119 169.086 47.3978 169.124 47.398H171.126C171.158 47.3979 171.188 47.41 171.211 47.4316C171.233 47.4532 171.246 47.4825 171.247 47.5134C171.262 48.3708 171.25 49.2157 171.209 50.048C171.198 50.2898 171.012 50.3612 170.651 50.2623C170.617 50.2538 170.588 50.2341 170.567 50.2063C170.546 50.1785 170.535 50.1443 170.535 50.1092L170.556 48.1211C170.558 47.9923 170.495 47.928 170.368 47.928Z" fill="#161616"/>
<path id="Vector_44" d="M173.075 47.5733C173.111 47.4936 173.17 47.4262 173.244 47.379C173.318 47.3318 173.404 47.3069 173.491 47.3071C173.579 47.3074 173.665 47.3328 173.738 47.3804C173.812 47.428 173.87 47.4958 173.906 47.5756L175.046 50.1173C175.055 50.1357 175.058 50.1558 175.057 50.176C175.055 50.1961 175.049 50.2155 175.038 50.2324C175.026 50.2493 175.011 50.2632 174.994 50.2727C174.976 50.2822 174.956 50.2871 174.936 50.2869L174.523 50.2798C174.486 50.2791 174.449 50.2664 174.419 50.2436C174.388 50.2208 174.366 50.189 174.354 50.1526L174.238 49.7898C174.226 49.7484 174.199 49.7122 174.164 49.6867C174.128 49.6613 174.085 49.6478 174.041 49.6485L172.926 49.6721C172.875 49.6734 172.826 49.6924 172.787 49.7259C172.748 49.7593 172.721 49.8052 172.712 49.8558C172.666 50.0992 172.526 50.2437 172.29 50.2892C172.243 50.2983 172.195 50.2942 172.15 50.2775C172.105 50.2607 172.065 50.2319 172.035 50.1942C172.006 50.1565 171.987 50.1113 171.981 50.0637C171.976 50.0161 171.983 49.9678 172.003 49.9241L173.075 47.5733ZM173.077 48.9795C173.07 49.0009 173.067 49.0238 173.07 49.0463C173.074 49.0688 173.082 49.0902 173.095 49.1087C173.108 49.1271 173.126 49.1422 173.146 49.1525C173.166 49.1628 173.189 49.1681 173.211 49.168L173.725 49.1633C173.747 49.1628 173.77 49.157 173.789 49.1462C173.809 49.1354 173.826 49.12 173.839 49.1014C173.852 49.0827 173.86 49.0612 173.862 49.0388C173.865 49.0164 173.862 48.9936 173.854 48.9725L173.591 48.2729C173.58 48.2464 173.561 48.2238 173.538 48.208C173.514 48.1922 173.486 48.1841 173.457 48.1846C173.429 48.1851 173.401 48.1943 173.378 48.2109C173.354 48.2275 173.337 48.2507 173.327 48.2776L173.077 48.9795Z" fill="#161616"/>
<path id="Vector_45" d="M176.895 48.0387L176.907 50.1728C176.907 50.2022 176.895 50.2303 176.874 50.2511C176.854 50.2718 176.825 50.2835 176.796 50.2835H176.313C176.284 50.2835 176.256 50.2718 176.235 50.2511C176.214 50.2303 176.202 50.2022 176.202 50.1728L176.191 48.0387C176.191 48.0093 176.179 47.9811 176.158 47.9604C176.137 47.9396 176.109 47.9279 176.08 47.9279H175.423C175.393 47.9279 175.365 47.9163 175.344 47.8955C175.324 47.8748 175.312 47.8466 175.312 47.8172V47.5087C175.312 47.4793 175.324 47.4511 175.344 47.4304C175.365 47.4096 175.393 47.3979 175.423 47.3979H177.693C177.72 47.3984 177.746 47.4087 177.766 47.4269C177.786 47.4451 177.799 47.47 177.802 47.4969L177.835 47.8055C177.836 47.821 177.835 47.8366 177.83 47.8515C177.825 47.8663 177.817 47.8799 177.807 47.8915C177.796 47.903 177.784 47.9123 177.769 47.9186C177.755 47.9248 177.74 47.928 177.724 47.9279H177.006C176.976 47.9279 176.948 47.9396 176.927 47.9604C176.907 47.9811 176.895 48.0093 176.895 48.0387Z" fill="#161616"/>
<path id="Vector_46" d="M187.031 49.7538V50.126C187.031 50.2249 186.981 50.276 186.88 50.2791L186.534 50.2862C186.434 50.2877 186.383 50.2383 186.383 50.1378V47.5679C186.383 47.4642 186.435 47.41 186.539 47.4053C187.297 47.3723 188.628 47.1886 188.84 48.145C189.078 49.2167 188.214 49.4641 187.335 49.4547C187.132 49.4531 187.031 49.5528 187.031 49.7538ZM187.031 48.0625L187.026 48.788C187.026 48.8249 187.041 48.8602 187.067 48.8863C187.093 48.9124 187.128 48.927 187.165 48.927L187.655 48.9294C187.727 48.9297 187.798 48.9178 187.864 48.8943C187.93 48.8708 187.99 48.8362 188.041 48.7924C188.092 48.7487 188.132 48.6966 188.16 48.6393C188.187 48.582 188.201 48.5204 188.202 48.4583V48.4017C188.202 48.2762 188.146 48.1555 188.044 48.0663C187.942 47.9771 187.804 47.9266 187.66 47.9259L187.17 47.9235C187.152 47.9235 187.134 47.9271 187.117 47.9341C187.1 47.9411 187.085 47.9513 187.072 47.9642C187.059 47.9772 187.049 47.9925 187.042 48.0093C187.035 48.0262 187.031 48.0443 187.031 48.0625Z" fill="#161616"/>
<path id="Vector_47" d="M192.22 48.9398C192.219 48.9143 192.21 48.8897 192.194 48.8698C192.178 48.8498 192.156 48.8356 192.131 48.8292C192.107 48.8229 192.08 48.8247 192.057 48.8344C192.033 48.8442 192.013 48.8613 192 48.8833L191.36 49.9692C191.348 49.9882 191.332 50.004 191.313 50.0154C191.294 50.0267 191.273 50.0331 191.25 50.034C191.228 50.035 191.206 50.0304 191.186 50.0207C191.166 50.011 191.149 49.9966 191.136 49.9786L190.375 48.9139C190.364 48.8987 190.348 48.8875 190.329 48.8819C190.311 48.8762 190.292 48.8764 190.273 48.8823C190.255 48.8883 190.239 48.8997 190.228 48.9151C190.217 48.9305 190.211 48.949 190.21 48.9681V50.1364C190.21 50.2353 190.162 50.2848 190.064 50.2848H189.711C189.612 50.2848 189.562 50.2353 189.562 50.1364V47.6866C189.563 47.6071 189.589 47.5298 189.638 47.4667C189.686 47.4036 189.754 47.3583 189.831 47.3379C189.908 47.3174 189.989 47.323 190.062 47.3537C190.134 47.3844 190.195 47.4385 190.234 47.5076L191.129 49.0811C191.138 49.0959 191.15 49.1082 191.165 49.1168C191.179 49.1254 191.196 49.13 191.213 49.1303C191.23 49.1305 191.247 49.1263 191.262 49.1181C191.277 49.1099 191.29 49.098 191.299 49.0835L192.243 47.4746C192.28 47.4125 192.337 47.3642 192.404 47.3371C192.471 47.31 192.545 47.3056 192.615 47.3246C192.685 47.3435 192.747 47.3847 192.791 47.442C192.835 47.4993 192.86 47.5695 192.86 47.6419V50.1081C192.86 50.2259 192.801 50.2848 192.684 50.2848H192.38C192.293 50.2848 192.249 50.2416 192.248 50.1553L192.22 48.9398Z" fill="#161616"/>
<path id="Vector_48" d="M195.685 49.6387C195.183 49.7377 194.307 49.4314 194.276 50.131C194.275 50.1706 194.258 50.208 194.23 50.2356C194.202 50.2632 194.165 50.2789 194.126 50.2794L193.69 50.2865C193.669 50.2865 193.649 50.2815 193.631 50.2719C193.613 50.2624 193.598 50.2485 193.587 50.2316C193.575 50.2148 193.569 50.1954 193.567 50.1754C193.565 50.1553 193.569 50.1352 193.577 50.1169L194.677 47.6365C194.715 47.5514 194.776 47.479 194.854 47.428C194.932 47.377 195.023 47.3496 195.116 47.3491C195.209 47.3486 195.3 47.375 195.379 47.4252C195.457 47.4753 195.519 47.5471 195.558 47.6318L196.674 50.0698C196.718 50.1656 196.689 50.2268 196.585 50.2535C196.161 50.3603 195.921 50.1994 195.866 49.7706C195.864 49.7495 195.857 49.7292 195.846 49.7109C195.836 49.6926 195.821 49.6767 195.804 49.6643C195.787 49.6519 195.768 49.6432 195.747 49.6388C195.727 49.6344 195.706 49.6344 195.685 49.6387ZM194.715 49.0004C194.707 49.0204 194.705 49.042 194.708 49.0631C194.711 49.0843 194.719 49.1044 194.731 49.1216C194.744 49.1389 194.761 49.1528 194.78 49.162C194.799 49.1713 194.82 49.1756 194.842 49.1747L195.421 49.1535C195.443 49.1527 195.463 49.1467 195.482 49.136C195.5 49.1252 195.516 49.1101 195.527 49.0919C195.538 49.0737 195.545 49.0531 195.546 49.0318C195.547 49.0104 195.543 48.9891 195.534 48.9698L195.219 48.2961C195.208 48.2732 195.19 48.254 195.169 48.2409C195.147 48.2278 195.122 48.2214 195.097 48.2224C195.071 48.2234 195.047 48.2318 195.026 48.2466C195.006 48.2613 194.99 48.2818 194.981 48.3055L194.715 49.0004Z" fill="#161616"/>
</g>
</svg>
