<svg width="212" height="67" viewBox="0 0 212 67" fill="none" xmlns="http://www.w3.org/2000/svg">
<g id="Logo">
<path id="Vector" d="M24.5872 29.4544L18.418 28.286C18.2908 28.2625 18.1934 28.3065 18.1259 28.4179C17.4899 29.4842 17.2237 30.6432 17.3274 31.8947C17.3337 31.978 17.3706 32.0447 17.4381 32.095C18.1377 32.6273 18.0505 33.2115 17.6666 33.9229C17.6473 33.9583 17.6397 33.9989 17.6448 34.0386C17.6498 34.0784 17.6674 34.1154 17.6949 34.1443C18.875 35.3692 19.3579 37.9556 19.5722 39.5927C19.6241 39.9837 19.8243 40.4925 19.5345 40.8953C18.9881 41.6538 15.9282 41.9695 15.6173 40.8553C15.0017 38.6301 15.1077 36.4465 15.9353 34.3045C15.9667 34.2228 15.9494 34.1537 15.8834 34.0972C15.2631 33.579 15.2003 32.9807 15.695 32.3023C15.7419 32.2388 15.763 32.1597 15.7539 32.0808C15.5796 30.4838 15.885 28.9951 16.6702 27.6147C16.7189 27.5299 16.7212 27.4435 16.6773 27.3556C15.9847 25.947 16.7314 25.2191 17.9304 24.4818C22.285 21.8043 26.6381 19.1221 30.9896 16.4352C31.6468 16.0277 32.4124 16.0795 33.2462 16.2397C41.0918 17.7394 46.1649 18.7225 48.4655 19.1889C50.0084 19.5022 50.5125 21.5539 49.1557 22.4113C47.0608 23.7367 44.9447 25.0613 42.8074 26.3851C42.7887 26.3964 42.7731 26.4122 42.7621 26.4311C42.7512 26.4501 42.7452 26.4715 42.7447 26.4933C42.7442 26.5152 42.7493 26.5368 42.7594 26.5562C42.7696 26.5756 42.7845 26.5921 42.8027 26.6042C51.8151 32.7192 50.1968 46.3908 39.9101 50.1527C30.992 53.4128 21.2682 46.2189 22.0385 36.6695C22.2426 34.1317 23.1197 31.7966 24.6697 29.664C24.6831 29.6462 24.6917 29.6253 24.6947 29.6031C24.6977 29.581 24.695 29.5584 24.6867 29.5375C24.6785 29.5165 24.665 29.4979 24.6476 29.4834C24.6302 29.4689 24.6094 29.4589 24.5872 29.4544ZM45.2454 21.1652C41.0745 20.347 36.8628 19.5485 32.6102 18.7696C32.3856 18.7286 32.1535 18.7713 31.9577 18.8897C28.4071 21.06 24.8008 23.2789 21.1387 25.5465C21.0162 25.6235 20.9267 25.7091 20.8701 25.8033C20.8521 25.834 20.8418 25.8685 20.84 25.9041C20.8382 25.9396 20.845 25.975 20.8597 26.0074C20.8745 26.0397 20.8969 26.068 20.925 26.0899C20.953 26.1118 20.9859 26.1266 21.0209 26.1331L33.642 28.5828C33.9419 28.6404 34.2528 28.5832 34.5135 28.4227L45.4245 21.6999C45.4618 21.6762 45.4925 21.6434 45.5135 21.6046C45.5346 21.5658 45.5453 21.5224 45.5446 21.4785C45.543 21.3073 45.4433 21.2029 45.2454 21.1652ZM34.2285 31.2493C33.1073 31.1614 31.098 30.801 28.2006 30.1681C27.9211 30.1069 27.6816 30.1885 27.4822 30.4131C24.4718 33.8145 23.8476 38.1676 25.7249 42.2309C29.3172 50.009 40.2163 50.2634 44.5152 43.1095C47.7258 37.7671 45.7896 31.0161 40.2564 28.1423C40.2041 28.1152 40.1455 28.1025 40.0864 28.1054C40.0272 28.1083 39.9697 28.1267 39.9195 28.1588C38.8289 28.8631 35.3097 31.3318 34.2285 31.2493Z" fill="#ffffff"/>
<path id="Vector_2" d="M64.7119 26.1911C66.2595 24.4574 68.1864 23.9698 70.5419 23.8497C73.7455 23.6872 78.2634 24.7943 78.8264 28.6904C78.8308 28.7202 78.8287 28.7505 78.8203 28.7795C78.8119 28.8084 78.7974 28.8351 78.7778 28.8579C78.7581 28.8807 78.7337 28.899 78.7064 28.9116C78.679 28.9241 78.6492 28.9306 78.6191 28.9306L75.6229 28.9377C75.5349 28.9377 75.4713 28.8977 75.4321 28.8176C74.2496 26.4597 71.1544 26.2005 68.9001 26.9143C67.084 27.489 66.3184 29.6561 68.5727 30.2403C70.9989 30.8716 74.8078 30.6832 77.1775 32.3132C79.1421 33.6629 80.0419 36.777 78.3106 38.9041C74.968 43.0074 64.9993 42.1005 63.6284 36.3271C63.5656 36.0601 63.6716 35.9258 63.9464 35.9243L66.9167 35.8937C67.0062 35.8921 67.0698 35.9321 67.1075 36.0138C68.1675 38.3317 70.9471 38.7698 73.199 38.4C74.3909 38.2045 76.0327 37.38 75.7713 35.9243C75.4509 34.1293 70.8623 33.8797 68.7823 33.6135C67.4773 33.4439 65.6541 32.683 64.8132 31.6372C63.6401 30.1744 63.3645 27.6987 64.7119 26.1911Z" fill="#ffffff"/>
<path id="Vector_3" d="M119.238 24.1387H116.496C116.327 24.1387 116.19 24.2758 116.19 24.4449V40.7312C116.19 40.9003 116.327 41.0374 116.496 41.0374H119.238C119.407 41.0374 119.544 40.9003 119.544 40.7312V24.4449C119.544 24.2758 119.407 24.1387 119.238 24.1387Z" fill="#ffffff"/>
<path id="Vector_4" d="M122.609 24.1521L137.213 24.1309C137.307 24.1309 137.396 24.1678 137.462 24.2337C137.527 24.2995 137.564 24.3888 137.564 24.4818V26.8821C137.564 26.9748 137.528 27.0637 137.462 27.1295C137.397 27.1953 137.309 27.2325 137.216 27.2331L131.965 27.2732C131.873 27.2738 131.784 27.311 131.719 27.3768C131.653 27.4426 131.617 27.5315 131.617 27.6241V40.6881C131.617 40.7341 131.608 40.7798 131.59 40.8224C131.572 40.865 131.546 40.9036 131.514 40.9362C131.481 40.9688 131.443 40.9947 131.4 41.0123C131.357 41.03 131.312 41.039 131.266 41.039H128.611C128.565 41.039 128.519 41.03 128.477 41.0123C128.434 40.9947 128.395 40.9688 128.363 40.9362C128.33 40.9036 128.304 40.865 128.287 40.8224C128.269 40.7798 128.26 40.7341 128.26 40.6881V27.61C128.26 27.5169 128.223 27.4277 128.157 27.3618C128.091 27.296 128.002 27.259 127.909 27.259H122.602C122.509 27.259 122.42 27.2221 122.354 27.1562C122.288 27.0904 122.251 27.0011 122.251 26.9081L122.26 24.5007C122.261 24.4084 122.298 24.3201 122.363 24.2548C122.428 24.1896 122.517 24.1527 122.609 24.1521Z" fill="#ffffff"/>
<path id="Vector_5" d="M96.479 35.0152C96.479 36.7201 95.692 38.3552 94.2912 39.5607C92.8904 40.7663 90.9905 41.4435 89.0095 41.4435C87.0285 41.4435 85.1286 40.7663 83.7278 39.5607C82.327 38.3552 81.54 36.7201 81.54 35.0152C81.54 33.3103 82.327 31.6753 83.7278 30.4697C85.1286 29.2642 87.0285 28.5869 89.0095 28.5869C90.9905 28.5869 92.8904 29.2642 94.2912 30.4697C95.692 31.6753 96.479 33.3103 96.479 35.0152ZM93.0822 35.0248C93.0838 34.5895 92.9797 34.1582 92.7759 33.7554C92.5722 33.3526 92.2728 32.9861 91.8948 32.6771C91.5168 32.368 91.0676 32.1223 90.5729 31.954C90.0783 31.7857 89.5477 31.6981 89.0116 31.6963C87.929 31.6925 86.8895 32.038 86.1217 32.6569C85.354 33.2758 84.921 34.1173 84.9179 34.9963C84.9164 35.4315 85.0205 35.8628 85.2242 36.2657C85.428 36.6685 85.7274 37.0349 86.1054 37.344C86.4834 37.653 86.9325 37.8987 87.4272 38.067C87.9219 38.2353 88.4524 38.3229 88.9885 38.3248C90.0712 38.3285 91.1107 37.983 91.8784 37.3641C92.6461 36.7452 93.0792 35.9038 93.0822 35.0248Z" fill="#ffffff"/>
<path id="Vector_6" d="M140.605 36.0968C140.759 37.1403 141.548 37.913 142.532 38.3417C144.373 39.141 146.096 38.8528 147.7 37.4772C147.759 37.4269 147.826 37.401 147.903 37.3994L150.525 37.3523C150.587 37.351 150.649 37.366 150.704 37.3959C150.76 37.4258 150.806 37.4696 150.839 37.523C150.872 37.5763 150.891 37.6375 150.894 37.7005C150.897 37.7635 150.883 37.8261 150.855 37.8823C148.339 42.756 139.842 42.4898 137.572 37.595C136.139 34.5068 137.437 31.0112 140.497 29.4801C142.298 28.5787 144.279 28.4028 146.44 28.9524C149.806 29.8098 151.51 31.9801 151.554 35.4632C151.555 35.5145 151.546 35.5655 151.527 35.6132C151.507 35.6609 151.479 35.7043 151.443 35.7409C151.407 35.7775 151.363 35.8066 151.316 35.8265C151.268 35.8463 151.217 35.8566 151.165 35.8566H140.813C140.783 35.8566 140.753 35.8631 140.726 35.8756C140.698 35.8882 140.674 35.9065 140.654 35.9293C140.634 35.9521 140.62 35.9788 140.612 36.0077C140.603 36.0367 140.601 36.067 140.605 36.0968ZM140.657 34.2077L147.894 34.1935C147.901 34.1935 147.908 34.1906 147.914 34.1853C147.919 34.18 147.922 34.1728 147.922 34.1653V34.1606C147.92 33.4185 147.544 32.7077 146.875 32.1842C146.206 31.6608 145.3 31.3676 144.356 31.3692H144.186C143.718 31.37 143.255 31.4432 142.823 31.5847C142.391 31.7261 141.999 31.933 141.668 32.1935C141.338 32.454 141.076 32.7631 140.898 33.103C140.72 33.443 140.628 33.8071 140.629 34.1747V34.1794C140.629 34.1869 140.632 34.1941 140.637 34.1994C140.643 34.2047 140.65 34.2077 140.657 34.2077Z" fill="#ffffff"/>
<path id="Vector_7" d="M166.222 39.9359C166.175 39.7584 166.074 39.7192 165.92 39.8181C163.627 41.2864 161.3 41.7159 158.938 41.1066C152.663 39.486 152.303 31.1661 158.519 29.0579C161.079 28.1895 163.534 28.5876 165.885 30.2522C165.913 30.2724 165.946 30.2854 165.981 30.29C166.015 30.2946 166.051 30.2907 166.083 30.2786C166.116 30.2665 166.145 30.2467 166.169 30.2207C166.192 30.1948 166.208 30.1635 166.217 30.1297L166.448 29.2346C166.467 29.1592 166.511 29.0924 166.572 29.0447C166.634 28.9969 166.709 28.9709 166.787 28.9708L169.178 28.9661C169.218 28.9657 169.257 28.9733 169.294 28.9883C169.331 29.0033 169.364 29.0255 169.393 29.0535C169.421 29.0816 169.443 29.1149 169.459 29.1516C169.474 29.1884 169.482 29.2278 169.482 29.2676V40.8027C169.482 40.8652 169.457 40.9251 169.413 40.9693C169.369 41.0135 169.309 41.0383 169.246 41.0383H166.69C166.639 41.0383 166.59 41.0211 166.549 40.9896C166.509 40.9581 166.48 40.9139 166.467 40.864L166.222 39.9359ZM166.151 35.0104C166.151 34.0939 165.689 33.215 164.866 32.5669C164.044 31.9189 162.928 31.5548 161.765 31.5548C160.602 31.5548 159.486 31.9189 158.664 32.5669C157.841 33.215 157.379 34.0939 157.379 35.0104C157.379 35.9269 157.841 36.8058 158.664 37.4539C159.486 38.1019 160.602 38.466 161.765 38.466C162.928 38.466 164.044 38.1019 164.866 37.4539C165.689 36.8058 166.151 35.9269 166.151 35.0104Z" fill="#ffffff"/>
<path id="Vector_8" d="M187.008 33.3408C186.089 34.8837 186.497 38.8198 186.504 40.6901C186.504 40.7826 186.467 40.8713 186.402 40.9366C186.337 41.002 186.248 41.0388 186.155 41.0388H183.444C183.212 41.0388 183.095 40.9226 183.093 40.6901C183.081 38.7468 183.446 35.2064 182.742 33.6494C181.583 31.0912 177.744 31.0936 176.604 33.614C175.855 35.27 176.187 38.7492 176.201 40.7891C176.201 40.8217 176.195 40.8542 176.183 40.8844C176.17 40.9147 176.152 40.9423 176.129 40.9655C176.106 40.9887 176.079 41.0071 176.049 41.0197C176.018 41.0323 175.986 41.0388 175.953 41.0388H173.202C172.934 41.0388 172.799 40.9045 172.799 40.636L172.788 29.3246C172.788 29.2302 172.825 29.1398 172.892 29.0731C172.958 29.0064 173.049 28.9689 173.143 28.9689L175.567 28.9665C175.644 28.9664 175.718 28.9932 175.777 29.0423C175.836 29.0914 175.876 29.1596 175.89 29.2351L176.059 30.1749C176.071 30.2347 176.098 30.2902 176.139 30.3353C176.179 30.3805 176.232 30.4135 176.29 30.4308C176.348 30.4481 176.41 30.449 176.469 30.4334C176.527 30.4177 176.581 30.3862 176.622 30.3422C179.291 27.499 183.661 28.3494 185.564 31.5836C185.584 31.6176 185.612 31.6462 185.646 31.6667C185.68 31.6873 185.718 31.6992 185.757 31.7013C185.797 31.7034 185.836 31.6956 185.871 31.6788C185.906 31.6619 185.937 31.6365 185.96 31.6048C186.455 30.924 187.001 30.1749 187.658 29.6944C190.822 27.3742 195 29.0419 196.284 32.547C197.055 34.6434 196.772 38.2404 196.739 40.8079C196.738 40.8694 196.713 40.9281 196.67 40.9713C196.626 41.0145 196.567 41.0388 196.506 41.0388H193.745C193.65 41.0388 193.559 41.001 193.492 40.9339C193.425 40.8667 193.387 40.7757 193.387 40.6807C193.396 39.1732 193.396 37.6452 193.387 36.0968C193.379 35.0242 193.289 34.261 193.116 33.8072C192.146 31.2585 188.412 30.9853 187.008 33.3408Z" fill="#ffffff"/>
<path id="Vector_9" d="M106.249 41.2244C103.064 41.9075 100.219 40.2327 99.187 37.2176C98.9577 36.5533 98.8345 35.5593 98.8172 34.2354C98.7952 32.5426 98.796 30.8364 98.8195 29.1168C98.8211 29.0273 98.8667 28.9825 98.9562 28.9825L101.87 28.959C101.909 28.9587 101.947 28.966 101.983 28.9805C102.019 28.995 102.051 29.0164 102.079 29.0436C102.106 29.0707 102.128 29.103 102.143 29.1386C102.159 29.1742 102.166 29.2124 102.167 29.2511C102.178 30.7885 102.178 32.3408 102.167 33.908C102.161 34.8094 102.255 35.5106 102.449 36.0115C103.606 38.9795 107.954 39.0785 109.191 36.1411C109.367 35.7202 109.459 35.1125 109.467 34.3179C109.479 32.6816 109.48 31.0562 109.469 29.4419C109.469 29.3795 109.481 29.3177 109.504 29.26C109.528 29.2023 109.563 29.1498 109.607 29.1056C109.651 29.0614 109.703 29.0263 109.761 29.0023C109.818 28.9784 109.88 28.9661 109.942 28.9661H112.508C112.609 28.9661 112.706 29.0065 112.778 29.0785C112.849 29.1505 112.889 29.2482 112.889 29.35V40.7368C112.889 40.8167 112.858 40.8934 112.801 40.95C112.744 41.0065 112.668 41.0383 112.588 41.0383H110.107C110.013 41.0383 109.943 40.9967 109.898 40.9134C109.734 40.6182 109.665 40.301 109.69 39.9618C109.694 39.9137 109.687 39.8654 109.671 39.8203C109.654 39.7751 109.628 39.7342 109.594 39.7003C109.366 39.4679 109.109 39.4993 108.824 39.7945C108.109 40.5342 107.251 41.0108 106.249 41.2244Z" fill="#ffffff"/>
<path id="Vector_10" d="M30.1935 35.6702C28.5823 40.4237 33.0885 44.553 37.6794 42.6309C40.9702 41.2552 41.8205 36.8268 39.644 34.1367C39.4226 33.8635 38.0658 32.9472 38.1765 32.2381C38.31 31.3729 38.7779 30.8444 39.5804 30.6529C39.6529 30.6362 39.7288 30.648 39.7924 30.6858C45.9757 34.5113 44.3669 43.8275 37.4062 45.6483C30.0569 47.5705 24.1397 39.0999 28.5705 32.8671C29.2112 31.9696 30.5539 32.5844 30.9166 33.3877C31.303 34.2427 30.4455 34.9258 30.1935 35.6702Z" fill="#ffffff"/>
<path id="Vector_11" d="M36.6647 38.115C37.19 35.4367 33.1738 36.3671 34.4199 38.3081C34.9663 39.1585 36.2525 38.8546 35.5387 40.5176C35.4461 40.7312 35.2419 40.8184 34.9263 40.7791C31.6073 40.3669 31.2375 35.6534 34.5 34.6075C36.3208 34.0234 38.0074 34.9656 38.601 36.7911C39.0509 38.1809 38.2806 40.0183 36.7283 38.3387C36.7006 38.3096 36.6804 38.2741 36.6693 38.2351C36.6582 38.1962 36.6566 38.155 36.6647 38.115Z" fill="#ffffff"/>
<path id="Vector_12" d="M179.742 47.3949C179.796 47.274 179.891 47.2143 180.027 47.2159C180.178 47.2174 180.308 47.2991 180.416 47.4608C180.435 47.4904 180.461 47.5154 180.491 47.5341C180.521 47.5528 180.555 47.5648 180.59 47.5692C182.331 47.7977 182.303 49.9012 180.586 50.0519C180.549 50.0549 180.514 50.0665 180.484 50.0857C180.453 50.105 180.427 50.1314 180.409 50.1627L180.338 50.2804C180.31 50.3275 180.271 50.3613 180.221 50.3817C180.007 50.4697 179.845 50.4084 179.733 50.198C179.717 50.1678 179.694 50.1415 179.667 50.1212C179.64 50.1008 179.608 50.0868 179.575 50.0802C177.693 49.6986 177.787 48.0309 179.575 47.5362C179.654 47.5158 179.709 47.4687 179.742 47.3949ZM179.801 49.4442L179.719 48.1887C179.716 48.1604 179.703 48.1341 179.681 48.1156C179.66 48.0971 179.632 48.0878 179.603 48.0898L179.568 48.0921C179.377 48.1047 179.198 48.1895 179.072 48.3277C178.945 48.4659 178.88 48.6464 178.892 48.8294L178.899 48.9189C178.911 49.1018 178.999 49.2723 179.142 49.3928C179.286 49.5134 179.474 49.5742 179.665 49.562L179.7 49.5596C179.714 49.5587 179.728 49.555 179.741 49.5487C179.754 49.5424 179.765 49.5337 179.775 49.523C179.784 49.5122 179.791 49.4998 179.796 49.4862C179.8 49.4727 179.802 49.4584 179.801 49.4442ZM180.378 48.1981L180.374 49.4371C180.374 49.4615 180.383 49.4849 180.401 49.5021C180.418 49.5193 180.441 49.529 180.466 49.529L180.529 49.5314C180.717 49.532 180.897 49.4579 181.03 49.3254C181.163 49.1928 181.238 49.0127 181.238 48.8247V48.82C181.239 48.7269 181.221 48.6346 181.185 48.5485C181.15 48.4623 181.098 48.384 181.033 48.3179C180.968 48.2519 180.89 48.1994 180.804 48.1635C180.719 48.1276 180.627 48.1089 180.534 48.1086L180.47 48.1063C180.446 48.1063 180.423 48.1159 180.405 48.1332C180.388 48.1504 180.378 48.1738 180.378 48.1981Z" fill="#ffffff"/>
<path id="Vector_13" d="M80.5642 48.7418L81.1296 47.5452C81.1704 47.4588 81.2379 47.4101 81.3322 47.3991L81.7232 47.3497C81.8441 47.334 81.8779 47.3803 81.8245 47.4886C81.2921 48.5698 80.5902 50.5532 79.3394 50.3177C79.2687 50.3035 79.2396 50.2603 79.2522 50.1881L79.3087 49.8819C79.3128 49.8599 79.3236 49.8397 79.3397 49.8241C79.3557 49.8085 79.3762 49.7982 79.3983 49.7947L79.9589 49.7029C79.9837 49.6988 80.0072 49.6888 80.0273 49.6738C80.0475 49.6588 80.0638 49.6392 80.0749 49.6166C80.0859 49.594 80.0914 49.5691 80.0909 49.5439C80.0904 49.5188 80.0839 49.4941 80.0719 49.472L79.0426 47.5687C79.0332 47.5512 79.0286 47.5315 79.0291 47.5117C79.0296 47.4918 79.0352 47.4724 79.0454 47.4554C79.0556 47.4383 79.07 47.4242 79.0872 47.4143C79.1045 47.4045 79.124 47.3992 79.1438 47.3991H79.5514C79.6346 47.3991 79.6943 47.4368 79.7304 47.5122L80.3381 48.7442C80.3484 48.7655 80.3646 48.7836 80.3847 48.7961C80.4049 48.8086 80.4282 48.8151 80.4519 48.8149C80.4757 48.8146 80.4988 48.8076 80.5187 48.7947C80.5386 48.7817 80.5544 48.7634 80.5642 48.7418Z" fill="#ffffff"/>
<path id="Vector_14" d="M95.889 48.7662C95.9036 49.1632 95.7501 49.5502 95.4625 49.8419C95.1748 50.1335 94.7764 50.3061 94.355 50.3215C94.1463 50.3292 93.9383 50.2981 93.7428 50.2299C93.5472 50.1617 93.368 50.0579 93.2154 49.9243C93.0627 49.7906 92.9396 49.6299 92.8531 49.4512C92.7666 49.2725 92.7184 49.0793 92.7112 48.8827C92.6966 48.4856 92.85 48.0987 93.1377 47.807C93.4254 47.5153 93.8238 47.3428 94.2452 47.3273C94.4538 47.3197 94.6619 47.3508 94.8574 47.419C95.053 47.4871 95.2322 47.591 95.3848 47.7246C95.5375 47.8582 95.6606 48.019 95.7471 48.1977C95.8336 48.3764 95.8818 48.5696 95.889 48.7662ZM95.2164 48.8315C95.2164 48.5891 95.1201 48.3566 94.9487 48.1852C94.7773 48.0138 94.5448 47.9175 94.3024 47.9175C94.0601 47.9175 93.8276 48.0138 93.6562 48.1852C93.4848 48.3566 93.3885 48.5891 93.3885 48.8315C93.3885 49.0739 93.4848 49.3064 93.6562 49.4778C93.8276 49.6492 94.0601 49.7454 94.3024 49.7454C94.5448 49.7454 94.7773 49.6492 94.9487 49.4778C95.1201 49.3064 95.2164 49.0739 95.2164 48.8315Z" fill="#ffffff"/>
<path id="Vector_15" d="M115.696 48.8489C115.69 49.2468 115.517 49.6261 115.214 49.9033C114.912 50.1805 114.505 50.3329 114.082 50.327C113.873 50.3241 113.667 50.2824 113.475 50.2043C113.283 50.1262 113.109 50.0132 112.963 49.8719C112.817 49.7305 112.702 49.5634 112.624 49.3803C112.547 49.1972 112.508 49.0015 112.511 48.8044C112.517 48.4065 112.69 48.0273 112.992 47.7501C113.295 47.4729 113.702 47.3204 114.124 47.3263C114.333 47.3293 114.54 47.371 114.732 47.449C114.924 47.5271 115.098 47.6401 115.244 47.7815C115.39 47.9229 115.505 48.0899 115.582 48.2731C115.66 48.4562 115.698 48.6519 115.696 48.8489ZM115.017 48.829C115.017 48.586 114.921 48.353 114.749 48.1811C114.577 48.0093 114.344 47.9127 114.101 47.9127C113.858 47.9127 113.625 48.0093 113.453 48.1811C113.281 48.353 113.185 48.586 113.185 48.829C113.185 49.0721 113.281 49.3051 113.453 49.477C113.625 49.6488 113.858 49.7453 114.101 49.7453C114.344 49.7453 114.577 49.6488 114.749 49.477C114.921 49.3051 115.017 49.0721 115.017 48.829Z" fill="#ffffff"/>
<path id="Vector_16" d="M127.606 49.0575L126.812 49.0386C126.774 49.038 126.738 49.0226 126.712 48.9957C126.685 48.9689 126.67 48.9327 126.67 48.895V48.7324C126.67 48.6955 126.685 48.66 126.71 48.6332C126.735 48.6065 126.77 48.5905 126.807 48.5887L127.478 48.5487C127.563 48.5432 127.643 48.506 127.702 48.4444C127.761 48.3827 127.794 48.3013 127.796 48.2161C127.797 48.1309 127.767 48.0483 127.71 47.9847C127.653 47.9211 127.575 47.8811 127.49 47.8726C127.162 47.8412 126.84 47.8876 126.524 48.0116C126.418 48.054 126.353 48.0187 126.331 47.9056L126.284 47.6536C126.268 47.5656 126.302 47.5067 126.385 47.4769C127.16 47.1942 129.149 47.378 128.216 48.6429C128.196 48.6701 128.187 48.7036 128.19 48.7367C128.194 48.7699 128.21 48.8003 128.235 48.8219C128.739 49.2718 128.67 49.8866 128.032 50.1481C127.457 50.3821 126.871 50.3632 126.272 50.0916C126.203 50.0617 126.177 50.0099 126.195 49.9361L126.235 49.7524C126.263 49.633 126.334 49.5938 126.449 49.6346C126.848 49.7712 127.252 49.7995 127.662 49.7194C127.742 49.7029 127.814 49.6575 127.863 49.5919C127.912 49.5262 127.935 49.4449 127.928 49.3633C127.921 49.2817 127.884 49.2055 127.825 49.1492C127.765 49.0928 127.687 49.0602 127.606 49.0575Z" fill="#ffffff"/>
<path id="Vector_17" d="M132.333 48.7525C132.343 48.9496 132.311 49.1467 132.24 49.3326C132.169 49.5185 132.059 49.6895 131.919 49.8359C131.778 49.9822 131.609 50.101 131.42 50.1855C131.231 50.2701 131.026 50.3186 130.818 50.3284C130.398 50.3483 129.987 50.2091 129.676 49.9416C129.365 49.6741 129.18 49.3002 129.161 48.902C129.152 48.7049 129.184 48.5078 129.255 48.3219C129.326 48.136 129.435 47.965 129.576 47.8186C129.717 47.6723 129.886 47.5535 130.075 47.469C130.264 47.3845 130.468 47.3359 130.677 47.3261C131.097 47.3063 131.508 47.4454 131.819 47.7129C132.129 47.9804 132.314 48.3543 132.333 48.7525ZM131.664 48.832C131.664 48.5883 131.567 48.3547 131.395 48.1824C131.222 48.0101 130.989 47.9133 130.745 47.9133C130.501 47.9133 130.268 48.0101 130.095 48.1824C129.923 48.3547 129.826 48.5883 129.826 48.832C129.826 49.0756 129.923 49.3093 130.095 49.4816C130.268 49.6538 130.501 49.7506 130.745 49.7506C130.989 49.7506 131.222 49.6538 131.395 49.4816C131.567 49.3093 131.664 49.0756 131.664 48.832Z" fill="#ffffff"/>
<path id="Vector_18" d="M185.622 48.8541C185.616 49.2489 185.44 49.6245 185.135 49.8984C184.83 50.1723 184.42 50.322 183.995 50.3146C183.785 50.3109 183.577 50.2688 183.384 50.1906C183.191 50.1124 183.016 49.9997 182.87 49.8589C182.724 49.7181 182.609 49.5519 182.531 49.3699C182.454 49.1879 182.416 48.9937 182.419 48.7982C182.426 48.4034 182.602 48.0278 182.907 47.7539C183.212 47.48 183.622 47.3302 184.047 47.3377C184.257 47.3413 184.465 47.3835 184.658 47.4617C184.851 47.5399 185.025 47.6526 185.172 47.7934C185.318 47.9342 185.433 48.1004 185.511 48.2824C185.588 48.4643 185.626 48.6586 185.622 48.8541ZM184.933 48.8356C184.933 48.5938 184.836 48.3619 184.666 48.191C184.495 48.02 184.263 47.924 184.021 47.924C183.779 47.924 183.547 48.02 183.376 48.191C183.205 48.3619 183.109 48.5938 183.109 48.8356C183.109 49.0773 183.205 49.3092 183.376 49.4802C183.547 49.6511 183.779 49.7472 184.021 49.7472C184.263 49.7472 184.495 49.6511 184.666 49.4802C184.836 49.3092 184.933 49.0773 184.933 48.8356Z" fill="#ffffff"/>
<path id="Vector_19" d="M64.4407 48.8687C64.4291 48.8489 64.4113 48.8335 64.3901 48.8249C64.3688 48.8163 64.3453 48.815 64.3232 48.8212C64.3011 48.8274 64.2817 48.8407 64.268 48.8591C64.2543 48.8775 64.2471 48.9 64.2475 48.9229V50.103C64.2475 50.1721 64.2161 50.2216 64.1533 50.2514C63.9665 50.3378 63.8173 50.3253 63.7058 50.2138C63.6335 50.1415 63.5974 50.023 63.5974 49.8581C63.599 49.0807 63.5998 48.367 63.5998 47.7169C63.5998 47.6381 63.6256 47.5616 63.6732 47.4989C63.7209 47.4362 63.7877 47.3909 63.8636 47.3698C63.9394 47.3487 64.0201 47.353 64.0933 47.3821C64.1664 47.4111 64.2281 47.4634 64.2687 47.5308L65.1803 49.0454C65.1902 49.0614 65.204 49.0746 65.2204 49.0836C65.2368 49.0927 65.2553 49.0973 65.2741 49.0971C65.2928 49.0968 65.3112 49.0917 65.3274 49.0823C65.3436 49.0728 65.357 49.0593 65.3664 49.043L66.2427 47.5166C66.2813 47.4499 66.3408 47.3977 66.4121 47.3681C66.4833 47.3385 66.5623 47.3333 66.6369 47.3531C66.7114 47.373 66.7773 47.4168 66.8244 47.4779C66.8716 47.5389 66.8973 47.6138 66.8975 47.691V50.1643C66.8975 50.2114 66.8748 50.2428 66.8292 50.2585C66.589 50.3355 66.4217 50.3111 66.3275 50.1855C66.2741 50.1164 66.2513 49.9829 66.2592 49.785C66.2702 49.4741 66.2623 49.1648 66.2356 48.857C66.2215 48.6779 66.1689 48.6662 66.0778 48.8216L65.4913 49.8133C65.467 49.8544 65.4326 49.8886 65.3912 49.9123C65.3498 49.9361 65.3029 49.9487 65.2552 49.949C65.2075 49.9492 65.1605 49.9371 65.1189 49.9137C65.0773 49.8903 65.0425 49.8565 65.0178 49.8157L64.4407 48.8687Z" fill="#ffffff"/>
<path id="Vector_20" d="M68.5465 49.1999V49.6428C68.5465 49.6722 68.5582 49.7003 68.5789 49.7211C68.5997 49.7418 68.6279 49.7535 68.6572 49.7535H69.9669C69.9814 49.7535 69.9958 49.7564 70.0093 49.7619C70.0227 49.7675 70.0349 49.7757 70.0452 49.7859C70.0555 49.7962 70.0636 49.8084 70.0692 49.8219C70.0748 49.8353 70.0776 49.8497 70.0776 49.8642V50.1728C70.0776 50.1873 70.0748 50.2017 70.0692 50.2152C70.0636 50.2286 70.0555 50.2408 70.0452 50.2511C70.0349 50.2614 70.0227 50.2695 70.0093 50.2751C69.9958 50.2806 69.9814 50.2835 69.9669 50.2835H67.9506C67.936 50.2835 67.9216 50.2806 67.9082 50.2751C67.8948 50.2695 67.8826 50.2614 67.8723 50.2511C67.862 50.2408 67.8538 50.2286 67.8483 50.2152C67.8427 50.2017 67.8398 50.1873 67.8398 50.1728V47.5087C67.8398 47.4941 67.8427 47.4797 67.8483 47.4663C67.8538 47.4529 67.862 47.4407 67.8723 47.4304C67.8826 47.4201 67.8948 47.4119 67.9082 47.4064C67.9216 47.4008 67.936 47.398 67.9506 47.398H69.9763C69.9919 47.3979 70.0073 47.4011 70.0216 47.4074C70.0359 47.4136 70.0486 47.4229 70.0591 47.4344C70.0695 47.446 70.0774 47.4596 70.0823 47.4744C70.0871 47.4893 70.0887 47.5049 70.087 47.5204L70.0541 47.829C70.0512 47.8559 70.0386 47.8808 70.0186 47.899C69.9987 47.9172 69.9727 47.9275 69.9457 47.928H68.6572C68.6279 47.928 68.5997 47.9396 68.5789 47.9604C68.5582 47.9811 68.5465 48.0093 68.5465 48.0387V48.465C68.5465 48.4944 68.5582 48.5225 68.5789 48.5433C68.5997 48.5641 68.6279 48.5757 68.6572 48.5757H69.7997C69.8153 48.5756 69.8307 48.5788 69.8449 48.5851C69.8592 48.5914 69.872 48.6006 69.8824 48.6122C69.8929 48.6238 69.9008 48.6374 69.9056 48.6522C69.9104 48.667 69.912 48.6827 69.9104 48.6982L69.8774 49.0139C69.8745 49.0411 69.8615 49.0664 69.8411 49.0846C69.8206 49.1029 69.7941 49.113 69.7667 49.1128L68.6596 49.0892C68.6448 49.0889 68.6302 49.0916 68.6165 49.097C68.6028 49.1024 68.5903 49.1105 68.5798 49.1208C68.5692 49.1311 68.5609 49.1434 68.5552 49.157C68.5494 49.1706 68.5465 49.1852 68.5465 49.1999Z" fill="#ffffff"/>
<path id="Vector_21" d="M71.8918 49.2333C71.6987 49.6809 71.3759 50.5925 70.6905 50.2297C70.6308 50.1983 70.6182 50.1536 70.6528 50.0955L71.383 48.8399C71.3987 48.8142 71.407 48.7846 71.407 48.7543C71.407 48.724 71.3987 48.6941 71.383 48.668L70.6905 47.5279C70.6825 47.515 70.678 47.5002 70.6777 47.485C70.6774 47.4698 70.6812 47.4547 70.6886 47.4415C70.6961 47.4283 70.707 47.4173 70.7202 47.4097C70.7333 47.4021 70.7483 47.3982 70.7635 47.3983H71.2111C71.2572 47.3984 71.3024 47.411 71.3419 47.4346C71.3813 47.4583 71.4134 47.4921 71.4348 47.5326L71.9389 48.4866C71.9679 48.5427 72.0155 48.5867 72.0735 48.6111C72.1316 48.6355 72.1964 48.6388 72.2569 48.6204C72.3173 48.602 72.3697 48.5631 72.405 48.5103C72.4402 48.4575 72.4562 48.3942 72.4501 48.3311L72.37 47.5562C72.368 47.5361 72.3702 47.5159 72.3764 47.4968C72.3826 47.4776 72.3927 47.4601 72.406 47.4452C72.4194 47.4303 72.4356 47.4185 72.4538 47.4104C72.4719 47.4023 72.4915 47.3982 72.5113 47.3983H72.9636C73.0421 47.3983 73.0814 47.4376 73.0814 47.5161V48.3476C73.0812 48.4 73.0976 48.451 73.1283 48.4934C73.1589 48.5358 73.2022 48.5674 73.252 48.5836C73.3017 48.5998 73.3553 48.5999 73.4051 48.5837C73.4548 48.5676 73.4982 48.536 73.5289 48.4937C73.8281 48.0744 74.0283 47.1746 74.6926 47.4266C74.7899 47.4643 74.8119 47.5271 74.7585 47.6151L74.1272 48.6421C74.0864 48.7096 74.0856 48.7779 74.1249 48.847L74.8527 50.0907C74.8645 50.1102 74.8709 50.1324 74.8712 50.1551C74.8715 50.1779 74.8656 50.2002 74.8543 50.22C74.843 50.2397 74.8267 50.256 74.8069 50.2673C74.7872 50.2785 74.7648 50.2842 74.742 50.2839H74.3392C74.2434 50.2839 74.172 50.2431 74.1249 50.1614L73.5289 49.1509C73.5022 49.1053 73.4612 49.0698 73.4123 49.0498C73.3633 49.0299 73.3092 49.0267 73.2582 49.0406C73.2072 49.0546 73.1623 49.0849 73.1303 49.127C73.0984 49.1691 73.0811 49.2205 73.0814 49.2734V50.1261C73.0814 50.1659 73.0656 50.2041 73.0375 50.2327C73.0093 50.2613 72.971 50.278 72.9306 50.2792L72.5537 50.2863C72.4736 50.2878 72.4336 50.2486 72.4336 50.1685V49.344C72.4331 49.2793 72.4103 49.2167 72.3692 49.1667C72.328 49.1166 72.271 49.0823 72.2075 49.0693C72.1441 49.0564 72.0781 49.0656 72.0206 49.0954C71.9632 49.1253 71.9177 49.174 71.8918 49.2333Z" fill="#ffffff"/>
<path id="Vector_22" d="M78.2898 49.7441L78.4452 49.7559C78.5206 49.7621 78.5583 49.803 78.5583 49.8783V50.7546C78.5583 50.8331 78.519 50.8724 78.4405 50.8724H78.1272C78.0912 50.8726 78.0563 50.8592 78.0294 50.8348C78.0024 50.8105 77.9853 50.7769 77.9812 50.7405L77.9506 50.4201C77.9464 50.3808 77.9277 50.3444 77.898 50.3182C77.8684 50.2921 77.8299 50.278 77.7904 50.2788C77.2549 50.2835 76.7233 50.2921 76.1957 50.3047C75.9052 50.3126 75.7819 50.4217 75.8259 50.6321C75.835 50.6679 75.837 50.705 75.8317 50.7415C75.8265 50.778 75.8141 50.8131 75.7953 50.8449C75.7765 50.8766 75.7516 50.9043 75.7221 50.9264C75.6926 50.9485 75.659 50.9646 75.6233 50.9737C75.5876 50.9828 75.5504 50.9848 75.5139 50.9796C75.4774 50.9743 75.4423 50.9619 75.4106 50.9431C75.3788 50.9243 75.3511 50.8994 75.329 50.8699C75.3069 50.8404 75.2908 50.8068 75.2817 50.7711C75.1137 50.2262 75.2378 49.8265 75.6539 49.5721C75.7324 49.525 75.7756 49.4551 75.7835 49.3625L75.946 47.4922C75.9483 47.4663 75.9603 47.4423 75.9795 47.4249C75.9987 47.4075 76.0237 47.3978 76.0496 47.398H78.0283C78.1068 47.398 78.1461 47.4372 78.1461 47.5157V49.5886C78.1461 49.686 78.194 49.7378 78.2898 49.7441ZM77.5521 48.1057C77.5544 48.0702 77.5424 48.0352 77.5189 48.0084C77.4954 47.9817 77.4623 47.9654 77.4267 47.9631L76.6181 47.9108C76.5826 47.9085 76.5476 47.9204 76.5208 47.9439C76.4941 47.9674 76.4778 48.0006 76.4755 48.0361L76.3751 49.5875C76.3728 49.623 76.3847 49.658 76.4082 49.6848C76.4317 49.7115 76.4649 49.7279 76.5004 49.7302L77.3091 49.7825C77.3446 49.7848 77.3796 49.7728 77.4064 49.7493C77.4331 49.7258 77.4494 49.6927 77.4517 49.6571L77.5521 48.1057Z" fill="#ffffff"/>
<path id="Vector_23" d="M83.278 48.5168H84.3192C84.3529 48.5168 84.3853 48.5034 84.4091 48.4796C84.433 48.4557 84.4464 48.4234 84.4464 48.3896V47.5251C84.4464 47.4914 84.4598 47.4591 84.4837 47.4352C84.5075 47.4113 84.5399 47.3979 84.5736 47.3979H84.9811C85.0148 47.3979 85.0472 47.4113 85.0711 47.4352C85.0949 47.4591 85.1083 47.4914 85.1083 47.5251L85.0871 50.1563C85.0871 50.19 85.0737 50.2224 85.0499 50.2462C85.026 50.2701 84.9936 50.2835 84.9599 50.2835H84.5736C84.5399 50.2835 84.5075 50.2701 84.4837 50.2462C84.4598 50.2224 84.4464 50.19 84.4464 50.1563V49.2329C84.4464 49.1992 84.433 49.1668 84.4091 49.143C84.3853 49.1191 84.3529 49.1057 84.3192 49.1057H83.2804C83.2467 49.1057 83.2143 49.1191 83.1905 49.143C83.1666 49.1668 83.1532 49.1992 83.1532 49.2329L83.1461 50.1563C83.1461 50.19 83.1327 50.2224 83.1089 50.2462C83.085 50.2701 83.0527 50.2835 83.0189 50.2835H82.6468C82.6138 50.2835 82.5822 50.2708 82.5584 50.2479C82.5347 50.2251 82.5208 50.1939 82.5196 50.161L82.4442 47.5299C82.4435 47.5128 82.4464 47.4957 82.4525 47.4797C82.4586 47.4638 82.4679 47.4492 82.4797 47.4369C82.4916 47.4245 82.5058 47.4147 82.5216 47.4081C82.5373 47.4014 82.5543 47.3979 82.5714 47.3979H83.0236C83.0574 47.3979 83.0897 47.4113 83.1136 47.4352C83.1374 47.4591 83.1508 47.4914 83.1508 47.5251V48.3896C83.1508 48.4234 83.1642 48.4557 83.1881 48.4796C83.212 48.5034 83.2443 48.5168 83.278 48.5168Z" fill="#ffffff"/>
<path id="Vector_24" d="M88.0108 49.6739L86.7953 49.6763C86.7515 49.676 86.7092 49.692 86.6766 49.7212C86.644 49.7503 86.6233 49.7906 86.6186 49.8341C86.5778 50.1953 86.3666 50.3445 85.985 50.2816C85.9605 50.2776 85.9372 50.2681 85.917 50.2537C85.8968 50.2393 85.8801 50.2205 85.8683 50.1986C85.8564 50.1768 85.8498 50.1526 85.8488 50.1277C85.8478 50.1029 85.8525 50.0782 85.8625 50.0555L86.939 47.6434C86.9779 47.5564 87.0411 47.4825 87.121 47.4306C87.2008 47.3786 87.294 47.3508 87.3893 47.3506C87.4846 47.3503 87.578 47.3776 87.6581 47.4292C87.7383 47.4807 87.8018 47.5543 87.8412 47.6411L88.9318 50.0461C88.9419 50.0692 88.9468 50.0942 88.9461 50.1194C88.9454 50.1445 88.9392 50.1691 88.928 50.1915C88.9167 50.2138 88.9006 50.2333 88.8809 50.2485C88.8612 50.2636 88.8383 50.2742 88.814 50.2793C88.423 50.3594 88.2118 50.2102 88.1804 49.8317C88.1774 49.7888 88.1582 49.7487 88.1267 49.7194C88.0952 49.6901 88.0538 49.6738 88.0108 49.6739ZM87.0026 48.9649C86.9937 48.9863 86.9902 49.0095 86.9925 49.0326C86.9947 49.0557 87.0025 49.0778 87.0153 49.0971C87.0281 49.1165 87.0455 49.1323 87.0658 49.1434C87.0862 49.1544 87.109 49.1602 87.1322 49.1604L87.6622 49.1698C87.6854 49.1703 87.7085 49.165 87.7292 49.1544C87.7499 49.1438 87.7677 49.1283 87.781 49.1092C87.7943 49.0901 87.8026 49.068 87.8053 49.0449C87.808 49.0217 87.805 48.9983 87.7964 48.9767L87.542 48.3218C87.5323 48.295 87.5146 48.2717 87.4913 48.2551C87.4681 48.2385 87.4403 48.2293 87.4117 48.2288C87.3832 48.2283 87.3551 48.2365 87.3313 48.2522C87.3074 48.268 87.2889 48.2906 87.2782 48.3171L87.0026 48.9649Z" fill="#ffffff"/>
<path id="Vector_25" d="M90.2748 49.6191L90.3478 50.036C90.3529 50.0654 90.3516 50.0956 90.344 50.1245C90.3363 50.1534 90.3225 50.1803 90.3035 50.2033C90.2845 50.2264 90.2607 50.245 90.2338 50.258C90.2069 50.271 90.1775 50.2781 90.1476 50.2786L89.7778 50.2857C89.7584 50.286 89.7392 50.2824 89.7212 50.2751C89.7032 50.2678 89.6868 50.2569 89.673 50.2431C89.6592 50.2293 89.6482 50.2128 89.6407 50.1946C89.6333 50.1765 89.6294 50.157 89.6294 50.1373V47.5745C89.6294 47.4771 89.6781 47.4253 89.7754 47.419C90.4868 47.3672 91.0019 47.3656 91.3207 47.4143C92.1734 47.5438 92.4655 48.7569 91.7965 49.2186C91.4934 49.4291 91.0404 49.5037 90.4373 49.4424C90.4145 49.4403 90.3914 49.4435 90.3699 49.4518C90.3484 49.46 90.3291 49.4732 90.3134 49.4903C90.2978 49.5073 90.2861 49.5278 90.2794 49.5501C90.2727 49.5724 90.2712 49.596 90.2748 49.6191ZM90.2984 48.1327L90.2889 48.7122C90.2886 48.7394 90.2937 48.7664 90.3038 48.7917C90.314 48.817 90.329 48.84 90.348 48.8595C90.367 48.8789 90.3897 48.8945 90.4147 48.9052C90.4398 48.9159 90.4667 48.9215 90.4939 48.9218L90.9768 48.9289C91.0392 48.9299 91.1013 48.92 91.1593 48.8997C91.2173 48.8793 91.2702 48.849 91.3148 48.8105C91.3595 48.772 91.3951 48.7259 91.4195 48.6751C91.444 48.6243 91.4568 48.5696 91.4573 48.5143V48.3589C91.4583 48.2482 91.4098 48.1415 91.3224 48.062C91.2351 47.9826 91.1159 47.9369 90.9909 47.9349L90.508 47.9278C90.4808 47.9275 90.4538 47.9325 90.4285 47.9427C90.4032 47.9528 90.3802 47.9678 90.3607 47.9868C90.3413 48.0059 90.3258 48.0285 90.315 48.0536C90.3043 48.0786 90.2987 48.1055 90.2984 48.1327Z" fill="#ffffff"/>
<path id="Vector_26" d="M98.7616 50.2835H97.1457C97.0672 50.2835 97.0036 50.3149 96.9549 50.3777C96.9031 50.4468 96.8858 50.5348 96.9031 50.6416C96.9148 50.7206 96.8958 50.8012 96.85 50.8667C96.8042 50.9322 96.7351 50.9778 96.6569 50.994C96.5786 51.0103 96.4971 50.996 96.429 50.9541C96.3609 50.9122 96.3114 50.8459 96.2906 50.7687C96.154 50.2034 96.2899 49.7731 96.6982 49.4779C96.7211 49.4617 96.7403 49.4405 96.7545 49.4157C96.7687 49.3909 96.7776 49.3631 96.7806 49.3342L96.9643 47.4945C96.9706 47.4301 97.0067 47.3979 97.0727 47.3979H99.0513C99.1299 47.3979 99.1691 47.4372 99.1691 47.5157V49.525C99.1691 49.6098 99.2052 49.6734 99.2775 49.7158L99.4047 49.7912C99.4832 49.8383 99.5225 49.9082 99.5225 50.0008V50.5944C99.5269 50.6686 99.5023 50.7415 99.4538 50.7978C99.4052 50.854 99.3367 50.8891 99.2627 50.8955C99.1887 50.902 99.1151 50.8793 99.0576 50.8323C99.0001 50.7853 98.9632 50.7177 98.9548 50.6439C98.9453 50.5842 98.9336 50.5096 98.9194 50.4201C98.9143 50.3824 98.8955 50.3478 98.8665 50.3227C98.8375 50.2976 98.8003 50.2837 98.7616 50.2835ZM98.5726 48.0386C98.5736 48.0224 98.5682 48.0064 98.5575 47.9942C98.5467 47.982 98.5316 47.9746 98.5154 47.9736L97.5281 47.9097C97.5201 47.9092 97.5121 47.9102 97.5044 47.9128C97.4968 47.9154 97.4898 47.9195 97.4837 47.9248C97.4777 47.9301 97.4728 47.9366 97.4692 47.9438C97.4657 47.951 97.4636 47.9588 97.463 47.9669L97.3536 49.6593C97.3526 49.6755 97.358 49.6915 97.3687 49.7037C97.3794 49.7159 97.3946 49.7233 97.4108 49.7244L98.398 49.7883C98.4061 49.7888 98.4141 49.7877 98.4217 49.7851C98.4293 49.7825 98.4364 49.7785 98.4424 49.7731C98.4485 49.7678 98.4534 49.7614 98.457 49.7542C98.4605 49.747 98.4626 49.7391 98.4631 49.7311L98.5726 48.0386Z" fill="#ffffff"/>
<path id="Vector_27" d="M101.063 48.5214L102.113 48.5426C102.139 48.5431 102.165 48.5376 102.188 48.5265C102.211 48.5154 102.232 48.4991 102.248 48.4788C102.264 48.4585 102.275 48.4347 102.28 48.4094C102.285 48.3841 102.285 48.3579 102.278 48.3329C102.206 48.055 102.189 47.8163 102.229 47.6169C102.246 47.5298 102.295 47.4524 102.367 47.3996C102.438 47.3469 102.527 47.3225 102.615 47.3314C102.703 47.3402 102.785 47.3815 102.845 47.4473C102.905 47.5131 102.938 47.5987 102.938 47.6875V50.0949C102.938 50.2142 102.878 50.2755 102.759 50.2786L102.401 50.2857C102.303 50.2873 102.255 50.2402 102.255 50.1444L102.252 49.2634C102.252 49.2215 102.236 49.1814 102.207 49.1518C102.177 49.1222 102.138 49.1056 102.097 49.1056H101.112C100.994 49.1056 100.935 49.1645 100.935 49.2822V50.1656C100.935 50.2441 100.896 50.2833 100.818 50.2833H100.412C100.364 50.2833 100.318 50.264 100.284 50.2295C100.25 50.1951 100.231 50.1483 100.231 50.0996L100.229 47.5156C100.229 47.437 100.268 47.3978 100.347 47.3978H100.759C100.877 47.3978 100.935 47.4567 100.935 47.5745V48.3918C100.935 48.4766 100.978 48.5198 101.063 48.5214Z" fill="#ffffff"/>
<path id="Vector_28" d="M104.74 47.6324C104.778 47.5462 104.84 47.4729 104.919 47.4212C104.998 47.3696 105.09 47.3418 105.184 47.3413C105.278 47.3408 105.371 47.3676 105.45 47.4184C105.529 47.4692 105.592 47.5419 105.631 47.6277L106.766 50.1269C106.774 50.1433 106.777 50.1612 106.776 50.1791C106.774 50.197 106.769 50.2143 106.759 50.2295C106.75 50.2447 106.736 50.2573 106.721 50.2661C106.705 50.2749 106.688 50.2797 106.67 50.2801L106.255 50.2871C106.218 50.2878 106.182 50.2773 106.152 50.2571C106.122 50.2368 106.098 50.2079 106.085 50.1741L105.923 49.7665C105.91 49.7354 105.889 49.7089 105.86 49.6903C105.832 49.6718 105.799 49.6623 105.765 49.6629L104.623 49.6841C104.585 49.6848 104.549 49.6966 104.518 49.7181C104.487 49.7395 104.464 49.7695 104.451 49.8042L104.326 50.1411C104.294 50.2227 104.236 50.2651 104.152 50.2683L103.713 50.2918C103.611 50.2965 103.581 50.2518 103.622 50.1576L104.74 47.6324ZM105.212 49.1659H105.452C105.612 49.1659 105.658 49.0936 105.591 48.9492L105.294 48.3085C105.283 48.285 105.266 48.2652 105.244 48.2515C105.222 48.2379 105.196 48.231 105.17 48.2318C105.144 48.2326 105.119 48.2409 105.098 48.2558C105.077 48.2707 105.061 48.2914 105.051 48.3155L104.771 49.0057C104.765 49.0213 104.762 49.038 104.763 49.0548C104.765 49.0715 104.77 49.0877 104.778 49.1023C104.786 49.1168 104.798 49.1292 104.812 49.1386C104.826 49.148 104.842 49.1541 104.858 49.1565C104.941 49.1674 105.028 49.1714 105.117 49.1682C105.149 49.1667 105.18 49.1659 105.212 49.1659Z" fill="#ffffff"/>
<path id="Vector_29" d="M109.004 49.7509C109.003 49.6535 108.967 49.5594 108.903 49.4861C108.839 49.4127 108.75 49.3651 108.653 49.3522C108.557 49.3392 108.459 49.3618 108.379 49.4156C108.298 49.4695 108.239 49.5509 108.214 49.6449C108.089 50.105 107.789 50.3218 107.315 50.2951C107.197 50.2872 107.171 50.2338 107.237 50.1349L107.633 49.5366C107.645 49.5166 107.651 49.4938 107.651 49.4706C107.65 49.3497 107.587 49.2672 107.463 49.2233C107.421 49.2077 107.383 49.1838 107.351 49.153C107.319 49.1222 107.294 49.0852 107.277 49.0443C106.521 47.2729 108.464 47.3765 109.491 47.4001C109.598 47.4032 109.651 47.4582 109.651 47.565V50.1255C109.651 50.2244 109.601 50.2754 109.501 50.2786L109.124 50.2856C109.044 50.2872 109.004 50.2479 109.004 50.1679V49.7509ZM109.02 48.2952C109.02 48.1977 108.981 48.1043 108.912 48.0353C108.844 47.9664 108.75 47.9277 108.653 47.9277H108.214C108.117 47.9277 108.024 47.9664 107.955 48.0353C107.886 48.1043 107.847 48.1977 107.847 48.2952V48.6155C107.847 48.713 107.886 48.8065 107.955 48.8754C108.024 48.9443 108.117 48.983 108.214 48.983H108.653C108.75 48.983 108.844 48.9443 108.912 48.8754C108.981 48.8065 109.02 48.713 109.02 48.6155V48.2952Z" fill="#ffffff"/>
<path id="Vector_30" d="M118.91 49.7676C118.597 50.4295 117.226 50.3283 116.616 50.2623C116.526 50.2513 116.482 50.2011 116.482 50.1116V47.5157C116.482 47.4372 116.521 47.3979 116.599 47.3979H118.694C118.794 47.3979 118.843 47.4482 118.84 47.5487L118.833 47.7513C118.831 47.7988 118.811 47.8437 118.776 47.8767C118.742 47.9096 118.696 47.928 118.649 47.9279H117.247C117.169 47.9279 117.129 47.9672 117.129 48.0457V48.3849C117.129 48.4791 117.177 48.5247 117.271 48.5216C117.989 48.4909 119.502 48.5215 118.91 49.7676ZM118.291 49.2477C118.292 49.218 118.287 49.1884 118.276 49.1606C118.266 49.1328 118.25 49.1073 118.23 49.0857C118.21 49.064 118.185 49.0465 118.158 49.0342C118.131 49.022 118.102 49.0151 118.072 49.0142L117.357 48.9904C117.297 48.9884 117.238 49.0103 117.195 49.0513C117.151 49.0923 117.125 49.149 117.123 49.2089L117.113 49.5103C117.112 49.54 117.117 49.5695 117.127 49.5973C117.138 49.6251 117.154 49.6506 117.174 49.6723C117.194 49.694 117.219 49.7114 117.246 49.7237C117.273 49.736 117.302 49.7428 117.332 49.7438L118.047 49.7675C118.107 49.7695 118.165 49.7476 118.209 49.7066C118.253 49.6657 118.279 49.609 118.281 49.549L118.291 49.2477Z" fill="#ffffff"/>
<path id="Vector_31" d="M120.43 49.5731L120.423 50.162C120.423 50.1945 120.41 50.2256 120.387 50.2486C120.364 50.2716 120.332 50.2845 120.3 50.2845H119.885C119.801 50.2845 119.757 50.2413 119.756 50.1549L119.709 47.5756C119.707 47.4641 119.762 47.4068 119.874 47.4036C120.693 47.3824 122.222 47.1516 122.309 48.4024C122.371 49.2669 121.358 49.5189 120.571 49.4459C120.477 49.438 120.43 49.4804 120.43 49.5731ZM120.425 48.1103V48.751C120.425 48.775 120.43 48.7988 120.439 48.821C120.448 48.8431 120.462 48.8632 120.479 48.8801C120.496 48.897 120.516 48.9103 120.538 48.9193C120.561 48.9282 120.585 48.9327 120.609 48.9324L121.016 48.93C121.172 48.9293 121.322 48.8803 121.432 48.7937C121.542 48.7071 121.603 48.5901 121.603 48.4683V48.3835C121.602 48.3232 121.587 48.2635 121.557 48.2079C121.527 48.1522 121.484 48.1018 121.429 48.0593C121.374 48.0169 121.309 47.9833 121.237 47.9605C121.165 47.9378 121.089 47.9262 121.011 47.9266L120.604 47.9289C120.556 47.9295 120.511 47.9489 120.477 47.9829C120.444 48.0168 120.425 48.0626 120.425 48.1103Z" fill="#ffffff"/>
<path id="Vector_32" d="M123.672 47.6403C123.71 47.5532 123.773 47.479 123.853 47.4269C123.932 47.3748 124.026 47.3469 124.121 47.3467C124.216 47.3464 124.309 47.3738 124.389 47.4255C124.469 47.4772 124.533 47.551 124.572 47.6379L125.669 50.0689C125.68 50.0924 125.685 50.1182 125.683 50.1439C125.681 50.1697 125.672 50.1945 125.658 50.2161C125.644 50.2378 125.625 50.2555 125.602 50.2676C125.579 50.2797 125.554 50.2859 125.528 50.2856L125.182 50.2785C125.149 50.2778 125.116 50.2676 125.089 50.2493C125.061 50.2309 125.04 50.2051 125.026 50.1749L124.842 49.7815C124.829 49.7519 124.807 49.7268 124.78 49.7088C124.752 49.6909 124.72 49.681 124.687 49.6802L123.554 49.6614C123.519 49.6608 123.485 49.6709 123.456 49.6902C123.427 49.7095 123.405 49.7373 123.391 49.7697L123.252 50.1136C123.215 50.2094 123.144 50.2605 123.04 50.2667L122.68 50.2903C122.554 50.2981 122.517 50.244 122.567 50.1278L123.672 47.6403ZM124.131 49.1526C124.25 49.1824 124.363 49.1793 124.468 49.1431C124.548 49.1149 124.57 49.0623 124.534 48.9853L124.225 48.3234C124.216 48.3028 124.201 48.2854 124.182 48.2732C124.163 48.261 124.141 48.2545 124.118 48.2545C124.095 48.2545 124.073 48.261 124.054 48.2732C124.035 48.2854 124.02 48.3028 124.011 48.3234L123.731 48.9359C123.68 49.0411 123.711 49.1125 123.822 49.1502C123.887 49.1722 123.945 49.1745 123.997 49.1573C124.041 49.1416 124.085 49.14 124.131 49.1526Z" fill="#ffffff"/>
<path id="Vector_33" d="M135.327 48.842C135.833 49.2495 135.711 49.8902 135.145 50.1752C134.787 50.3558 134.139 50.3723 133.202 50.2247C133.127 50.2121 133.089 50.1681 133.089 50.0928V47.5676C133.089 47.4624 133.141 47.4082 133.247 47.4051C133.883 47.3792 136.278 47.1365 135.294 48.6488C135.247 48.7226 135.258 48.787 135.327 48.842ZM134.832 48.1561C134.832 48.1189 134.825 48.0822 134.811 48.0478C134.797 48.0135 134.776 47.9822 134.75 47.9559C134.724 47.9296 134.693 47.9086 134.659 47.8943C134.624 47.88 134.588 47.8725 134.551 47.8724L134.009 47.8705C133.972 47.8704 133.935 47.8776 133.901 47.8917C133.866 47.9057 133.835 47.9265 133.809 47.9526C133.782 47.9788 133.761 48.0099 133.747 48.0441C133.733 48.0784 133.725 48.1151 133.725 48.1522L133.725 48.2888C133.724 48.3259 133.732 48.3627 133.746 48.3971C133.76 48.4314 133.781 48.4626 133.807 48.489C133.833 48.5153 133.864 48.5363 133.898 48.5506C133.932 48.5649 133.969 48.5723 134.006 48.5725L134.548 48.5744C134.585 48.5745 134.622 48.5673 134.656 48.5532C134.691 48.5391 134.722 48.5184 134.748 48.4923C134.775 48.4661 134.796 48.435 134.81 48.4008C134.824 48.3665 134.832 48.3298 134.832 48.2927L134.832 48.1561ZM134.955 49.2965C134.957 49.2366 134.935 49.1784 134.894 49.1348C134.852 49.0913 134.796 49.0658 134.736 49.0642L134.015 49.044C133.955 49.0424 133.897 49.0646 133.853 49.1058C133.81 49.147 133.784 49.2038 133.783 49.2638L133.776 49.5134C133.774 49.5733 133.796 49.6315 133.838 49.675C133.879 49.7186 133.936 49.744 133.996 49.7457L134.716 49.7658C134.776 49.7675 134.834 49.7453 134.878 49.7041C134.921 49.6629 134.947 49.606 134.948 49.5461L134.955 49.2965Z" fill="#ffffff"/>
<path id="Vector_34" d="M137.315 47.573C137.351 47.4921 137.41 47.4234 137.484 47.3752C137.559 47.3269 137.645 47.3013 137.734 47.3013C137.823 47.3013 137.909 47.3269 137.984 47.3752C138.058 47.4234 138.117 47.4921 138.153 47.573L139.289 50.1147C139.296 50.1325 139.3 50.152 139.298 50.1715C139.297 50.1909 139.291 50.2096 139.281 50.2259C139.27 50.2423 139.256 50.2557 139.24 50.2651C139.223 50.2745 139.204 50.2794 139.185 50.2796L138.782 50.2866C138.753 50.2867 138.724 50.278 138.699 50.2617C138.675 50.2453 138.655 50.2221 138.643 50.1948L138.469 49.8037C138.43 49.7127 138.36 49.6679 138.259 49.6695L137.086 49.6813C137.045 49.6818 137.005 49.6983 136.976 49.7273C136.947 49.7563 136.93 49.7955 136.928 49.8367C136.914 50.2105 136.712 50.3581 136.323 50.2796C136.298 50.2744 136.274 50.2636 136.254 50.2481C136.233 50.2326 136.217 50.2127 136.205 50.1899C136.193 50.1671 136.187 50.1419 136.186 50.1163C136.185 50.0906 136.19 50.0651 136.2 50.0417L137.315 47.573ZM137.343 48.9675C137.335 48.9889 137.332 49.012 137.335 49.0347C137.338 49.0574 137.346 49.0791 137.36 49.0977C137.373 49.1163 137.391 49.1314 137.411 49.1416C137.432 49.1518 137.454 49.1567 137.477 49.156L138 49.1395C138.023 49.1386 138.045 49.1323 138.064 49.121C138.084 49.1098 138.1 49.094 138.112 49.075C138.124 49.056 138.131 49.0344 138.133 49.012C138.135 48.9896 138.131 48.967 138.123 48.9463L137.842 48.2938C137.831 48.268 137.813 48.2462 137.789 48.2312C137.765 48.2162 137.738 48.2087 137.71 48.2097C137.681 48.2107 137.654 48.2202 137.632 48.2369C137.609 48.2536 137.592 48.2767 137.583 48.3033L137.343 48.9675Z" fill="#ffffff"/>
<path id="Vector_35" d="M140.302 47.9327L139.713 47.9256C139.674 47.925 139.637 47.9093 139.609 47.882C139.582 47.8547 139.567 47.8179 139.567 47.7796V47.5746C139.567 47.4568 139.626 47.398 139.743 47.398H141.96C141.98 47.3978 142 47.402 142.018 47.4102C142.037 47.4184 142.053 47.4304 142.067 47.4455C142.08 47.4606 142.091 47.4784 142.097 47.4978C142.103 47.5172 142.106 47.5378 142.104 47.5581L142.08 47.7796C142.076 47.819 142.058 47.8556 142.028 47.8825C141.999 47.9094 141.96 47.9247 141.92 47.9256L141.249 47.9327C141.209 47.9327 141.17 47.9488 141.142 47.9775C141.114 48.0062 141.098 48.0452 141.098 48.0858V50.1068C141.098 50.1458 141.084 50.1836 141.06 50.214C141.035 50.2443 141.002 50.2655 140.963 50.2741C140.657 50.3463 140.501 50.2717 140.495 50.0503C140.476 49.3876 140.455 48.7249 140.433 48.0622C140.432 47.9759 140.388 47.9327 140.302 47.9327Z" fill="#ffffff"/>
<path id="Vector_36" d="M143.395 49.2188V49.5768C143.395 49.6946 143.454 49.7535 143.572 49.7535H144.841C144.942 49.7535 144.99 49.8038 144.987 49.9043L144.98 50.1068C144.978 50.1543 144.958 50.1993 144.924 50.2322C144.89 50.2652 144.844 50.2835 144.796 50.2835H142.924C142.861 50.2835 142.801 50.2587 142.757 50.2145C142.713 50.1703 142.688 50.1104 142.688 50.0479V47.5157C142.688 47.4845 142.701 47.4545 142.723 47.4324C142.745 47.4104 142.775 47.3979 142.806 47.3979H144.808C144.887 47.3979 144.926 47.4372 144.926 47.5157V47.7513C144.926 47.8691 144.867 47.9279 144.749 47.9279H143.543C143.444 47.9279 143.395 47.9774 143.395 48.0764V48.3991C143.395 48.5168 143.454 48.5757 143.572 48.5757H144.632C144.702 48.5757 144.746 48.6103 144.763 48.6794C144.804 48.8364 144.771 48.9581 144.665 49.0445C144.597 49.0994 144.494 49.1206 144.356 49.1081C144.078 49.083 143.801 49.0751 143.524 49.0845C143.438 49.0877 143.395 49.1324 143.395 49.2188Z" fill="#ffffff"/>
<path id="Vector_37" d="M147.703 48.3449C147.704 48.0669 147.566 47.9279 147.286 47.9279H146.871C146.777 47.9279 146.725 47.9751 146.716 48.0693C146.619 48.9809 146.829 50.1657 145.755 50.3565C145.717 50.3629 145.678 50.3588 145.643 50.3446C145.608 50.3305 145.577 50.3069 145.555 50.2764C145.438 50.1225 145.431 49.9749 145.531 49.8336C145.632 49.6899 145.75 49.7135 145.887 49.5957C145.964 49.5297 146.006 49.4457 146.014 49.3436L146.134 47.4969C146.136 47.47 146.148 47.4448 146.168 47.4265C146.187 47.4081 146.213 47.3979 146.24 47.3979H148.223C148.302 47.3979 148.341 47.4372 148.341 47.5157V50.1068C148.341 50.2246 148.282 50.2835 148.165 50.2835H147.868C147.821 50.2835 147.776 50.2646 147.743 50.2311C147.71 50.1975 147.691 50.152 147.691 50.1045L147.703 48.3449Z" fill="#ffffff"/>
<path id="Vector_38" d="M150.153 48.3274C150.895 48.3556 151.788 48.2426 151.868 49.279C151.955 50.4003 150.158 50.3531 149.494 50.233C149.451 50.2253 149.413 50.2029 149.385 50.1697C149.358 50.1365 149.343 50.0948 149.343 50.0516V47.5854C149.343 47.466 149.402 47.4048 149.522 47.4016L149.84 47.3946C149.94 47.393 149.991 47.4425 149.991 47.543V48.1601C149.991 48.2685 150.045 48.3242 150.153 48.3274ZM149.974 48.9351L149.927 49.5475C149.923 49.6043 149.942 49.6603 149.979 49.7035C150.016 49.7467 150.068 49.7736 150.125 49.7784L150.422 49.8019C150.515 49.8092 150.609 49.804 150.698 49.7866C150.786 49.7693 150.868 49.74 150.938 49.7007C151.007 49.6613 151.064 49.6125 151.104 49.5572C151.145 49.5018 151.168 49.4409 151.173 49.3779L151.18 49.2931C151.185 49.2301 151.171 49.1663 151.14 49.1052C151.109 49.0442 151.06 48.9873 150.997 48.9376C150.934 48.8879 150.858 48.8465 150.773 48.8158C150.688 48.785 150.596 48.7655 150.502 48.7584L150.207 48.7372C150.15 48.7327 150.094 48.7509 150.05 48.788C150.006 48.8251 149.979 48.878 149.974 48.9351Z" fill="#ffffff"/>
<path id="Vector_39" d="M153.229 49.2423V50.1398C153.229 50.1594 153.224 50.1788 153.216 50.1966C153.208 50.2145 153.196 50.2305 153.182 50.2435C153.167 50.2566 153.15 50.2665 153.131 50.2726C153.113 50.2786 153.093 50.2808 153.073 50.2788L152.687 50.2411C152.653 50.2376 152.62 50.2215 152.597 50.1959C152.574 50.1703 152.56 50.1369 152.56 50.1021L152.522 47.5416C152.522 47.5229 152.525 47.5042 152.532 47.4868C152.539 47.4694 152.55 47.4535 152.563 47.4402C152.576 47.4268 152.592 47.4162 152.609 47.4089C152.626 47.4017 152.645 47.3979 152.664 47.3979H153.081C153.118 47.3979 153.153 47.4125 153.18 47.4385C153.206 47.4645 153.221 47.4999 153.222 47.5369L153.243 48.3779C153.244 48.4149 153.259 48.4503 153.285 48.4763C153.312 48.5023 153.347 48.5168 153.384 48.5168H154.442C154.48 48.5168 154.515 48.5019 154.542 48.4754C154.568 48.4489 154.583 48.413 154.583 48.3755V47.5393C154.583 47.5018 154.598 47.4658 154.625 47.4393C154.651 47.4128 154.687 47.3979 154.725 47.3979H155.09C155.108 47.3979 155.127 47.4016 155.144 47.4087C155.161 47.4158 155.177 47.4262 155.19 47.4393C155.203 47.4525 155.213 47.468 155.22 47.4852C155.227 47.5023 155.231 47.5207 155.231 47.5393V50.1304C155.231 50.149 155.227 50.1673 155.22 50.1845C155.213 50.2016 155.203 50.2172 155.19 50.2303C155.177 50.2435 155.161 50.2539 155.144 50.261C155.127 50.2681 155.108 50.2717 155.09 50.2717H154.725C154.687 50.2717 154.651 50.2568 154.625 50.2303C154.598 50.2038 154.583 50.1679 154.583 50.1304V49.2094C154.583 49.1904 154.58 49.1716 154.572 49.1542C154.565 49.1367 154.554 49.1209 154.54 49.1077C154.527 49.0945 154.511 49.0842 154.493 49.0774C154.475 49.0706 154.456 49.0674 154.437 49.068L153.366 49.101C153.329 49.1022 153.294 49.1177 153.269 49.144C153.243 49.1704 153.229 49.2057 153.229 49.2423Z" fill="#ffffff"/>
<path id="Vector_40" d="M157.08 47.5847C157.116 47.5038 157.175 47.4351 157.249 47.3868C157.324 47.3386 157.411 47.3128 157.499 47.3125C157.588 47.3123 157.675 47.3376 157.75 47.3854C157.824 47.4333 157.884 47.5016 157.921 47.5823L159.082 50.1428C159.126 50.2402 159.094 50.2881 158.988 50.2865L158.538 50.2794C158.514 50.2796 158.491 50.273 158.471 50.2604C158.451 50.2479 158.435 50.23 158.425 50.2088L158.227 49.7871C158.191 49.7086 158.129 49.6709 158.041 49.6741L156.868 49.7047C156.838 49.7053 156.809 49.7161 156.786 49.7354C156.764 49.7548 156.748 49.7813 156.743 49.8107C156.672 50.2143 156.42 50.3674 155.987 50.27C155.975 50.2677 155.964 50.2626 155.954 50.2553C155.945 50.248 155.937 50.2386 155.932 50.2278C155.926 50.2169 155.923 50.2049 155.923 50.1927C155.923 50.1804 155.925 50.1682 155.93 50.1569L157.08 47.5847ZM157.098 48.9415C157.088 48.9633 157.084 48.9873 157.086 49.0112C157.088 49.0351 157.096 49.0581 157.109 49.0782C157.122 49.0982 157.14 49.1145 157.161 49.1256C157.183 49.1368 157.206 49.1423 157.23 49.1417L157.793 49.1323C157.817 49.132 157.841 49.1257 157.862 49.1138C157.883 49.102 157.9 49.085 157.913 49.0645C157.925 49.044 157.932 49.0206 157.933 48.9966C157.934 48.9726 157.929 48.9488 157.918 48.9273L157.626 48.3337C157.614 48.3094 157.596 48.2889 157.573 48.2748C157.55 48.2606 157.523 48.2534 157.496 48.2538C157.469 48.2543 157.443 48.2626 157.42 48.2776C157.398 48.2926 157.38 48.3137 157.369 48.3385L157.098 48.9415Z" fill="#ffffff"/>
<path id="Vector_41" d="M161.297 49.789C161.297 49.7082 161.271 49.6296 161.223 49.5647C161.174 49.4998 161.107 49.4521 161.03 49.4286C160.953 49.4051 160.87 49.407 160.794 49.4342C160.719 49.4613 160.654 49.5122 160.61 49.5793L160.221 50.1635C160.196 50.2005 160.162 50.2308 160.122 50.2517C160.082 50.2726 160.038 50.2836 159.992 50.2836H159.601C159.581 50.2834 159.562 50.2776 159.545 50.2668C159.528 50.2561 159.514 50.2408 159.505 50.2227C159.496 50.2046 159.493 50.1844 159.495 50.1644C159.497 50.1443 159.504 50.1253 159.517 50.1093L159.936 49.5628C159.96 49.5317 159.972 49.4926 159.969 49.4531C159.966 49.4136 159.948 49.3763 159.919 49.3485C159.686 49.12 159.446 48.9315 159.425 48.5853C159.342 47.1554 160.937 47.3839 161.83 47.4004C161.907 47.402 161.945 47.4413 161.945 47.5182V50.1376C161.945 50.2349 161.896 50.2836 161.797 50.2836H161.446C161.347 50.2836 161.297 50.2342 161.297 50.1352V49.789ZM161.288 48.7761L161.297 48.1495C161.298 48.1207 161.292 48.0922 161.282 48.0655C161.271 48.0388 161.255 48.0145 161.235 47.9939C161.215 47.9733 161.191 47.9569 161.164 47.9456C161.138 47.9343 161.109 47.9284 161.081 47.9281L160.711 47.9234C160.634 47.9222 160.558 47.9337 160.486 47.9572C160.415 47.9806 160.35 48.0156 160.295 48.06C160.24 48.1044 160.196 48.1575 160.166 48.2161C160.136 48.2747 160.12 48.3377 160.12 48.4015V48.4958C160.118 48.6242 160.178 48.7482 160.286 48.8405C160.394 48.9328 160.542 48.9859 160.697 48.9881L161.067 48.9928C161.095 48.9931 161.124 48.9877 161.151 48.977C161.177 48.9663 161.202 48.9504 161.222 48.9303C161.243 48.9102 161.259 48.8862 161.27 48.8597C161.282 48.8333 161.288 48.8048 161.288 48.7761Z" fill="#ffffff"/>
<path id="Vector_42" d="M165.725 49.9796C165.726 50.024 165.717 50.068 165.7 50.1088C165.683 50.1497 165.658 50.1864 165.625 50.2166C165.593 50.2468 165.555 50.2699 165.513 50.2842C165.472 50.2986 165.427 50.304 165.384 50.3C165.157 50.2812 165.042 50.2113 165.037 50.0903C165.011 49.2298 165 48.3724 165.007 47.5181C165.007 47.4862 165.019 47.4557 165.042 47.4331C165.064 47.4106 165.095 47.3979 165.127 47.3979H167.539C167.617 47.3979 167.657 47.4372 167.657 47.5157V50.1375C167.657 50.238 167.607 50.2874 167.508 50.2859L167.12 50.2788C167.033 50.2772 166.991 50.2333 166.992 50.1469L167.016 48.1093C167.016 48.0856 167.012 48.0621 167.003 48.0401C166.994 48.0181 166.981 47.9981 166.964 47.9812C166.948 47.9643 166.928 47.9509 166.906 47.9418C166.884 47.9327 166.861 47.9279 166.837 47.9279H165.815C165.797 47.9279 165.78 47.9314 165.764 47.9382C165.747 47.945 165.733 47.9549 165.721 47.9674C165.708 47.9799 165.699 47.9947 165.692 48.011C165.686 48.0273 165.682 48.0447 165.683 48.0622L165.725 49.9796Z" fill="#ffffff"/>
<path id="Vector_43" d="M170.368 47.928H169.67C169.578 47.928 169.533 47.9743 169.536 48.0669C169.564 48.8183 169.616 50.1751 168.655 50.3518C168.584 50.3643 168.51 50.3514 168.447 50.3154C168.384 50.2794 168.336 50.2225 168.311 50.1546C168.285 50.0867 168.284 50.012 168.308 49.9435C168.332 49.875 168.379 49.8169 168.441 49.7794C169.164 49.3554 168.898 48.2648 168.971 47.5369C168.975 47.4987 168.993 47.4633 169.021 47.4376C169.049 47.4119 169.086 47.3978 169.124 47.398H171.126C171.158 47.3979 171.188 47.41 171.21 47.4316C171.233 47.4532 171.246 47.4825 171.246 47.5134C171.262 48.3708 171.249 49.2157 171.209 50.048C171.198 50.2898 171.012 50.3612 170.65 50.2623C170.617 50.2538 170.587 50.2341 170.566 50.2063C170.545 50.1785 170.534 50.1443 170.535 50.1092L170.556 48.1211C170.558 47.9923 170.495 47.928 170.368 47.928Z" fill="#ffffff"/>
<path id="Vector_44" d="M173.075 47.5733C173.111 47.4936 173.17 47.4262 173.244 47.379C173.318 47.3318 173.403 47.3069 173.491 47.3071C173.579 47.3074 173.664 47.3328 173.738 47.3804C173.812 47.428 173.87 47.4958 173.906 47.5756L175.046 50.1173C175.054 50.1357 175.058 50.1558 175.056 50.176C175.055 50.1961 175.048 50.2155 175.037 50.2324C175.026 50.2493 175.011 50.2632 174.993 50.2727C174.976 50.2822 174.956 50.2871 174.935 50.2869L174.523 50.2798C174.485 50.2791 174.449 50.2664 174.418 50.2436C174.388 50.2208 174.365 50.189 174.354 50.1526L174.238 49.7898C174.225 49.7484 174.199 49.7122 174.164 49.6867C174.128 49.6613 174.085 49.6478 174.04 49.6485L172.926 49.6721C172.875 49.6734 172.825 49.6924 172.786 49.7259C172.747 49.7593 172.721 49.8052 172.712 49.8558C172.666 50.0992 172.526 50.2437 172.29 50.2892C172.243 50.2983 172.194 50.2942 172.149 50.2775C172.104 50.2607 172.065 50.2319 172.035 50.1942C172.006 50.1565 171.987 50.1113 171.981 50.0637C171.975 50.0161 171.983 49.9678 172.003 49.9241L173.075 47.5733ZM173.077 48.9795C173.069 49.0009 173.067 49.0238 173.07 49.0463C173.073 49.0688 173.082 49.0902 173.095 49.1087C173.108 49.1271 173.126 49.1422 173.146 49.1525C173.166 49.1628 173.188 49.1681 173.211 49.168L173.725 49.1633C173.747 49.1628 173.769 49.157 173.789 49.1462C173.809 49.1354 173.826 49.12 173.839 49.1014C173.851 49.0827 173.859 49.0612 173.862 49.0388C173.865 49.0164 173.862 48.9936 173.854 48.9725L173.59 48.2729C173.58 48.2464 173.561 48.2238 173.537 48.208C173.513 48.1922 173.485 48.1841 173.457 48.1846C173.428 48.1851 173.401 48.1943 173.377 48.2109C173.354 48.2275 173.336 48.2507 173.327 48.2776L173.077 48.9795Z" fill="#ffffff"/>
<path id="Vector_45" d="M176.895 48.0387L176.906 50.1728C176.906 50.2022 176.895 50.2303 176.874 50.2511C176.853 50.2718 176.825 50.2835 176.796 50.2835H176.313C176.284 50.2835 176.255 50.2718 176.235 50.2511C176.214 50.2303 176.202 50.2022 176.202 50.1728L176.19 48.0387C176.19 48.0093 176.179 47.9811 176.158 47.9604C176.137 47.9396 176.109 47.9279 176.08 47.9279H175.422C175.393 47.9279 175.365 47.9163 175.344 47.8955C175.323 47.8748 175.312 47.8466 175.312 47.8172V47.5087C175.312 47.4793 175.323 47.4511 175.344 47.4304C175.365 47.4096 175.393 47.3979 175.422 47.3979H177.693C177.72 47.3984 177.746 47.4087 177.766 47.4269C177.786 47.4451 177.799 47.47 177.802 47.4969L177.835 47.8055C177.836 47.821 177.835 47.8366 177.83 47.8515C177.825 47.8663 177.817 47.8799 177.807 47.8915C177.796 47.903 177.783 47.9123 177.769 47.9186C177.755 47.9248 177.739 47.928 177.724 47.9279H177.005C176.976 47.9279 176.948 47.9396 176.927 47.9604C176.906 47.9811 176.895 48.0093 176.895 48.0387Z" fill="#ffffff"/>
<path id="Vector_46" d="M187.031 49.7538V50.126C187.031 50.2249 186.981 50.276 186.88 50.2791L186.534 50.2862C186.434 50.2877 186.383 50.2383 186.383 50.1378V47.5679C186.383 47.4642 186.435 47.41 186.539 47.4053C187.297 47.3723 188.628 47.1886 188.84 48.145C189.078 49.2167 188.214 49.4641 187.335 49.4547C187.132 49.4531 187.031 49.5528 187.031 49.7538ZM187.031 48.0625L187.026 48.788C187.026 48.8249 187.041 48.8602 187.067 48.8863C187.093 48.9124 187.128 48.927 187.165 48.927L187.655 48.9294C187.727 48.9297 187.798 48.9178 187.864 48.8943C187.93 48.8708 187.99 48.8362 188.041 48.7924C188.092 48.7487 188.132 48.6966 188.16 48.6393C188.187 48.582 188.201 48.5204 188.202 48.4583V48.4017C188.202 48.2762 188.146 48.1555 188.044 48.0663C187.942 47.9771 187.804 47.9266 187.66 47.9259L187.17 47.9235C187.152 47.9235 187.134 47.9271 187.117 47.9341C187.1 47.9411 187.085 47.9513 187.072 47.9642C187.059 47.9772 187.049 47.9925 187.042 48.0093C187.035 48.0262 187.031 48.0443 187.031 48.0625Z" fill="#ffffff"/>
<path id="Vector_47" d="M192.22 48.9393C192.219 48.9138 192.21 48.8892 192.194 48.8693C192.178 48.8493 192.156 48.8351 192.132 48.8287C192.107 48.8224 192.081 48.8242 192.057 48.8339C192.034 48.8437 192.014 48.8608 192.001 48.8828L191.36 49.9687C191.349 49.9877 191.333 50.0036 191.314 50.0149C191.294 50.0262 191.273 50.0326 191.251 50.0335C191.229 50.0345 191.206 50.0299 191.186 50.0202C191.167 50.0105 191.149 49.9961 191.136 49.9781L190.375 48.9134C190.364 48.8982 190.348 48.887 190.33 48.8814C190.311 48.8757 190.292 48.8759 190.274 48.8818C190.256 48.8878 190.24 48.8993 190.228 48.9146C190.217 48.93 190.211 48.9485 190.211 48.9676V50.1359C190.211 50.2349 190.162 50.2843 190.064 50.2843H189.711C189.612 50.2843 189.563 50.2349 189.563 50.1359V47.6861C189.563 47.6067 189.589 47.5293 189.638 47.4662C189.687 47.4032 189.754 47.3578 189.831 47.3374C189.908 47.317 189.989 47.3225 190.062 47.3532C190.135 47.3839 190.195 47.438 190.234 47.5071L191.129 49.0806C191.138 49.0954 191.15 49.1077 191.165 49.1163C191.18 49.1249 191.196 49.1296 191.213 49.1298C191.23 49.13 191.247 49.1258 191.262 49.1176C191.277 49.1094 191.29 49.0975 191.299 49.083L192.243 47.4741C192.281 47.412 192.337 47.3637 192.404 47.3366C192.471 47.3095 192.545 47.3051 192.615 47.3241C192.685 47.343 192.747 47.3843 192.791 47.4415C192.835 47.4988 192.86 47.569 192.861 47.6414V50.1077C192.861 50.2254 192.802 50.2843 192.684 50.2843H192.38C192.294 50.2843 192.25 50.2411 192.248 50.1548L192.22 48.9393Z" fill="#ffffff"/>
<path id="Vector_48" d="M195.685 49.6382C195.184 49.7372 194.307 49.431 194.277 50.1306C194.275 50.1701 194.258 50.2075 194.23 50.2351C194.202 50.2627 194.165 50.2784 194.126 50.279L193.69 50.286C193.67 50.2861 193.65 50.281 193.631 50.2715C193.613 50.2619 193.598 50.248 193.587 50.2311C193.576 50.2143 193.569 50.1949 193.567 50.1749C193.565 50.1548 193.569 50.1347 193.577 50.1164L194.677 47.636C194.715 47.5509 194.776 47.4785 194.854 47.4275C194.932 47.3765 195.023 47.3491 195.116 47.3486C195.209 47.3481 195.3 47.3746 195.379 47.4247C195.457 47.4749 195.52 47.5466 195.558 47.6313L196.675 50.0693C196.719 50.1651 196.689 50.2264 196.585 50.253C196.161 50.3598 195.922 50.1989 195.867 49.7702C195.864 49.7491 195.857 49.7287 195.847 49.7104C195.836 49.6921 195.821 49.6762 195.804 49.6638C195.787 49.6514 195.768 49.6427 195.747 49.6383C195.727 49.6339 195.706 49.6339 195.685 49.6382ZM194.715 48.9999C194.707 49.0199 194.705 49.0415 194.708 49.0626C194.711 49.0838 194.719 49.1039 194.732 49.1211C194.744 49.1384 194.761 49.1523 194.78 49.1615C194.799 49.1708 194.821 49.1751 194.842 49.1742L195.421 49.153C195.443 49.1522 195.464 49.1462 195.482 49.1355C195.501 49.1247 195.516 49.1096 195.527 49.0914C195.538 49.0732 195.545 49.0526 195.546 49.0313C195.547 49.01 195.543 48.9887 195.535 48.9693L195.219 48.2956C195.208 48.2727 195.191 48.2535 195.169 48.2404C195.147 48.2273 195.122 48.2209 195.097 48.2219C195.072 48.2229 195.047 48.2313 195.026 48.2461C195.006 48.2609 194.99 48.2813 194.981 48.305L194.715 48.9999Z" fill="#ffffff"/>
</g>
</svg>
