<svg width="288" height="107" viewBox="0 0 288 107" fill="none" xmlns="http://www.w3.org/2000/svg">
<path d="M57.4744 53.1187C62.213 57.4666 63.7242 62.7496 62.0078 68.9675C59.4662 78.1627 49.0627 82.0838 40.4272 79.5422C27.5447 75.7495 23.2977 60.5295 30.3496 49.731C34.3201 43.6502 41.6387 40.9736 44.8355 34.0731C45.8385 31.909 46.6769 29.678 47.3508 27.38C47.3837 27.268 47.4473 27.177 47.5417 27.1067C48.5689 26.3462 50.8241 26.1553 51.3179 27.7421C52.6578 32.0681 54.1328 35.8739 56.7764 38.6592C59.1995 41.2074 62.416 43.7193 64.4869 45.5959C72.4639 52.829 75.0121 64.5032 69.4252 73.975C68.3091 75.8681 64.3453 73.1849 65.3494 71.7034C69.3199 65.8366 68.003 57.5665 64.2136 52.0553C59.8218 45.6651 52.1969 42.9193 49.7706 34.9258C49.7354 34.8138 49.6663 34.7337 49.5631 34.6854C49.1648 34.5011 48.8619 34.7282 48.75 35.1299C46.4882 43.163 37.8 46.3235 33.7999 52.8323C28.4237 61.583 32.5884 73.5635 43.0182 75.8417C47.9401 76.9183 53.3031 75.1635 56.2991 71.1108C60.1246 65.9354 58.6892 57.3064 52.3056 54.8306C50.7692 54.2337 49.3305 54.0811 47.9895 54.373C42.4585 55.5846 40.4832 62.7551 46.3927 65.1847C48.2726 65.9584 49.4808 65.4646 49.2734 68.3354C49.1714 69.7511 48.4043 70.0112 47.1335 69.8103C41.9943 68.9939 38.6197 65.7247 38.5835 60.4571C38.5078 50.4981 50.6924 46.8964 57.4744 53.1187Z" fill="white"/>
<path d="M97.9777 57.451C98.8765 57.0132 99.5646 55.1991 98.8238 54.2148C98.0205 53.1481 96.348 52.8682 95.0279 52.6707C90.3825 51.9695 83.8902 52.0155 83.1396 45.9545C82.0005 36.7429 101.425 35.9231 103.258 45.1611C103.269 45.2139 103.268 45.2684 103.255 45.3207C103.242 45.373 103.217 45.4218 103.183 45.4637C103.149 45.5055 103.105 45.5393 103.056 45.5627C103.008 45.5861 102.954 45.5985 102.9 45.599H98.8929C98.7569 45.599 98.6592 45.5375 98.5999 45.4146C97.1876 42.4187 93.2599 42.0631 90.4187 42.7249C89.2138 43.0047 87.9199 43.673 87.6697 44.9537C86.6491 50.2213 104.539 45.0525 103.66 56.0551C103.553 57.4115 102.972 58.611 101.919 59.6535C97.1086 64.4141 84.4762 63.0017 82.8137 55.3605C82.8014 55.3052 82.8017 55.2479 82.8147 55.1928C82.8276 55.1377 82.8529 55.0861 82.8886 55.0419C82.9243 54.9977 82.9695 54.962 83.0209 54.9373C83.0723 54.9127 83.1286 54.8998 83.1857 54.8995H87.3372C87.4447 54.8995 87.5183 54.95 87.5578 55.051C89.0985 59.0247 94.7283 59.028 97.9777 57.451Z" fill="white"/>
<path d="M157.234 39.1133H153.725C153.445 39.1133 153.218 39.3403 153.218 39.6203V61.382C153.218 61.662 153.445 61.889 153.725 61.889H157.234C157.514 61.889 157.741 61.662 157.741 61.382V39.6203C157.741 39.3403 157.514 39.1133 157.234 39.1133Z" fill="white"/>
<path d="M173.959 43.8234V61.3809C173.959 61.5171 173.905 61.6477 173.809 61.744C173.712 61.8403 173.582 61.8945 173.445 61.8945L169.863 61.8912C169.727 61.8912 169.597 61.837 169.5 61.7407C169.404 61.6444 169.35 61.5138 169.35 61.3776V43.8069C169.35 43.6707 169.296 43.54 169.199 43.4437C169.103 43.3474 168.973 43.2933 168.836 43.2933H161.88C161.744 43.2933 161.613 43.2392 161.517 43.1429C161.42 43.0466 161.366 42.9159 161.366 42.7797V39.6093C161.366 39.4731 161.42 39.3424 161.517 39.2461C161.613 39.1498 161.744 39.0957 161.88 39.0957L181.429 39.1056C181.565 39.1056 181.696 39.1597 181.792 39.256C181.889 39.3523 181.943 39.483 181.943 39.6192V42.7731C181.943 42.9088 181.889 43.0389 181.793 43.1351C181.698 43.2314 181.568 43.2859 181.432 43.2867L174.469 43.3098C174.334 43.3106 174.204 43.3651 174.108 43.4614C174.013 43.5576 173.959 43.6877 173.959 43.8234Z" fill="white"/>
<path d="M108.671 48.7032C112.487 43.9656 121.139 43.9722 124.951 48.6011C128.352 52.7329 126.759 59.1527 121.837 61.296C117.527 63.1693 111.723 62.5931 108.622 58.8136C106.228 55.9 106.337 51.6003 108.671 48.7032ZM122.258 53.7498C122.259 53.1683 122.119 52.5923 121.847 52.0545C121.574 51.5168 121.174 51.028 120.67 50.6159C120.165 50.2038 119.566 49.8766 118.906 49.6529C118.246 49.4293 117.538 49.3135 116.824 49.3122C116.109 49.311 115.401 49.4243 114.741 49.6457C114.08 49.867 113.48 50.1922 112.973 50.6025C112.467 51.0128 112.066 51.5002 111.791 52.037C111.517 52.5737 111.375 53.1493 111.374 53.7308C111.373 54.3123 111.513 54.8883 111.785 55.4261C112.058 55.9638 112.458 56.4526 112.962 56.8647C113.467 57.2768 114.066 57.604 114.726 57.8277C115.386 58.0513 116.094 58.1671 116.808 58.1684C117.523 58.1696 118.231 58.0563 118.892 57.8349C119.552 57.6136 120.153 57.2884 120.659 56.8781C121.165 56.4678 121.567 55.9804 121.841 55.4436C122.115 54.9069 122.257 54.3313 122.258 53.7498Z" fill="white"/>
<path d="M185.976 55.1392C185.976 55.1765 185.964 55.2072 185.94 55.2313C185.903 55.2665 185.892 55.3093 185.907 55.3597C187.313 59.5343 192.544 59.6199 195.409 56.9993C195.501 56.9159 195.608 56.8742 195.731 56.8742L199.363 56.8775C199.454 56.8772 199.542 56.9112 199.609 56.9729C199.676 57.0345 199.717 57.1192 199.725 57.21C199.745 57.4448 199.681 57.683 199.534 57.9244C196.452 62.9549 188.943 63.6397 184.409 60.3244C181.252 58.0166 180.212 53.7037 181.904 50.181C185.851 41.9636 201.295 44.0344 200.522 54.5433C200.516 54.6397 200.473 54.7302 200.402 54.7963C200.331 54.8624 200.237 54.8991 200.14 54.8988H186.223C186.159 54.8988 186.097 54.9239 186.051 54.9688C186.005 55.0137 185.978 55.0748 185.976 55.1392ZM185.993 52.6008L195.679 52.5811C195.689 52.5811 195.699 52.5769 195.707 52.5695C195.714 52.5621 195.718 52.5521 195.718 52.5416V52.5251C195.716 51.5465 195.204 50.6091 194.294 49.9188C193.385 49.2286 192.153 48.8421 190.869 48.8444H190.79C190.154 48.8455 189.524 48.9421 188.936 49.1287C188.349 49.3153 187.816 49.5882 187.367 49.9319C186.917 50.2755 186.561 50.6831 186.319 51.1315C186.077 51.5798 185.952 52.0601 185.953 52.5449V52.5613C185.953 52.5718 185.958 52.5819 185.965 52.5893C185.972 52.5967 185.982 52.6008 185.993 52.6008Z" fill="white"/>
<path d="M220.064 47.2947C220.318 46.9633 220.449 46.5803 220.455 46.1457C220.456 46.0039 220.514 45.8683 220.615 45.7684C220.716 45.6684 220.853 45.6123 220.995 45.6123H224.09C224.415 45.6123 224.577 45.7748 224.577 46.0996V61.4381C224.577 61.5578 224.53 61.6725 224.446 61.7571C224.362 61.8417 224.248 61.8892 224.13 61.8892H220.877C220.706 61.8892 220.6 61.8047 220.561 61.6357L220.291 60.49C220.275 60.4228 220.243 60.3606 220.198 60.3086C220.153 60.2566 220.096 60.2165 220.031 60.1918C219.967 60.1671 219.898 60.1585 219.829 60.1669C219.761 60.1753 219.695 60.2003 219.639 60.2398C215.376 63.2094 209.588 63.1369 206.026 59.3113C202.121 55.1203 203.81 48.1968 209.12 46.0272C212.83 44.5105 216.38 44.9484 219.771 47.3408C219.883 47.4176 219.98 47.4022 220.064 47.2947ZM220.13 53.7646C220.134 52.537 219.521 51.3575 218.426 50.4855C217.33 49.6136 215.842 49.1207 214.289 49.1153C213.52 49.1126 212.758 49.2297 212.046 49.4598C211.335 49.69 210.688 50.0287 210.143 50.4566C209.597 50.8846 209.164 51.3933 208.868 51.9539C208.572 52.5145 208.418 53.1159 208.416 53.7237C208.412 54.9514 209.024 56.1309 210.12 57.0028C211.215 57.8747 212.703 58.3676 214.256 58.373C215.026 58.3757 215.788 58.2586 216.499 58.0285C217.21 57.7984 217.857 57.4597 218.403 57.0317C218.948 56.6038 219.381 56.095 219.677 55.5345C219.974 54.9739 220.127 54.3725 220.13 53.7646Z" fill="white"/>
<path d="M246.161 49.1339C246.185 49.1768 246.22 49.213 246.262 49.2393C246.304 49.2656 246.352 49.2813 246.401 49.2848C246.451 49.2884 246.5 49.2798 246.545 49.2598C246.591 49.2398 246.63 49.209 246.661 49.1701C246.946 48.8102 247.236 48.436 247.53 48.0475C251.524 42.7667 259.198 45.1602 260.775 51.2541C261.512 54.0986 261.14 58.3522 261.114 61.4502C261.113 61.5614 261.069 61.668 260.991 61.7473C260.913 61.8265 260.807 61.8723 260.696 61.8749C259.497 61.9078 258.329 61.9078 257.19 61.8749C256.748 61.8639 256.531 61.5961 256.538 61.0716C256.571 58.5464 257.088 54.2566 256.146 52.0508C254.217 47.5372 247.478 48.9594 247.405 53.9406C247.368 56.4515 247.361 58.9327 247.385 61.3843C247.386 61.4508 247.373 61.5166 247.348 61.5781C247.323 61.6396 247.286 61.6955 247.239 61.7426C247.192 61.7898 247.136 61.8272 247.075 61.8527C247.014 61.8782 246.948 61.8913 246.882 61.8913H243.336C243.207 61.8913 243.083 61.84 242.991 61.7486C242.9 61.6573 242.849 61.5333 242.849 61.4041C242.851 59.0337 242.848 56.6194 242.839 54.1612C242.826 49.2162 236.175 47.3594 234.144 51.8698C233.16 54.0492 233.62 58.4938 233.63 61.0716C233.633 61.5588 233.434 61.8123 233.034 61.8321C231.867 61.8913 230.689 61.91 229.502 61.888C229.396 61.8863 229.294 61.8429 229.22 61.7671C229.145 61.6914 229.104 61.5894 229.104 61.4831V45.9734C229.104 45.8773 229.142 45.7852 229.211 45.7173C229.279 45.6494 229.372 45.6112 229.469 45.6112L232.87 45.6178C233.021 45.6178 233.111 45.6924 233.14 45.8417L233.41 47.2442C233.425 47.3213 233.46 47.393 233.513 47.4513C233.566 47.5096 233.633 47.5525 233.709 47.5752C233.784 47.5979 233.864 47.5996 233.94 47.5801C234.016 47.5607 234.086 47.5208 234.141 47.4648C237.867 43.7281 243.576 44.7059 246.161 49.1339Z" fill="white"/>
<path d="M144.013 59.805C143.833 59.8314 143.649 59.9356 143.46 60.1178C141.172 62.3631 138.104 62.8997 135.131 61.7672C128.721 59.3211 129.893 51.3374 129.933 46.0336C129.933 45.977 129.945 45.921 129.967 45.8688C129.989 45.8167 130.021 45.7694 130.061 45.7296C130.102 45.6899 130.149 45.6585 130.202 45.6372C130.254 45.6159 130.31 45.6052 130.367 45.6056L134.097 45.6188C134.191 45.6197 134.281 45.6575 134.347 45.7241C134.412 45.7907 134.449 45.8806 134.449 45.9744C134.452 48.3887 134.458 50.815 134.469 53.2535C134.492 58.4322 141.643 60.0355 143.75 55.5515C144.705 53.5235 144.287 47.9596 144.244 46.4188C144.231 45.9359 144.43 45.6835 144.843 45.6616C145.98 45.6001 147.143 45.5837 148.333 45.6122C148.443 45.6147 148.547 45.6593 148.624 45.7367C148.702 45.814 148.746 45.9181 148.748 46.027C148.818 50.6032 148.856 55.2343 148.863 59.9203C148.863 60.627 148.826 61.2053 148.751 61.6553C148.725 61.8067 148.635 61.8824 148.481 61.8824H145.001C144.852 61.8824 144.762 61.8089 144.731 61.6619L144.415 60.0882C144.397 59.9984 144.346 59.9188 144.271 59.8661C144.196 59.8133 144.104 59.7915 144.013 59.805Z" fill="white"/>
</svg>
