<svg width="174" height="40" viewBox="0 0 174 40" fill="none" xmlns="http://www.w3.org/2000/svg">
<g id="Logo" clip-path="url(#clip0_1_3642)">
<path id="Vector" d="M9.12337 14.9933L3.25253 13.7033C3.13148 13.6773 3.03882 13.7258 2.97456 13.8489C2.36932 15.0262 2.11602 16.3059 2.21465 17.6878C2.22063 17.7797 2.25574 17.8534 2.32 17.9089C2.98577 18.4967 2.90283 19.1417 2.53744 19.9271C2.51911 19.9663 2.51183 20.011 2.51666 20.0549C2.5215 20.0989 2.53819 20.1397 2.56434 20.1716C3.6874 21.5241 4.14694 24.3798 4.35093 26.1874C4.40024 26.6192 4.59078 27.1809 4.31506 27.6257C3.795 28.4632 0.883117 28.8117 0.587221 27.5815C0.00140742 25.1245 0.102281 22.7135 0.889842 20.3485C0.91973 20.2583 0.903291 20.182 0.840526 20.1196C0.250228 19.5474 0.190451 18.8868 0.661194 18.1377C0.705858 18.0677 0.72589 17.9803 0.717235 17.8933C0.551354 16.1299 0.842019 14.4861 1.58923 12.962C1.63556 12.8684 1.6378 12.773 1.59596 12.6759C0.936917 11.1206 1.64751 10.317 2.78851 9.50288C6.93254 6.54657 11.0751 3.58506 15.2161 0.618342C15.8416 0.168393 16.5701 0.225612 17.3636 0.40247C24.8298 2.05835 29.6575 3.14378 31.8468 3.65875C33.3151 4.00466 33.7948 6.27001 32.5036 7.21673C30.5101 8.68014 28.4963 10.1427 26.4624 11.6044C26.4446 11.6168 26.4297 11.6343 26.4193 11.6552C26.4089 11.6761 26.4032 11.6997 26.4027 11.7239C26.4023 11.748 26.4071 11.7719 26.4167 11.7933C26.4264 11.8147 26.4406 11.8329 26.4579 11.8463C35.0344 18.5981 33.4944 33.6935 23.7052 37.8471C15.2184 41.4467 5.9649 33.5036 6.69792 22.9597C6.89219 20.1577 7.72683 17.5794 9.20183 15.2248C9.21464 15.2051 9.22285 15.182 9.22569 15.1575C9.22854 15.1331 9.22592 15.1082 9.21808 15.085C9.21024 15.0619 9.19744 15.0414 9.18088 15.0253C9.16432 15.0093 9.14453 14.9983 9.12337 14.9933ZM28.7825 5.84087C24.8133 4.9375 20.8053 4.05581 16.7584 3.19579C16.5446 3.15056 16.3237 3.19774 16.1374 3.32844C12.7586 5.7247 9.32661 8.17471 5.84161 10.6785C5.72505 10.7634 5.63987 10.8579 5.58607 10.962C5.56894 10.9958 5.5591 11.034 5.55737 11.0732C5.55565 11.1125 5.5621 11.1516 5.57618 11.1873C5.59025 11.223 5.61154 11.2543 5.63823 11.2785C5.66493 11.3026 5.69624 11.319 5.72953 11.3261L17.7402 14.031C18.0256 14.0945 18.3215 14.0314 18.5696 13.8541L28.9529 6.43127C28.9884 6.40506 29.0176 6.36883 29.0376 6.32603C29.0577 6.28323 29.0678 6.23529 29.0672 6.18679C29.0657 5.99779 28.9708 5.88248 28.7825 5.84087ZM18.2984 16.9752C17.2314 16.8781 15.3192 16.4801 12.562 15.7814C12.296 15.7137 12.0681 15.8039 11.8783 16.0519C9.01353 19.8075 8.41949 24.6139 10.2061 29.1004C13.6246 37.6884 23.9966 37.9693 28.0876 30.0705C31.143 24.1717 29.3003 16.7177 24.0347 13.5446C23.985 13.5147 23.9292 13.5006 23.8729 13.5038C23.8167 13.507 23.7619 13.5274 23.7142 13.5628C22.6763 14.3405 19.3273 17.0662 18.2984 16.9752Z" fill="white"/>
<path id="Vector_2" d="M47.3076 11.3902C48.7804 9.47592 50.614 8.93754 52.8556 8.8049C55.9043 8.62544 60.2037 9.84785 60.7395 14.1497C60.7437 14.1826 60.7417 14.2161 60.7337 14.248C60.7257 14.28 60.7119 14.3095 60.6932 14.3347C60.6745 14.3599 60.6513 14.3801 60.6252 14.3939C60.5992 14.4078 60.5709 14.4149 60.5422 14.415L57.6909 14.4228C57.6072 14.4228 57.5466 14.3785 57.5093 14.2901C56.384 11.6867 53.4385 11.4006 51.2932 12.1886C49.5649 12.8232 48.8364 15.216 50.9816 15.861C53.2905 16.5581 56.9153 16.35 59.1703 18.1498C61.0399 19.6401 61.8962 23.0784 60.2486 25.427C57.0677 29.9577 47.5811 28.9564 46.2764 22.5817C46.2167 22.2869 46.3175 22.1386 46.5791 22.1369L49.4058 22.1031C49.491 22.1014 49.5515 22.1456 49.5873 22.2357C50.5961 24.795 53.2412 25.2788 55.3842 24.8704C56.5185 24.6545 58.0809 23.7442 57.8321 22.1369C57.5272 20.1551 53.1605 19.8794 51.1811 19.5855C49.9393 19.3982 48.2043 18.5581 47.404 17.4033C46.2877 15.7882 46.0254 13.0547 47.3076 11.3902Z" fill="white"/>
<path id="Vector_3" d="M99.1971 9.12354H96.5878C96.4269 9.12354 96.2964 9.27491 96.2964 9.46165V27.444C96.2964 27.6307 96.4269 27.7821 96.5878 27.7821H99.1971C99.358 27.7821 99.4885 27.6307 99.4885 27.444V9.46165C99.4885 9.27491 99.358 9.12354 99.1971 9.12354Z" fill="white"/>
<path id="Vector_4" d="M102.405 9.13864L116.303 9.11523C116.391 9.11523 116.476 9.15606 116.539 9.22874C116.602 9.30141 116.637 9.39998 116.637 9.50276V12.153C116.637 12.2554 116.602 12.3535 116.54 12.4261C116.478 12.4987 116.393 12.5399 116.305 12.5406L111.308 12.5848C111.22 12.5855 111.136 12.6266 111.074 12.6992C111.012 12.7718 110.977 12.87 110.977 12.9723V27.3967C110.977 27.4476 110.968 27.498 110.951 27.545C110.934 27.592 110.91 27.6347 110.879 27.6707C110.848 27.7067 110.811 27.7352 110.771 27.7547C110.73 27.7742 110.687 27.7842 110.643 27.7842H108.116C108.073 27.7842 108.029 27.7742 107.989 27.7547C107.948 27.7352 107.911 27.7067 107.88 27.6707C107.849 27.6347 107.825 27.592 107.808 27.545C107.791 27.498 107.782 27.4476 107.782 27.3967V12.9567C107.782 12.8539 107.747 12.7554 107.685 12.6827C107.622 12.61 107.537 12.5692 107.448 12.5692H102.398C102.309 12.5692 102.224 12.5283 102.162 12.4557C102.099 12.383 102.064 12.2844 102.064 12.1816L102.073 9.52357C102.074 9.42169 102.109 9.32418 102.171 9.25214C102.233 9.1801 102.317 9.13932 102.405 9.13864Z" fill="white"/>
<path id="Vector_5" d="M77.5382 21.1329C77.5382 23.0153 76.7893 24.8207 75.4563 26.1518C74.1232 27.4829 72.3152 28.2307 70.43 28.2307C68.5448 28.2307 66.7368 27.4829 65.4037 26.1518C64.0707 24.8207 63.3218 23.0153 63.3218 21.1329C63.3218 19.2505 64.0707 17.4451 65.4037 16.114C66.7368 14.783 68.5448 14.0352 70.43 14.0352C72.3152 14.0352 74.1232 14.783 75.4563 16.114C76.7893 17.4451 77.5382 19.2505 77.5382 21.1329ZM74.3058 21.1434C74.3072 20.6629 74.2082 20.1866 74.0143 19.7419C73.8204 19.2971 73.5354 18.8925 73.1757 18.5513C72.816 18.21 72.3886 17.9387 71.9178 17.7529C71.4471 17.5671 70.9422 17.4704 70.432 17.4683C69.4017 17.4641 68.4125 17.8457 67.6819 18.529C66.9513 19.2123 66.5392 20.1414 66.5363 21.112C66.5349 21.5925 66.6339 22.0688 66.8278 22.5136C67.0217 22.9583 67.3066 23.3629 67.6663 23.7042C68.026 24.0454 68.4535 24.3167 68.9242 24.5025C69.395 24.6883 69.8999 24.785 70.41 24.7871C71.4403 24.7913 72.4296 24.4097 73.1602 23.7264C73.8908 23.0431 74.3028 22.114 74.3058 21.1434Z" fill="white"/>
<path id="Vector_6" d="M119.531 22.327C119.676 23.4792 120.427 24.3322 121.364 24.8056C123.116 25.6882 124.755 25.37 126.283 23.8511C126.338 23.7956 126.402 23.767 126.475 23.7652L128.97 23.7132C129.03 23.7118 129.089 23.7283 129.141 23.7614C129.194 23.7944 129.238 23.8427 129.269 23.9016C129.301 23.9606 129.319 24.0281 129.322 24.0976C129.324 24.1672 129.311 24.2363 129.284 24.2984C126.89 29.6796 118.804 29.3857 116.643 23.9811C115.281 20.5714 116.516 16.7117 119.428 15.0212C121.142 14.0259 123.027 13.8317 125.083 14.4386C128.286 15.3853 129.908 17.7815 129.95 21.6273C129.951 21.684 129.942 21.7403 129.924 21.793C129.905 21.8456 129.878 21.8936 129.844 21.934C129.809 21.9744 129.768 22.0065 129.723 22.0285C129.678 22.0504 129.629 22.0617 129.58 22.0617H119.728C119.699 22.0617 119.671 22.0689 119.645 22.0827C119.619 22.0966 119.596 22.1168 119.577 22.142C119.558 22.1671 119.544 22.1967 119.536 22.2286C119.529 22.2605 119.527 22.2941 119.531 22.327ZM119.58 20.2411L126.466 20.2255C126.473 20.2255 126.48 20.2222 126.485 20.2163C126.49 20.2105 126.493 20.2025 126.493 20.1943V20.1891C126.492 19.3698 126.133 18.5849 125.497 18.0069C124.86 17.4289 123.998 17.1053 123.099 17.107H122.938C122.493 17.1079 122.052 17.1888 121.641 17.3449C121.23 17.5011 120.857 17.7295 120.542 18.0172C120.228 18.3048 119.979 18.6461 119.809 19.0214C119.639 19.3967 119.552 19.7988 119.553 20.2047V20.2099C119.553 20.2181 119.556 20.2261 119.561 20.2319C119.566 20.2378 119.573 20.2411 119.58 20.2411Z" fill="white"/>
<path id="Vector_7" d="M143.908 26.5664C143.863 26.3704 143.768 26.3271 143.621 26.4363C141.439 28.0575 139.225 28.5318 136.977 27.859C131.005 26.0696 130.662 16.8834 136.578 14.5556C139.014 13.5967 141.35 14.0363 143.588 15.8742C143.615 15.8966 143.646 15.9109 143.679 15.916C143.712 15.921 143.745 15.9167 143.776 15.9034C143.808 15.8901 143.835 15.8681 143.858 15.8395C143.88 15.8108 143.896 15.7763 143.904 15.739L144.123 14.7507C144.142 14.6675 144.183 14.5937 144.242 14.541C144.3 14.4883 144.372 14.4596 144.446 14.4594L146.721 14.4542C146.759 14.4538 146.797 14.4622 146.832 14.4788C146.867 14.4953 146.899 14.5198 146.926 14.5507C146.953 14.5817 146.974 14.6185 146.989 14.6591C147.003 14.6996 147.011 14.7431 147.011 14.7871V27.5235C147.011 27.5925 146.987 27.6586 146.945 27.7074C146.903 27.7562 146.846 27.7836 146.786 27.7836H144.354C144.306 27.7836 144.258 27.7647 144.22 27.7298C144.181 27.695 144.154 27.6462 144.141 27.5911L143.908 26.5664ZM143.841 21.128C143.841 20.1161 143.401 19.1456 142.618 18.43C141.836 17.7145 140.774 17.3125 139.667 17.3125C138.56 17.3125 137.498 17.7145 136.716 18.43C135.933 19.1456 135.493 20.1161 135.493 21.128C135.493 22.1399 135.933 23.1104 136.716 23.8259C137.498 24.5414 138.56 24.9434 139.667 24.9434C140.774 24.9434 141.836 24.5414 142.618 23.8259C143.401 23.1104 143.841 22.1399 143.841 21.128Z" fill="white"/>
<path id="Vector_8" d="M163.689 19.2839C162.815 20.9875 163.203 25.3335 163.21 27.3986C163.21 27.5007 163.175 27.5986 163.113 27.6708C163.05 27.7429 162.966 27.7835 162.878 27.7835H160.298C160.077 27.7835 159.965 27.6552 159.964 27.3986C159.953 25.2529 160.3 21.3438 159.63 19.6246C158.527 16.8001 154.873 16.8027 153.788 19.5856C153.075 21.414 153.391 25.2555 153.405 27.5078C153.405 27.5439 153.399 27.5797 153.388 27.6131C153.376 27.6466 153.359 27.677 153.337 27.7026C153.315 27.7282 153.289 27.7486 153.26 27.7625C153.231 27.7764 153.201 27.7835 153.169 27.7835H150.551C150.296 27.7835 150.168 27.6353 150.168 27.3388L150.157 14.8494C150.157 14.7453 150.192 14.6454 150.256 14.5717C150.319 14.4981 150.405 14.4567 150.495 14.4567L152.802 14.4541C152.875 14.4539 152.946 14.4835 153.002 14.5377C153.058 14.5919 153.096 14.6672 153.109 14.7506L153.27 15.7883C153.281 15.8543 153.307 15.9156 153.346 15.9654C153.384 16.0153 153.434 16.0518 153.49 16.0709C153.545 16.09 153.604 16.0909 153.66 16.0737C153.716 16.0564 153.766 16.0216 153.806 15.973C156.346 12.8338 160.504 13.7727 162.315 17.3436C162.334 17.3812 162.361 17.4128 162.393 17.4355C162.425 17.4582 162.462 17.4713 162.499 17.4736C162.537 17.4759 162.574 17.4674 162.607 17.4488C162.641 17.4302 162.67 17.4021 162.692 17.3671C163.163 16.6154 163.683 15.7883 164.308 15.2578C167.319 12.6959 171.295 14.5373 172.517 18.4074C173.25 20.7222 172.981 24.6937 172.95 27.5286C172.949 27.5965 172.925 27.6613 172.884 27.709C172.842 27.7567 172.786 27.7835 172.728 27.7835H170.101C170.01 27.7835 169.924 27.7419 169.86 27.6677C169.796 27.5936 169.76 27.493 169.76 27.3882C169.769 25.7236 169.769 24.0365 169.76 22.3269C169.752 21.1426 169.666 20.3 169.502 19.7989C168.578 16.9847 165.026 16.683 163.689 19.2839Z" fill="white"/>
<path id="Vector_9" d="M86.836 27.989C83.8054 28.7432 81.0975 26.894 80.1156 23.5649C79.8974 22.8315 79.7801 21.7339 79.7637 20.2722C79.7428 18.4031 79.7435 16.5192 79.7659 14.6206C79.7674 14.5217 79.8108 14.4723 79.8959 14.4723L82.6688 14.4463C82.7056 14.446 82.7421 14.454 82.7762 14.47C82.8104 14.4861 82.8414 14.5097 82.8676 14.5397C82.8939 14.5696 82.9148 14.6053 82.9291 14.6446C82.9435 14.6839 82.951 14.7261 82.9513 14.7688C82.9618 16.4663 82.9618 18.1803 82.9513 19.9107C82.9453 20.906 83.035 21.6802 83.2203 22.2333C84.3209 25.5104 88.459 25.6196 89.6358 22.3763C89.8032 21.9116 89.8906 21.2406 89.8981 20.3633C89.9101 18.5565 89.9108 16.7619 89.9004 14.9795C89.9001 14.9106 89.9115 14.8423 89.934 14.7786C89.9565 14.7149 89.9897 14.657 90.0315 14.6081C90.0734 14.5593 90.1232 14.5206 90.178 14.4941C90.2328 14.4677 90.2916 14.4541 90.3509 14.4541H92.7921C92.8884 14.4541 92.9807 14.4988 93.0488 14.5783C93.117 14.6578 93.1552 14.7656 93.1552 14.878V27.4506C93.1552 27.5389 93.125 27.6236 93.0712 27.686C93.0174 27.7484 92.9444 27.7835 92.8683 27.7835H90.5078C90.4182 27.7835 90.3517 27.7376 90.3083 27.6457C90.1529 27.3197 90.0872 26.9694 90.1111 26.5949C90.1146 26.5418 90.1082 26.4885 90.0923 26.4387C90.0764 26.3888 90.0515 26.3437 90.0192 26.3062C89.8025 26.0496 89.5581 26.0843 89.2861 26.4103C88.6062 27.2269 87.7895 27.7532 86.836 27.989Z" fill="white"/>
<path id="Vector_10" d="M14.4585 21.8565C12.9252 27.1051 17.2134 31.6644 21.5824 29.5421C24.7139 28.0232 25.5232 23.1336 23.4519 20.1634C23.2412 19.8617 21.95 18.8499 22.0554 18.0671C22.1824 17.1117 22.6277 16.5282 23.3914 16.3167C23.4604 16.2984 23.5326 16.3114 23.5931 16.3531C29.4774 20.5769 27.9464 30.8633 21.3224 32.8738C14.3285 34.9961 8.69746 25.6434 12.914 18.7615C13.5237 17.7706 14.8014 18.4494 15.1466 19.3363C15.5143 20.2804 14.6983 21.0347 14.4585 21.8565Z" fill="white"/>
<path id="Vector_11" d="M20.6168 24.5553C21.1167 21.5981 17.2947 22.6255 18.4805 24.7686C19.0006 25.7075 20.2245 25.372 19.5453 27.2082C19.4571 27.444 19.2628 27.5402 18.9625 27.4969C15.804 27.0417 15.4521 21.8374 18.5567 20.6826C20.2895 20.0376 21.8945 21.078 22.4594 23.0936C22.8876 24.6281 22.1545 26.6568 20.6773 24.8024C20.651 24.7703 20.6317 24.731 20.6212 24.688C20.6106 24.645 20.6091 24.5995 20.6168 24.5553Z" fill="white"/>
<path id="Vector_12" d="M156.775 34.8017C156.826 34.6682 156.916 34.6023 157.046 34.604C157.19 34.6058 157.313 34.6959 157.416 34.8745C157.435 34.9072 157.459 34.9348 157.487 34.9554C157.516 34.9761 157.548 34.9893 157.582 34.9942C159.239 35.2464 159.212 37.569 157.578 37.7355C157.543 37.7387 157.51 37.7515 157.48 37.7728C157.451 37.7941 157.427 37.8232 157.41 37.8577L157.342 37.9878C157.315 38.0398 157.278 38.0771 157.23 38.0996C157.027 38.1967 156.872 38.1291 156.766 37.8967C156.751 37.8633 156.729 37.8344 156.703 37.8119C156.677 37.7894 156.648 37.774 156.616 37.7667C154.825 37.3453 154.915 35.5039 156.616 34.9578C156.691 34.9352 156.744 34.8832 156.775 34.8017ZM156.831 37.0645L156.753 35.6782C156.751 35.6469 156.738 35.6179 156.717 35.5975C156.697 35.577 156.67 35.5668 156.643 35.569L156.609 35.5716C156.427 35.5855 156.258 35.679 156.137 35.8317C156.016 35.9843 155.955 36.1835 155.966 36.3856L155.973 36.4845C155.984 36.6864 156.068 36.8746 156.204 37.0077C156.341 37.1408 156.519 37.208 156.701 37.1945L156.735 37.1919C156.748 37.1909 156.762 37.1868 156.774 37.1799C156.786 37.1729 156.797 37.1632 156.806 37.1514C156.815 37.1396 156.822 37.1258 156.826 37.1109C156.83 37.0959 156.832 37.0802 156.831 37.0645ZM157.38 35.6886L157.376 37.0566C157.376 37.0836 157.385 37.1094 157.402 37.1284C157.418 37.1474 157.44 37.1581 157.463 37.1581L157.524 37.1607C157.702 37.1614 157.874 37.0796 158 36.9332C158.127 36.7869 158.198 36.5881 158.199 36.3804V36.3752C158.199 36.2724 158.182 36.1705 158.148 36.0754C158.115 35.9803 158.065 35.8938 158.003 35.8209C157.941 35.748 157.867 35.69 157.786 35.6503C157.704 35.6107 157.617 35.5901 157.528 35.5898L157.468 35.5872C157.445 35.5872 157.422 35.5978 157.406 35.6169C157.39 35.6359 157.38 35.6617 157.38 35.6886Z" fill="white"/>
<path id="Vector_13" d="M62.3931 36.2889L62.9311 34.9677C62.9699 34.8723 63.0342 34.8186 63.1239 34.8064L63.496 34.7518C63.611 34.7345 63.6432 34.7856 63.5924 34.9053C63.0857 36.0991 62.4177 38.289 61.2274 38.0289C61.1602 38.0133 61.1325 37.9656 61.1445 37.8859L61.1983 37.5478C61.2022 37.5235 61.2125 37.5012 61.2277 37.484C61.243 37.4667 61.2624 37.4554 61.2835 37.4515L61.817 37.3501C61.8406 37.3456 61.8629 37.3346 61.8821 37.318C61.9013 37.3014 61.9169 37.2797 61.9274 37.2548C61.9379 37.2299 61.9431 37.2024 61.9427 37.1746C61.9422 37.1468 61.936 37.1196 61.9246 37.0952L60.945 34.9937C60.9361 34.9743 60.9317 34.9526 60.9322 34.9307C60.9326 34.9088 60.938 34.8874 60.9477 34.8685C60.9574 34.8497 60.9711 34.8341 60.9875 34.8232C61.0039 34.8123 61.0225 34.8066 61.0414 34.8064H61.4292C61.5084 34.8064 61.5652 34.8481 61.5995 34.9313L62.1779 36.2915C62.1877 36.3152 62.2031 36.335 62.2222 36.3489C62.2414 36.3627 62.2636 36.3699 62.2862 36.3696C62.3088 36.3694 62.3308 36.3616 62.3498 36.3473C62.3687 36.333 62.3837 36.3128 62.3931 36.2889Z" fill="white"/>
<path id="Vector_14" d="M76.9768 36.3155C76.9906 36.754 76.8446 37.1812 76.5708 37.5033C76.297 37.8253 75.9179 38.0158 75.5169 38.0329C75.3183 38.0413 75.1204 38.007 74.9343 37.9317C74.7482 37.8564 74.5776 37.7418 74.4324 37.5942C74.2871 37.4467 74.17 37.2692 74.0877 37.0719C74.0053 36.8746 73.9594 36.6613 73.9526 36.4442C73.9387 36.0058 74.0847 35.5785 74.3585 35.2565C74.6323 34.9344 75.0114 34.7439 75.4124 34.7268C75.611 34.7184 75.809 34.7528 75.995 34.828C76.1811 34.9033 76.3517 35.018 76.4969 35.1655C76.6422 35.313 76.7593 35.4905 76.8417 35.6879C76.924 35.8852 76.9699 36.0985 76.9768 36.3155ZM76.3367 36.3877C76.3367 36.12 76.245 35.8634 76.0819 35.6741C75.9188 35.4849 75.6976 35.3785 75.4669 35.3785C75.2362 35.3785 75.015 35.4849 74.8519 35.6741C74.6888 35.8634 74.5971 36.12 74.5971 36.3877C74.5971 36.6553 74.6888 36.912 74.8519 37.1012C75.015 37.2905 75.2362 37.3968 75.4669 37.3968C75.6976 37.3968 75.9188 37.2905 76.0819 37.1012C76.245 36.912 76.3367 36.6553 76.3367 36.3877Z" fill="white"/>
<path id="Vector_15" d="M95.8259 36.4069C95.8206 36.8463 95.6559 37.265 95.368 37.5711C95.0801 37.8772 94.6927 38.0455 94.2908 38.039C94.0918 38.0357 93.8953 37.9897 93.7125 37.9035C93.5296 37.8172 93.3641 37.6925 93.2252 37.5364C93.0864 37.3803 92.977 37.1958 92.9033 36.9936C92.8295 36.7914 92.7929 36.5754 92.7955 36.3578C92.8008 35.9185 92.9655 35.4997 93.2534 35.1936C93.5413 34.8876 93.9288 34.7193 94.3307 34.7258C94.5296 34.729 94.7262 34.775 94.909 34.8613C95.0918 34.9475 95.2574 35.0722 95.3962 35.2283C95.5351 35.3844 95.6445 35.5689 95.7182 35.7711C95.7919 35.9733 95.8285 36.1894 95.8259 36.4069ZM95.1805 36.385C95.1805 36.1166 95.0886 35.8593 94.9251 35.6696C94.7616 35.4798 94.5398 35.3732 94.3085 35.3732C94.0772 35.3732 93.8554 35.4798 93.6919 35.6696C93.5284 35.8593 93.4365 36.1166 93.4365 36.385C93.4365 36.6533 93.5284 36.9106 93.6919 37.1004C93.8554 37.2901 94.0772 37.3967 94.3085 37.3967C94.5398 37.3967 94.7616 37.2901 94.9251 37.1004C95.0886 36.9106 95.1805 36.6533 95.1805 36.385Z" fill="white"/>
<path id="Vector_16" d="M107.16 36.6379L106.404 36.6171C106.368 36.6164 106.334 36.5994 106.309 36.5697C106.284 36.54 106.27 36.5001 106.27 36.4584V36.279C106.27 36.2382 106.283 36.199 106.307 36.1694C106.332 36.1399 106.365 36.1223 106.4 36.1203L107.039 36.0761C107.12 36.0701 107.196 36.029 107.251 35.9609C107.307 35.8929 107.339 35.8029 107.341 35.7089C107.342 35.6148 107.313 35.5236 107.259 35.4534C107.205 35.3831 107.131 35.3389 107.05 35.3296C106.738 35.295 106.431 35.3461 106.131 35.4831C106.029 35.5299 105.968 35.4909 105.947 35.3661L105.902 35.0878C105.887 34.9907 105.919 34.9256 105.999 34.8927C106.736 34.5806 108.628 34.7835 107.74 36.1801C107.721 36.2101 107.713 36.2471 107.716 36.2837C107.719 36.3203 107.734 36.3539 107.758 36.3778C108.238 36.8746 108.173 37.5534 107.565 37.8421C107.018 38.1004 106.46 38.0796 105.891 37.7797C105.825 37.7467 105.801 37.6895 105.817 37.608L105.855 37.4051C105.882 37.2734 105.95 37.23 106.059 37.2751C106.439 37.4259 106.823 37.4572 107.213 37.3687C107.29 37.3505 107.358 37.3004 107.404 37.2279C107.451 37.1554 107.473 37.0657 107.466 36.9756C107.46 36.8855 107.425 36.8013 107.368 36.7391C107.312 36.6769 107.238 36.6409 107.16 36.6379Z" fill="white"/>
<path id="Vector_17" d="M111.659 36.3006C111.667 36.5183 111.637 36.736 111.569 36.9412C111.502 37.1465 111.398 37.3353 111.264 37.4968C111.13 37.6584 110.969 37.7896 110.789 37.8829C110.609 37.9762 110.415 38.0299 110.217 38.0407C109.816 38.0626 109.425 37.909 109.13 37.6136C108.834 37.3183 108.658 36.9054 108.64 36.4658C108.631 36.2481 108.662 36.0304 108.729 35.8252C108.797 35.6199 108.901 35.4311 109.035 35.2696C109.168 35.108 109.33 34.9768 109.51 34.8835C109.689 34.7901 109.884 34.7365 110.082 34.7257C110.482 34.7038 110.873 34.8574 111.169 35.1528C111.465 35.4481 111.641 35.861 111.659 36.3006ZM111.021 36.3884C111.021 36.1194 110.929 35.8614 110.765 35.6712C110.601 35.4809 110.379 35.3741 110.147 35.3741C109.915 35.3741 109.693 35.4809 109.529 35.6712C109.365 35.8614 109.273 36.1194 109.273 36.3884C109.273 36.6574 109.365 36.9154 109.529 37.1056C109.693 37.2959 109.915 37.4027 110.147 37.4027C110.379 37.4027 110.601 37.2959 110.765 37.1056C110.929 36.9154 111.021 36.6574 111.021 36.3884Z" fill="white"/>
<path id="Vector_18" d="M162.371 36.4129C162.364 36.8488 162.197 37.2636 161.907 37.566C161.616 37.8684 161.226 38.0337 160.822 38.0255C160.622 38.0215 160.424 37.975 160.24 37.8886C160.057 37.8023 159.891 37.6778 159.751 37.5223C159.612 37.3669 159.503 37.1834 159.429 36.9825C159.355 36.7815 159.319 36.567 159.322 36.3512C159.329 35.9153 159.496 35.5005 159.786 35.1981C160.077 34.8957 160.467 34.7304 160.871 34.7386C161.071 34.7426 161.269 34.7891 161.453 34.8755C161.636 34.9618 161.802 35.0863 161.942 35.2418C162.081 35.3972 162.19 35.5807 162.264 35.7816C162.338 35.9826 162.374 36.1971 162.371 36.4129ZM161.714 36.3925C161.714 36.1255 161.623 35.8695 161.46 35.6807C161.297 35.492 161.077 35.3859 160.847 35.3859C160.616 35.3859 160.396 35.492 160.233 35.6807C160.07 35.8695 159.979 36.1255 159.979 36.3925C159.979 36.6594 160.07 36.9154 160.233 37.1042C160.396 37.2929 160.616 37.399 160.847 37.399C161.077 37.399 161.297 37.2929 161.46 37.1042C161.623 36.9154 161.714 36.6594 161.714 36.3925Z" fill="white"/>
<path id="Vector_19" d="M47.0496 36.4292C47.0386 36.4073 47.0216 36.3903 47.0014 36.3808C46.9812 36.3712 46.9588 36.3698 46.9377 36.3766C46.9167 36.3835 46.8982 36.3982 46.8852 36.4186C46.8722 36.4389 46.8654 36.4637 46.8658 36.489V37.792C46.8658 37.8683 46.8359 37.9229 46.7761 37.9559C46.5983 38.0512 46.4563 38.0374 46.3502 37.9143C46.2814 37.8345 46.2471 37.7036 46.2471 37.5215C46.2486 36.6632 46.2493 35.8752 46.2493 35.1574C46.2493 35.0704 46.2739 34.9859 46.3192 34.9167C46.3646 34.8475 46.4282 34.7974 46.5004 34.7741C46.5726 34.7508 46.6493 34.7556 46.719 34.7877C46.7886 34.8198 46.8472 34.8774 46.8859 34.9519L47.7534 36.6242C47.7628 36.6419 47.7759 36.6564 47.7916 36.6664C47.8072 36.6764 47.8248 36.6815 47.8426 36.6813C47.8605 36.681 47.878 36.6754 47.8934 36.6649C47.9088 36.6545 47.9216 36.6396 47.9305 36.6216L48.7644 34.9363C48.8012 34.8625 48.8578 34.8049 48.9256 34.7723C48.9934 34.7396 49.0686 34.7338 49.1395 34.7557C49.2105 34.7776 49.2732 34.826 49.318 34.8935C49.3629 34.9609 49.3873 35.0436 49.3876 35.1287V37.8596C49.3876 37.9117 49.3659 37.9463 49.3226 37.9637C49.0939 38.0486 48.9348 38.0218 48.8451 37.8831C48.7943 37.8068 48.7727 37.6594 48.7801 37.4409C48.7906 37.0976 48.7831 36.756 48.7577 36.4162C48.7443 36.2185 48.6942 36.2055 48.6075 36.3772L48.0493 37.4721C48.0263 37.5175 47.9935 37.5552 47.9541 37.5815C47.9147 37.6077 47.8701 37.6217 47.8247 37.6219C47.7793 37.6222 47.7346 37.6087 47.695 37.5829C47.6554 37.5571 47.6222 37.5198 47.5988 37.4747L47.0496 36.4292Z" fill="white"/>
<path id="Vector_20" d="M50.9567 36.7948V37.2838C50.9567 37.3162 50.9678 37.3473 50.9875 37.3702C51.0073 37.3932 51.0341 37.406 51.062 37.406H52.3084C52.3222 37.406 52.3359 37.4092 52.3487 37.4153C52.3615 37.4215 52.3731 37.4305 52.3829 37.4418C52.3927 37.4532 52.4004 37.4667 52.4057 37.4815C52.411 37.4963 52.4137 37.5122 52.4137 37.5283V37.869C52.4137 37.885 52.411 37.9009 52.4057 37.9158C52.4004 37.9306 52.3927 37.9441 52.3829 37.9554C52.3731 37.9668 52.3615 37.9758 52.3487 37.9819C52.3359 37.9881 52.3222 37.9912 52.3084 37.9912H50.3895C50.3757 37.9912 50.362 37.9881 50.3492 37.9819C50.3364 37.9758 50.3248 37.9668 50.315 37.9554C50.3053 37.9441 50.2975 37.9306 50.2922 37.9158C50.2869 37.9009 50.2842 37.885 50.2842 37.869V34.9274C50.2842 34.9114 50.2869 34.8955 50.2922 34.8806C50.2975 34.8658 50.3053 34.8523 50.315 34.841C50.3248 34.8296 50.3364 34.8206 50.3492 34.8145C50.362 34.8083 50.3757 34.8052 50.3895 34.8052H52.3173C52.3322 34.8051 52.3469 34.8086 52.3604 34.8156C52.374 34.8225 52.3862 34.8327 52.3961 34.8455C52.4061 34.8582 52.4136 34.8733 52.4181 34.8896C52.4227 34.906 52.4243 34.9233 52.4227 34.9404L52.3913 35.2811C52.3886 35.3108 52.3766 35.3383 52.3576 35.3584C52.3386 35.3785 52.3139 35.3899 52.2882 35.3904H51.062C51.0341 35.3904 51.0073 35.4033 50.9875 35.4262C50.9678 35.4491 50.9567 35.4802 50.9567 35.5126V35.9834C50.9567 36.0158 50.9678 36.0469 50.9875 36.0698C51.0073 36.0927 51.0341 36.1056 51.062 36.1056H52.1492C52.1641 36.1055 52.1787 36.109 52.1923 36.116C52.2059 36.1229 52.218 36.1331 52.228 36.1459C52.2379 36.1586 52.2454 36.1737 52.25 36.1901C52.2546 36.2064 52.2562 36.2237 52.2546 36.2409L52.2232 36.5894C52.2204 36.6195 52.2081 36.6473 52.1886 36.6675C52.1692 36.6877 52.1439 36.6988 52.1178 36.6986L51.0643 36.6726C51.0502 36.6722 51.0363 36.6752 51.0233 36.6811C51.0102 36.6871 50.9983 36.6961 50.9883 36.7075C50.9783 36.7189 50.9703 36.7324 50.9649 36.7475C50.9595 36.7625 50.9567 36.7786 50.9567 36.7948Z" fill="white"/>
<path id="Vector_21" d="M54.1405 36.8318C53.9567 37.326 53.6496 38.3325 52.9973 37.932C52.9405 37.8973 52.9286 37.8479 52.9614 37.7837L53.6563 36.3974C53.6713 36.3691 53.6792 36.3364 53.6792 36.3029C53.6792 36.2694 53.6713 36.2365 53.6563 36.2076L52.9973 34.9488C52.9897 34.9345 52.9855 34.9181 52.9852 34.9014C52.9849 34.8846 52.9884 34.868 52.9955 34.8534C53.0026 34.8387 53.013 34.8266 53.0255 34.8182C53.0381 34.8098 53.0523 34.8055 53.0668 34.8057H53.4927C53.5366 34.8058 53.5797 34.8196 53.6172 34.8458C53.6547 34.8719 53.6853 34.9093 53.7057 34.954L54.1854 36.0073C54.213 36.0692 54.2583 36.1178 54.3135 36.1448C54.3687 36.1718 54.4304 36.1754 54.4879 36.1551C54.5455 36.1348 54.5953 36.0918 54.6289 36.0335C54.6624 35.9752 54.6776 35.9053 54.6718 35.8357L54.5956 34.98C54.5937 34.9578 54.5958 34.9355 54.6017 34.9144C54.6076 34.8933 54.6172 34.8739 54.6299 34.8575C54.6426 34.841 54.658 34.8279 54.6753 34.819C54.6926 34.8101 54.7112 34.8056 54.7301 34.8057H55.1605C55.2352 34.8057 55.2726 34.8491 55.2726 34.9358V35.8539C55.2724 35.9116 55.288 35.968 55.3172 36.0148C55.3464 36.0616 55.3876 36.0965 55.4349 36.1144C55.4823 36.1323 55.5333 36.1324 55.5806 36.1145C55.628 36.0967 55.6692 36.0619 55.6985 36.0151C55.9832 35.5522 56.1737 34.5586 56.8058 34.8369C56.8985 34.8785 56.9194 34.9479 56.8686 35.045L56.2679 36.179C56.229 36.2535 56.2282 36.329 56.2656 36.4053L56.9583 37.7785C56.9695 37.8 56.9756 37.8245 56.9758 37.8496C56.9761 37.8747 56.9706 37.8994 56.9598 37.9212C56.949 37.943 56.9335 37.961 56.9147 37.9734C56.8959 37.9858 56.8745 37.9922 56.8529 37.9918H56.4696C56.3784 37.9918 56.3104 37.9467 56.2656 37.8565L55.6985 36.7408C55.673 36.6904 55.634 36.6512 55.5875 36.6292C55.5409 36.6072 55.4894 36.6036 55.4409 36.619C55.3923 36.6344 55.3496 36.6679 55.3192 36.7144C55.2887 36.7609 55.2724 36.8177 55.2726 36.876V37.8175C55.2726 37.8615 55.2576 37.9037 55.2308 37.9353C55.204 37.9668 55.1675 37.9852 55.1291 37.9866L54.7704 37.9944C54.6942 37.9961 54.6561 37.9528 54.6561 37.8643V36.954C54.6556 36.8825 54.634 36.8134 54.5948 36.7582C54.5557 36.703 54.5014 36.665 54.441 36.6507C54.3806 36.6364 54.3178 36.6466 54.2631 36.6795C54.2084 36.7125 54.1652 36.7662 54.1405 36.8318Z" fill="white"/>
<path id="Vector_22" d="M60.2289 37.3956L60.3769 37.4086C60.4486 37.4156 60.4845 37.4607 60.4845 37.5439V38.5114C60.4845 38.5981 60.4471 38.6414 60.3724 38.6414H60.0743C60.04 38.6416 60.0068 38.6269 59.9811 38.6C59.9555 38.5731 59.9391 38.536 59.9353 38.4958L59.9061 38.1421C59.9022 38.0986 59.8844 38.0585 59.8561 38.0296C59.8279 38.0007 59.7913 37.9851 59.7537 37.986C59.2441 37.9912 58.7382 38.0008 58.2361 38.0146C57.9596 38.0233 57.8423 38.1438 57.8842 38.3762C57.8929 38.4156 57.8948 38.4567 57.8898 38.497C57.8848 38.5373 57.873 38.576 57.8551 38.611C57.8372 38.6461 57.8135 38.6767 57.7854 38.7011C57.7573 38.7255 57.7254 38.7432 57.6914 38.7533C57.6574 38.7634 57.622 38.7656 57.5873 38.7598C57.5525 38.754 57.5191 38.7403 57.4889 38.7196C57.4588 38.6988 57.4324 38.6713 57.4114 38.6387C57.3903 38.6061 57.375 38.5691 57.3664 38.5296C57.2064 37.9279 57.3245 37.4867 57.7205 37.2058C57.7953 37.1538 57.8364 37.0766 57.8438 36.9743L57.9985 34.9092C58.0007 34.8807 58.0121 34.8542 58.0304 34.8349C58.0486 34.8157 58.0725 34.8051 58.0971 34.8052H59.9801C60.0548 34.8052 60.0922 34.8485 60.0922 34.9352V37.224C60.0922 37.3315 60.1378 37.3887 60.2289 37.3956ZM59.5269 35.5867C59.5291 35.5474 59.5177 35.5088 59.4954 35.4792C59.473 35.4497 59.4414 35.4317 59.4076 35.4291L58.6381 35.3714C58.6043 35.3689 58.571 35.382 58.5455 35.408C58.5201 35.4339 58.5045 35.4705 58.5024 35.5098L58.4069 37.2228C58.4047 37.262 58.416 37.3006 58.4384 37.3302C58.4608 37.3597 58.4923 37.3777 58.5261 37.3803L59.2957 37.438C59.3295 37.4405 59.3628 37.4274 59.3882 37.4014C59.4137 37.3755 59.4292 37.3389 59.4314 37.2996L59.5269 35.5867Z" fill="white"/>
<path id="Vector_23" d="M64.9758 36.0406H65.9666C65.9987 36.0406 66.0294 36.0258 66.0521 35.9995C66.0748 35.9731 66.0876 35.9374 66.0876 35.9001V34.9456C66.0876 34.9084 66.1004 34.8726 66.1231 34.8463C66.1458 34.82 66.1765 34.8052 66.2087 34.8052H66.5964C66.6286 34.8052 66.6593 34.82 66.682 34.8463C66.7047 34.8726 66.7175 34.9084 66.7175 34.9456L66.6973 37.8508C66.6973 37.888 66.6846 37.9238 66.6619 37.9501C66.6392 37.9764 66.6084 37.9912 66.5763 37.9912H66.2087C66.1765 37.9912 66.1458 37.9764 66.1231 37.9501C66.1004 37.9238 66.0876 37.888 66.0876 37.8508V36.8312C66.0876 36.794 66.0748 36.7583 66.0521 36.7319C66.0294 36.7056 65.9987 36.6908 65.9666 36.6908H64.978C64.9459 36.6908 64.9151 36.7056 64.8924 36.7319C64.8697 36.7583 64.8569 36.794 64.8569 36.8312L64.8502 37.8508C64.8502 37.888 64.8375 37.9238 64.8148 37.9501C64.7921 37.9764 64.7613 37.9912 64.7292 37.9912H64.375C64.3436 37.9913 64.3135 37.9772 64.2909 37.9519C64.2684 37.9267 64.2551 37.8923 64.2539 37.856L64.1822 34.9508C64.1816 34.9319 64.1843 34.9131 64.1901 34.8955C64.1959 34.8778 64.2047 34.8617 64.216 34.8481C64.2273 34.8345 64.2409 34.8237 64.2559 34.8163C64.2709 34.809 64.287 34.8052 64.3033 34.8052H64.7337C64.7658 34.8052 64.7965 34.82 64.8192 34.8463C64.8419 34.8726 64.8547 34.9084 64.8547 34.9456V35.9001C64.8547 35.9374 64.8675 35.9731 64.8902 35.9995C64.9129 36.0258 64.9436 36.0406 64.9758 36.0406Z" fill="white"/>
<path id="Vector_24" d="M69.4799 37.3182L68.3233 37.3208C68.2816 37.3205 68.2414 37.3382 68.2103 37.3704C68.1792 37.4026 68.1596 37.447 68.1551 37.4951C68.1163 37.8939 67.9153 38.0586 67.5521 37.9892C67.5288 37.9848 67.5067 37.9743 67.4874 37.9584C67.4682 37.9425 67.4523 37.9217 67.441 37.8976C67.4298 37.8735 67.4234 37.8467 67.4225 37.8193C67.4215 37.7919 67.426 37.7646 67.4356 37.7395L68.46 35.0763C68.497 34.9802 68.5571 34.8986 68.6332 34.8412C68.7092 34.7839 68.7979 34.7532 68.8885 34.7529C68.9792 34.7527 69.0681 34.7828 69.1443 34.8397C69.2206 34.8966 69.2811 34.9778 69.3186 35.0737L70.3564 37.7291C70.366 37.7546 70.3707 37.7823 70.37 37.81C70.3694 37.8378 70.3635 37.865 70.3528 37.8897C70.342 37.9143 70.3267 37.9358 70.308 37.9526C70.2892 37.9694 70.2675 37.981 70.2443 37.9866C69.8722 38.0751 69.6712 37.9103 69.6413 37.4925C69.6385 37.4451 69.6203 37.4007 69.5903 37.3684C69.5603 37.336 69.5209 37.3181 69.4799 37.3182ZM68.5205 36.5353C68.5121 36.559 68.5088 36.5846 68.5109 36.6101C68.513 36.6356 68.5204 36.66 68.5326 36.6814C68.5448 36.7027 68.5613 36.7202 68.5807 36.7324C68.6001 36.7446 68.6218 36.751 68.6438 36.7512L69.1482 36.7616C69.1703 36.7621 69.1922 36.7563 69.212 36.7446C69.2317 36.7329 69.2486 36.7158 69.2613 36.6947C69.2739 36.6736 69.2819 36.6492 69.2844 36.6236C69.287 36.5981 69.2841 36.5723 69.276 36.5483L69.0339 35.8253C69.0246 35.7957 69.0077 35.77 68.9856 35.7516C68.9635 35.7333 68.9371 35.7232 68.9099 35.7226C68.8827 35.7221 68.856 35.7311 68.8333 35.7485C68.8106 35.7659 68.793 35.7909 68.7828 35.8201L68.5205 36.5353Z" fill="white"/>
<path id="Vector_25" d="M71.6342 37.2576L71.7037 37.718C71.7086 37.7505 71.7073 37.7838 71.7 37.8157C71.6927 37.8476 71.6796 37.8773 71.6615 37.9027C71.6434 37.9282 71.6208 37.9488 71.5952 37.9631C71.5696 37.9775 71.5416 37.9852 71.5132 37.9859L71.1612 37.9937C71.1428 37.994 71.1245 37.99 71.1074 37.982C71.0903 37.9739 71.0747 37.9619 71.0615 37.9466C71.0484 37.9314 71.0379 37.9132 71.0308 37.8931C71.0237 37.8731 71.02 37.8516 71.02 37.8298V35.0001C71.02 34.8926 71.0663 34.8354 71.159 34.8284C71.836 34.7712 72.3261 34.7695 72.6295 34.8232C73.441 34.9663 73.719 36.3057 73.0823 36.8155C72.7939 37.0478 72.3628 37.1302 71.7889 37.0626C71.7671 37.0602 71.7452 37.0637 71.7247 37.0729C71.7043 37.0821 71.6859 37.0966 71.671 37.1154C71.6561 37.1342 71.645 37.1568 71.6386 37.1815C71.6322 37.2061 71.6307 37.2322 71.6342 37.2576ZM71.6566 35.6165L71.6477 36.2563C71.6474 36.2864 71.6522 36.3162 71.6618 36.3441C71.6715 36.372 71.6858 36.3974 71.7039 36.4189C71.722 36.4404 71.7436 36.4576 71.7674 36.4694C71.7912 36.4812 71.8168 36.4874 71.8427 36.4878L72.3022 36.4956C72.3617 36.4967 72.4207 36.4857 72.4759 36.4633C72.5311 36.4409 72.5814 36.4074 72.6239 36.3649C72.6665 36.3223 72.7003 36.2715 72.7236 36.2154C72.7469 36.1593 72.7591 36.0989 72.7595 36.0378V35.8662C72.7605 35.744 72.7143 35.6261 72.6312 35.5384C72.548 35.4507 72.4346 35.4003 72.3157 35.398L71.8562 35.3902C71.8302 35.3899 71.8045 35.3955 71.7805 35.4066C71.7564 35.4178 71.7345 35.4344 71.716 35.4554C71.6975 35.4764 71.6827 35.5015 71.6725 35.5291C71.6623 35.5567 71.6569 35.5864 71.6566 35.6165Z" fill="white"/>
<path id="Vector_26" d="M79.7104 37.9912H78.1727C78.0979 37.9912 78.0374 38.0259 77.9911 38.0953C77.9418 38.1716 77.9253 38.2687 77.9418 38.3866C77.9529 38.4739 77.9348 38.5628 77.8912 38.6352C77.8477 38.7075 77.7819 38.7578 77.7075 38.7757C77.633 38.7937 77.5554 38.7779 77.4906 38.7317C77.4258 38.6854 77.3787 38.6122 77.359 38.527C77.2289 37.9028 77.3582 37.4277 77.7468 37.1017C77.7686 37.0838 77.7868 37.0604 77.8004 37.0331C77.8139 37.0057 77.8224 36.975 77.8252 36.9431L78.0001 34.9118C78.006 34.8407 78.0404 34.8052 78.1032 34.8052H79.9861C80.0609 34.8052 80.0982 34.8485 80.0982 34.9352V37.1538C80.0982 37.2474 80.1326 37.3176 80.2013 37.3644L80.3224 37.4477C80.3971 37.4997 80.4345 37.5768 80.4345 37.6791V38.3345C80.4387 38.4164 80.4153 38.4969 80.3691 38.559C80.3229 38.6211 80.2577 38.6599 80.1873 38.667C80.1169 38.6741 80.0468 38.649 79.9921 38.5972C79.9374 38.5453 79.9023 38.4706 79.8942 38.3892C79.8853 38.3233 79.8741 38.2409 79.8606 38.1421C79.8557 38.1004 79.8379 38.0622 79.8103 38.0345C79.7827 38.0067 79.7472 37.9914 79.7104 37.9912ZM79.5305 35.5126C79.5315 35.4947 79.5263 35.477 79.5161 35.4636C79.5059 35.4501 79.4915 35.4419 79.4761 35.4407L78.5366 35.3702C78.529 35.3696 78.5213 35.3708 78.5141 35.3737C78.5068 35.3765 78.5001 35.381 78.4944 35.3869C78.4886 35.3928 78.4839 35.3999 78.4805 35.4078C78.4772 35.4158 78.4752 35.4245 78.4747 35.4333L78.3705 37.3021C78.3695 37.32 78.3747 37.3376 78.3849 37.351C78.3951 37.3645 78.4095 37.3727 78.4249 37.3739L79.3644 37.4444C79.3721 37.445 79.3797 37.4438 79.387 37.4409C79.3942 37.4381 79.4009 37.4336 79.4067 37.4277C79.4124 37.4219 79.4171 37.4147 79.4205 37.4068C79.4239 37.3988 79.4259 37.3901 79.4264 37.3813L79.5305 35.5126Z" fill="white"/>
<path id="Vector_27" d="M81.9005 36.0459L82.9002 36.0693C82.9248 36.0698 82.9492 36.0637 82.9714 36.0515C82.9936 36.0393 83.0131 36.0213 83.0283 35.9988C83.0435 35.9764 83.054 35.9502 83.059 35.9223C83.064 35.8943 83.0634 35.8654 83.0572 35.8378C82.9884 35.5309 82.9727 35.2674 83.0101 35.0472C83.0268 34.9511 83.0737 34.8656 83.1416 34.8073C83.2096 34.7491 83.2938 34.7222 83.3779 34.7319C83.462 34.7417 83.5399 34.7873 83.5966 34.8599C83.6534 34.9326 83.6848 35.0271 83.6848 35.1252V37.7833C83.6848 37.915 83.628 37.9827 83.5144 37.9861L83.1737 37.9939C83.0811 37.9957 83.0347 37.9437 83.0347 37.8379L83.0325 36.8652C83.0325 36.8189 83.0169 36.7746 82.9892 36.7419C82.9614 36.7093 82.9238 36.6909 82.8845 36.6909H81.9475C81.8355 36.6909 81.7794 36.7559 81.7794 36.886V37.8613C81.7794 37.948 81.7421 37.9913 81.6673 37.9913H81.2818C81.236 37.9913 81.1921 37.97 81.1597 37.9319C81.1274 37.8939 81.1092 37.8423 81.1092 37.7885L81.1069 34.9353C81.1069 34.8486 81.1443 34.8053 81.219 34.8053H81.6113C81.7234 34.8053 81.7794 34.8703 81.7794 35.0003V35.9028C81.7794 35.9965 81.8198 36.0442 81.9005 36.0459Z" fill="white"/>
<path id="Vector_28" d="M85.4003 35.0641C85.4364 34.9689 85.4955 34.8879 85.5704 34.8309C85.6453 34.7739 85.7329 34.7432 85.8225 34.7427C85.9121 34.7421 85.9999 34.7717 86.0754 34.8278C86.1508 34.8839 86.2106 34.9642 86.2476 35.0589L87.3281 37.8184C87.3351 37.8364 87.3382 37.8562 87.3371 37.876C87.3359 37.8958 87.3305 37.9149 87.3214 37.9317C87.3123 37.9484 87.2997 37.9623 87.2849 37.972C87.27 37.9818 87.2533 37.9871 87.2362 37.9875L86.8416 37.9953C86.8067 37.996 86.7725 37.9844 86.7437 37.9621C86.7148 37.9397 86.6927 37.9077 86.6803 37.8704L86.5256 37.4205C86.5137 37.3861 86.493 37.3568 86.4662 37.3363C86.4394 37.3159 86.4077 37.3053 86.3754 37.306L85.2882 37.3294C85.2524 37.3302 85.2177 37.3433 85.1886 37.3669C85.1594 37.3906 85.1371 37.4237 85.1246 37.4621L85.0058 37.834C84.9759 37.9242 84.9206 37.971 84.8399 37.9745L84.4229 38.0005C84.3258 38.0057 84.2966 37.9563 84.3355 37.8522L85.4003 35.0641ZM85.8486 36.7573H86.0773C86.2297 36.7573 86.2738 36.6775 86.2095 36.518L85.9271 35.8105C85.9168 35.7846 85.9001 35.7627 85.8792 35.7477C85.8583 35.7326 85.834 35.7251 85.8094 35.7259C85.7848 35.7267 85.7609 35.7359 85.7408 35.7524C85.7207 35.7688 85.7052 35.7917 85.6962 35.8183L85.4294 36.5804C85.4235 36.5976 85.421 36.6161 85.4221 36.6346C85.4233 36.6531 85.428 36.671 85.436 36.687C85.444 36.703 85.455 36.7168 85.4683 36.7271C85.4815 36.7375 85.4966 36.7442 85.5124 36.7469C85.5916 36.759 85.6738 36.7633 85.7589 36.7599C85.7888 36.7581 85.8187 36.7573 85.8486 36.7573Z" fill="white"/>
<path id="Vector_29" d="M89.4572 37.403C89.4568 37.2954 89.4228 37.1915 89.3615 37.1105C89.3002 37.0295 89.2158 36.977 89.124 36.9627C89.0322 36.9484 88.9393 36.9733 88.8624 37.0327C88.7856 37.0922 88.7301 37.1822 88.7063 37.2859C88.5867 37.794 88.3013 38.0332 87.85 38.0038C87.7379 37.9951 87.7132 37.9361 87.776 37.8269L88.1526 37.1663C88.1643 37.1443 88.1705 37.1191 88.1705 37.0935C88.169 36.96 88.1093 36.8689 87.9912 36.8204C87.9516 36.8032 87.9155 36.7768 87.885 36.7428C87.8546 36.7088 87.8304 36.668 87.8141 36.6227C87.0946 34.6669 88.9439 34.7813 89.9213 34.8073C90.0229 34.8108 90.0737 34.8715 90.0737 34.9894V37.8165C90.0737 37.9257 90.0259 37.9821 89.9302 37.9856L89.5716 37.9934C89.4953 37.9951 89.4572 37.9518 89.4572 37.8633V37.403ZM89.4729 35.7956C89.4729 35.688 89.4361 35.5848 89.3705 35.5087C89.3049 35.4327 89.216 35.3899 89.1232 35.3899H88.7063C88.6135 35.3899 88.5246 35.4327 88.459 35.5087C88.3934 35.5848 88.3566 35.688 88.3566 35.7956V36.1494C88.3566 36.257 88.3934 36.3602 88.459 36.4363C88.5246 36.5123 88.6135 36.5551 88.7063 36.5551H89.1232C89.216 36.5551 89.3049 36.5123 89.3705 36.4363C89.4361 36.3602 89.4729 36.257 89.4729 36.1494V35.7956Z" fill="white"/>
<path id="Vector_30" d="M98.8849 37.4216C98.5867 38.1525 97.2821 38.0406 96.7015 37.9678C96.6163 37.9557 96.5737 37.9002 96.5737 37.8014V34.9352C96.5737 34.8485 96.6111 34.8052 96.6858 34.8052H98.6786C98.7743 34.8052 98.8206 34.8607 98.8176 34.9716L98.8109 35.1953C98.8091 35.2477 98.79 35.2974 98.7574 35.3337C98.7248 35.3701 98.6813 35.3904 98.636 35.3904H97.3023C97.2275 35.3904 97.1902 35.4337 97.1902 35.5204V35.8949C97.1902 35.999 97.235 36.0493 97.3247 36.0458C98.0084 36.012 99.4475 36.0458 98.8849 37.4216ZM98.2953 36.8475C98.2962 36.8148 98.2916 36.7821 98.2816 36.7514C98.2717 36.7207 98.2566 36.6926 98.2373 36.6686C98.218 36.6447 98.1948 36.6254 98.1691 36.6119C98.1434 36.5983 98.1156 36.5908 98.0873 36.5897L97.4063 36.5635C97.3492 36.5613 97.2938 36.5855 97.2521 36.6307C97.2104 36.676 97.1859 36.7386 97.184 36.8047L97.1745 37.1375C97.1736 37.1702 97.1782 37.2029 97.1882 37.2336C97.1981 37.2643 97.2132 37.2924 97.2325 37.3164C97.2518 37.3403 97.275 37.3596 97.3007 37.3731C97.3264 37.3867 97.3542 37.3942 97.3825 37.3953L98.0635 37.4215C98.1206 37.4237 98.176 37.3995 98.2177 37.3543C98.2594 37.309 98.2839 37.2464 98.2858 37.1803L98.2953 36.8475Z" fill="white"/>
<path id="Vector_31" d="M100.331 37.2069L100.324 37.8571C100.324 37.893 100.311 37.9274 100.29 37.9528C100.268 37.9781 100.238 37.9924 100.207 37.9924H99.8127C99.732 37.9924 99.6909 37.9447 99.6894 37.8493L99.6446 35.0014C99.6431 34.8783 99.6954 34.815 99.8015 34.8115C100.582 34.7881 102.036 34.5332 102.119 35.9143C102.178 36.8688 101.214 37.1471 100.465 37.0665C100.375 37.0578 100.331 37.1046 100.331 37.2069ZM100.326 35.5918V36.2992C100.326 36.3258 100.331 36.352 100.339 36.3765C100.348 36.4009 100.361 36.4231 100.377 36.4418C100.394 36.4604 100.413 36.4751 100.434 36.485C100.455 36.4949 100.478 36.4998 100.501 36.4995L100.889 36.4969C101.037 36.4961 101.179 36.442 101.284 36.3464C101.389 36.2508 101.447 36.1216 101.447 35.9871V35.8935C101.447 35.8269 101.432 35.761 101.403 35.6995C101.375 35.6381 101.333 35.5824 101.281 35.5355C101.229 35.4887 101.167 35.4516 101.099 35.4264C101.031 35.4013 100.958 35.3886 100.884 35.3889L100.496 35.3915C100.451 35.3922 100.408 35.4136 100.376 35.4511C100.344 35.4886 100.326 35.5391 100.326 35.5918Z" fill="white"/>
<path id="Vector_32" d="M103.416 35.0727C103.453 34.9765 103.512 34.8947 103.588 34.8371C103.664 34.7796 103.753 34.7488 103.843 34.7485C103.934 34.7483 104.023 34.7785 104.099 34.8356C104.175 34.8927 104.235 34.9741 104.272 35.0701L105.317 37.7542C105.327 37.7801 105.332 37.8086 105.33 37.8371C105.328 37.8655 105.32 37.8929 105.306 37.9168C105.293 37.9407 105.275 37.9602 105.253 37.9736C105.231 37.9871 105.207 37.9939 105.182 37.9935L104.853 37.9857C104.821 37.9849 104.791 37.9737 104.765 37.9534C104.738 37.9332 104.718 37.9047 104.705 37.8713L104.53 37.4369C104.517 37.4043 104.497 37.3765 104.471 37.3567C104.444 37.3369 104.414 37.3259 104.382 37.3251L103.304 37.3043C103.271 37.3037 103.239 37.3148 103.211 37.3361C103.183 37.3575 103.162 37.3881 103.149 37.4239L103.017 37.8036C102.981 37.9094 102.914 37.9658 102.815 37.9727L102.472 37.9987C102.353 38.0074 102.317 37.9475 102.365 37.8192L103.416 35.0727ZM103.853 36.7425C103.967 36.7754 104.074 36.772 104.174 36.7321C104.25 36.7009 104.271 36.6428 104.236 36.5578L103.943 35.827C103.934 35.8043 103.92 35.785 103.901 35.7715C103.883 35.758 103.862 35.7509 103.841 35.7509C103.819 35.7509 103.798 35.758 103.78 35.7715C103.762 35.785 103.748 35.8043 103.739 35.827L103.472 36.5032C103.424 36.6194 103.453 36.6983 103.56 36.7399C103.621 36.7642 103.676 36.7668 103.725 36.7477C103.767 36.7303 103.81 36.7286 103.853 36.7425Z" fill="white"/>
<path id="Vector_33" d="M114.507 36.3995C114.989 36.8494 114.873 37.5568 114.335 37.8715C113.994 38.0709 113.378 38.0892 112.486 37.9262C112.414 37.9123 112.378 37.8637 112.378 37.7805V34.9924C112.378 34.8762 112.428 34.8164 112.528 34.8129C113.133 34.7843 115.413 34.5164 114.476 36.1862C114.431 36.2677 114.442 36.3388 114.507 36.3995ZM114.037 35.6421C114.037 35.6012 114.03 35.5605 114.017 35.5226C114.003 35.4847 113.984 35.4502 113.959 35.4211C113.934 35.392 113.904 35.3689 113.872 35.3531C113.839 35.3373 113.804 35.3291 113.769 35.3289L113.253 35.3269C113.218 35.3267 113.183 35.3346 113.15 35.3502C113.118 35.3658 113.088 35.3886 113.063 35.4175C113.038 35.4464 113.018 35.4807 113.004 35.5185C112.991 35.5563 112.984 35.5969 112.983 35.6379L112.983 35.7887C112.983 35.8297 112.99 35.8703 113.003 35.9082C113.016 35.9462 113.036 35.9807 113.061 36.0097C113.086 36.0388 113.116 36.0619 113.148 36.0777C113.181 36.0936 113.216 36.1018 113.251 36.1019L113.767 36.104C113.802 36.1041 113.837 36.0962 113.87 36.0807C113.902 36.0651 113.932 36.0422 113.957 36.0134C113.982 35.9845 114.002 35.9502 114.016 35.9123C114.029 35.8745 114.036 35.834 114.037 35.793L114.037 35.6421ZM114.154 36.9013C114.156 36.8352 114.135 36.7709 114.095 36.7228C114.056 36.6747 114.002 36.6466 113.945 36.6448L113.259 36.6226C113.202 36.6207 113.147 36.6453 113.106 36.6908C113.064 36.7363 113.04 36.799 113.038 36.8652L113.032 37.1408C113.03 37.207 113.051 37.2712 113.09 37.3193C113.13 37.3674 113.184 37.3955 113.241 37.3973L113.926 37.4195C113.983 37.4214 114.039 37.3969 114.08 37.3514C114.122 37.3059 114.146 37.2431 114.148 37.1769L114.154 36.9013Z" fill="white"/>
<path id="Vector_34" d="M116.399 34.9983C116.433 34.9089 116.489 34.8331 116.56 34.7798C116.631 34.7266 116.714 34.6982 116.798 34.6982C116.882 34.6982 116.965 34.7266 117.036 34.7798C117.107 34.8331 117.163 34.9089 117.197 34.9983L118.277 37.8046C118.285 37.8243 118.288 37.8459 118.287 37.8673C118.285 37.8888 118.28 37.9094 118.27 37.9275C118.26 37.9455 118.247 37.9604 118.231 37.9707C118.215 37.9811 118.197 37.9865 118.179 37.9867L117.796 37.9945C117.768 37.9945 117.74 37.9849 117.717 37.9669C117.693 37.9489 117.675 37.9232 117.663 37.8931L117.497 37.4613C117.46 37.3608 117.394 37.3113 117.298 37.3131L116.182 37.3261C116.142 37.3267 116.105 37.3449 116.077 37.3769C116.049 37.4089 116.032 37.4522 116.031 37.4977C116.018 37.9104 115.826 38.0734 115.455 37.9867C115.431 37.981 115.409 37.9691 115.389 37.952C115.37 37.9348 115.354 37.9129 115.343 37.8877C115.332 37.8625 115.326 37.8347 115.325 37.8064C115.324 37.7781 115.329 37.7499 115.339 37.724L116.399 34.9983ZM116.426 36.538C116.418 36.5616 116.415 36.5871 116.418 36.6122C116.421 36.6373 116.429 36.6612 116.442 36.6818C116.454 36.7023 116.471 36.719 116.491 36.7302C116.51 36.7414 116.532 36.7469 116.554 36.7461L117.051 36.7279C117.073 36.7269 117.094 36.7199 117.112 36.7075C117.131 36.6951 117.146 36.6777 117.158 36.6567C117.169 36.6357 117.176 36.6119 117.178 36.5871C117.18 36.5623 117.176 36.5375 117.168 36.5146L116.901 35.7942C116.891 35.7657 116.873 35.7416 116.85 35.725C116.828 35.7084 116.801 35.7002 116.775 35.7013C116.748 35.7024 116.722 35.7129 116.701 35.7313C116.679 35.7497 116.663 35.7753 116.655 35.8046L116.426 36.538Z" fill="white"/>
<path id="Vector_35" d="M119.242 35.3956L118.681 35.3878C118.644 35.3871 118.609 35.3698 118.583 35.3396C118.557 35.3095 118.542 35.2688 118.542 35.2265V35.0002C118.542 34.8702 118.599 34.8052 118.711 34.8052H120.82C120.839 34.805 120.858 34.8096 120.876 34.8187C120.893 34.8277 120.909 34.841 120.922 34.8577C120.935 34.8743 120.944 34.894 120.95 34.9155C120.956 34.9369 120.959 34.9596 120.957 34.982L120.934 35.2265C120.93 35.2701 120.913 35.3105 120.885 35.3402C120.857 35.3699 120.82 35.3868 120.782 35.3878L120.143 35.3956C120.105 35.3956 120.068 35.4134 120.042 35.4451C120.015 35.4768 120 35.5198 120 35.5646V37.7962C119.999 37.8392 119.987 37.8809 119.964 37.9144C119.94 37.948 119.908 37.9714 119.872 37.9808C119.58 38.0606 119.432 37.9782 119.426 37.7337C119.408 37.002 119.388 36.2703 119.367 35.5386C119.366 35.4433 119.324 35.3956 119.242 35.3956Z" fill="white"/>
<path id="Vector_36" d="M122.185 36.8156V37.211C122.185 37.341 122.241 37.406 122.353 37.406H123.562C123.657 37.406 123.704 37.4615 123.701 37.5725L123.694 37.7962C123.692 37.8486 123.673 37.8982 123.64 37.9346C123.608 37.971 123.564 37.9913 123.519 37.9912H121.737C121.677 37.9912 121.62 37.9638 121.578 37.9151C121.536 37.8663 121.513 37.8001 121.513 37.7311V34.9352C121.513 34.9007 121.524 34.8677 121.546 34.8433C121.567 34.8189 121.595 34.8052 121.625 34.8052H123.53C123.605 34.8052 123.642 34.8485 123.642 34.9352V35.1953C123.642 35.3253 123.586 35.3904 123.474 35.3904H122.326C122.232 35.3904 122.185 35.445 122.185 35.5542V35.9105C122.185 36.0406 122.241 36.1056 122.353 36.1056H123.362C123.429 36.1056 123.471 36.1438 123.488 36.22C123.526 36.3934 123.495 36.5278 123.393 36.6232C123.329 36.6839 123.231 36.7073 123.1 36.6934C122.835 36.6657 122.571 36.657 122.308 36.6674C122.226 36.6709 122.185 36.7203 122.185 36.8156Z" fill="white"/>
<path id="Vector_37" d="M126.285 35.8507C126.287 35.5438 126.154 35.3904 125.888 35.3904H125.494C125.404 35.3904 125.355 35.4424 125.346 35.5464C125.254 36.553 125.454 37.8612 124.431 38.0719C124.395 38.0789 124.359 38.0743 124.325 38.0587C124.291 38.0431 124.262 38.0171 124.241 37.9834C124.13 37.8135 124.123 37.6505 124.218 37.4945C124.315 37.3358 124.427 37.3618 124.557 37.2318C124.63 37.159 124.67 37.0662 124.678 36.9535L124.792 34.9144C124.794 34.8847 124.805 34.8569 124.824 34.8367C124.843 34.8164 124.867 34.8051 124.893 34.8052H126.781C126.855 34.8052 126.893 34.8485 126.893 34.9352V37.7962C126.893 37.9262 126.837 37.9912 126.725 37.9912H126.442C126.398 37.9912 126.355 37.9704 126.323 37.9333C126.292 37.8963 126.274 37.846 126.274 37.7936L126.285 35.8507Z" fill="white"/>
<path id="Vector_38" d="M128.617 35.8312C129.323 35.8625 130.173 35.7376 130.249 36.882C130.332 38.12 128.621 38.068 127.989 37.9353C127.949 37.9268 127.912 37.9021 127.886 37.8654C127.86 37.8288 127.846 37.7827 127.846 37.7351V35.012C127.846 34.8802 127.902 34.8126 128.016 34.8091L128.319 34.8013C128.414 34.7996 128.462 34.8542 128.462 34.9652V35.6466C128.462 35.7662 128.514 35.8278 128.617 35.8312ZM128.446 36.5023L128.402 37.1785C128.398 37.2412 128.416 37.303 128.451 37.3507C128.486 37.3984 128.536 37.4281 128.59 37.4334L128.872 37.4594C128.962 37.4674 129.051 37.4617 129.135 37.4425C129.219 37.4233 129.297 37.391 129.363 37.3476C129.43 37.3041 129.484 37.2502 129.522 37.1891C129.561 37.128 129.583 37.0607 129.587 36.9912L129.594 36.8976C129.599 36.828 129.586 36.7575 129.556 36.6901C129.526 36.6228 129.48 36.5599 129.42 36.505C129.36 36.4502 129.287 36.4045 129.207 36.3705C129.126 36.3366 129.038 36.3151 128.949 36.3072L128.668 36.2838C128.614 36.2788 128.56 36.2989 128.519 36.3399C128.477 36.3808 128.451 36.4392 128.446 36.5023Z" fill="white"/>
<path id="Vector_39" d="M131.544 36.8417V37.8326C131.543 37.8542 131.539 37.8756 131.532 37.8953C131.524 37.915 131.513 37.9327 131.499 37.9471C131.485 37.9615 131.468 37.9725 131.451 37.9792C131.433 37.9859 131.414 37.9882 131.396 37.986L131.028 37.9444C130.995 37.9406 130.965 37.9228 130.942 37.8945C130.92 37.8662 130.907 37.8293 130.907 37.791L130.871 34.9638C130.871 34.9431 130.874 34.9225 130.881 34.9033C130.887 34.8841 130.897 34.8666 130.91 34.8518C130.922 34.837 130.937 34.8253 130.954 34.8173C130.97 34.8093 130.988 34.8052 131.006 34.8052H131.402C131.438 34.8052 131.472 34.8213 131.497 34.85C131.522 34.8787 131.536 34.9177 131.537 34.9586L131.557 35.8871C131.558 35.9281 131.572 35.9671 131.597 35.9958C131.622 36.0245 131.656 36.0406 131.692 36.0406H132.698C132.734 36.0406 132.768 36.0241 132.793 35.9949C132.818 35.9656 132.833 35.9259 132.833 35.8845V34.9612C132.833 34.9198 132.847 34.8801 132.872 34.8509C132.897 34.8216 132.931 34.8052 132.967 34.8052H133.314C133.332 34.8052 133.35 34.8092 133.366 34.8171C133.382 34.8249 133.397 34.8364 133.41 34.8509C133.422 34.8654 133.432 34.8826 133.439 34.9015C133.446 34.9204 133.449 34.9407 133.449 34.9612V37.8222C133.449 37.8427 133.446 37.863 133.439 37.8819C133.432 37.9008 133.422 37.918 133.41 37.9325C133.397 37.947 133.382 37.9585 133.366 37.9663C133.35 37.9742 133.332 37.9782 133.314 37.9782H132.967C132.931 37.9782 132.897 37.9618 132.872 37.9325C132.847 37.9033 132.833 37.8636 132.833 37.8222V36.8052C132.833 36.7843 132.829 36.7636 132.822 36.7443C132.815 36.725 132.805 36.7076 132.792 36.693C132.779 36.6785 132.763 36.6671 132.746 36.6595C132.73 36.652 132.712 36.6485 132.694 36.6492L131.674 36.6856C131.639 36.6869 131.606 36.704 131.581 36.7331C131.557 36.7622 131.544 36.8011 131.544 36.8417Z" fill="white"/>
<path id="Vector_40" d="M135.208 35.0115C135.243 34.9221 135.299 34.8463 135.37 34.793C135.44 34.7397 135.523 34.7112 135.607 34.7109C135.692 34.7107 135.775 34.7386 135.846 34.7915C135.917 34.8443 135.973 34.9198 136.008 35.0089L137.113 37.836C137.155 37.9435 137.125 37.9964 137.024 37.9946L136.596 37.9868C136.573 37.987 136.551 37.9797 136.532 37.9659C136.513 37.952 136.497 37.9322 136.488 37.9088L136.3 37.4433C136.265 37.3566 136.206 37.315 136.123 37.3184L135.006 37.3522C134.978 37.3529 134.951 37.3649 134.929 37.3862C134.907 37.4075 134.893 37.4369 134.887 37.4693C134.82 37.9149 134.58 38.0839 134.168 37.9764C134.157 37.9738 134.146 37.9683 134.137 37.9602C134.128 37.9522 134.121 37.9418 134.116 37.9298C134.111 37.9178 134.108 37.9046 134.107 37.8911C134.107 37.8775 134.109 37.864 134.114 37.8516L135.208 35.0115ZM135.226 36.5096C135.216 36.5336 135.212 36.5601 135.214 36.5865C135.216 36.6129 135.223 36.6384 135.236 36.6605C135.248 36.6826 135.266 36.7006 135.286 36.7129C135.306 36.7252 135.329 36.7313 135.351 36.7306L135.887 36.7202C135.91 36.72 135.933 36.713 135.952 36.6999C135.972 36.6868 135.989 36.668 136.001 36.6454C136.013 36.6227 136.019 36.5969 136.02 36.5704C136.021 36.544 136.016 36.5176 136.006 36.494L135.728 35.8385C135.717 35.8117 135.699 35.7891 135.677 35.7734C135.656 35.7578 135.63 35.7498 135.604 35.7503C135.579 35.7509 135.554 35.76 135.532 35.7765C135.511 35.7931 135.494 35.8164 135.484 35.8437L135.226 36.5096Z" fill="white"/>
<path id="Vector_41" d="M139.222 37.4449C139.222 37.3557 139.197 37.2689 139.151 37.1973C139.105 37.1256 139.041 37.0729 138.967 37.047C138.894 37.021 138.815 37.0232 138.743 37.0532C138.671 37.0831 138.61 37.1393 138.567 37.2134L138.198 37.8584C138.174 37.8993 138.141 37.9327 138.103 37.9558C138.065 37.9789 138.023 37.991 137.98 37.9911H137.608C137.589 37.9908 137.57 37.9844 137.554 37.9725C137.538 37.9606 137.525 37.9437 137.516 37.9238C137.508 37.9038 137.505 37.8815 137.507 37.8594C137.509 37.8373 137.516 37.8162 137.527 37.7986L137.926 37.1952C137.949 37.1608 137.96 37.1177 137.957 37.074C137.955 37.0304 137.938 36.9893 137.911 36.9585C137.689 36.7062 137.46 36.4982 137.44 36.1158C137.361 34.5371 138.879 34.7894 139.729 34.8076C139.802 34.8093 139.838 34.8527 139.838 34.9376V37.8298C139.838 37.9373 139.791 37.9911 139.697 37.9911H139.363C139.269 37.9911 139.222 37.9364 139.222 37.8272V37.4449ZM139.213 36.3265L139.222 35.6347C139.222 35.6029 139.217 35.5714 139.207 35.5419C139.197 35.5124 139.182 35.4856 139.163 35.4629C139.143 35.4402 139.121 35.4221 139.095 35.4096C139.07 35.3971 139.043 35.3905 139.016 35.3902L138.664 35.385C138.591 35.3838 138.518 35.3965 138.45 35.4224C138.382 35.4482 138.321 35.4868 138.268 35.5359C138.216 35.5849 138.174 35.6435 138.146 35.7082C138.117 35.7729 138.102 35.8425 138.101 35.913V36.017C138.1 36.1589 138.157 36.2957 138.26 36.3976C138.363 36.4995 138.503 36.5581 138.65 36.5606L139.002 36.5658C139.03 36.5661 139.057 36.5602 139.082 36.5484C139.108 36.5365 139.131 36.519 139.15 36.4968C139.17 36.4746 139.186 36.4481 139.196 36.4189C139.207 36.3897 139.213 36.3583 139.213 36.3265Z" fill="white"/>
<path id="Vector_42" d="M143.436 37.6557C143.437 37.7047 143.429 37.7533 143.412 37.7984C143.396 37.8434 143.372 37.884 143.341 37.9174C143.31 37.9507 143.274 37.9762 143.234 37.9921C143.195 38.0079 143.153 38.0138 143.111 38.0094C142.896 37.9886 142.786 37.9115 142.781 37.778C142.756 36.8278 142.746 35.8811 142.752 34.9378C142.752 34.9026 142.764 34.8689 142.786 34.844C142.807 34.8191 142.836 34.8052 142.867 34.8052H145.162C145.237 34.8052 145.274 34.8485 145.274 34.9352V37.83C145.274 37.9409 145.227 37.9956 145.133 37.9938L144.763 37.986C144.681 37.9843 144.64 37.9357 144.642 37.8404L144.664 35.5906C144.665 35.5645 144.66 35.5385 144.652 35.5142C144.644 35.4899 144.631 35.4678 144.615 35.4492C144.599 35.4305 144.58 35.4158 144.56 35.4057C144.539 35.3956 144.517 35.3904 144.494 35.3904H143.521C143.504 35.3904 143.488 35.3942 143.473 35.4017C143.457 35.4092 143.443 35.4201 143.432 35.4339C143.42 35.4477 143.411 35.4641 143.404 35.4821C143.398 35.5001 143.395 35.5193 143.396 35.5386L143.436 37.6557Z" fill="white"/>
<path id="Vector_43" d="M147.854 35.3904H147.19C147.102 35.3904 147.06 35.4415 147.063 35.5438C147.09 36.3735 147.139 37.8716 146.224 38.0667C146.156 38.0804 146.086 38.0662 146.026 38.0264C145.966 37.9867 145.92 37.9239 145.896 37.8489C145.872 37.7739 145.871 37.6914 145.894 37.6158C145.916 37.5401 145.961 37.4761 146.02 37.4346C146.708 36.9665 146.455 35.7623 146.525 34.9586C146.529 34.9164 146.546 34.8773 146.573 34.8489C146.599 34.8206 146.634 34.805 146.67 34.8052H148.576C148.606 34.8052 148.634 34.8185 148.656 34.8423C148.677 34.8662 148.689 34.8986 148.69 34.9326C148.705 35.8793 148.693 36.8122 148.654 37.7311C148.644 37.9982 148.467 38.0771 148.123 37.9678C148.091 37.9584 148.063 37.9366 148.043 37.9059C148.023 37.8753 148.012 37.8375 148.013 37.7988L148.033 35.6036C148.035 35.4615 147.975 35.3904 147.854 35.3904Z" fill="white"/>
<path id="Vector_44" d="M150.43 34.9984C150.465 34.9105 150.521 34.8361 150.591 34.784C150.661 34.7319 150.743 34.7043 150.826 34.7046C150.91 34.7049 150.991 34.733 151.061 34.7855C151.131 34.8381 151.187 34.9129 151.221 35.001L152.306 37.8074C152.314 37.8277 152.318 37.85 152.316 37.8722C152.315 37.8944 152.308 37.9158 152.298 37.9345C152.287 37.9532 152.273 37.9684 152.256 37.979C152.239 37.9895 152.22 37.9949 152.201 37.9946L151.809 37.9868C151.773 37.986 151.738 37.972 151.709 37.9469C151.68 37.9217 151.658 37.8866 151.647 37.8464L151.537 37.4458C151.525 37.4001 151.5 37.3601 151.466 37.332C151.432 37.3039 151.391 37.2891 151.349 37.2898L150.289 37.3158C150.24 37.3173 150.193 37.3383 150.156 37.3752C150.119 37.4121 150.094 37.4628 150.085 37.5187C150.041 37.7874 149.908 37.9469 149.684 37.9972C149.639 38.0072 149.592 38.0027 149.55 37.9842C149.507 37.9657 149.469 37.9339 149.441 37.8923C149.413 37.8507 149.395 37.8008 149.389 37.7482C149.384 37.6956 149.391 37.6423 149.41 37.5941L150.43 34.9984ZM150.432 36.5512C150.425 36.5748 150.423 36.6001 150.426 36.6249C150.429 36.6497 150.437 36.6733 150.45 36.6937C150.462 36.7141 150.479 36.7307 150.498 36.7421C150.517 36.7535 150.538 36.7594 150.56 36.7592L151.049 36.754C151.07 36.7535 151.091 36.747 151.11 36.7352C151.129 36.7233 151.145 36.7063 151.157 36.6857C151.169 36.665 151.177 36.6413 151.18 36.6166C151.182 36.5918 151.18 36.5667 151.172 36.5433L150.921 35.7709C150.911 35.7416 150.893 35.7167 150.87 35.6993C150.848 35.6819 150.821 35.6729 150.794 35.6734C150.767 35.674 150.74 35.6841 150.718 35.7024C150.696 35.7208 150.679 35.7464 150.67 35.7761L150.432 36.5512Z" fill="white"/>
<path id="Vector_45" d="M154.065 35.5126L154.076 37.869C154.076 37.9014 154.065 37.9325 154.045 37.9554C154.026 37.9783 153.999 37.9912 153.971 37.9912H153.511C153.483 37.9912 153.457 37.9783 153.437 37.9554C153.417 37.9325 153.406 37.9014 153.406 37.869L153.395 35.5126C153.395 35.4802 153.384 35.4491 153.364 35.4262C153.344 35.4032 153.317 35.3904 153.289 35.3904H152.664C152.636 35.3904 152.609 35.3775 152.589 35.3546C152.57 35.3316 152.559 35.3005 152.559 35.2681V34.9274C152.559 34.895 152.57 34.8639 152.589 34.841C152.609 34.8181 152.636 34.8052 152.664 34.8052H154.825C154.851 34.8056 154.875 34.817 154.894 34.8371C154.913 34.8572 154.925 34.8847 154.928 34.9144L154.959 35.2551C154.961 35.2722 154.959 35.2895 154.955 35.3059C154.95 35.3223 154.943 35.3373 154.933 35.3501C154.923 35.3629 154.911 35.3731 154.897 35.38C154.884 35.3869 154.869 35.3905 154.854 35.3904H154.17C154.142 35.3904 154.116 35.4032 154.096 35.4262C154.076 35.4491 154.065 35.4802 154.065 35.5126Z" fill="white"/>
<path id="Vector_46" d="M163.711 37.4064V37.8173C163.711 37.9266 163.663 37.9829 163.568 37.9864L163.238 37.9942C163.143 37.9959 163.095 37.9413 163.095 37.8303V34.9928C163.095 34.8784 163.144 34.8185 163.243 34.8133C163.964 34.7769 165.231 34.5741 165.433 35.63C165.659 36.8134 164.836 37.0865 164 37.0761C163.808 37.0744 163.711 37.1845 163.711 37.4064ZM163.711 35.539L163.707 36.34C163.707 36.3807 163.721 36.4198 163.745 36.4486C163.77 36.4773 163.804 36.4935 163.839 36.4935L164.305 36.4961C164.373 36.4965 164.441 36.4833 164.504 36.4573C164.567 36.4314 164.624 36.3932 164.672 36.3449C164.72 36.2966 164.759 36.2391 164.785 36.1758C164.811 36.1125 164.825 36.0446 164.825 35.9759V35.9135C164.826 35.7749 164.772 35.6417 164.675 35.5431C164.578 35.4446 164.447 35.3889 164.31 35.3881L163.843 35.3855C163.826 35.3855 163.809 35.3895 163.793 35.3972C163.777 35.4049 163.762 35.4162 163.75 35.4305C163.738 35.4447 163.728 35.4616 163.721 35.4803C163.715 35.4989 163.711 35.5188 163.711 35.539Z" fill="white"/>
<path id="Vector_47" d="M168.649 36.5072C168.648 36.479 168.64 36.4519 168.625 36.4298C168.61 36.4078 168.589 36.3921 168.565 36.3851C168.542 36.378 168.517 36.38 168.494 36.3908C168.472 36.4016 168.453 36.4205 168.441 36.4447L167.831 37.6437C167.82 37.6647 167.805 37.6822 167.787 37.6947C167.769 37.7072 167.748 37.7143 167.727 37.7153C167.706 37.7164 167.685 37.7113 167.666 37.7006C167.647 37.69 167.63 37.674 167.618 37.6541L166.894 36.4785C166.883 36.4618 166.868 36.4494 166.85 36.4432C166.833 36.437 166.814 36.4371 166.797 36.4437C166.78 36.4503 166.765 36.4629 166.754 36.4799C166.743 36.4969 166.737 36.5173 166.737 36.5384V37.8284C166.737 37.9376 166.691 37.9922 166.598 37.9922H166.262C166.168 37.9922 166.121 37.9376 166.121 37.8284V35.1235C166.121 35.0357 166.146 34.9504 166.192 34.8807C166.238 34.811 166.303 34.761 166.376 34.7384C166.449 34.7159 166.526 34.722 166.596 34.7559C166.665 34.7898 166.723 34.8496 166.759 34.9258L167.611 36.6632C167.619 36.6795 167.631 36.6931 167.645 36.7026C167.659 36.7121 167.675 36.7172 167.691 36.7175C167.708 36.7177 167.724 36.7131 167.738 36.7041C167.752 36.695 167.764 36.6818 167.773 36.6658L168.672 34.8894C168.707 34.8208 168.761 34.7675 168.825 34.7376C168.888 34.7077 168.959 34.7028 169.026 34.7237C169.092 34.7446 169.151 34.7902 169.193 34.8534C169.235 34.9167 169.258 34.9941 169.259 35.0741V37.7972C169.259 37.9272 169.203 37.9922 169.091 37.9922H168.802C168.719 37.9922 168.678 37.9446 168.676 37.8492L168.649 36.5072Z" fill="white"/>
<path id="Vector_48" d="M171.947 37.279C171.469 37.3883 170.635 37.0502 170.606 37.8226C170.605 37.8663 170.589 37.9076 170.562 37.938C170.536 37.9685 170.5 37.9858 170.463 37.9865L170.048 37.9943C170.029 37.9943 170.01 37.9888 169.992 37.9782C169.975 37.9676 169.961 37.9523 169.95 37.9337C169.939 37.915 169.933 37.8937 169.931 37.8716C169.929 37.8494 169.933 37.8272 169.941 37.807L170.987 35.0683C171.023 34.9743 171.082 34.8944 171.156 34.8381C171.23 34.7818 171.317 34.7515 171.405 34.751C171.494 34.7504 171.581 34.7796 171.655 34.835C171.73 34.8903 171.789 34.9696 171.826 35.0631L172.888 37.755C172.93 37.8608 172.902 37.9284 172.803 37.9579C172.4 38.0758 172.172 37.898 172.119 37.4247C172.117 37.4014 172.11 37.3789 172.1 37.3587C172.09 37.3385 172.076 37.3209 172.06 37.3072C172.044 37.2935 172.026 37.2839 172.006 37.2791C171.986 37.2742 171.966 37.2742 171.947 37.279ZM171.023 36.5742C171.016 36.5963 171.014 36.6201 171.017 36.6435C171.02 36.6668 171.027 36.689 171.039 36.7081C171.051 36.7271 171.067 36.7424 171.086 36.7527C171.104 36.7629 171.124 36.7677 171.144 36.7667L171.696 36.7433C171.716 36.7424 171.736 36.7358 171.753 36.7239C171.771 36.7121 171.786 36.6953 171.796 36.6753C171.807 36.6552 171.813 36.6324 171.814 36.6088C171.816 36.5853 171.812 36.5618 171.803 36.5404L171.503 35.7965C171.493 35.7713 171.476 35.7501 171.455 35.7357C171.435 35.7212 171.411 35.7141 171.387 35.7152C171.363 35.7163 171.339 35.7256 171.32 35.7419C171.3 35.7582 171.285 35.7808 171.277 35.8069L171.023 36.5742Z" fill="white"/>
</g>
<defs>
<clipPath id="clip0_1_3642">
<rect width="173.198" height="39.749" fill="white"/>
</clipPath>
</defs>
</svg>
