<svg width="102" height="117" viewBox="0 0 102 117" fill="none" xmlns="http://www.w3.org/2000/svg">
<path id="Vector" d="M68.2881 57.8473C78.816 67.309 82.1734 78.8054 78.3601 92.3365C72.7133 112.347 49.5997 120.879 30.4139 115.348C1.79253 107.095 -7.6431 73.9742 8.02443 50.4751C16.8456 37.2426 33.1056 31.4179 40.208 16.4014C42.4364 11.6921 44.2992 6.83703 45.7962 1.83631C45.8693 1.59272 46.0108 1.39451 46.2204 1.24167C48.5025 -0.413299 53.5129 -0.828832 54.6101 2.62439C57.5871 12.0384 60.8639 20.3204 66.7374 26.3814C72.1209 31.9266 79.2671 37.393 83.8679 41.4767C101.591 57.2168 107.252 82.6216 94.8395 103.233C92.3599 107.353 83.5533 101.514 85.7843 98.2901C94.6055 85.5232 91.6797 67.5263 83.2608 55.5332C73.5033 41.6272 56.5631 35.6521 51.1723 18.257C51.0943 18.0134 50.9407 17.8391 50.7115 17.734C49.8265 17.3328 49.1535 17.8272 48.9048 18.7012C43.8798 36.1822 24.577 43.06 15.69 57.224C3.74548 76.2668 12.9983 102.338 36.1704 107.296C47.1055 109.638 59.0207 105.82 65.6769 97.0005C74.1762 85.7381 70.9871 66.9603 56.8044 61.5727C53.391 60.2736 50.1946 59.9416 47.2152 60.5769C34.9269 63.2134 30.5383 78.8173 43.6677 84.1046C47.8442 85.7883 50.5287 84.7136 50.0678 90.9609C49.8411 94.0416 48.1368 94.6076 45.3135 94.1706C33.8956 92.3938 26.3983 85.2796 26.3178 73.8166C26.1496 52.1444 53.2204 44.3066 68.2881 57.8473Z" fill="#45167A" fill-opacity="0.7"/>
</svg>
