<svg width="223" height="197" viewBox="0 0 223 197" fill="none" xmlns="http://www.w3.org/2000/svg">
<path d="M120.995 55.8094C144.577 40.8717 168.218 40.6221 191.918 55.0606C226.962 76.427 230.905 124.824 210.196 158.281C179.299 208.191 111.316 208.461 74.9624 166.224C54.4907 142.443 52.0553 108.492 27.2788 87.0219C19.5091 80.2866 11.2681 74.1677 2.55595 68.6652C2.1317 68.3967 1.82997 68.0229 1.65079 67.5437C-0.283259 62.3328 1.58861 52.6052 8.73687 52.3619C28.2166 51.7254 45.7035 49.9172 60.3474 42C73.7502 34.738 87.9397 24.0896 98.148 17.5344C137.489 -7.71199 188.797 -4.92866 221.391 29.5951C227.906 36.4928 212.126 50.0932 207.181 44.1441C187.595 20.6108 151.824 16.5809 124.55 26.1695C92.9276 37.2794 72.5677 66.2395 36.6317 67.2068C36.1271 67.2252 35.7141 67.4238 35.3925 67.8027C34.1595 69.2684 34.7419 70.8083 36.2715 71.7455C66.8374 90.5859 69.6585 130.871 91.866 155.273C121.725 188.073 176.208 184.397 197.945 143.072C208.208 123.572 207.278 98.9317 194.047 81.6077C177.15 59.486 139.755 55.54 121.977 79.5809C117.694 85.3656 115.364 91.2535 114.989 97.2446C113.473 121.963 140.808 138.597 157.836 116.501C163.256 109.473 162.639 103.808 174.272 108.008C180.008 110.078 180.179 113.613 177.848 118.737C168.404 139.454 150.895 149.892 129.059 143.942C87.7656 132.724 87.2461 77.1891 120.995 55.8094Z" fill="#45167A" fill-opacity="0.7"/>
</svg>
