<svg width="56" height="56" viewBox="0 0 56 56" fill="none" xmlns="http://www.w3.org/2000/svg">
<g id="icon">
<rect width="56" height="56" rx="28" fill="#45167A"/>
<path id="Vector" d="M33.1351 27.3047C36.2622 30.1352 37.2594 33.5743 36.1268 37.622C34.4495 43.6079 27.5841 46.1605 21.8853 44.5059C13.3839 42.037 10.5813 32.129 15.235 25.0994C17.8551 21.1409 22.6848 19.3985 24.7944 14.9064C25.4564 13.4976 26.0097 12.0453 26.4543 10.5493C26.476 10.4765 26.518 10.4172 26.5803 10.3714C27.2582 9.87636 28.7464 9.75206 29.0723 10.7851C29.9566 13.6012 30.9299 16.0787 32.6745 17.8919C34.2735 19.5507 36.3962 21.1859 37.7627 22.4076C43.027 27.1161 44.7086 34.7159 41.0216 40.8818C40.2851 42.1141 37.6693 40.3674 38.332 39.403C40.9521 35.5839 40.0831 30.2002 37.5824 26.6125C34.6841 22.4526 29.6524 20.6652 28.0512 15.4615C28.028 15.3886 27.9824 15.3365 27.9143 15.305C27.6514 15.185 27.4515 15.3329 27.3777 15.5944C25.8851 20.8237 20.1516 22.8812 17.5119 27.1183C13.964 32.8149 16.7124 40.6139 23.5952 42.097C26.8432 42.7978 30.3824 41.6555 32.3595 39.0172C34.884 35.6482 33.9368 30.0309 29.7241 28.4192C28.7102 28.0306 27.7608 27.9313 26.8758 28.1213C23.2258 28.91 21.9223 33.5778 25.8221 35.1595C27.0626 35.6632 27.86 35.3417 27.7231 37.2105C27.6558 38.1321 27.1496 38.3014 26.3109 38.1707C22.9195 37.6392 20.6926 35.511 20.6687 32.0819C20.6187 25.5988 28.6595 23.2541 33.1351 27.3047Z" fill="white"/>
</g>
</svg>
