<svg width="48" height="48" viewBox="0 0 48 48" fill="none" xmlns="http://www.w3.org/2000/svg">
<circle cx="24" cy="24" r="22.5" stroke="#6236FF" stroke-opacity="0.8" stroke-width="3"/>
<path d="M31.5 14.25H18.75C17.9544 14.25 17.1913 14.5661 16.6287 15.1287C16.0661 15.6913 15.75 16.4544 15.75 17.25V33C15.75 33.1989 15.829 33.3897 15.9697 33.5303C16.1103 33.671 16.3011 33.75 16.5 33.75H30C30.1989 33.75 30.3897 33.671 30.5303 33.5303C30.671 33.3897 30.75 33.1989 30.75 33C30.75 32.8011 30.671 32.6103 30.5303 32.4697C30.3897 32.329 30.1989 32.25 30 32.25H17.25C17.25 31.8522 17.408 31.4706 17.6893 31.1893C17.9706 30.908 18.3522 30.75 18.75 30.75H31.5C31.6989 30.75 31.8897 30.671 32.0303 30.5303C32.171 30.3897 32.25 30.1989 32.25 30V15C32.25 14.8011 32.171 14.6103 32.0303 14.4697C31.8897 14.329 31.6989 14.25 31.5 14.25ZM30.75 29.25H18.75C18.2233 29.2493 17.7057 29.388 17.25 29.6522V17.25C17.25 16.8522 17.408 16.4706 17.6893 16.1893C17.9706 15.908 18.3522 15.75 18.75 15.75H30.75V29.25Z" fill="#6337FF"/>
</svg>
