<svg width="1400" height="398" viewBox="0 0 1400 398" fill="none" xmlns="http://www.w3.org/2000/svg">
<g opacity="0.2">
<path d="M1940.62 625.986C1923.75 569.73 1827.43 536.138 1734.84 529.629C1642.25 523.12 1547.7 535.906 1453.93 535.906C1202.84 535.79 966.064 433.388 883.87 289.259C857.584 243.114 846.01 193.832 820.312 147.455C794.614 101.194 751.065 55.9791 680.249 34.0111C578.439 2.2794 450.93 26.6883 348.139 62.1394C245.348 97.5905 149.226 144.549 35.4494 160.821C-114.03 182.208 -269.59 145.362 -383.955 86.1997C-498.32 27.037 -579.141 -52.5827 -658 -130.924" stroke="#FF4DC4" stroke-miterlimit="10"/>
<path d="M1946.31 620.523C1927.67 564.499 1831.75 531.024 1738.96 524.282C1698.75 521.376 1658.34 522.074 1617.73 524.05C1564.37 526.607 1511.01 531.14 1458.05 531.837C1349.96 533.232 1244.42 516.843 1151.83 484.996C1080.23 460.354 1016.67 427.925 965.868 388.987C929.577 361.323 900.544 330.173 880.339 296.349C871.315 281.239 863.861 265.664 856.995 249.972C843.067 218.124 831.69 185.811 813.642 155.01C793.241 120.023 762.247 86.1995 716.344 63.1854C702.023 55.9789 686.526 49.8186 669.46 44.9368C598.055 24.596 515.469 31.57 436.414 48.8887C402.281 56.3276 368.736 65.7425 337.546 75.7385C302.628 87.0132 268.495 99.1015 234.558 110.725C167.862 133.506 101.753 154.545 30.3487 162.1C-16.1428 167.098 -61.8495 165.703 -107.36 159.775C-199.362 147.571 -289.991 115.025 -365.515 73.4139C-386.113 62.023 -405.926 49.9348 -425.15 37.4979C-510.09 -18.0616 -581.103 -82.2223 -651.134 -142.896" stroke="#F552C5" stroke-miterlimit="10"/>
<path d="M1951.8 615.06C1931.4 559.385 1835.87 525.909 1742.88 518.935C1702.67 515.913 1662.06 516.611 1621.26 518.703C1567.9 521.493 1514.74 526.491 1461.58 527.885C1353.69 530.791 1248.54 516.959 1154.97 486.506C1082.59 462.911 1018.05 431.993 965.28 394.566C927.616 367.716 897.602 337.031 876.416 303.439C867 288.445 859.153 272.87 852.091 257.178C837.575 225.447 825.609 193.018 806.777 162.448C785.395 127.695 753.42 94.6844 705.947 72.8325C691.235 66.091 675.542 60.2794 658.475 55.8625C586.678 37.3815 505.269 46.0989 426.41 63.4177C392.081 70.9728 358.34 79.9228 326.953 89.3377C291.643 99.7986 257.118 110.957 223.377 121.069C156.877 141.178 92.7302 158.961 25.4451 163.378C-18.1039 166.284 -59.8874 162.913 -101.671 155.242C-186.415 139.55 -272.532 103.983 -346.683 60.6281C-367.084 48.656 -386.701 36.2191 -405.925 23.4334C-491.65 -33.7533 -567.959 -97.449 -643.483 -154.752" stroke="#EB57C7" stroke-miterlimit="10"/>
<path d="M1957.49 609.481C1935.32 554.154 1840.38 520.563 1747.2 513.473C1706.99 510.451 1666.18 511.032 1625.38 513.24C1572.02 516.146 1518.86 521.609 1465.9 523.701C1358.2 528.002 1253.25 516.96 1158.7 487.785C1085.73 465.236 1019.81 435.945 965.279 399.913C926.046 373.993 895.052 343.772 873.081 310.413C863.273 295.536 855.23 280.077 847.579 264.385C832.474 232.653 819.723 200.224 800.303 169.888C778.136 135.366 744.984 103.17 696.138 82.364C681.034 75.9712 665.34 70.6245 648.078 66.6725C576.084 50.0512 495.656 60.5122 416.797 77.8309C382.468 85.386 348.531 94.1035 316.556 102.821C280.854 112.585 246.132 122.464 212.391 131.414C146.087 148.849 83.5099 163.379 20.5404 164.541C-20.2623 165.354 -57.73 160.008 -95.7863 150.709C-173.272 131.763 -254.878 93.0575 -327.655 47.7266C-347.664 35.2896 -367.281 22.2715 -386.702 9.13713C-473.211 -49.7931 -555.012 -112.908 -635.833 -166.84" stroke="#E15DC8" stroke-miterlimit="10"/>
<path d="M1963.18 604.019C1939.25 548.924 1844.69 515.449 1751.32 508.126C1710.91 504.988 1670.11 505.569 1629.3 508.01C1575.95 511.148 1522.78 516.96 1470.02 519.866C1362.52 525.561 1257.76 517.193 1162.43 489.413C1088.67 467.91 1021.58 440.246 965.279 405.609C924.477 380.619 892.501 350.863 869.746 317.736C859.545 302.859 851.11 287.516 843.264 271.824C827.57 240.209 814.231 207.664 793.83 177.559C770.682 143.387 736.745 111.771 686.134 92.2441C670.833 86.3162 654.748 81.3182 637.681 77.8312C565.296 63.0696 486.044 75.2741 407.381 92.7091C373.052 100.38 338.723 108.633 306.552 116.769C270.653 125.835 235.343 134.669 201.799 142.108C135.69 156.754 74.6826 168.144 16.0288 166.168C-22.0276 164.89 -55.1798 157.567 -89.7051 146.525C-159.933 124.092 -236.83 82.4805 -308.627 35.2899C-328.244 22.2718 -347.86 8.90496 -367.477 -4.57809C-454.771 -65.1356 -541.869 -127.669 -628.183 -178.347" stroke="#D762CA" stroke-miterlimit="10"/>
<path d="M1968.67 598.555C1943.17 543.809 1848.81 510.334 1755.24 502.779C1714.83 499.524 1673.83 500.106 1633.03 502.663C1579.67 505.917 1526.51 512.31 1473.94 515.797C1366.64 523.004 1262.08 517.192 1165.76 490.807C1091.22 470.35 1023.15 444.197 964.887 411.071C922.515 386.895 889.755 357.72 866.019 324.71C855.426 309.948 846.598 294.605 838.556 278.914C822.078 247.299 808.15 214.753 787.16 184.881C763.228 150.941 728.114 120.139 675.934 101.658C660.24 96.0792 644.155 91.5461 626.892 88.5241C554.31 75.6222 476.04 89.4539 397.377 107.005C362.852 114.677 328.326 122.697 295.763 130.136C259.472 138.504 223.966 146.176 190.421 152.336C124.509 164.308 65.0704 172.444 10.7323 167.214C-24.7739 163.843 -53.4144 154.544 -84.4087 141.759C-147.378 115.955 -219.763 71.2053 -290.187 22.155C-309.608 8.55567 -329.028 -5.27607 -348.645 -19.1078C-436.724 -81.4088 -529.118 -143.361 -621.12 -190.668" stroke="#CD67CB" stroke-miterlimit="10"/>
<path d="M1974.36 592.976C1947.09 538.579 1853.13 504.988 1759.36 497.432C1718.95 494.178 1677.76 494.643 1636.95 497.316C1583.4 500.803 1530.44 507.545 1477.86 511.729C1370.76 520.33 1266.39 517.308 1169.29 492.202C1093.96 472.791 1024.72 448.266 964.69 416.534C920.749 393.287 887.008 364.578 862.488 331.8C851.698 317.155 842.479 301.928 833.847 286.237C816.781 254.621 802.264 222.076 780.49 192.437C755.773 158.729 719.678 128.625 665.732 111.422C649.647 106.308 633.365 102.123 616.102 99.5663C543.128 88.5241 466.035 104.099 387.372 121.651C352.846 129.322 317.929 136.993 285.169 143.851C248.486 151.523 212.784 158.032 179.043 162.797C113.523 172.096 55.0655 176.978 5.43534 168.609C-27.5207 163.03 -51.8454 151.755 -79.1126 137.458C-134.824 108.284 -202.698 60.512 -271.945 9.60184C-290.973 -4.46237 -310.393 -18.7591 -330.206 -32.9395C-419.069 -96.8678 -516.956 -158.355 -614.255 -202.407" stroke="#C36CCD" stroke-miterlimit="10"/>
<path d="M1979.85 587.513C1950.82 533.465 1857.25 499.874 1763.48 492.086C1722.87 488.715 1681.68 489.18 1640.68 491.97C1587.13 495.573 1534.36 502.779 1481.79 507.777C1374.88 517.89 1270.71 517.425 1172.82 493.713C1096.71 475.348 1026.29 452.45 964.691 422.114C919.18 399.797 884.459 371.552 859.153 339.007C847.972 324.478 838.359 309.251 829.532 293.56C811.877 262.061 796.772 229.399 774.213 199.992C748.515 166.517 711.636 137.226 655.924 121.07C639.643 116.304 623.165 112.585 605.706 110.376C532.536 101.194 456.423 118.513 377.956 136.064C343.235 143.851 308.121 151.174 275.165 157.334C238.09 164.308 201.995 169.655 168.45 173.142C103.127 179.767 46.0424 181.162 1.12028 169.888C-29.4817 162.216 -49.0985 148.966 -72.8347 132.926C-121.288 100.264 -184.453 49.5863 -252.523 -3.29976C-271.355 -17.9451 -290.58 -32.7067 -310.589 -47.2359C-400.237 -112.908 -503.421 -173.698 -606.212 -214.495" stroke="#B972CE" stroke-miterlimit="10"/>
<path d="M1985.54 582.05C1954.74 528.234 1861.56 494.759 1767.6 486.739C1726.99 483.252 1685.6 483.717 1644.6 486.623C1591.05 490.459 1538.28 498.014 1485.91 503.709C1379.19 515.216 1275.22 517.425 1176.35 495.108C1099.46 477.789 1027.86 456.519 964.494 427.576C917.414 406.073 881.908 378.41 855.622 345.981C844.048 331.568 834.24 316.341 825.02 300.65C806.777 269.151 790.887 236.489 767.739 207.315C741.257 174.072 703.2 145.479 646.116 130.601C629.442 126.3 612.767 122.929 595.309 121.186C521.746 113.863 447.007 132.925 368.344 150.477C333.622 158.264 298.312 165.238 264.768 170.817C227.3 177.094 191.009 181.395 157.465 183.371C92.3374 187.323 36.43 185.23 -3.78416 170.934C-32.0322 160.938 -46.9409 145.827 -67.1461 128.276C-108.341 92.1276 -166.995 38.5441 -233.888 -16.2017C-252.327 -31.312 -271.552 -46.5386 -291.561 -61.5327C-381.994 -128.832 -490.474 -189.157 -598.758 -226.584" stroke="#AF77CF" stroke-miterlimit="10"/>
<path d="M1991.03 576.471C1958.47 523.004 1865.68 489.412 1771.52 481.276C1730.92 477.789 1689.53 478.138 1648.33 481.16C1594.78 485.112 1542.01 493.248 1489.83 499.641C1383.31 512.659 1279.73 517.541 1179.89 496.503C1102.2 480.23 1029.43 460.587 964.298 433.039C915.649 412.466 879.162 385.268 852.091 353.071C840.125 338.774 829.924 323.664 820.312 307.973C801.284 276.59 785.002 243.812 760.873 214.87C733.41 181.86 694.569 153.964 635.719 140.364C618.849 136.412 601.978 133.623 584.323 132.228C510.565 126.765 436.806 147.571 358.143 165.122C323.226 172.91 287.719 179.651 253.979 184.533C216.119 189.996 179.632 193.25 146.087 193.948C81.3521 195.226 26.4255 189.415 -9.08065 172.445C-34.9747 160.124 -45.1752 143.27 -61.8494 123.975C-95.7862 84.4562 -149.928 27.7344 -215.448 -28.7549C-233.495 -44.4463 -252.72 -60.1379 -272.925 -75.3644C-364.142 -144.291 -477.919 -204.151 -591.695 -238.207" stroke="#A57CD1" stroke-miterlimit="10"/>
<path d="M1996.72 571.008C1962.59 517.89 1870 484.298 1775.64 475.93C1735.04 472.326 1693.45 472.675 1652.26 475.93C1598.7 480.114 1545.93 488.599 1493.75 495.689C1387.43 510.102 1284.05 517.657 1183.22 498.014C1104.75 482.787 1030.6 464.771 963.906 438.619C913.688 418.975 876.22 392.242 848.364 360.278C836.006 346.097 825.413 330.987 815.604 315.295C795.988 283.913 778.921 251.135 754.204 222.425C725.956 189.764 686.134 162.449 625.519 150.012C608.256 146.525 591.19 144.084 573.535 143.154C499.384 139.551 426.802 161.984 348.335 179.651C313.418 187.555 277.519 193.832 243.582 198.132C205.526 202.898 168.45 204.99 135.102 204.293C70.5633 202.898 16.8137 193.251 -13.9845 173.607C-37.3283 158.729 -43.2133 140.248 -56.1603 119.326C-82.839 76.32 -132.469 16.6924 -196.616 -41.7728C-214.467 -58.0455 -233.495 -74.0856 -253.896 -89.7771C-345.898 -160.447 -465.168 -219.61 -584.437 -250.411" stroke="#9B81D2" stroke-miterlimit="10"/>
<path d="M2002.41 565.545C1966.51 512.659 1874.32 479.184 1779.96 470.583C1739.16 466.863 1697.57 467.212 1656.18 470.583C1602.62 474.884 1550.05 483.833 1497.87 491.621C1391.75 507.545 1288.56 517.657 1186.95 499.409C1107.7 485.228 1032.37 468.839 963.906 444.082C912.118 425.368 873.669 399.099 845.029 367.252C832.278 353.187 821.489 338.077 811.288 322.386C791.083 291.003 773.428 258.341 747.926 229.748C718.894 197.319 678.091 170.701 615.71 159.543C598.251 156.405 580.792 154.429 563.333 153.964C488.986 152.22 417.385 176.397 338.919 194.064C303.805 201.968 267.71 208.012 233.381 211.615C194.932 215.684 157.661 216.73 124.312 214.637C60.1659 210.569 7.78931 196.97 -18.6932 174.886C-39.4869 157.567 -40.86 137.459 -50.276 114.909C-69.6965 68.4162 -114.619 5.88274 -177.784 -54.4423C-195.243 -71.1798 -214.271 -87.8011 -234.673 -103.725C-327.459 -176.022 -452.025 -234.72 -576.787 -262.151" stroke="#9187D4" stroke-miterlimit="10"/>
<path d="M2007.91 559.966C1970.24 507.429 1878.44 473.838 1783.88 465.12C1743.08 461.401 1701.3 461.633 1659.91 465.12C1606.16 469.653 1553.78 479.068 1501.8 487.553C1395.87 504.872 1292.88 517.657 1190.28 500.804C1110.25 487.669 1033.74 472.908 963.514 449.545C910.156 431.761 870.923 405.957 841.302 374.342C828.355 360.394 816.977 345.4 806.58 329.708C785.787 298.442 767.543 265.664 741.257 237.419C711.243 205.223 669.656 179.186 605.51 169.307C587.658 166.517 570.2 165.006 552.545 165.006C477.805 165.122 407.381 191.042 328.915 208.826C293.801 216.73 257.51 222.425 222.788 225.447C183.947 228.818 146.48 228.702 113.131 225.215C49.1809 218.59 -1.43037 200.922 -23.5972 176.281C-41.6445 156.405 -38.7017 134.669 -44.3906 110.493C-56.3567 60.5124 -96.9633 -5.04308 -158.756 -67.2278C-175.822 -84.5465 -194.654 -101.517 -215.448 -117.905C-309.019 -191.946 -438.882 -250.063 -569.136 -274.239" stroke="#878CD5" stroke-miterlimit="10"/>
<path d="M2013.59 554.503C1974.16 502.314 1882.75 468.723 1788 459.889C1747.2 456.054 1705.22 456.286 1663.83 459.889C1610.08 464.539 1557.7 474.418 1505.91 483.601C1400.18 502.314 1297.39 517.89 1194.01 502.315C1113.38 490.226 1035.51 477.092 963.514 455.124C908.391 438.27 868.373 412.931 837.967 381.548C824.628 367.717 812.857 352.722 802.068 337.031C780.49 305.764 761.658 272.986 734.587 244.974C703.789 213.01 661.221 187.671 595.505 179.07C577.458 176.745 559.606 175.583 541.951 176.048C467.016 178.024 397.573 205.687 319.302 223.471C284.188 231.491 247.505 236.722 212.587 239.163C173.354 241.836 135.69 240.674 102.342 235.792C38.7839 226.493 -10.0614 204.874 -28.3049 177.791C-43.4098 155.358 -36.3481 132.112 -38.506 106.192C-43.214 52.8409 -79.3086 -15.7367 -139.924 -79.7812C-156.794 -97.6811 -175.43 -115.116 -196.224 -131.737C-290.58 -207.405 -425.739 -264.941 -561.486 -285.863" stroke="#7D91D7" stroke-miterlimit="10"/>
<path d="M2019.09 549.04C1977.89 497.084 1886.87 463.609 1791.93 454.542C1750.93 450.59 1708.95 450.823 1667.56 454.542C1613.81 459.424 1561.43 469.653 1509.64 479.649C1404.1 499.873 1301.51 518.006 1197.15 503.825C1115.74 492.783 1036.49 481.392 962.925 460.703C906.233 444.779 865.234 419.905 834.044 388.638C820.312 374.806 808.346 359.929 797.164 344.237C774.997 313.087 755.577 280.193 727.721 252.413C695.942 220.681 652.589 195.924 585.108 188.601C566.668 186.625 548.817 185.928 530.966 186.857C455.638 190.577 387.372 220.1 309.102 237.884C273.792 245.904 236.912 250.902 201.602 252.645C161.977 254.621 123.92 252.297 90.7681 246.02C27.4062 234.048 -19.4776 208.593 -33.7978 178.954C-45.7639 153.963 -34.7787 129.089 -33.4055 101.658C-30.6592 44.8204 -62.4382 -26.6629 -121.681 -92.6834C-138.159 -111.048 -156.794 -128.948 -177.784 -146.034C-272.925 -223.446 -413.577 -280.4 -554.817 -297.951" stroke="#7396D8" stroke-miterlimit="10"/>
<path d="M2024.78 543.461C1982.01 491.853 1891.19 458.262 1796.24 449.079C1755.24 445.128 1713.07 445.244 1671.48 449.196C1617.73 454.194 1565.35 465.003 1513.76 475.581C1408.42 497.2 1306.22 518.006 1200.88 505.22C1118.68 495.224 1038.25 485.46 962.925 466.166C904.664 451.172 862.88 426.763 830.709 395.728C816.585 382.013 804.226 367.251 792.849 351.56C770.093 320.409 749.888 287.515 721.444 259.968C688.88 228.469 644.743 204.409 575.3 198.364C556.468 196.737 538.42 196.505 520.569 197.9C445.045 203.479 377.76 234.629 299.686 252.529C264.376 260.666 227.104 265.199 191.598 266.361C151.776 267.523 113.327 264.269 80.1751 256.597C17.0094 242.068 -27.7166 212.777 -38.3096 180.348C-47.1371 152.917 -32.2283 126.416 -27.3241 97.2416C-17.3196 36.9166 -44.3906 -37.4726 -102.652 -105.353C-118.738 -124.299 -137.374 -142.664 -158.56 -159.982C-254.485 -239.021 -400.433 -295.51 -547.166 -309.691" stroke="#699CD9" stroke-miterlimit="10"/>
<path d="M2030.27 537.998C1985.74 486.739 1895.31 453.148 1800.16 443.733C1759.17 439.665 1716.79 439.781 1675.21 443.849C1621.46 449.08 1569.28 460.238 1517.68 471.513C1412.54 494.643 1310.53 518.122 1204.41 506.615C1121.43 497.665 1039.63 489.529 962.729 471.629C902.898 457.681 860.134 433.621 827.178 402.819C812.662 389.22 800.107 374.458 788.141 358.767C764.797 327.733 744.003 294.722 714.774 267.408C681.426 236.257 636.308 212.662 565.099 208.012C546.071 206.734 527.828 206.966 509.78 208.826C433.864 216.265 367.756 249.159 289.681 267.059C254.175 275.195 216.707 279.496 180.809 279.961C140.595 280.426 101.95 276.009 68.7977 266.943C6.02439 249.74 -36.7399 216.614 -43.6058 181.627C-49.2946 151.756 -30.2664 123.627 -22.0274 92.8253C-4.37242 29.1295 -27.3238 -48.398 -84.2122 -118.022C-100.102 -137.433 -118.541 -156.262 -139.727 -174.046C-236.438 -254.828 -387.682 -310.736 -539.907 -321.546" stroke="#5FA1DB" stroke-miterlimit="10"/>
<path d="M2035.96 532.535C1989.66 481.625 1899.62 448.033 1804.28 438.386C1763.09 434.202 1720.72 434.318 1679.13 438.502C1625.18 443.965 1573.2 455.472 1521.61 467.561C1416.66 492.086 1314.85 518.238 1207.74 508.126C1123.98 500.222 1041 493.829 962.337 477.208C900.74 464.19 857.191 440.595 823.451 410.025C808.542 396.542 795.595 381.781 783.433 366.089C759.5 335.055 738.118 302.045 708.104 274.962C673.775 244.044 627.676 221.03 555.094 217.659C535.674 216.73 517.234 217.427 499.187 219.635C423.074 228.934 357.947 263.571 279.873 281.471C244.367 289.608 206.702 293.56 170.412 293.443C129.805 293.211 90.7679 287.748 57.8119 277.287C-4.76526 257.411 -45.3717 220.681 -48.3142 182.789C-50.8644 150.593 -27.9128 120.605 -16.1428 88.1756C8.77034 21.1091 -9.66933 -59.4405 -65.1845 -131.04C-80.6817 -151.032 -99.1212 -170.327 -120.503 -188.343C-217.998 -270.752 -374.54 -326.079 -532.258 -333.751" stroke="#55A6DC" stroke-miterlimit="10"/>
<path d="M2041.65 526.956C1993.58 476.279 1904.13 442.687 1808.4 432.924C1767.21 428.739 1724.84 428.739 1683.05 433.04C1629.11 438.619 1577.12 450.707 1525.73 463.377C1420.97 489.413 1319.36 518.122 1211.47 509.405C1126.92 502.547 1042.76 497.898 962.337 482.555C899.171 470.467 854.837 447.336 820.116 416.883C804.815 403.516 791.475 388.871 779.117 373.18C754.4 342.145 732.429 309.135 701.631 282.285C666.517 251.6 619.437 229.167 545.09 227.191C525.473 226.726 506.837 227.888 488.594 230.445C412.089 241.604 348.335 277.985 270.26 295.885C234.558 304.137 196.698 307.74 160.211 306.927C119.212 305.997 79.9786 299.372 47.0226 287.516C-15.3584 265.083 -53.8071 224.518 -53.0224 183.952C-52.4339 149.431 -25.7552 117.699 -10.258 83.5267C21.9133 12.9731 8.18163 -70.4823 -46.3527 -143.942C-61.4575 -164.515 -79.8972 -184.158 -101.475 -202.639C-199.755 -286.792 -361.789 -341.538 -524.803 -345.839" stroke="#4BABDE" stroke-miterlimit="10"/>
<path d="M2047.14 521.493C1997.51 471.164 1908.25 437.573 1812.52 427.577C1771.33 423.276 1728.76 423.276 1686.78 427.693C1632.83 433.505 1580.85 445.942 1529.65 459.425C1425.09 486.856 1323.68 518.355 1214.8 510.916C1129.47 505.104 1043.94 502.082 962.14 488.134C897.405 477.092 852.091 454.31 816.389 424.09C800.891 410.839 787.16 396.194 774.213 380.502C748.907 349.584 726.348 316.458 694.765 289.841C658.671 259.387 610.806 237.536 534.693 236.838C514.684 236.722 495.852 238.349 477.805 241.371C401.104 254.389 338.33 292.514 260.256 310.53C224.554 318.783 186.301 322.037 149.422 320.642C108.031 319.015 68.4052 311.344 35.6453 298.093C-26.5395 273.103 -62.8306 228.818 -58.3188 185.347C-54.3955 148.501 -23.9897 115.026 -4.96155 79.2261C34.468 5.18555 25.2482 -81.1757 -27.913 -156.611C-42.8216 -177.649 -61.0649 -197.874 -82.6433 -216.587C-181.707 -302.367 -349.038 -356.648 -517.741 -357.578" stroke="#41B1DF" stroke-miterlimit="10"/>
<path d="M2052.83 516.03C2001.43 466.05 1912.57 432.458 1816.64 422.346C1775.25 417.929 1732.68 417.929 1690.7 422.462C1636.76 428.39 1584.77 441.292 1533.77 455.473C1429.41 484.415 1328.19 518.471 1218.53 512.427C1132.41 507.661 1045.71 506.499 962.14 493.713C895.836 483.717 849.541 461.284 813.054 431.296C797.164 418.162 783.04 403.516 769.897 387.825C744.003 356.907 720.659 323.78 688.488 297.395C651.609 267.175 602.763 245.788 524.885 246.602C504.68 246.834 485.652 248.926 467.408 252.413C390.315 267.291 328.718 307.043 250.644 325.175C214.746 333.428 176.297 336.45 139.221 334.358C97.6339 332.033 57.616 323.199 24.8561 308.554C-37.1325 280.89 -71.2656 233.002 -63.0266 186.741C-55.9646 147.571 -21.6353 112.236 0.923902 74.8089C47.8077 -2.60233 42.9034 -92.1018 -9.08079 -169.281C-23.5971 -190.9 -41.8402 -211.473 -63.6147 -230.652C-163.464 -318.175 -336.09 -371.759 -510.286 -369.434" stroke="#37B6E1" stroke-miterlimit="10"/>
<path d="M2058.32 510.451C1982.21 439.316 1833.71 401.192 1694.43 416.999C1530.24 435.597 1386.84 520.796 1221.87 513.705C1134.96 509.986 1047.08 510.451 961.748 499.06C864.057 486.042 809.523 446.406 765.189 394.915C708.301 328.778 663.771 252.064 514.684 256.133C406.989 259.038 337.153 317.155 240.836 339.588C164.723 357.255 75.467 349.119 13.6745 318.782C-48.118 288.445 -80.093 237.07 -68.1269 187.904C-57.9262 146.409 -19.6737 109.33 6.41645 70.1596C75.6633 -33.2879 55.8505 -155.798 -44.783 -244.948C-145.417 -334.099 -323.536 -387.218 -503.028 -381.522" stroke="#2DBBE2" stroke-miterlimit="10"/>
<path d="M2049.69 520.679C1972.4 455.124 1824.88 419.673 1686.58 434.202C1617.34 441.408 1551.62 459.773 1486.69 477.44C1420.19 495.689 1354.87 513.357 1286.6 518.587C1264.63 520.214 1242.27 520.679 1219.71 519.284C1134.77 514.054 1048.85 512.775 963.906 500.92C867.588 487.553 812.073 449.544 766.17 400.959C755.577 389.801 745.376 378.41 734.98 367.135C704.378 334.009 671.814 302.626 620.418 285.307C591.582 275.543 557.056 270.08 513.9 271.01C407.577 273.103 337.938 326.337 244.759 345.516C232.401 348.073 219.65 349.933 206.899 351.095C143.145 356.907 75.8597 345.981 26.6219 320.293C-32.4243 289.491 -63.0263 238.581 -51.8448 189.88C-42.4288 148.617 -6.7266 111.306 17.4019 72.1355C58.9892 4.60401 63.6973 -70.7151 33.6838 -139.06C17.5982 -175.557 -8.49201 -210.079 -43.802 -240.532C-108.537 -296.091 -203.678 -337.238 -310.589 -358.973C-371.989 -371.41 -437.313 -377.338 -502.832 -375.711" stroke="#33B4E3" stroke-miterlimit="10"/>
<path d="M2040.86 530.908C1962.59 470.932 1815.86 438.154 1678.34 451.404C1609.29 458.03 1543.97 474.651 1479.82 490.459C1414.11 506.615 1349.96 522.074 1282.87 525.561C1261.29 526.723 1239.52 526.607 1217.35 524.864C1134.18 518.122 1050.42 515.216 966.064 502.896C871.315 489.296 814.623 452.683 767.347 407.003C756.362 396.426 745.769 385.849 734.979 375.272C703.397 344.354 670.441 315.412 619.045 299.371C590.012 290.421 555.683 285.191 513.311 285.772C408.362 287.167 338.919 335.404 248.878 351.328C236.912 353.42 224.75 354.815 212.391 355.628C150.991 359.58 86.6485 347.608 39.7647 321.572C-16.5352 290.305 -45.764 239.976 -35.5634 191.739C-27.1282 150.709 6.4163 113.282 28.1908 73.9953C66.2471 6.46381 68.405 -68.5066 36.8222 -136.038C19.7557 -172.303 -7.11925 -206.359 -43.2139 -236.347C-108.93 -290.977 -204.267 -331.193 -311.374 -352.929C-372.774 -365.366 -437.705 -371.41 -503.028 -370.015" stroke="#38ADE5" stroke-miterlimit="10"/>
<path d="M2032.03 541.136C1952.59 486.739 1806.83 456.519 1670.3 468.491C1601.64 474.418 1536.52 489.529 1472.96 503.244C1407.83 517.425 1344.86 530.443 1279.15 532.303C1257.96 532.884 1236.58 532.303 1215 530.21C1133.59 521.958 1051.98 517.192 968.025 504.523C874.65 490.459 816.977 455.589 768.131 412.815C756.95 402.935 745.768 393.055 734.783 383.292C702.219 354.698 668.871 327.965 617.475 313.319C588.443 305.067 554.114 300.069 512.526 300.417C408.95 300.999 339.9 344.47 252.605 357.023C241.032 358.65 229.262 359.696 217.295 360.161C158.249 362.253 96.8491 349.235 52.1231 322.85C-1.62652 291.235 -29.2861 241.371 -20.0663 193.599C-12.4158 152.685 18.5786 115.142 38.3915 75.855C72.7206 8.32359 72.7206 -66.2981 39.3723 -133.016C21.325 -169.048 -6.33452 -202.64 -43.0177 -232.047C-109.714 -285.746 -205.248 -325.033 -312.355 -346.769C-373.559 -359.089 -438.49 -365.25 -503.617 -364.32" stroke="#3EA6E6" stroke-miterlimit="10"/>
<path d="M2023.21 551.365C1942.58 502.431 1797.81 475 1662.06 485.693C1593.6 490.924 1528.87 504.407 1465.9 516.263C1401.36 528.351 1339.76 539.044 1275.22 539.277C1254.43 539.393 1233.64 538.347 1212.45 535.79C1132.81 526.142 1053.36 519.633 969.791 506.499C877.985 492.086 819.135 458.843 768.916 418.859C757.343 409.677 745.769 400.494 734.391 391.428C700.847 365.043 667.106 340.634 615.71 327.384C586.482 319.829 552.349 315.412 511.546 315.296C409.343 315.063 340.685 353.652 256.333 362.951C245.152 364.23 233.774 364.811 222.396 364.811C165.704 365.043 107.443 350.979 64.8746 324.245C13.8712 292.165 -12.2191 242.882 -4.17624 195.459C2.6896 154.778 31.1338 117.002 48.7888 77.7149C79.5869 10.0672 77.0368 -64.0895 41.9229 -130.11C22.8948 -165.91 -5.74547 -198.92 -42.821 -227.978C-110.498 -280.748 -206.228 -319.221 -313.531 -340.724C-374.735 -353.045 -439.274 -359.322 -504.205 -358.624" stroke="#43A0E8" stroke-miterlimit="10"/>
<path d="M2014.57 561.477C1932.77 518.122 1788.98 493.364 1654.22 502.663C1586.15 507.312 1521.41 519.168 1459.23 528.932C1395.47 539.044 1335.05 547.413 1271.69 545.902C1251.29 545.437 1230.89 543.926 1210.29 541.02C1132.41 529.862 1055.12 521.609 972.145 508.01C881.712 493.248 821.881 461.516 770.093 424.554C758.127 415.953 746.161 407.584 734.391 399.332C700.062 375.155 665.537 353.187 614.141 341.215C584.716 334.357 550.975 330.057 510.761 329.824C409.931 329.127 341.469 362.486 260.256 368.53C249.467 369.344 238.482 369.46 227.693 369.227C173.551 367.716 118.035 352.49 77.8212 325.407C29.368 292.862 4.84724 244.044 11.9092 197.202C17.9904 156.753 43.8843 118.861 59.5776 79.458C86.6486 11.8103 81.7444 -61.9978 45.0612 -127.205C25.0522 -162.772 -4.37247 -195.317 -42.0365 -223.794C-110.695 -275.634 -206.621 -313.178 -314.12 -334.681C-375.128 -346.885 -439.47 -353.278 -504.205 -353.046" stroke="#4999E9" stroke-miterlimit="10"/>
<path d="M2005.75 571.706C1922.77 533.93 1779.96 511.729 1646.17 519.866C1578.5 523.818 1513.96 534.046 1452.36 541.95C1389.2 549.97 1330.15 556.014 1267.96 552.876C1247.96 551.83 1228.14 549.97 1207.94 546.599C1131.82 533.93 1056.69 523.934 974.107 509.986C885.243 494.876 824.235 464.771 771.074 430.599C758.716 422.695 746.357 415.023 734.391 407.468C699.081 385.5 664.163 365.857 612.767 355.28C583.342 349.119 549.602 345.167 510.172 344.586C410.52 343.075 342.45 371.552 264.376 374.342C253.979 374.69 243.582 374.458 232.989 373.761C181.201 370.39 128.628 354.117 90.5719 326.686C44.8651 293.676 21.7174 245.439 27.7986 199.062C33.0951 158.846 56.6351 120.721 69.9744 81.318C93.5144 13.6703 85.8638 -59.7891 47.8075 -124.182C26.8176 -159.517 -3.39187 -191.597 -41.6444 -219.61C-111.087 -270.52 -207.209 -307.133 -314.905 -328.636C-375.912 -340.841 -440.059 -347.35 -504.598 -347.466" stroke="#4F92EA" stroke-miterlimit="10"/>
<path d="M1996.92 581.934C1912.96 549.738 1770.74 530.211 1637.93 537.068C1570.45 540.323 1506.31 549.04 1445.3 554.852C1382.72 560.896 1324.85 564.499 1264.04 559.734C1244.42 558.223 1225 555.782 1205.39 552.062C1131.04 537.998 1057.87 526.142 976.069 511.73C888.578 496.387 826.59 467.677 771.859 436.527C759.108 429.204 746.357 422.346 733.999 415.605C697.708 395.961 662.202 378.643 611.002 369.344C581.381 363.997 547.837 360.278 509.192 359.348C410.913 357.139 343.235 380.735 268.103 380.154C258.099 380.037 248.094 379.456 238.09 378.41C188.656 373.18 139.222 355.861 103.323 328.081C60.3627 294.606 38.5881 246.95 43.6885 200.922C48.2003 160.822 68.9941 122.581 80.5679 83.0616C100.185 15.4139 90.3761 -57.6967 50.5543 -121.276C28.5836 -156.379 -2.41066 -187.878 -41.2517 -215.425C-111.675 -265.405 -207.993 -301.089 -315.885 -322.476C-376.697 -334.564 -440.647 -341.189 -504.989 -341.654" stroke="#548BEC" stroke-miterlimit="10"/>
<path d="M1988.09 592.163C1902.96 565.545 1761.72 548.808 1629.89 554.154C1562.8 556.944 1498.85 563.802 1438.43 567.754C1376.64 571.706 1319.95 572.984 1260.31 566.591C1241.09 564.499 1222.26 561.593 1203.03 557.525C1130.65 541.95 1059.44 528.467 978.03 513.589C891.913 497.898 828.747 470.815 772.644 442.454C759.5 435.829 746.357 429.669 733.606 423.625C696.531 406.19 660.436 391.312 609.237 383.292C579.419 378.642 546.071 375.272 508.211 374.109C411.305 371.203 343.823 389.801 271.83 385.965C262.218 385.5 252.606 384.454 243.19 383.059C196.11 375.969 149.618 357.604 116.074 329.476C75.6634 295.536 55.4581 248.345 59.7738 202.898C63.501 163.03 81.7445 124.673 91.1605 85.0374C107.246 17.3897 94.8877 -55.3722 53.4966 -118.138C30.5451 -153.008 -1.42999 -184.042 -40.6633 -211.008C-112.068 -260.059 -208.582 -294.812 -316.474 -316.199C-377.089 -328.288 -441.039 -334.913 -504.99 -335.843" stroke="#5A84ED" stroke-miterlimit="10"/>
<path d="M1979.46 602.391C1893.15 581.353 1752.89 567.289 1621.85 571.357C1554.96 573.449 1491.4 578.796 1431.57 580.656C1370.36 582.631 1315.04 581.585 1256.59 573.449C1237.95 570.892 1219.32 567.521 1200.68 562.988C1130.06 545.902 1061.01 530.675 980.188 515.449C895.64 499.409 831.297 473.954 773.82 448.498C760.285 442.571 746.749 437.108 733.606 431.761C695.55 416.534 658.867 403.981 607.863 397.356C577.85 393.404 544.894 390.266 507.622 388.871C412.089 385.151 344.804 398.867 275.95 391.777C266.73 390.847 257.51 389.336 248.682 387.592C203.956 378.642 160.407 359.231 129.217 330.754C91.5527 296.466 72.7208 249.74 76.0556 204.641C78.802 165.006 94.8875 126.416 101.95 86.7809C114.308 19.1332 99.5956 -53.2801 56.439 -115.232C32.5066 -149.87 -0.253225 -180.439 -40.0751 -206.94C-112.461 -255.061 -209.171 -288.885 -317.259 -310.272C-377.874 -322.244 -441.432 -329.101 -505.382 -330.264" stroke="#607DEE" stroke-miterlimit="10"/>
<path d="M1970.63 612.62C1883.14 597.045 1743.86 585.77 1613.81 588.56C1547.31 589.955 1483.94 593.674 1424.7 593.674C1364.09 593.674 1310.14 590.187 1252.86 580.423C1234.62 577.285 1216.57 573.45 1198.33 568.568C1129.47 549.97 1062.58 533.117 982.15 517.309C898.975 501.036 833.455 476.976 774.605 454.543C760.677 449.196 746.749 444.547 733.41 440.014C694.569 426.996 657.101 416.883 606.294 411.537C576.085 408.398 543.325 405.493 506.838 403.749C412.678 399.332 345.589 407.933 279.873 397.705C271.045 396.31 262.414 394.45 253.783 392.358C211.411 381.665 171 361.092 141.772 332.266C106.658 297.512 89.3951 251.367 91.7491 206.734C93.7107 167.331 107.246 128.625 112.347 88.8734C121.174 21.2257 103.715 -50.8389 59.1855 -111.977C34.0761 -146.266 0.72791 -176.487 -39.8786 -202.407C-113.245 -249.598 -210.151 -282.492 -318.435 -303.878C-378.855 -315.85 -442.217 -322.708 -505.971 -324.335" stroke="#6576F0" stroke-miterlimit="10"/>
<path d="M1961.81 622.732C1873.14 612.736 1734.84 604.019 1605.57 605.53C1539.26 606.343 1476.29 608.436 1417.84 606.343C1358 604.251 1305.24 598.439 1249.13 587.049C1231.28 583.329 1213.63 579.029 1195.97 573.798C1128.88 553.69 1064.15 535.092 984.111 518.936C902.31 502.315 835.613 479.882 775.586 460.238C761.266 455.589 747.142 451.521 733.214 447.801C693.392 436.992 655.532 429.32 604.725 425.252C574.319 422.811 541.755 420.254 505.857 418.278C413.07 413.048 346.373 416.767 283.6 403.284C275.165 401.424 266.926 399.216 258.883 396.659C218.865 384.106 181.397 362.486 154.522 333.312C122.155 298.093 106.265 252.413 107.638 208.361C108.815 169.074 119.801 130.252 122.743 90.5006C127.844 22.7367 108.031 -48.8629 61.9317 -109.188C35.8415 -143.244 1.51222 -172.884 -39.4866 -198.455C-113.834 -244.716 -210.936 -276.68 -319.22 -297.951C-379.64 -309.806 -442.805 -316.897 -506.167 -318.756" stroke="#6B70F1" stroke-miterlimit="10"/>
<path d="M1952.98 632.961C1863.33 628.544 1725.82 622.5 1597.52 622.732C1531.61 622.848 1468.84 623.429 1410.97 619.245C1351.73 615.177 1300.14 607.041 1245.41 593.906C1227.95 589.722 1210.68 584.956 1193.62 579.261C1128.29 557.642 1065.72 537.417 986.269 520.679C906.037 503.826 838.163 482.904 776.567 466.166C761.854 462.214 747.338 458.843 733.018 455.938C692.411 447.336 653.766 442.106 603.155 439.432C572.75 437.805 540.186 435.481 505.072 433.156C413.658 427.228 347.158 425.949 287.523 409.212C279.481 406.887 271.634 404.33 264.179 401.424C226.515 387.011 192.186 364.346 167.469 334.823C137.848 299.139 123.332 254.04 123.724 210.337C124.117 171.282 132.552 132.344 133.533 92.4765C135.102 24.7125 112.543 -46.5384 64.8742 -106.05C37.8032 -139.874 2.68931 -169.048 -38.898 -194.038C-114.226 -239.485 -211.525 -270.403 -320.005 -291.674C-380.228 -303.53 -443.198 -310.62 -506.56 -312.945" stroke="#7069F3" stroke-miterlimit="10"/>
<path d="M1944.35 643.189C1853.52 644.352 1716.99 640.865 1589.68 639.935C1524.16 639.354 1461.58 638.308 1404.3 632.263C1345.65 626.103 1295.43 615.642 1241.87 600.88C1224.81 596.115 1208.13 590.884 1191.66 584.84C1128.1 561.71 1067.68 539.742 988.623 522.656C909.764 505.569 840.714 486.158 777.94 472.21C762.835 468.84 747.927 466.283 733.41 464.074C692.019 457.681 652.59 454.892 602.175 453.497C571.573 452.567 539.205 450.475 504.876 447.918C414.836 441.176 348.531 435.016 292.035 414.907C284.385 412.234 276.931 409.096 269.869 405.841C234.559 389.569 203.172 365.857 180.613 335.985C153.542 299.837 140.595 255.319 140.006 212.08C139.418 173.259 145.695 134.088 144.322 94.2201C142.164 26.4562 117.251 -44.446 68.013 -103.144C39.9611 -136.735 4.06268 -165.445 -38.1132 -189.97C-114.422 -234.487 -211.917 -264.475 -320.593 -285.746C-380.816 -297.486 -443.394 -304.808 -506.559 -307.482" stroke="#7662F4" stroke-miterlimit="10"/>
<path d="M1935.52 653.418C1843.52 660.159 1707.77 659.346 1581.44 657.021C1516.12 655.859 1453.93 653.185 1397.24 645.049C1339.37 636.913 1290.33 624.127 1237.95 607.622C1221.28 602.391 1204.99 596.58 1189.11 590.187C1127.51 565.545 1069.05 541.95 990.585 524.283C913.099 506.848 842.871 489.064 778.725 478.022C763.227 475.349 747.927 473.489 733.018 471.978C690.646 467.793 650.824 466.631 600.409 467.328C569.611 467.677 537.636 465.352 503.895 462.447C415.228 455.008 349.316 443.733 295.762 420.486C288.504 417.348 281.638 413.861 274.969 410.258C242.013 392.126 213.569 367.368 193.363 337.147C169.039 300.534 157.465 256.481 155.895 213.824C154.522 175.234 158.249 135.831 154.915 95.9635C149.226 28.1996 121.566 -42.354 70.9553 -100.354C41.7265 -133.713 5.2394 -161.842 -37.5249 -185.902C-114.815 -229.489 -212.506 -258.548 -321.182 -279.702C-381.209 -291.442 -443.786 -298.764 -506.559 -301.786" stroke="#7C5BF5" stroke-miterlimit="10"/>
<path d="M1926.69 663.646C1833.51 675.967 1698.75 677.594 1573.4 674.224C1508.46 672.248 1446.28 668.063 1390.37 658.067C1333.09 647.839 1285.42 632.728 1234.22 614.596C1217.94 608.784 1202.25 602.624 1186.75 595.766C1126.92 569.497 1070.42 544.391 992.546 526.259C916.63 508.591 845.029 492.435 779.509 484.066C763.62 482.09 747.926 480.928 732.625 480.23C689.469 478.255 648.862 480.463 598.447 481.509C567.453 482.206 535.674 480.463 502.718 477.441C415.424 469.188 349.708 453.032 299.293 426.531C292.427 422.927 285.954 419.092 279.873 415.14C249.271 395.264 223.965 369.344 205.918 338.775C184.143 301.696 174.139 258.225 171.785 215.916C169.431 177.443 171 138.04 165.311 97.9396C156.288 30.1757 125.882 -40.0292 73.5052 -97.2159C43.2955 -130.342 5.82772 -158.006 -37.329 -181.485C-115.599 -224.143 -213.29 -252.387 -322.359 -273.425C-382.386 -285.049 -444.571 -292.604 -507.344 -295.975" stroke="#8154F7" stroke-miterlimit="10"/>
<path d="M1918.06 673.875C1823.7 691.775 1689.92 696.075 1565.35 691.31C1500.62 688.753 1438.83 682.941 1383.51 670.853C1326.81 658.648 1280.32 641.213 1230.5 621.221C1214.61 614.944 1199.31 608.203 1184.4 600.996C1126.33 573.217 1071.99 546.483 994.508 527.77C919.964 509.87 847.187 495.224 780.49 489.761C764.208 488.483 748.123 488.134 732.429 488.018C688.488 487.669 647.097 492.9 596.878 495.224C565.688 496.619 534.105 495.224 501.933 491.854C416.012 482.787 350.689 461.633 303.217 431.993C296.743 427.925 290.662 423.625 284.973 419.324C256.921 397.588 234.362 370.622 218.473 339.704C199.444 302.277 190.813 259.271 187.478 217.427C184.34 179.186 183.359 139.551 175.708 99.4504C162.958 31.6864 130.001 -38.1697 76.2517 -94.5428C45.0612 -127.321 6.80884 -154.635 -36.9363 -177.65C-115.991 -219.377 -214.075 -246.692 -323.34 -267.73C-383.17 -279.237 -445.159 -286.909 -507.737 -290.628" stroke="#874DF8" stroke-miterlimit="10"/>
<path d="M1909.23 684.103C1813.9 707.466 1680.9 714.556 1557.31 708.512C1492.97 705.257 1431.37 697.819 1376.64 683.871C1320.73 669.574 1275.42 649.814 1226.77 628.195C1211.27 621.337 1196.56 614.131 1182.04 606.575C1125.74 577.285 1073.56 548.808 996.666 529.745C923.496 511.497 849.541 498.595 781.471 495.805C764.797 495.108 748.319 495.457 732.429 496.27C687.507 498.595 645.724 505.801 595.505 509.405C564.119 511.613 532.732 510.451 501.345 506.731C416.797 496.851 351.67 470.815 307.336 437.921C301.255 433.388 295.566 428.739 290.466 424.089C264.768 400.494 245.152 372.482 231.616 341.215C215.334 303.323 208.076 260.782 203.76 219.519C199.837 181.511 196.306 141.759 186.498 101.542C170.216 33.7784 134.513 -35.6128 79.3906 -91.2885C47.0231 -123.834 8.1821 -150.684 -36.3477 -173.117C-116.384 -213.914 -214.663 -240.299 -323.928 -261.338C-383.759 -272.845 -445.552 -280.632 -507.736 -284.7" stroke="#8D46F9" stroke-miterlimit="10"/>
<path d="M1900.41 694.216C1803.89 723.158 1671.87 732.805 1549.27 725.599C1485.32 721.647 1423.92 712.697 1369.77 696.657C1314.46 680.384 1270.32 658.3 1223.04 634.937C1207.94 627.614 1193.81 619.826 1179.69 611.923C1125.35 581.005 1075.13 551.016 998.628 531.373C926.831 512.892 851.895 501.036 782.452 501.617C765.385 501.734 748.515 502.547 732.233 504.174C686.526 508.708 643.958 518.471 593.936 523.237C562.549 526.259 531.359 525.213 500.561 521.261C417.386 510.683 352.651 479.533 311.26 443.501C305.571 438.619 300.47 433.505 295.762 428.39C272.419 402.935 255.941 373.877 244.563 342.262C230.831 303.905 225.143 261.945 219.846 221.03C214.942 183.255 209.253 143.27 197.091 103.054C177.082 35.2899 138.829 -33.7526 82.137 -88.6146C48.7886 -120.927 8.96689 -147.196 -35.9553 -169.28C-116.972 -209.148 -215.448 -234.604 -324.909 -255.525C-384.544 -266.916 -446.14 -274.82 -508.324 -279.353" stroke="#9240FB" stroke-miterlimit="10"/>
<path d="M1891.58 704.444C1793.89 738.966 1662.85 751.286 1541.03 742.685C1477.27 738.152 1416.27 727.458 1362.71 709.559C1307.98 691.194 1265.22 666.785 1219.12 641.795C1204.6 633.891 1190.67 625.755 1177.14 617.386C1124.57 584.957 1076.31 553.341 1000.59 533.233C930.165 514.519 854.053 504.756 783.237 507.662C765.778 508.359 748.711 509.986 731.841 512.427C685.153 519.052 642.193 531.373 592.17 537.417C560.587 541.253 529.593 540.439 499.58 536.255C417.778 524.864 353.435 488.832 314.987 449.545C309.69 444.198 304.982 438.735 300.863 433.272C279.873 405.958 266.337 375.853 257.314 343.889C246.328 305.067 241.817 263.688 235.735 223.239C229.85 185.579 221.807 145.479 207.683 105.262C184.143 37.4984 143.145 -31.0792 85.0793 -85.2439C50.554 -117.208 10.1436 -143.128 -35.3671 -164.631C-117.365 -203.569 -216.037 -228.094 -325.694 -249.016C-385.132 -260.407 -446.532 -268.311 -508.521 -273.193" stroke="#9839FC" stroke-miterlimit="10"/>
<path d="M1882.95 714.673C1784.08 754.773 1654.02 769.767 1533.18 759.887C1469.82 754.657 1409.01 742.452 1356.04 722.46C1302.1 702.119 1260.51 675.386 1215.59 648.652C1201.46 640.283 1188.12 631.566 1174.98 622.848C1124.37 588.908 1078.08 555.782 1002.75 535.092C933.696 516.263 856.603 508.01 784.413 513.589C766.562 514.984 749.104 517.309 732.037 520.447C684.565 529.165 640.819 544.159 590.993 551.365C559.214 556.014 528.416 555.317 499.187 550.9C418.759 538.579 354.808 497.665 319.302 455.24C314.398 449.429 310.083 443.501 306.355 437.689C287.72 408.631 277.126 377.364 270.261 345.051C261.825 305.764 258.883 264.85 251.821 224.982C245.151 187.555 234.558 147.339 218.276 107.006C191.009 39.1256 147.46 -28.9871 88.0217 -82.3381C52.5156 -114.07 11.3206 -139.525 -34.7785 -160.563C-117.757 -198.571 -216.625 -222.167 -326.282 -243.089C-385.721 -254.363 -446.925 -262.499 -508.521 -267.73" stroke="#9D32FE" stroke-miterlimit="10"/>
<path d="M1874.12 724.901C1721.5 794.525 1500.62 799.058 1349.18 735.362C1295.82 712.929 1255.61 683.871 1211.86 655.51C1144.58 611.806 1098.87 563.453 1004.9 536.836C920.553 512.892 819.528 508.591 731.841 528.467C683.388 539.393 639.25 556.828 589.424 565.313C457.011 587.746 346.962 509.637 311.652 442.338C275.557 373.761 282.619 298.907 267.907 226.958C247.702 127.346 188.459 4.60418 90.9645 -79.3162C-11.6307 -167.537 -156.205 -204.499 -327.067 -236.812C-386.309 -248.087 -447.317 -256.223 -508.913 -261.802" stroke="#A32BFF" stroke-miterlimit="10"/>
</g>
</svg>
