<svg width="172" height="108" viewBox="0 0 172 108" fill="none" xmlns="http://www.w3.org/2000/svg">
<path id="&#226;&#128;&#156;" opacity="0.2" d="M81.4485 -25L38.3287 71.7706L33.5376 42.6918C42.1616 42.6918 49.3482 45.7109 55.0975 51.7491C61.1662 57.4695 64.2006 64.6201 64.2006 73.2007C64.2006 83.3704 60.8468 91.7921 54.1393 98.466C47.4318 104.822 39.6063 108 30.663 108C22.039 108 14.6927 105.14 8.62395 99.4193C2.87465 93.3811 0 86.0717 0 77.491C0 72.4062 0.798514 67.6392 2.39554 63.19C4.31198 58.4229 7.18663 52.8614 11.0195 46.5054L51.2646 -25H81.4485ZM172 -25L128.88 71.7706L124.089 42.6918C132.713 42.6918 139.9 45.7109 145.649 51.7491C151.718 57.4695 154.752 64.6201 154.752 73.2007C154.752 83.3704 151.398 91.7921 144.691 98.466C137.983 104.822 130.158 108 121.214 108C112.591 108 105.244 105.14 99.1755 99.4193C93.4262 93.3811 90.5515 86.0717 90.5515 77.491C90.5515 72.4062 91.35 67.6392 92.9471 63.19C94.8635 58.4229 97.7382 52.8614 101.571 46.5054L141.816 -25H172Z" fill="white"/>
</svg>
