<?xml version="1.0" standalone="no"?>
<!DOCTYPE svg PUBLIC "-//W3C//DTD SVG 20010904//EN"
 "http://www.w3.org/TR/2001/REC-SVG-20010904/DTD/svg10.dtd">
<svg version="1.0" xmlns="http://www.w3.org/2000/svg"
 width="700.000000pt" height="700.000000pt" viewBox="0 0 700.000000 700.000000"
 preserveAspectRatio="xMidYMid meet">
<metadata>
Created by potrace 1.14, written by Peter Selinger 2001-2017
</metadata>
<g transform="translate(0.000000,700.000000) scale(0.100000,-0.100000)"
fill="#000000" stroke="none">
<path d="M3398 6975 c-2 -1 -24 -5 -50 -8 -57 -7 -122 -35 -203 -86 -33 -21
-208 -130 -390 -241 -181 -112 -460 -284 -620 -383 -159 -98 -297 -183 -305
-188 -8 -5 -96 -59 -195 -119 -99 -61 -187 -114 -195 -119 -8 -5 -188 -116
-400 -247 -585 -360 -646 -403 -706 -494 -55 -83 -64 -196 -23 -300 34 -87 33
-90 -14 -185 -56 -112 -100 -236 -121 -340 -9 -44 -19 -91 -22 -105 -3 -14 -7
-113 -8 -220 -1 -181 -3 -198 -23 -225 -72 -103 -62 -212 28 -310 l43 -46 -37
-107 c-74 -214 -109 -415 -110 -637 -1 -193 20 -374 64 -534 26 -96 46 -122
116 -154 197 -88 588 -29 685 103 26 36 28 107 7 230 -10 58 -20 125 -24 150
-3 25 -10 68 -15 95 -5 28 -11 61 -14 75 -8 52 -58 248 -80 320 -55 171 -123
312 -202 416 -57 76 -62 88 -41 119 24 34 47 116 47 164 0 59 -31 121 -83 166
l-42 37 0 112 c0 61 3 136 7 166 8 61 43 210 56 237 104 215 106 218 137 221
16 2 56 -2 90 -8 33 -7 69 -14 80 -16 69 -14 396 -75 420 -79 17 -3 50 -10 75
-15 25 -5 59 -12 75 -15 51 -9 236 -43 320 -59 115 -23 116 -23 162 -31 23 -3
44 -13 47 -21 3 -9 -32 -72 -85 -152 -166 -253 -313 -586 -376 -857 -20 -88
-53 -286 -60 -360 -10 -110 -11 -458 -1 -540 38 -328 126 -620 277 -911 298
-574 806 -1031 1418 -1273 168 -67 391 -131 508 -147 28 -3 52 -7 55 -9 5 -3
56 -10 180 -24 76 -9 442 -7 515 3 107 14 196 29 250 41 33 8 71 16 85 19 14
2 78 20 142 40 317 97 613 249 881 453 119 91 334 301 431 423 324 405 528
918 573 1440 14 155 7 478 -11 580 -3 14 -10 58 -16 99 -16 107 -56 268 -100
400 -158 475 -431 868 -846 1218 -12 10 -62 47 -112 83 -50 36 -91 72 -91 81
-1 14 93 79 192 134 10 6 185 115 390 243 809 508 758 473 801 542 39 60 56
126 52 198 -7 137 -79 247 -202 314 -27 14 -185 52 -299 72 -16 2 -66 12 -110
21 -44 9 -91 19 -105 21 -176 35 -224 44 -248 49 -40 7 -479 93 -538 105 -28
6 -64 13 -80 16 -16 2 -40 7 -54 9 -14 3 -36 7 -50 10 -14 3 -50 10 -80 16
-30 5 -66 12 -80 15 -14 2 -36 7 -50 9 -36 8 -62 13 -180 35 -58 11 -116 22
-130 25 -14 3 -50 10 -80 15 -219 42 -258 50 -280 55 -14 3 -41 8 -60 11 -19
3 -42 7 -50 9 -8 2 -30 7 -49 10 -19 3 -100 19 -180 35 -80 15 -159 31 -176
33 -16 3 -102 19 -190 36 -137 26 -307 45 -317 36z m182 -540 c33 -7 55 -11
110 -20 25 -4 54 -9 65 -12 33 -7 228 -43 260 -48 17 -3 44 -8 60 -12 17 -3
40 -8 53 -9 12 -2 32 -6 45 -8 12 -3 72 -14 132 -25 181 -33 277 -51 325 -61
25 -5 59 -11 75 -14 17 -3 66 -12 109 -21 44 -8 91 -17 105 -20 14 -2 51 -9
81 -15 30 -6 66 -13 80 -16 14 -3 70 -13 125 -24 55 -10 115 -21 132 -25 18
-3 79 -14 135 -26 176 -35 462 -90 488 -94 114 -17 157 -44 146 -88 -7 -30 18
-13 -694 -452 -304 -187 -580 -357 -614 -379 -35 -21 -76 -46 -93 -56 -16 -10
-161 -99 -321 -198 -541 -335 -536 -332 -601 -332 -21 0 -142 20 -268 45 -127
25 -240 47 -253 50 -114 21 -309 58 -362 70 -36 7 -85 17 -110 20 -24 4 -47 8
-50 10 -3 2 -21 6 -40 9 -19 3 -80 14 -135 25 -55 11 -111 22 -125 25 -14 2
-144 28 -290 56 -146 28 -276 54 -290 56 -14 3 -56 11 -95 19 -38 8 -86 17
-105 20 -19 3 -42 8 -50 10 -8 2 -32 6 -53 10 -22 3 -58 10 -80 15 -23 5 -94
19 -157 31 -63 12 -123 26 -133 31 -24 12 -21 51 7 79 18 18 475 307 621 392
11 7 42 26 70 43 62 39 655 404 1144 704 201 123 381 230 400 237 33 12 89 12
151 -2z m1504 -1881 c69 -35 256 -159 336 -223 72 -58 146 -128 230 -217 237
-251 419 -588 500 -927 32 -135 37 -161 56 -317 5 -45 6 -359 0 -368 -2 -4 -6
-36 -10 -73 -18 -206 -94 -456 -206 -684 -108 -220 -210 -368 -366 -534 -294
-312 -738 -555 -1144 -626 -19 -3 -44 -7 -55 -9 -235 -44 -599 -36 -831 17
-318 73 -577 192 -829 381 -106 79 -305 280 -387 389 -116 157 -179 270 -298
542 -35 81 -101 323 -115 425 -4 24 -8 47 -10 50 -8 14 -18 159 -20 286 -2
163 10 294 41 438 9 39 17 78 19 87 41 191 175 484 314 684 79 115 167 224
211 262 43 39 77 38 283 -5 106 -23 203 -43 217 -46 14 -3 61 -12 105 -21 44
-9 89 -18 100 -19 11 -2 34 -6 50 -9 56 -11 210 -38 240 -43 17 -3 40 -7 52
-9 13 -3 49 -8 80 -11 32 -4 78 -10 103 -14 75 -14 179 -4 245 22 192 79 461
234 843 490 123 82 163 106 186 107 4 1 31 -11 60 -25z"/>
<path d="M4853 4049 c-100 -39 -186 -143 -209 -254 -24 -118 8 -168 237 -380
127 -118 219 -296 266 -519 22 -100 24 -330 4 -431 -83 -428 -372 -742 -779
-846 -132 -34 -171 -39 -307 -39 -89 0 -140 5 -238 25 -210 42 -448 186 -596
361 -100 117 -198 308 -225 439 -3 11 -11 49 -19 85 -18 87 -14 311 7 410 27
125 69 238 106 285 24 30 90 166 96 195 17 88 -9 161 -81 232 -40 39 -57 50
-135 87 -30 14 -124 18 -160 7 -45 -15 -89 -56 -139 -129 -72 -107 -160 -287
-192 -392 -24 -78 -51 -183 -56 -219 -3 -23 -9 -61 -13 -86 -11 -60 -10 -312
1 -380 5 -30 11 -69 13 -85 21 -153 110 -397 199 -550 176 -299 423 -534 717
-680 124 -62 217 -95 360 -129 421 -101 899 -10 1280 242 80 53 213 162 253
207 10 11 35 38 56 60 173 186 319 465 381 730 35 148 44 224 44 390 1 216
-19 342 -85 539 -107 319 -354 632 -643 815 -58 36 -73 37 -143 10z"/>
<path d="M4054 3309 c-215 -20 -399 -129 -507 -301 -38 -60 -74 -146 -82 -197
-3 -19 -8 -38 -10 -42 -7 -11 -7 -159 0 -204 26 -177 135 -347 278 -433 117
-71 283 -107 338 -75 38 23 74 119 74 198 0 73 -17 99 -94 147 -87 54 -147
104 -171 142 -28 46 -48 122 -43 161 16 115 129 199 268 200 96 0 158 -31 200
-99 28 -47 30 -56 31 -158 l1 -108 34 -33 c78 -76 140 -107 210 -107 32 0 47
8 83 43 98 94 108 297 22 482 -36 77 -99 171 -140 209 -83 74 -172 128 -256
154 -59 19 -161 28 -236 21z"/>
</g>
</svg>
