<svg width="24" height="24" viewBox="0 0 24 24" fill="none" xmlns="http://www.w3.org/2000/svg">
<g id="send">
<path id="Icon" d="M12.0003 2C12.379 2 12.7253 2.214 12.8947 2.55279L21.8947 20.5528C22.0672 20.8978 22.0259 21.3113 21.7885 21.6154C21.551 21.9195 21.1599 22.0599 20.7833 21.9762L12.0003 20.0244L3.21718 21.9762C2.8406 22.0599 2.44946 21.9195 2.21205 21.6154C1.97464 21.3113 1.9333 20.8978 2.10582 20.5528L11.1058 2.55279C11.2752 2.214 11.6215 2 12.0003 2ZM13.0003 18.1978L19.1662 19.568L13.0003 7.23607V18.1978ZM11.0003 7.23607L4.83426 19.568L11.0003 18.1978V7.23607Z" fill="white"/>
</g>
</svg>
