<svg width="99" height="37" viewBox="0 0 99 37" fill="none" xmlns="http://www.w3.org/2000/svg">
<g id="Logo">
<path id="Vector" d="M14.5861 18.433C16.4888 20.1816 17.0955 22.3063 16.4064 24.807C15.3858 28.5051 11.2086 30.082 7.74121 29.0598C2.56856 27.5345 0.863284 21.4134 3.69483 17.0705C5.28906 14.625 8.22768 13.5486 9.51126 10.7734C9.914 9.90301 10.2506 9.00575 10.5212 8.08156C10.5344 8.03654 10.56 7.99991 10.5979 7.97166C11.0103 7.66581 11.9158 7.58901 12.1141 8.2272C12.6521 9.96701 13.2443 11.4976 14.3058 12.6178C15.2788 13.6426 16.5703 14.6528 17.4018 15.4075C20.6048 18.3165 21.6279 23.0116 19.3846 26.8209C18.9365 27.5822 17.3449 26.5031 17.7481 25.9073C19.3423 23.5478 18.8136 20.2218 17.2921 18.0053C15.5286 15.4353 12.4671 14.3311 11.4928 11.1163C11.4787 11.0713 11.4509 11.039 11.4095 11.0196C11.2496 10.9455 11.128 11.0368 11.083 11.1984C10.1749 14.4291 6.68632 15.7002 5.08019 18.3178C2.92151 21.8371 4.59373 26.6554 8.78156 27.5716C10.7578 28.0046 12.9112 27.2989 14.1142 25.6689C15.6502 23.5875 15.0739 20.1172 12.5107 19.1215C11.8938 18.8814 11.3161 18.8201 10.7777 18.9375C8.55683 19.4247 7.76368 22.3085 10.1365 23.2856C10.8913 23.5968 11.3765 23.3982 11.2932 24.5528C11.2522 25.1221 10.9442 25.2267 10.434 25.1459C8.37044 24.8176 7.01548 23.5028 7.00094 21.3843C6.97053 17.3791 11.8629 15.9305 14.5861 18.433Z" fill="#45167A"/>
<path id="Vector_2" d="M30.8492 20.1754C31.2101 19.9993 31.4863 19.2698 31.1889 18.8739C30.8664 18.4449 30.1948 18.3324 29.6647 18.2529C27.7995 17.9709 25.1927 17.9894 24.8913 15.5518C24.4339 11.8471 32.2332 11.5175 32.9695 15.2328C32.9738 15.254 32.9733 15.2759 32.9681 15.2969C32.9628 15.318 32.953 15.3376 32.9392 15.3544C32.9254 15.3713 32.9081 15.3849 32.8884 15.3943C32.8688 15.4037 32.8473 15.4087 32.8254 15.4088H31.2167C31.162 15.4088 31.1228 15.3841 31.099 15.3347C30.5319 14.1298 28.9549 13.9868 27.8141 14.253C27.3302 14.3655 26.8107 14.6343 26.7103 15.1493C26.3005 17.2678 33.4838 15.1891 33.1308 19.614C33.0876 20.1595 32.8545 20.6419 32.4315 21.0612C30.5002 22.9758 25.428 22.4078 24.7604 19.3347C24.7555 19.3125 24.7556 19.2894 24.7608 19.2672C24.7661 19.2451 24.7762 19.2243 24.7905 19.2066C24.8049 19.1888 24.823 19.1744 24.8437 19.1645C24.8643 19.1546 24.8869 19.1494 24.9098 19.1493H26.5768C26.6199 19.1493 26.6495 19.1696 26.6653 19.2102C27.284 20.8083 29.5445 20.8097 30.8492 20.1754Z" fill="#45167A"/>
<path id="Vector_3" d="M54.643 12.8008H53.2338C53.1214 12.8008 53.0303 12.8921 53.0303 13.0047V21.7567C53.0303 21.8693 53.1214 21.9606 53.2338 21.9606H54.643C54.7554 21.9606 54.8466 21.8693 54.8466 21.7567V13.0047C54.8466 12.8921 54.7554 12.8008 54.643 12.8008Z" fill="#45167A"/>
<path id="Vector_4" d="M61.3581 14.6953V21.7565C61.3581 21.8112 61.3364 21.8638 61.2977 21.9025C61.259 21.9412 61.2066 21.963 61.1519 21.963L59.7136 21.9617C59.6589 21.9617 59.6065 21.9399 59.5678 21.9012C59.5291 21.8624 59.5074 21.8099 59.5074 21.7551V14.6887C59.5074 14.6339 59.4857 14.5813 59.447 14.5426C59.4083 14.5039 59.3559 14.4821 59.3012 14.4821H56.508C56.4533 14.4821 56.4008 14.4604 56.3622 14.4216C56.3235 14.3829 56.3018 14.3303 56.3018 14.2756V13.0005C56.3018 12.9457 56.3235 12.8932 56.3622 12.8544C56.4008 12.8157 56.4533 12.7939 56.508 12.7939L64.3575 12.7979C64.4122 12.7979 64.4647 12.8197 64.5033 12.8584C64.542 12.8972 64.5637 12.9497 64.5637 13.0045V14.2729C64.5637 14.3275 64.5422 14.3798 64.5038 14.4185C64.4654 14.4572 64.4133 14.4791 64.3588 14.4795L61.563 14.4887C61.5085 14.4891 61.4564 14.511 61.418 14.5497C61.3796 14.5884 61.3581 14.6407 61.3581 14.6953Z" fill="#45167A"/>
<path id="Vector_5" d="M35.1429 16.6578C36.675 14.7525 40.149 14.7551 41.6797 16.6167C43.0453 18.2784 42.4055 20.8603 40.4292 21.7223C38.6988 22.4757 36.3683 22.2439 35.123 20.7239C34.162 19.5521 34.2056 17.8229 35.1429 16.6578ZM40.5984 18.6874C40.5988 18.4535 40.5427 18.2219 40.4333 18.0056C40.3238 17.7893 40.1632 17.5927 39.9606 17.427C39.758 17.2613 39.5173 17.1297 39.2524 17.0397C38.9874 16.9498 38.7033 16.9032 38.4164 16.9027C38.1294 16.9022 37.8452 16.9478 37.5799 17.0368C37.3147 17.1258 37.0736 17.2566 36.8704 17.4216C36.6672 17.5866 36.5059 17.7827 36.3957 17.9985C36.2855 18.2144 36.2286 18.4459 36.2282 18.6797C36.2277 18.9136 36.2839 19.1453 36.3933 19.3615C36.5027 19.5778 36.6633 19.7744 36.866 19.9401C37.0686 20.1058 37.3092 20.2374 37.5742 20.3274C37.8392 20.4174 38.1232 20.4639 38.4102 20.4644C38.6971 20.4649 38.9814 20.4194 39.2466 20.3303C39.5119 20.2413 39.753 20.1105 39.9562 19.9455C40.1594 19.7805 40.3207 19.5845 40.4309 19.3686C40.5411 19.1527 40.598 18.9213 40.5984 18.6874Z" fill="#45167A"/>
<path id="Vector_6" d="M66.1832 19.2456C66.1832 19.2606 66.1783 19.2729 66.1686 19.2827C66.1536 19.2968 66.1492 19.314 66.1554 19.3343C66.7199 21.0132 68.8204 21.0476 69.9704 19.9937C70.0075 19.9601 70.0506 19.9434 70.1 19.9434L71.5581 19.9447C71.5947 19.9446 71.6299 19.9583 71.6569 19.983C71.6839 20.0078 71.7005 20.0419 71.7035 20.0784C71.7114 20.1729 71.6859 20.2686 71.6268 20.3657C70.3895 22.3889 67.3742 22.6643 65.5539 21.331C64.2862 20.4028 63.8685 18.6683 64.5479 17.2516C66.1329 13.9467 72.334 14.7796 72.0234 19.0059C72.021 19.0447 72.0038 19.0811 71.9753 19.1077C71.9468 19.1343 71.9092 19.149 71.87 19.1489H66.2823C66.2565 19.1489 66.2316 19.159 66.2131 19.1771C66.1946 19.1951 66.1838 19.2197 66.1832 19.2456ZM66.1898 18.2247L70.0788 18.2168C70.083 18.2168 70.0871 18.2151 70.0901 18.2121C70.093 18.2092 70.0947 18.2051 70.0947 18.2009V18.1943C70.0938 17.8007 69.8882 17.4237 69.5231 17.1461C69.1579 16.8685 68.6631 16.7131 68.1475 16.714H68.1158C67.8604 16.7144 67.6075 16.7533 67.3717 16.8283C67.1359 16.9034 66.9217 17.0131 66.7413 17.1513C66.561 17.2895 66.4181 17.4535 66.3207 17.6338C66.2234 17.8141 66.1735 18.0073 66.1739 18.2022V18.2088C66.1739 18.2131 66.1756 18.2171 66.1785 18.2201C66.1815 18.2231 66.1856 18.2247 66.1898 18.2247Z" fill="#45167A"/>
<path id="Vector_7" d="M79.8697 16.0903C79.9719 15.957 80.0243 15.803 80.027 15.6282C80.0273 15.5712 80.0503 15.5167 80.0909 15.4765C80.1316 15.4363 80.1865 15.4137 80.2438 15.4137H81.4864C81.6168 15.4137 81.682 15.4791 81.682 15.6097V21.7784C81.682 21.8266 81.6631 21.8727 81.6294 21.9067C81.5957 21.9407 81.5499 21.9598 81.5022 21.9598H80.1962C80.1275 21.9598 80.0851 21.9259 80.0693 21.8579L79.9609 21.3971C79.9546 21.3701 79.9419 21.3451 79.9237 21.3242C79.9055 21.3033 79.8825 21.2871 79.8567 21.2772C79.8309 21.2673 79.803 21.2638 79.7755 21.2672C79.7481 21.2706 79.7218 21.2806 79.6991 21.2965C77.9873 22.4908 75.6633 22.4617 74.233 20.9231C72.6652 19.2376 73.3434 16.4531 75.4756 15.5806C76.965 14.9706 78.3905 15.1467 79.752 16.1089C79.797 16.1398 79.8362 16.1336 79.8697 16.0903ZM79.8961 18.6924C79.8978 18.1986 79.6517 17.7243 79.2119 17.3736C78.7721 17.0229 78.1746 16.8247 77.5509 16.8225C77.2421 16.8215 76.9361 16.8685 76.6505 16.9611C76.3648 17.0537 76.1051 17.1899 75.8861 17.362C75.6672 17.5341 75.4932 17.7387 75.3742 17.9641C75.2553 18.1896 75.1936 18.4314 75.1928 18.6759C75.191 19.1696 75.4371 19.644 75.877 19.9947C76.3168 20.3453 76.9142 20.5436 77.5379 20.5457C77.8468 20.5468 78.1527 20.4997 78.4384 20.4072C78.724 20.3146 78.9837 20.1784 79.2027 20.0063C79.4217 19.8342 79.5956 19.6296 79.7146 19.4041C79.8336 19.1787 79.8953 18.9368 79.8961 18.6924Z" fill="#45167A"/>
<path id="Vector_8" d="M90.3488 16.8304C90.3588 16.8477 90.3728 16.8622 90.3896 16.8728C90.4065 16.8834 90.4256 16.8897 90.4455 16.8911C90.4653 16.8926 90.4852 16.8891 90.5033 16.8811C90.5215 16.873 90.5375 16.8606 90.5498 16.845C90.6643 16.7002 90.7807 16.5497 90.8988 16.3935C92.5022 14.2697 95.5836 15.2323 96.2168 17.6831C96.5129 18.8271 96.3636 20.5378 96.353 21.7837C96.3527 21.8284 96.3349 21.8713 96.3036 21.9032C96.2723 21.9351 96.2298 21.9535 96.1851 21.9545C95.7039 21.9678 95.2346 21.9678 94.7773 21.9545C94.6001 21.9501 94.5129 21.8424 94.5155 21.6314C94.5287 20.6159 94.7363 18.8907 94.3582 18.0035C93.5836 16.1883 90.8776 16.7603 90.8485 18.7635C90.8336 19.7734 90.8309 20.7712 90.8406 21.7572C90.8408 21.7839 90.8357 21.8104 90.8256 21.8352C90.8155 21.8599 90.8006 21.8824 90.7818 21.9013C90.763 21.9203 90.7407 21.9353 90.7161 21.9456C90.6914 21.9558 90.665 21.9611 90.6383 21.9611H89.2146C89.1628 21.9611 89.113 21.9405 89.0763 21.9037C89.0396 21.867 89.019 21.8171 89.019 21.7652C89.0199 20.8119 89.0186 19.8409 89.015 18.8523C89.0097 16.8635 86.3395 16.1168 85.5239 17.9307C85.1286 18.8072 85.3137 20.5947 85.3176 21.6314C85.3185 21.8274 85.2388 21.9294 85.0784 21.9373C84.6095 21.9611 84.1367 21.9686 83.66 21.9598C83.6173 21.9591 83.5766 21.9416 83.5467 21.9112C83.5168 21.8807 83.5 21.8397 83.5 21.7969V15.5593C83.5 15.5207 83.5155 15.4837 83.543 15.4564C83.5705 15.429 83.6078 15.4137 83.6467 15.4137L85.0123 15.4163C85.0731 15.4163 85.1092 15.4464 85.1207 15.5064L85.2291 16.0704C85.2351 16.1015 85.2494 16.1303 85.2705 16.1537C85.2917 16.1772 85.3188 16.1944 85.3491 16.2035C85.3793 16.2127 85.4114 16.2134 85.442 16.2055C85.4725 16.1977 85.5004 16.1817 85.5225 16.1591C87.0189 14.6563 89.3111 15.0496 90.3488 16.8304Z" fill="#45167A"/>
<path id="Vector_9" d="M49.334 21.1216C49.2618 21.1322 49.1877 21.1742 49.112 21.2474C48.1932 22.1504 46.9612 22.3663 45.7675 21.9108C43.1937 20.927 43.6643 17.7162 43.6802 15.5831C43.6804 15.5604 43.685 15.5378 43.6939 15.5169C43.7028 15.4959 43.7157 15.4769 43.7319 15.4609C43.7481 15.4449 43.7673 15.4323 43.7883 15.4237C43.8094 15.4152 43.832 15.4108 43.8547 15.411L45.3524 15.4163C45.3901 15.4167 45.426 15.4319 45.4525 15.4587C45.479 15.4854 45.4939 15.5216 45.4939 15.5593C45.4948 16.5303 45.4974 17.5061 45.5018 18.4868C45.5111 20.5695 48.3823 21.2143 49.2283 19.411C49.6116 18.5954 49.4438 16.3577 49.4266 15.7381C49.4213 15.5439 49.5015 15.4423 49.6672 15.4335C50.1237 15.4088 50.5907 15.4022 51.0684 15.4137C51.1125 15.4147 51.1544 15.4326 51.1855 15.4637C51.2166 15.4948 51.2343 15.5367 51.235 15.5805C51.2632 17.4209 51.2786 19.2834 51.2812 21.168C51.2812 21.4522 51.2662 21.6848 51.2363 21.8658C51.2257 21.9267 51.1896 21.9571 51.1279 21.9571H49.7306C49.6707 21.9571 49.6346 21.9276 49.6222 21.8684L49.4953 21.2355C49.4882 21.1994 49.4675 21.1674 49.4375 21.1462C49.4074 21.125 49.3704 21.1162 49.334 21.1216Z" fill="#45167A"/>
</g>
</svg>
