<svg width="103" height="24" viewBox="0 0 103 24" fill="none" xmlns="http://www.w3.org/2000/svg">
<g id="Vector">
<path d="M39.6966 7.05916C38.5619 6.34118 37.1589 5.82169 35.2984 5.82169C32.7364 5.82169 30.7376 7.09184 30.7376 9.27311C30.7376 11.1062 32.1649 12.0826 34.3695 12.3219L35.45 12.4416C37.2429 12.6374 38.2612 13.1134 38.2612 14.1116C38.2612 15.3708 36.8881 15.9909 35.1576 15.9909C33.6247 15.9909 32.0674 15.3708 31.2035 14.7535L30.3721 16.0345C31.5177 16.8911 33.4297 17.465 35.1576 17.465C37.7304 17.465 39.9458 16.3472 39.9458 13.962C39.9458 12.0826 38.3777 11.1824 36.2273 10.943L35.1684 10.8233C33.3213 10.6193 32.4249 10.108 32.4249 9.13167C32.4358 7.9812 33.6464 7.30942 35.2984 7.30942C36.7256 7.30942 38.0013 7.77447 38.9194 8.36198L39.6966 7.05916Z" fill="white"/>
<path d="M51.9436 7.10853H47.2933V3.88117H45.5978V7.10853H43.2471V8.55425H45.5978V13.7137C45.5978 16.2666 46.9741 17.4651 49.2936 17.4651C50.6129 17.4651 51.6814 17.0378 52.4906 16.4574L51.6928 15.2455C51.0688 15.6754 50.2624 15.9656 49.4304 15.9656C48.1794 15.9656 47.2933 15.2669 47.2933 13.6815V8.55425H51.9436V7.10853Z" fill="white"/>
<path d="M65.6956 6.99835H64.1211V8.52464C63.3266 7.48445 62.1129 6.79194 60.4621 6.79194C57.6505 6.79194 55.4614 9.04604 55.4614 12.1231C55.4614 15.2109 57.6505 17.465 60.4621 17.465C62.1129 17.465 63.3266 16.7834 64.1211 15.7323V17.2613H65.6956V6.99835ZM60.6525 8.31005C62.7354 8.31005 64.2169 9.95585 64.2169 12.1231C64.2169 14.3011 62.7354 15.9496 60.6525 15.9496C58.5274 15.9496 57.0676 14.2468 57.0676 12.1231C57.0676 10.0102 58.5062 8.31005 60.6525 8.31005Z" fill="white"/>
<path d="M76.0056 6.79194C74.7351 6.79194 73.6405 7.36151 72.9268 8.36804V6.98962H71.3077V16.8182H72.9379V11.3174C72.9379 9.4578 74.0988 8.25622 75.7206 8.25622C76.3213 8.25622 77.0128 8.38887 77.515 8.64894L77.9103 7.12484C77.3614 6.8856 76.7495 6.79194 76.0056 6.79194Z" fill="white"/>
<path d="M89.2509 7.10853H84.6003V3.88117H82.905V7.10853H80.5516V8.55425H82.905V13.7137C82.905 16.2666 84.2813 17.4651 86.6007 17.4651C87.9202 17.4651 88.9887 17.0378 89.7948 16.4574L88.9998 15.2455C88.3729 15.6754 87.5667 15.9656 86.7377 15.9656C85.4867 15.9656 84.6003 15.2669 84.6003 13.6815V8.55425H89.2509V7.10853Z" fill="white"/>
<path d="M103 6.99835H101.423V8.52464C100.632 7.48445 99.4156 6.79194 97.7676 6.79194C94.9543 6.79194 92.7657 9.04604 92.7657 12.1231C92.7657 15.2109 94.9543 17.465 97.7676 17.465C99.4156 17.465 100.632 16.7834 101.423 15.7323V17.2613H103V6.99835ZM97.958 8.31005C100.041 8.31005 101.519 9.95585 101.519 12.1231C101.519 14.3011 100.041 15.9496 97.958 15.9496C95.8312 15.9496 94.3736 14.2468 94.3736 12.1231C94.3736 10.0102 95.8095 8.31005 97.958 8.31005Z" fill="white"/>
<path fill-rule="evenodd" clip-rule="evenodd" d="M26.4103 11.9685L5.28212 23.9336V0L26.4103 11.9685ZM7.85216 19.5875L21.308 11.9685L7.85216 4.34607V19.5875Z" fill="#8D8E1B"/>
<path fill-rule="evenodd" clip-rule="evenodd" d="M10.5641 17.4651L0 11.972L10.5641 6.4686V17.4651ZM3.22631 11.972L9.07397 15.0119V8.92184L3.22631 11.972Z" fill="white"/>
</g>
</svg>
