<svg width="48" height="48" viewBox="0 0 48 48" fill="none" xmlns="http://www.w3.org/2000/svg">
<circle cx="24" cy="24" r="22.5" stroke="#6236FF" stroke-opacity="0.8" stroke-width="3"/>
<path d="M35.0765 16.1699L24.5765 12.6699C24.3969 12.61 24.2027 12.61 24.0231 12.6699L13.5231 16.1699C13.3489 16.228 13.1973 16.3394 13.0899 16.4884C12.9826 16.6374 12.9248 16.8164 12.9248 17.0001V25.7501C12.9248 25.9821 13.017 26.2047 13.1811 26.3688C13.3452 26.5329 13.5677 26.6251 13.7998 26.6251C14.0319 26.6251 14.2544 26.5329 14.4185 26.3688C14.5826 26.2047 14.6748 25.9821 14.6748 25.7501V18.2141L18.3487 19.438C17.3726 21.015 17.0622 22.9149 17.4857 24.7205C17.9091 26.5262 19.0319 28.0899 20.6073 29.0685C18.6386 29.8407 16.9367 31.2374 15.692 33.1471C15.6273 33.2433 15.5823 33.3514 15.5597 33.4652C15.5371 33.5789 15.5374 33.696 15.5605 33.8096C15.5835 33.9233 15.629 34.0312 15.6941 34.1271C15.7593 34.2231 15.8428 34.3051 15.9399 34.3684C16.0371 34.4318 16.1458 34.4752 16.2599 34.4962C16.3739 34.5171 16.491 34.5152 16.6043 34.4905C16.7176 34.4658 16.8249 34.4188 16.9199 34.3523C17.0148 34.2858 17.0957 34.2011 17.1576 34.103C18.8059 31.5743 21.409 30.1251 24.2998 30.1251C27.1906 30.1251 29.7937 31.5743 31.442 34.103C31.5703 34.2938 31.7686 34.4263 31.9939 34.4721C32.2192 34.5178 32.4534 34.4731 32.646 34.3475C32.8385 34.2219 32.9739 34.0255 33.0229 33.8009C33.0719 33.5763 33.0304 33.3414 32.9076 33.1471C31.6629 31.2374 29.9545 29.8407 27.9923 29.0685C29.5662 28.09 30.6879 26.5272 31.1113 24.7229C31.5347 22.9186 31.2253 21.02 30.2509 19.4435L35.0765 17.8357C35.2508 17.7776 35.4024 17.6662 35.5098 17.5172C35.6172 17.3682 35.675 17.1892 35.675 17.0055C35.675 16.8219 35.6172 16.6428 35.5098 16.4938C35.4024 16.3448 35.2508 16.2334 35.0765 16.1754V16.1699ZM29.5498 23.1251C29.55 23.9551 29.3535 24.7733 28.9763 25.5126C28.599 26.2519 28.0519 26.8913 27.3797 27.3782C26.7076 27.8651 25.9295 28.1857 25.1095 28.3137C24.2894 28.4417 23.4507 28.3735 22.6621 28.1146C21.8735 27.8557 21.1575 27.4135 20.573 26.8243C19.9884 26.2351 19.5518 25.5157 19.2991 24.7251C19.0464 23.9345 18.9847 23.0952 19.1191 22.2762C19.2536 21.4572 19.5803 20.6817 20.0725 20.0133L24.0231 21.3258C24.2027 21.3857 24.3969 21.3857 24.5765 21.3258L28.5271 20.0133C29.1919 20.9146 29.5503 22.0052 29.5498 23.1251ZM24.2998 19.578L16.567 17.0001L24.2998 14.4221L32.0326 17.0001L24.2998 19.578Z" fill="#6337FF"/>
</svg>
