<svg width="757" height="600" viewBox="0 0 757 600" fill="none" xmlns="http://www.w3.org/2000/svg">
<g filter="url(#filter0_d_171_11606)">
<path d="M426.853 171.942L428.115 177.036L424.636 180.967L429.871 181.336L432.534 185.86L434.506 180.996L439.631 179.859L435.611 176.485L436.118 171.26L431.663 174.037L426.853 171.942Z" fill="#45167A"/>
<path d="M211.769 410.293L215.573 413.905L214.759 419.089L219.369 416.583L224.05 418.961L223.091 413.801L226.798 410.085L221.595 409.403L219.206 404.73L216.949 409.467L211.769 410.293Z" fill="#45167A"/>
<path d="M331.233 270.649L333.478 272.779L332.998 275.839L335.717 274.36L338.478 275.761L337.912 272.718L340.099 270.527L337.03 270.122L335.623 267.367L334.29 270.16L331.233 270.649Z" fill="#45167A"/>
<path d="M221.332 435.784C221.889 435.579 222.451 435.409 223.02 435.244C224.711 434.756 225.289 437.645 223.494 437.989C223.228 438.04 222.954 438.072 222.686 438.112C222.221 438.18 221.674 438.029 221.388 437.63C221.029 437.13 220.984 436.89 221.156 436.291C221.292 435.818 221.756 435.492 222.217 435.4C222.482 435.347 222.751 435.286 223.02 435.244C224.825 434.965 225.252 437.881 223.494 437.989C222.901 438.026 222.318 438.054 221.723 438.047C220.553 438.036 220.233 436.189 221.332 435.784Z" fill="#45167A"/>
<path d="M305.646 521.978L307.891 524.109L307.408 527.167L310.13 525.688L312.889 527.09L312.325 524.046L314.51 521.856L311.441 521.453L310.034 518.695L308.701 521.492L305.646 521.978Z" fill="#45167A"/>
<path d="M350.671 499.079C350.31 499.03 349.948 498.981 349.587 498.932C349.174 498.876 348.783 498.79 348.446 498.527C348.186 498.323 347.981 498.058 347.924 497.727C347.867 497.397 347.971 497.078 348.147 496.798C348.376 496.437 348.716 496.225 349.086 496.034C349.409 495.866 349.734 495.698 350.057 495.53C351.132 494.973 352.467 495.772 352.663 496.906C352.86 498.041 351.87 499.242 350.671 499.079Z" fill="#45167A"/>
<path d="M344.846 224.246L347.091 226.376L346.61 229.435L349.328 227.958L352.09 229.36L351.524 226.313L353.712 224.122L350.642 223.72L349.234 220.965L347.902 223.757L344.846 224.246Z" fill="#45167A"/>
<path d="M589.493 317.737L591.739 319.865L591.257 322.924L593.976 321.445L596.738 322.847L596.171 319.804L598.359 317.613L595.288 317.212L593.883 314.455L592.55 317.249L589.493 317.737Z" fill="#45167A"/>
<path d="M609.956 350.018L613.763 353.627L612.946 358.814L617.556 356.309L622.237 358.686L621.279 353.525L624.985 349.81L619.782 349.129L617.397 344.453L615.138 349.193L609.956 350.018Z" fill="#45167A"/>
<path d="M284.811 574.194C285.079 573.923 285.347 573.651 285.615 573.379C285.757 573.235 285.809 573.079 285.518 573.491C285.886 572.969 286.697 572.793 287.218 573.197C287.741 573.602 287.906 574.337 287.512 574.896C287.475 574.948 287.713 574.492 287.653 574.628C287.631 574.675 287.607 574.721 287.585 574.767C287.419 575.111 287.253 575.455 287.087 575.799C286.864 576.26 286.518 576.663 285.974 576.733C285.593 576.782 285.215 576.716 284.896 576.49C284.593 576.277 284.368 575.921 284.305 575.556C284.21 575.009 284.438 574.573 284.811 574.194Z" fill="#45167A"/>
<path d="M683.36 151.955C682.134 153.693 679.431 151.792 680.658 150.051C681.883 148.312 684.587 150.214 683.36 151.955Z" fill="#45167A"/>
<path d="M566.767 140.896L570.574 144.509L569.759 149.695L574.368 147.188L579.049 149.566L578.088 144.409L581.796 140.692L576.591 140.009L574.206 135.334L571.948 140.072L566.767 140.896Z" fill="#45167A"/>
<path d="M634.009 476.439L637.816 480.05L637.002 485.234L641.613 482.729L646.29 485.108L645.335 479.947L649.039 476.231L643.837 475.548L641.452 470.873L639.192 475.612L634.009 476.439Z" fill="#45167A"/>
<path d="M328.009 250.788C328.818 250.829 328.593 250.982 329.19 250.705C328.955 251.334 328.72 251.964 328.484 252.593C328.479 252.577 328.474 252.562 328.469 252.546C328.74 252.796 329.011 253.045 329.283 253.295C328.664 253.019 328.02 252.991 327.395 252.642C326.843 252.333 326.969 251.578 327.342 251.213C328.219 250.357 330.496 249.913 331.078 251.41C331.433 252.324 330.94 253.158 330.024 253.406C329.387 253.578 328.417 253.157 327.817 253.027C326.442 252.728 326.521 250.713 328.009 250.788Z" fill="#45167A"/>
<path d="M554.68 91.3985C554.948 90.9429 555.023 90.5158 555.468 90.1765C557.108 88.9227 559.165 91.4014 557.512 92.6645C557.249 92.8653 556.985 93.0579 556.714 93.2501C555.664 93.997 554.34 93.0657 554.691 91.8237C554.781 91.5045 554.874 91.1908 554.974 90.8757C555.607 88.898 558.635 89.995 558.005 91.9648C557.834 92.4974 557.457 92.712 557.118 93.1178C555.885 94.5943 553.702 93.06 554.68 91.3985Z" fill="#45167A"/>
<path d="M289.939 143.368C296.706 143.078 303.805 144.639 310.393 146.08C317.275 147.585 324.044 149.565 330.681 151.925C344.66 156.897 358.044 163.524 370.701 171.246C396.38 186.913 419.548 207.314 438.166 230.953C447.634 242.973 456.709 256.168 461.98 270.628C462.236 271.332 461.274 271.782 460.917 271.113C454.49 259.059 447.747 247.288 439.534 236.342C430.684 224.548 420.676 213.613 409.85 203.607C388.127 183.528 362.863 166.603 335.28 155.726C327.902 152.817 320.341 150.368 312.638 148.474C308.891 147.552 305.109 146.774 301.3 146.152C297.488 145.531 293.627 145.254 289.839 144.532C289.09 144.389 289.191 143.4 289.939 143.368Z" fill="#45167A"/>
<path d="M286.406 152.751C300.379 160.175 313.155 170.162 324.533 181.108C335.542 191.699 345.233 203.593 353.582 216.379C370.392 242.126 381.576 271.222 388.05 301.212C391.726 318.238 394.488 335.876 394.433 353.329C394.43 354.282 392.871 354.349 392.765 353.401C391.051 338.066 389.68 322.756 386.713 307.591C383.766 292.526 379.7 277.655 374.364 263.257C363.859 234.909 348.245 208.439 327.098 186.719C314.658 173.942 300.5 163.569 285.404 154.172C284.434 153.568 285.446 152.241 286.406 152.751Z" fill="#45167A"/>
<path d="M296.867 146.787C303.558 150.902 310.55 154.373 317.789 157.413C324.903 160.4 332.129 163.134 339.135 166.371C352.037 172.333 363.283 180.835 373.665 190.47C393.498 208.874 409.861 231.51 420.938 256.209C426.965 269.649 432.007 284.078 433.674 298.772C433.717 299.154 433.172 299.249 433.085 298.874C430.112 285.993 426.529 273.366 421.285 261.206C415.857 248.619 409.169 236.568 401.372 225.296C393.727 214.244 385.034 203.901 375.38 194.549C365.374 184.855 354.296 175.797 341.748 169.613C334.07 165.829 326.041 162.838 318.151 159.537C310.509 156.339 302.772 152.831 296.288 147.609C295.784 147.203 296.315 146.447 296.867 146.787Z" fill="#45167A"/>
<path d="M295.448 153.926C305.951 157.919 315.812 164.391 325.088 170.645C334.815 177.203 344.095 184.434 352.777 192.326C369.956 207.945 384.872 226.183 395.262 247.028C398.173 252.867 400.716 258.887 402.775 265.08C404.771 271.083 406.608 277.408 407.222 283.722C407.268 284.199 406.629 284.297 406.499 283.847C404.893 278.277 403.562 272.667 401.69 267.169C399.874 261.832 397.749 256.588 395.353 251.486C390.464 241.073 384.388 231.244 377.462 222.066C363.513 203.583 346.498 187.617 327.624 174.244C322.423 170.559 317.083 167.072 311.62 163.788C306.218 160.541 300.59 157.648 295.262 154.284C295.066 154.161 295.235 153.845 295.448 153.926Z" fill="#45167A"/>
<path d="M510.056 281.42C509.596 279.618 510.168 277.636 509.774 275.759C509.399 273.975 508.51 272.353 507.33 270.975C504.748 267.96 500.952 266.144 497.2 265.062C488.923 262.676 478.457 263.36 471.722 269.225C469.937 270.78 468.517 272.726 467.634 274.924C466.565 277.585 466.455 280.351 465.997 283.138C465.853 284.013 464.724 284.038 464.49 283.203C463.095 278.235 465.251 272.511 468.615 268.826C471.934 265.191 476.6 263.119 481.372 262.192C490.338 260.451 501.955 262.102 508.419 269.139C509.945 270.8 511.079 272.81 511.594 275.013C512.069 277.047 512.24 280.061 510.673 281.649C510.454 281.87 510.12 281.668 510.056 281.42Z" fill="#45167A"/>
<path d="M478.816 288.981C477.595 288.456 476.684 287.424 475.491 286.82C474.358 286.246 473.102 285.985 471.834 286.011C469.23 286.063 466.722 287.333 464.677 288.866C462.342 290.615 460.408 292.85 458.908 295.347C457.408 297.845 456.783 300.627 455.554 303.216C455.226 303.908 454.321 303.826 454.115 303.09C453.245 299.983 455.013 296.289 456.592 293.714C458.442 290.699 460.961 287.986 463.931 286.053C466.452 284.413 469.507 283.248 472.562 283.592C475.162 283.885 478.864 285.628 479.444 288.453C479.514 288.79 479.142 289.122 478.816 288.981Z" fill="#45167A"/>
<path d="M459.99 291.552C457.991 287.903 454.786 285.805 450.583 285.901C446.602 285.992 443.472 287.951 440.157 289.897C439.595 290.227 439.112 289.455 439.404 288.989C441.821 285.126 447.364 283.554 451.676 283.77C456.25 284 460.335 286.547 461.303 291.147C461.473 291.953 460.352 292.213 459.99 291.552Z" fill="#45167A"/>
<path d="M445.084 305.402C443.912 304.64 443.001 303.632 441.609 303.251C440.454 302.935 439.23 303.011 438.085 303.333C435.273 304.123 432.856 306.235 431.16 308.548C429.291 311.096 428.079 314.189 428.1 317.377C428.111 319.014 428.484 320.628 429.184 322.107C430.002 323.835 431.62 325.124 432.233 326.909C432.508 327.71 431.867 328.411 431.046 328.199C427.969 327.403 426.159 322.984 425.614 320.149C425.027 317.1 425.515 313.881 426.748 311.05C428.878 306.159 433.502 301.223 439.126 300.827C441.773 300.641 445.192 301.784 446.235 304.448C446.514 305.163 445.742 305.83 445.084 305.402Z" fill="#45167A"/>
<path d="M377.234 367.847C377.291 366.993 376.889 366.317 377.156 365.357C377.453 364.284 378.128 363.224 378.734 362.301C379.954 360.445 381.521 358.796 383.259 357.418C386.863 354.558 391.288 352.731 395.817 351.993C400.219 351.276 404.957 351.523 409.107 353.244C412.49 354.647 418.004 358.248 417.593 362.433C417.546 362.905 417.019 363.134 416.631 362.881C415.02 361.826 414.193 360.028 412.815 358.654C411.403 357.246 409.707 356.141 407.867 355.378C404.034 353.788 399.787 353.558 395.729 354.276C391.584 355.01 387.553 356.721 384.276 359.385C382.694 360.672 381.31 362.175 380.218 363.9C379.733 364.665 379.397 365.509 378.916 366.272C378.536 366.877 377.754 367.356 377.455 367.927C377.397 368.042 377.227 367.957 377.234 367.847Z" fill="#45167A"/>
<path d="M405.37 354.341C402.175 347.451 406.84 340.535 413.565 338.501C420.906 336.281 429.531 337.867 436.329 341.107C439.33 342.538 444.736 345.229 445.216 348.995C445.27 349.424 444.851 349.865 444.407 349.674C442.641 348.919 441.225 347.25 439.679 346.13C437.927 344.859 436.017 343.827 434.024 342.99C429.914 341.264 425.467 340.282 421.005 340.225C417.279 340.178 413.091 340.807 410.118 343.235C406.691 346.033 407.035 350.047 407.001 354.059C406.993 354.945 405.711 355.078 405.37 354.341Z" fill="#45167A"/>
<path d="M443.846 325.188C441.444 325.292 439.109 325.208 436.773 325.898C434.589 326.544 432.51 327.623 430.732 329.047C429.01 330.427 427.559 332.171 426.677 334.206C426.193 335.321 425.928 336.458 425.784 337.662C425.669 338.614 425.625 339.432 424.862 340.107C424.648 340.296 424.284 340.305 424.056 340.137C422.157 338.734 423.478 335.072 424.247 333.332C425.326 330.892 427.051 328.762 429.15 327.122C432.961 324.144 439.419 321.848 444.093 324.057C444.713 324.349 444.508 325.159 443.846 325.188Z" fill="#45167A"/>
<path d="M427.325 363.352C424.415 362.66 420.652 362.485 417.831 363.574C414.366 364.913 412.827 367.698 412.584 371.282C412.461 373.104 409.866 372.785 409.823 371.047C409.716 366.754 412.295 362.962 416.257 361.361C418.098 360.617 420.089 360.321 422.068 360.398C424.348 360.487 425.957 361.266 427.76 362.517C428.23 362.842 427.82 363.47 427.325 363.352Z" fill="#45167A"/>
<path d="M365.114 373.706C365.153 368.085 372.236 366.85 376.59 367.302C380.601 367.718 388.711 370.608 387.385 376.019C387.209 376.739 386.073 376.92 385.662 376.317C384.623 374.789 384.017 373.241 382.46 372.13C380.754 370.912 378.641 370.233 376.578 369.958C372.788 369.452 368.185 370.212 366.298 373.964C365.991 374.576 365.109 374.43 365.114 373.706Z" fill="#45167A"/>
<path d="M499.795 293.796C498.106 286.415 505.008 280.252 511.156 277.815C518.455 274.922 527.197 274.802 534.547 277.59C536.555 278.351 538.523 279.358 540.238 280.657C541.54 281.643 543.629 283.396 543.771 285.137C543.81 285.609 543.39 286.076 542.89 285.877C541.229 285.215 539.841 283.316 538.343 282.266C536.553 281.013 534.563 280.094 532.489 279.42C528.087 277.991 523.296 277.676 518.72 278.307C514.423 278.9 510.065 280.332 506.668 283.11C503.199 285.947 502.15 289.484 501.383 293.727C501.223 294.61 500.006 294.717 499.795 293.796Z" fill="#45167A"/>
<path d="M506.584 313.498C501.543 309.453 494.521 307.282 488.089 307.605C485.189 307.75 481.909 308.445 479.765 310.55C478.721 311.575 478.039 312.903 477.738 314.332C477.343 316.21 477.948 318.202 477.091 319.955C476.878 320.392 476.414 320.464 476.067 320.133C473.417 317.609 475.137 311.991 477.154 309.53C479.471 306.703 483.121 305.509 486.66 305.264C490.644 304.988 494.701 305.679 498.457 307.008C501.774 308.182 505.194 309.852 507.133 312.906C507.358 313.259 506.977 313.812 506.584 313.498Z" fill="#45167A"/>
<path d="M484.647 319.001C481.483 319.081 478.516 319.38 476.003 321.523C474.842 322.514 473.888 323.766 473.224 325.141C472.68 326.267 472.573 327.681 471.272 328.189C471.006 328.293 470.775 328.22 470.578 328.028C468.114 325.624 473.105 320.415 474.976 319.104C477.823 317.109 481.884 316.04 484.952 318.163C485.36 318.446 485.076 318.99 484.647 319.001Z" fill="#45167A"/>
<path d="M473.531 322.356C471.995 321.392 470.696 320.284 468.905 319.791C466.989 319.263 464.928 319.36 463.011 319.831C460.942 320.339 458.979 321.332 457.345 322.698C455.82 323.974 454.86 325.847 453.323 327.058C452.889 327.4 452.36 327.045 452.348 326.545C452.292 324.138 454.519 321.923 456.29 320.555C458.223 319.062 460.49 318.016 462.872 317.487C466.643 316.65 473.059 317.124 474.52 321.536C474.724 322.153 474.121 322.726 473.531 322.356Z" fill="#45167A"/>
<path d="M530.003 300.461C530.136 296.209 534.01 292.045 537.459 289.987C541.174 287.77 545.665 287.192 549.917 287.621C558.908 288.527 567.954 293.746 572.665 301.546C575.25 305.825 576.258 311.121 574.355 315.857C574.156 316.353 573.396 316.203 573.434 315.656C574.04 307.025 570.164 299.674 563.074 294.786C556.577 290.307 547.578 287.795 539.983 290.875C537.986 291.685 536.171 292.891 534.694 294.466C532.943 296.333 532.124 298.662 530.668 300.703C530.449 301.01 529.991 300.816 530.003 300.461Z" fill="#45167A"/>
<path d="M376.512 379.612C372.66 379.625 368.686 379.63 365.697 382.422C363.197 384.758 362.146 388.185 361.945 391.521C361.711 395.407 362.639 399.264 364.269 402.776C366.072 406.661 368.936 409.217 371.923 412.148C372.354 412.571 371.777 413.196 371.289 413.047C366.946 411.73 363.686 407.325 361.792 403.417C359.862 399.433 359.044 394.702 359.558 390.303C360.003 386.493 361.557 382.482 364.711 380.106C366.254 378.944 368.102 378.207 370.007 377.918C372.44 377.549 374.484 377.871 376.673 378.874C377.07 379.057 376.949 379.61 376.512 379.612Z" fill="#45167A"/>
<path d="M247.85 116.48L283.917 103.934C294.755 100.125 301.161 106.574 297.37 118.286L293.156 131.297L247.85 116.48Z" fill="#9747FF" stroke="#45167A" stroke-width="4.8711" stroke-miterlimit="10" stroke-linecap="round" stroke-linejoin="round"/>
<path d="M236.334 151.695L258.014 183.128C264.507 192.607 273.488 191.185 277.35 179.498L281.638 166.511L236.334 151.695Z" fill="#9747FF" stroke="#45167A" stroke-width="4.8711" stroke-miterlimit="10" stroke-linecap="round" stroke-linejoin="round"/>
<path d="M232.286 109.616C240.672 110.25 243.199 111.615 243.199 111.615L298.386 129.66L284.916 170.837L229.732 152.792C229.732 152.792 225.548 152.042 219.695 148.111L232.286 109.616Z" fill="#9747FF" stroke="#45167A" stroke-width="4.8711" stroke-miterlimit="10" stroke-linecap="round" stroke-linejoin="round"/>
<path d="M232.287 109.616L219.696 148.111C219.87 148.229 218.288 147.151 217.266 146.361C209.579 140.432 198.181 123.068 199.18 120.012C200.179 116.958 218.589 108.935 229.342 109.437C231.574 109.542 233.305 109.693 232.287 109.616Z" fill="#9747FF" stroke="#45167A" stroke-width="4.8711" stroke-miterlimit="10" stroke-linecap="round" stroke-linejoin="round"/>
<path d="M232.603 130.956C235.703 121.478 245.899 116.306 255.378 119.405C264.855 122.505 270.024 132.699 266.923 142.176C263.82 151.658 253.628 156.828 244.151 153.73C234.671 150.63 229.501 140.434 232.603 130.956ZM263.006 140.898C265.402 133.583 261.409 125.713 254.096 123.322C246.782 120.931 238.91 124.919 236.519 132.237C234.125 139.552 238.117 147.419 245.433 149.812C252.745 152.206 260.614 148.214 263.006 140.898Z" fill="#9747FF" stroke="#45167A" stroke-width="4.8711" stroke-miterlimit="10" stroke-linecap="round" stroke-linejoin="round"/>
<path d="M245.432 149.812C252.745 152.205 260.613 148.214 263.006 140.897C265.401 133.583 261.409 125.713 254.096 123.322C246.782 120.931 238.91 124.919 236.519 132.237C234.124 139.552 238.117 147.42 245.432 149.812Z" fill="#9747FF" stroke="#45167A" stroke-width="4.8711" stroke-miterlimit="10" stroke-linecap="round" stroke-linejoin="round"/>
<path d="M304.62 138.885L301.055 149.789C314.942 160.716 328.006 153.277 328.006 153.277C321.586 137.159 304.62 138.885 304.62 138.885Z" fill="#9747FF" stroke="#45167A" stroke-width="4.8711" stroke-miterlimit="10" stroke-linecap="round" stroke-linejoin="round"/>
<path d="M301.616 148.071L304.062 140.592C308.779 141.537 316.434 144.051 320.974 150.667C320.974 150.667 312.59 153.232 301.616 148.071Z" fill="#9747FF" stroke="#45167A" stroke-width="4.8711" stroke-miterlimit="10" stroke-linecap="round" stroke-linejoin="round"/>
<path d="M300.674 150.942L305.103 137.406L302.106 136.815L297.908 149.65L300.674 150.942Z" fill="#9747FF" stroke="#45167A" stroke-width="4.8711" stroke-miterlimit="10" stroke-linecap="round" stroke-linejoin="round"/>
<path d="M297.668 150.394L293.296 148.967C292.686 148.767 292.35 148.111 292.552 147.498L296.516 135.383C296.715 134.772 297.373 134.441 297.986 134.639L302.352 136.07L297.668 150.394Z" fill="#9747FF" stroke="#45167A" stroke-width="4.8711" stroke-miterlimit="10" stroke-linecap="round" stroke-linejoin="round"/>
<path d="M298.905 156.357L295.34 167.258C309.226 178.19 322.292 170.748 322.292 170.748C315.87 154.633 298.905 156.357 298.905 156.357Z" fill="#9747FF" stroke="#45167A" stroke-width="4.8711" stroke-miterlimit="10" stroke-linecap="round" stroke-linejoin="round"/>
<path d="M295.9 165.545L298.347 158.064C303.064 159.01 310.719 161.524 315.259 168.14C315.259 168.14 306.874 170.704 295.9 165.545Z" fill="#9747FF" stroke="#45167A" stroke-width="4.8711" stroke-miterlimit="10" stroke-linecap="round" stroke-linejoin="round"/>
<path d="M294.962 168.415L299.389 154.879L296.393 154.288L292.194 167.123L294.962 168.415Z" fill="#9747FF" stroke="#45167A" stroke-width="4.8711" stroke-miterlimit="10" stroke-linecap="round" stroke-linejoin="round"/>
<path d="M291.95 167.868L287.58 166.44C286.97 166.239 286.635 165.584 286.835 164.97L290.797 152.856C290.995 152.246 291.655 151.912 292.267 152.112L296.636 153.54L291.95 167.868Z" fill="#9747FF" stroke="#45167A" stroke-width="4.8711" stroke-miterlimit="10" stroke-linecap="round" stroke-linejoin="round"/>
<path d="M202.536 120.883C204.304 122.098 205.729 124.041 207.075 125.696C208.525 127.478 209.883 129.328 211.264 131.162C212.646 133 214.066 134.806 215.511 136.594C216.578 137.915 218.506 139.427 218.387 141.254C218.365 141.586 218.074 141.767 217.77 141.774C215.933 141.817 214.5 139.577 213.43 138.304C211.951 136.545 210.619 134.658 209.286 132.788C207.949 130.914 206.632 129.028 205.314 127.142C204.075 125.368 202.529 123.628 201.547 121.704C201.239 121.1 202.01 120.522 202.536 120.883Z" fill="#45167A"/>
<path d="M229.328 128.76C229.944 131.008 228.932 133.47 228.196 135.58C227.476 137.647 226.702 139.713 226.045 141.801C225.203 144.478 225.282 147.114 228.065 148.499C230.597 149.76 233.347 150.772 235.964 151.852C241.679 154.212 247.57 156.074 253.523 157.733C256.501 158.563 259.492 159.344 262.487 160.113C263.925 160.482 265.362 160.845 266.787 161.259C267.496 161.465 268.221 161.644 268.92 161.882C269.693 162.145 270.447 162.663 271.239 162.839C271.767 162.956 271.569 163.672 271.157 163.781C268.454 164.496 265.067 163.145 262.421 162.48C259.062 161.637 255.704 160.781 252.365 159.862C245.581 157.995 238.832 155.881 232.346 153.141C227.814 151.226 222.26 149.662 223 143.59C223.285 141.246 224.299 138.922 225.151 136.738C226.201 134.045 227.179 131.384 228.124 128.656C228.344 128.022 229.172 128.193 229.328 128.76Z" fill="#45167A"/>
<path d="M261.937 114.486C264.556 113.866 267.19 112.513 269.663 111.466C272.902 110.095 276.128 108.67 279.493 107.634C282.26 106.783 285.333 106.035 288.235 106.559C290.53 106.973 293.718 108.587 293.804 111.25C293.83 112.038 292.79 112.387 292.223 111.986C291.221 111.275 290.779 110.054 289.724 109.353C288.68 108.659 287.446 108.422 286.212 108.365C283.157 108.224 280.076 109.23 277.237 110.243C274.271 111.3 271.395 112.58 268.458 113.711C266.327 114.532 264.27 115.252 261.965 115.132C261.581 115.112 261.59 114.568 261.937 114.486Z" fill="#45167A"/>
<path d="M254.247 162.936C256.15 162.958 258.177 164.111 260.007 164.64C262.063 165.233 264.134 165.772 266.205 166.311C268.288 166.854 270.372 167.408 272.402 168.131C273.746 168.61 276.743 169.331 277.445 170.699C278.033 171.843 277.744 173.985 277.544 175.194C277.267 176.87 276.647 178.483 275.901 180.003C274.577 182.705 272.674 186.408 269.569 187.283C268.916 187.468 268.469 186.717 268.633 186.169C269.426 183.512 271.845 181.469 273.108 179C273.786 177.676 274.304 176.279 274.666 174.838C274.828 174.194 275.145 173.298 275.039 172.624C274.887 171.66 274.052 171.516 273.118 171.12C269.781 169.702 266.243 168.856 262.763 167.877C260.086 167.124 255.497 166.164 253.851 163.69C253.627 163.352 253.832 162.931 254.247 162.936Z" fill="#45167A"/>
<path d="M252.097 125.558C250.978 127.609 248.16 128.597 246.158 129.527C243.759 130.642 241.262 132.143 238.656 132.675C238.248 132.758 238.107 132.257 238.349 132.006C240.148 130.138 242.884 129.304 245.203 128.266C247.33 127.315 249.649 125.666 251.989 125.388C252.09 125.376 252.141 125.476 252.097 125.558Z" fill="#45167A"/>
<path d="M255.399 126.712C252.755 129.063 248.936 130.058 245.743 131.429C243.972 132.19 242.231 133.026 240.607 134.071C239.57 134.737 238.415 136.238 237.099 136.107C236.951 136.092 236.816 135.977 236.793 135.827C236.579 134.422 238.173 133.51 239.186 132.813C240.717 131.759 242.408 130.942 244.111 130.207C247.629 128.689 251.47 127.106 255.246 126.378C255.439 126.341 255.537 126.59 255.399 126.712Z" fill="#45167A"/>
<path d="M258.203 128.31C255.479 131.037 252.08 132.555 248.601 134.122C246.801 134.932 244.986 135.71 243.178 136.502C241.724 137.139 240.12 138.1 238.489 137.95C238.181 137.922 238.013 137.564 238.191 137.31C239.083 136.039 240.703 135.516 242.087 134.933C243.904 134.167 245.729 133.419 247.54 132.639C251.048 131.13 254.442 129.399 257.961 127.921C258.212 127.815 258.384 128.129 258.203 128.31Z" fill="#45167A"/>
<path d="M261.027 130.199C258.758 133.373 254.029 134.85 250.578 136.278C248.547 137.118 246.496 137.914 244.489 138.811C242.947 139.5 240.921 141.181 239.191 140.893C238.875 140.841 238.669 140.559 238.772 140.241C239.285 138.667 241.392 138.029 242.766 137.386C244.753 136.457 246.793 135.643 248.838 134.851C250.779 134.099 252.722 133.349 254.617 132.487C256.604 131.582 258.512 130.346 260.592 129.673C260.903 129.573 261.248 129.889 261.027 130.199Z" fill="#45167A"/>
<path d="M625.454 454.559C625.582 454.532 625.708 454.502 625.834 454.466C625.672 454.516 625.51 454.565 625.348 454.615C625.484 454.573 625.614 454.524 625.738 454.455C625.592 454.546 625.446 454.637 625.299 454.729C625.356 454.693 625.405 454.656 625.452 454.608C625.331 454.739 625.209 454.871 625.087 455.002C625.106 454.982 625.121 454.961 625.135 454.938C625.052 455.097 624.969 455.256 624.887 455.415C624.908 455.373 624.927 455.33 624.941 455.285C624.904 455.453 624.867 455.622 624.831 455.79C624.837 455.754 624.839 455.723 624.838 455.685C624.845 455.854 624.852 456.022 624.86 456.191C624.855 456.151 624.847 456.115 624.836 456.077C624.885 456.237 624.934 456.397 624.983 456.556C624.957 456.482 624.922 456.414 624.882 456.347C624.97 456.488 625.058 456.63 625.146 456.771C624.817 456.259 624.446 455.762 624.531 455.103C624.564 454.949 624.598 454.796 624.631 454.643C624.637 454.769 624.64 454.803 624.64 454.743C624.645 454.712 624.639 454.676 624.641 454.645C624.66 454.391 624.765 454.132 624.969 453.969C625.061 453.895 625.169 453.828 625.283 453.793C625.428 453.748 625.21 453.847 625.188 453.854C625.321 453.771 625.454 453.688 625.587 453.605C625.803 453.498 626.028 453.449 626.263 453.458C626.803 453.434 627.356 453.633 627.765 453.988C628.121 454.298 628.419 454.591 628.612 455.032C628.913 455.723 628.884 456.593 628.43 457.216C627.873 457.979 627.035 458.309 626.128 458.448C625.106 458.606 623.985 457.911 623.846 456.84C623.705 455.747 624.374 454.787 625.454 454.559Z" fill="#45167A"/>
<path d="M358.029 543.794L361.836 547.405L361.02 552.591L365.631 550.083L370.31 552.464L369.351 547.3L373.058 543.588L367.856 542.902L365.468 538.23L363.208 542.967L358.029 543.794Z" fill="#45167A"/>
<path d="M242.001 398.679C241.67 398.673 241.34 398.667 241.009 398.66C240.595 398.652 240.238 398.615 239.886 398.348C239.826 398.302 239.765 398.255 239.704 398.209C239.307 397.907 239.214 397.377 239.488 396.957C239.529 396.893 239.571 396.829 239.613 396.765C239.847 396.405 240.182 396.239 240.565 396.093C240.875 395.976 241.184 395.859 241.493 395.742C241.992 395.553 242.575 395.541 243.019 395.885C243.343 396.135 243.578 396.47 243.65 396.881C243.717 397.27 243.618 397.709 243.391 398.031C243.062 398.498 242.554 398.69 242.001 398.679Z" fill="#45167A"/>
<path d="M306.943 227.248C307.803 227.174 308.694 227.039 309.541 227.272C310.148 227.439 310.634 227.824 311.107 228.222C312.55 229.432 311.052 231.56 309.424 230.609C309.306 230.539 309.186 230.473 309.069 230.403C308.753 230.212 309.346 230.48 309.05 230.394C309.037 230.39 308.815 230.287 308.803 230.303C308.797 230.312 309.215 230.36 308.871 230.337C308.593 230.318 309.22 230.262 308.898 230.344C308.782 230.374 308.659 230.386 308.542 230.411C308.203 230.484 307.869 230.576 307.534 230.663C306.653 230.893 305.644 230.127 305.531 229.251C305.419 228.386 305.979 227.331 306.943 227.248Z" fill="#45167A"/>
<path d="M543.289 246.558C543.417 246.53 543.543 246.499 543.668 246.462C543.351 246.913 543.033 247.363 542.716 247.814C542.715 247.798 542.714 247.783 542.713 247.767C542.692 247.435 542.709 247.154 542.868 246.85C543.031 246.537 543.244 246.37 543.547 246.188C543.315 246.341 543.256 246.376 543.369 246.292C543.483 246.189 543.425 246.253 543.195 246.485C543.279 246.36 543.235 246.446 543.064 246.743C542.99 246.95 542.972 247.162 543.01 247.379C542.981 247.241 543.009 247.331 543.094 247.65C543.026 247.521 543.076 247.599 543.242 247.885C543.196 247.847 543.156 247.785 543.112 247.742C543.216 247.838 543.319 247.934 543.423 248.03C543.253 247.875 543.066 247.75 542.92 247.569C542.839 247.445 542.761 247.32 542.685 247.193C542.736 247.274 542.786 247.354 542.836 247.435C542.622 247.091 542.433 246.745 542.488 246.318C542.517 246.187 542.546 246.055 542.574 245.925C542.627 245.706 542.608 245.899 542.518 246.503C542.512 246.459 542.512 246.415 542.509 246.37C542.498 246.214 542.467 246.044 542.479 245.889C542.501 245.587 542.637 245.357 542.891 245.199C543.049 245.101 543.222 245.057 543.402 245.015C543.48 244.997 543.819 244.908 543.505 245.005C543.115 245.126 543.72 244.93 543.771 244.92C544.052 244.859 544.351 244.919 544.616 245.013C544.938 245.127 545.24 245.337 545.453 245.603C545.707 245.922 545.931 246.302 546.005 246.71C546.171 247.624 545.659 248.557 544.76 248.849C544.447 248.951 544.174 249.007 543.844 248.935C543.55 248.871 543.196 248.708 543.023 248.447C543.003 248.417 542.984 248.387 542.964 248.357C543.331 248.494 543.699 248.63 544.067 248.767C543.939 248.794 543.812 248.816 543.683 248.835C543.084 248.922 542.429 248.524 542.348 247.894C542.265 247.25 542.658 246.696 543.289 246.558Z" fill="#45167A"/>
<path d="M640.861 346.998C640.991 346.744 641.156 346.48 641.219 346.199C641.188 346.34 641.158 346.481 641.127 346.621C641.165 346.382 641.189 347.11 641.145 346.936C641.187 347.074 641.229 347.211 641.272 347.348C641.269 347.343 641.267 347.337 641.265 347.332C641.342 347.455 641.419 347.579 641.496 347.703C641.491 347.693 641.484 347.683 641.475 347.676C641.586 347.778 641.696 347.881 641.808 347.984C641.803 347.98 641.798 347.977 641.793 347.973C641.928 348.043 642.062 348.113 642.196 348.183C642.153 348.161 642.106 348.144 642.059 348.132C642.201 348.164 642.344 348.195 642.487 348.226C642.328 348.195 642.165 348.196 642.004 348.199C641.924 348.2 641.559 348.214 641.832 348.202C642.202 348.185 641.615 348.223 641.46 348.198C641.273 348.168 641.087 348.117 640.902 348.076C640.677 348.026 640.407 347.8 640.264 347.626C640.06 347.378 639.957 347.073 639.944 346.756C639.916 346.115 640.27 345.679 640.79 345.356C641.184 345.112 641.723 344.969 642.19 344.895C642.898 344.785 643.618 344.941 644.09 345.526C644.63 346.194 644.583 347.09 644.121 347.776C643.891 348.119 643.571 348.41 643.29 348.709C643.071 348.941 642.676 349.031 642.378 349.045C642.05 349.059 641.691 348.984 641.424 348.777C641.208 348.61 641.034 348.401 640.91 348.157C640.759 347.863 640.705 347.304 640.861 346.998Z" fill="#45167A"/>
<path d="M457.876 240.423C458.159 240.237 458.442 240.05 458.726 239.865C458.988 239.693 459.277 239.537 459.521 239.34C459.409 239.461 459.298 239.581 459.186 239.702C459.394 239.467 459.604 239.174 459.846 238.987C459.978 238.886 460.127 238.799 460.268 238.709C460.614 238.487 460.96 238.263 461.321 238.067C461.033 238.306 460.744 238.546 460.456 238.785C460.937 238.073 461.774 237.672 462.63 237.742C463.857 237.843 464.81 238.947 464.704 240.179C464.621 241.141 463.935 241.781 463.204 242.31C462.388 242.902 461.413 242.951 460.561 242.407C460.555 242.404 460.55 242.401 460.544 242.397C461.244 242.462 461.943 242.527 462.642 242.593C462.383 242.691 462.122 242.788 461.859 242.876C461.462 243.009 461.112 243.078 460.693 242.986C460.3 242.901 459.896 242.695 459.648 242.365C459.153 241.705 459.081 240.804 459.565 240.11C459.72 239.888 459.88 239.67 460.034 239.447C459.968 240.146 459.903 240.846 459.837 241.545C459.836 241.54 459.834 241.534 459.832 241.529C459.677 241.064 459.596 240.654 459.704 240.162C459.81 239.675 460.051 239.269 460.433 238.937C460.608 238.784 460.784 238.631 460.944 238.462C460.81 238.607 460.675 238.752 460.541 238.897C460.583 238.852 460.625 238.805 460.657 238.752C460.565 238.928 460.473 239.104 460.381 239.28C460.387 239.269 460.392 239.259 460.395 239.247C460.354 239.434 460.313 239.622 460.272 239.81C460.273 239.807 460.273 239.804 460.274 239.801C460.282 239.99 460.29 240.179 460.299 240.369C460.299 240.367 460.298 240.364 460.298 240.361C460.354 240.542 460.41 240.723 460.466 240.905C460.465 240.903 460.464 240.901 460.463 240.899C460.565 241.061 460.667 241.225 460.768 241.388C460.767 241.386 460.766 241.384 460.765 241.382C460.91 241.518 461.056 241.653 461.202 241.788C461.2 241.787 461.198 241.785 461.197 241.784C461.373 241.876 461.549 241.968 461.725 242.06C461.723 242.059 461.721 242.058 461.718 242.057C461.906 242.098 462.094 242.139 462.282 242.18C462.271 242.178 462.262 242.178 462.251 242.178C462.441 242.17 462.63 242.161 462.82 242.153C462.792 242.156 462.765 242.163 462.739 242.172C462.92 242.116 463.102 242.059 463.284 242.004C462.789 242.167 462.356 242.249 461.846 242.138C461.693 242.104 461.612 242.081 461.485 242.048C461.85 242.08 462.215 242.111 462.58 242.142C462.501 242.162 462.423 242.185 462.345 242.209C462.518 242.156 462.69 242.103 462.863 242.05C462.642 242.119 462.424 242.195 462.206 242.274C461.936 242.372 461.658 242.493 461.375 242.532C461.231 242.551 461.08 242.551 460.94 242.592C461.089 242.546 461.237 242.5 461.386 242.454C460.793 242.7 460.202 242.952 459.611 243.204C458.85 243.528 457.973 243.272 457.534 242.568C457.138 241.931 457.186 240.877 457.876 240.423Z" fill="#45167A"/>
<path d="M276.724 373.364C276.673 373.437 276.561 373.358 276.612 373.286C276.663 373.213 276.775 373.292 276.724 373.364Z" fill="#45167A"/>
<path d="M730.174 327.197C730.417 327.157 730.661 327.12 730.903 327.071C730.996 327.053 731.089 327.032 731.182 327.01C730.877 327.114 730.796 327.139 730.94 327.084C731.349 326.918 730.613 327.402 730.798 327.164C731.005 326.897 731.644 326.698 731.948 326.671C731.469 327.074 730.99 327.476 730.51 327.878C730.55 327.79 730.697 327.349 730.57 327.796C730.634 327.57 730.66 327.325 730.733 327.099C730.95 326.423 731.529 325.929 732.26 325.971C733.344 326.034 733.917 327.254 734.103 328.191C733.971 327.902 733.839 327.614 733.707 327.325C734.807 328.375 734.184 330.04 733.065 330.738C732.417 331.142 731.642 331.266 730.901 331.402C729.801 331.604 728.581 330.799 728.434 329.663C728.288 328.525 728.997 327.391 730.174 327.197Z" fill="#45167A"/>
<path d="M407.081 219.667C407.359 219.405 407.636 219.143 407.914 218.881C408.092 218.713 408.09 218.602 407.777 219.045C408.218 218.421 409.188 218.21 409.812 218.693C410.438 219.178 410.635 220.059 410.164 220.728C410.12 220.79 410.393 220.248 410.335 220.402C410.317 220.45 410.293 220.497 410.273 220.544C410.119 220.893 409.965 221.243 409.812 221.592C409.567 222.15 409.113 222.631 408.476 222.714C408.02 222.773 407.566 222.693 407.182 222.423C406.819 222.167 406.549 221.74 406.473 221.302C406.363 220.661 406.623 220.1 407.081 219.667Z" fill="#45167A"/>
<path d="M662.302 490.962C662.122 490.611 661.942 490.26 661.766 489.906C661.348 489.068 662.098 488.005 663.028 488.117C663.42 488.164 663.811 488.215 664.202 488.267C664.888 488.357 665.485 488.734 665.778 489.377C666.057 489.99 665.989 490.719 665.601 491.27C665.213 491.82 664.548 492.129 663.878 492.073C663.173 492.013 662.618 491.577 662.302 490.962Z" fill="#45167A"/>
<path d="M407.296 557.324C407.193 557.249 407.09 557.174 406.987 557.099C406.346 556.631 406.113 555.639 406.621 554.983C407.118 554.34 408.049 554.115 408.736 554.617C409.174 554.936 409.612 555.254 410.048 555.573C410.678 556.033 410.908 557.007 410.408 557.653C409.905 558.302 409.021 558.483 408.329 558.012C407.881 557.708 407.434 557.403 406.987 557.099C406.33 556.651 406.124 555.625 406.621 554.983C407.131 554.323 408.033 554.137 408.736 554.617C408.842 554.689 408.947 554.76 409.053 554.832C409.712 555.282 409.919 556.312 409.42 556.956C408.921 557.601 407.987 557.827 407.296 557.324Z" fill="#45167A"/>
<path d="M689.052 212.931C687.912 214.312 685.863 215.348 684.073 215.413C683.663 215.428 683.326 215.021 683.249 214.657C683.041 213.665 683.64 212.944 684.35 212.322C684.916 211.826 685.777 211.522 686.219 210.934C687.567 209.143 690.463 211.22 689.052 212.931Z" fill="#45167A"/>
<path d="M501.731 131.143C501.762 131.089 501.788 131.027 501.823 130.977C501.761 131.064 501.696 131.233 501.788 131.037C501.834 130.94 501.876 130.841 501.916 130.74C501.995 131.198 502.074 131.655 502.153 132.113C501.768 131.663 501.581 131.129 501.711 130.536C501.739 130.404 501.778 130.277 501.807 130.146C501.775 130.291 501.744 130.435 501.712 130.58C501.723 130.521 501.728 130.463 501.726 130.403C501.733 130.548 501.739 130.693 501.746 130.838C501.743 130.809 501.739 130.782 501.731 130.753C501.774 130.891 501.816 131.03 501.86 131.168C501.851 131.143 501.842 131.12 501.83 131.097C501.907 131.221 501.985 131.346 502.063 131.47C502.049 131.449 502.036 131.431 502.019 131.413C502.13 131.516 502.241 131.619 502.352 131.722C502.327 131.7 502.302 131.682 502.273 131.667C502.407 131.737 502.541 131.806 502.675 131.876C502.643 131.862 502.611 131.852 502.577 131.844C502.719 131.876 502.861 131.906 503.004 131.938C502.914 131.923 502.722 131.935 503.072 131.92C503.427 131.905 503.213 131.92 503.12 131.934C502.855 131.973 503.537 131.771 503.328 131.87C503.271 131.897 503.212 131.918 503.156 131.946C503.103 131.973 503.054 132.005 503.001 132.032C502.738 132.164 502.603 132.159 502.348 132.17C502.383 132.169 501.8 132.193 502.267 132.173C502.608 132.159 502.35 132.172 502.268 132.184C502.203 132.194 502.139 132.207 502.075 132.223C501.281 132.417 500.428 131.619 500.544 130.818C500.632 130.205 500.827 129.535 501.377 129.176C501.8 128.899 502.231 128.657 502.745 128.594C503.483 128.502 504.185 128.733 504.678 129.305C505.211 129.923 505.179 130.741 504.99 131.48C504.85 132.023 504.221 132.54 503.667 132.591C503.606 132.596 503.544 132.601 503.483 132.607C503.787 132.415 504.091 132.223 504.396 132.03C504.251 132.259 504.084 132.472 503.909 132.679C503.459 133.208 502.657 133.468 502.053 133C501.433 132.52 501.365 131.796 501.731 131.143Z" fill="#45167A"/>
<path d="M372.466 150.595C372.415 150.667 372.303 150.589 372.354 150.516C372.405 150.444 372.517 150.523 372.466 150.595Z" fill="#45167A"/>
<path d="M646.72 253.459C646.669 253.531 646.557 253.453 646.608 253.38C646.659 253.308 646.771 253.387 646.72 253.459Z" fill="#45167A"/>
<path d="M372.461 193.255C372.264 193.112 372.044 192.985 371.854 192.833C371.591 192.622 372.324 193.006 372.007 192.914C371.788 192.851 371.591 192.709 371.392 192.595C370.824 192.272 370.489 191.454 370.567 190.825C370.568 190.821 370.568 190.818 370.569 190.814C370.623 191.128 370.677 191.441 370.731 191.754C370.717 191.712 370.702 191.67 370.688 191.628C371 191.915 371.312 192.202 371.623 192.489C371.53 192.457 371.438 192.434 371.344 192.406C371.729 192.519 371.079 192.347 371 192.324C370.667 192.228 370.373 192.06 370.099 191.853C369.723 191.568 369.634 191.064 369.894 190.668C370.274 190.088 370.845 189.688 371.498 189.46C371.278 189.642 371.059 189.825 370.84 190.007C370.785 190.114 370.73 190.221 370.676 190.328C370.943 189.463 371.843 189.014 372.689 189.036C373.465 189.056 374.157 189.555 374.773 189.976C375.64 190.568 375.914 191.922 375.256 192.771C374.598 193.622 373.371 193.916 372.461 193.255Z" fill="#45167A"/>
<path d="M207.352 479.853C206.293 481.355 203.957 479.712 205.018 478.207C206.077 476.705 208.413 478.348 207.352 479.853Z" fill="#45167A"/>
<path d="M356.098 584.712C355.122 586.096 352.97 584.582 353.947 583.196C354.923 581.811 357.075 583.325 356.098 584.712Z" fill="#45167A"/>
<path d="M500.549 578.88C498.874 579.181 497.423 580.386 495.632 580.081C495.01 579.974 494.494 579.032 495.173 578.604C496.756 577.607 498.197 576.48 500.063 576.066C501.854 575.668 502.367 578.553 500.549 578.88Z" fill="#45167A"/>
<path d="M364.617 423.574C364.872 423.524 365.181 423.444 365.454 423.42C365.623 424.395 365.792 425.371 365.961 426.347C365.644 426.375 365.337 426.405 365.019 426.363C363.629 426.181 363.315 424.362 364.562 423.721C364.847 423.575 365.146 423.5 365.454 423.42C367.306 422.937 367.801 425.867 365.961 426.347C365.695 426.416 365.377 426.444 365.12 426.483C363.239 426.77 362.749 423.939 364.617 423.574Z" fill="#45167A"/>
<path d="M348.473 293.208C348.485 293.186 348.497 293.164 348.508 293.142C348.432 293.289 348.355 293.436 348.278 293.583C348.336 293.463 348.381 293.344 348.413 293.215C348.378 293.375 348.343 293.535 348.308 293.695C348.325 293.606 348.333 293.518 348.332 293.427C348.339 293.591 348.346 293.755 348.353 293.919C348.345 293.817 348.329 293.708 348.302 293.609C348.35 293.767 348.399 293.924 348.447 294.081C348.429 294.03 348.408 293.983 348.38 293.937C348.468 294.077 348.555 294.218 348.643 294.358C348.62 294.326 348.598 294.298 348.57 294.27C348.695 294.385 348.82 294.501 348.945 294.617C348.907 294.582 348.867 294.554 348.822 294.529C348.972 294.607 349.122 294.685 349.272 294.763C349.224 294.74 349.176 294.724 349.124 294.712C349.283 294.747 349.442 294.781 349.6 294.816C349.558 294.81 349.519 294.806 349.476 294.805C349.635 294.798 349.794 294.791 349.953 294.784C349.691 294.796 349.43 294.787 349.17 294.798C349.32 294.791 349.469 294.784 349.619 294.778C349.576 294.782 349.535 294.791 349.492 294.794C349.262 294.816 349.683 294.73 349.706 294.723C349.358 294.825 349.07 294.898 348.701 294.818C348.462 294.766 348.33 294.744 348.107 294.572C347.679 294.24 347.37 293.687 347.442 293.127C347.489 292.76 347.616 292.487 347.802 292.168C348.254 291.395 349.132 290.973 350.018 291.08C351.042 291.204 351.956 291.993 352.136 293.031C352.277 293.842 352.02 294.705 351.489 295.334C351.166 295.716 350.802 296.002 350.295 296.089C349.849 296.167 349.281 296.061 348.917 295.779C348.539 295.487 348.225 295.074 348.162 294.586C348.155 294.429 348.148 294.272 348.141 294.114C348.171 293.783 348.282 293.481 348.473 293.208Z" fill="#45167A"/>
<path d="M403.9 295.056C404.628 294.122 405.392 292.863 406.684 292.722C407.463 292.637 408.101 293.083 408.284 293.85C408.585 295.111 407.656 296.258 407.022 297.256C406.485 298.1 405.15 298.327 404.36 297.716C403.574 297.108 403.243 295.9 403.9 295.056Z" fill="#45167A"/>
<path d="M521.733 298.127C521.317 298.696 520.876 299.35 520.121 299.457C519.273 299.578 518.082 298.843 518.038 297.948C518.013 297.435 518.248 297.097 518.744 296.947C519.218 296.803 519.645 297.021 520.05 297.25C520.088 297.271 520.138 297.295 520.173 297.321C519.929 297.136 519.942 297.212 520.053 297.254C520.079 297.263 520.128 297.27 520.15 297.287C519.917 297.243 519.852 297.228 519.956 297.242C520.023 297.245 519.994 297.247 519.869 297.249C519.579 297.262 519.974 297.194 519.695 297.277C519.577 297.318 519.549 297.325 519.61 297.298C519.408 297.431 519.351 297.466 519.44 297.404C519.461 297.381 519.492 297.355 519.518 297.337C519.651 297.245 519.314 297.59 519.422 297.44C519.571 297.232 519.726 297.027 519.87 296.814C520.206 296.321 520.977 296.167 521.458 296.539C521.94 296.912 522.11 297.611 521.733 298.127Z" fill="#45167A"/>
<path d="M279.212 227.629C279.517 227.271 279.792 226.892 280.124 226.558C280.024 226.666 279.923 226.773 279.824 226.881C279.857 226.845 279.887 226.807 279.913 226.765C279.847 226.89 279.782 227.016 279.716 227.141C279.844 226.89 279.662 227.592 279.677 227.361C279.649 227.788 279.71 227.784 279.68 227.637C279.775 227.937 279.804 228.03 279.768 227.916C279.73 227.794 279.692 227.673 279.655 227.551C279.646 227.509 279.644 227.387 279.611 227.356C279.675 227.416 279.739 227.772 279.621 227.391C279.542 227.135 279.542 226.89 279.63 226.632C279.849 226.001 280.497 225.795 281.122 225.878C281.948 225.988 282.659 226.618 282.781 227.462C282.84 227.867 282.815 228.288 282.638 228.661C282.475 229.003 282.286 229.334 282.097 229.663C281.885 230.033 281.362 230.315 280.956 230.385C280.529 230.459 279.986 230.358 279.638 230.088C278.939 229.547 278.57 228.381 279.212 227.629Z" fill="#45167A"/>
<path d="M267.771 367.053C267.72 367.125 267.608 367.047 267.659 366.974C267.71 366.902 267.822 366.981 267.771 367.053Z" fill="#45167A"/>
<path d="M434.546 242.941C434.86 242.508 435.153 241.996 435.553 241.639C436.567 240.734 438.255 241.922 437.743 243.183C437.541 243.68 437.157 244.127 436.854 244.568C436.436 245.177 435.485 245.372 434.887 244.909C434.288 244.445 434.082 243.582 434.546 242.941Z" fill="#45167A"/>
<path d="M515.202 254.565C514.179 256.017 511.922 254.429 512.947 252.975C513.97 251.523 516.227 253.111 515.202 254.565Z" fill="#45167A"/>
<path d="M459.358 221.473C459.18 221.503 459.001 221.533 458.823 221.562C458.079 221.687 457.258 221.163 457.158 220.388C457.057 219.613 457.538 218.861 458.332 218.722C458.665 218.664 458.999 218.61 459.333 218.554C459.951 218.45 460.765 218.193 461.359 218.436C462.358 218.844 462.573 220.093 461.77 220.812C461.294 221.24 460.438 221.272 459.822 221.383C459.489 221.443 459.156 221.5 458.823 221.562C458.66 220.616 458.496 219.669 458.332 218.722C458.51 218.69 458.688 218.658 458.865 218.626C459.61 218.493 460.435 219.033 460.535 219.803C460.635 220.576 460.154 221.339 459.358 221.473Z" fill="#45167A"/>
<path d="M557.335 201.911C557.387 201.941 557.198 201.914 557.28 201.891C557.348 201.872 557.444 201.903 557.523 201.874C557.745 201.79 557.806 201.51 557.64 201.886C557.408 202.409 557.451 202.978 557.222 203.495C556.957 204.091 556.212 204.256 555.764 203.747C555.017 202.901 554.996 201.198 555.696 200.321C556.465 199.358 557.708 199.327 558.666 200.022C559.888 200.909 558.604 202.645 557.335 201.911Z" fill="#45167A"/>
<path d="M563.223 298.471C562.056 300.125 559.484 298.315 560.652 296.659C561.818 295.005 564.391 296.814 563.223 298.471Z" fill="#45167A"/>
<path d="M622.526 283.721C622.435 283.689 622.344 283.657 622.252 283.626C622.174 283.598 622.096 283.571 622.018 283.544C622 283.538 621.853 283.474 621.844 283.483C621.86 283.467 622.248 283.561 621.98 283.51C621.611 283.441 621.282 283.373 620.953 283.173C620.886 283.132 620.82 283.089 620.753 283.047C620.399 282.825 620.302 282.257 620.56 281.929C620.609 281.867 620.657 281.805 620.706 281.743C620.949 281.442 621.234 281.271 621.559 281.079C621.734 280.976 621.553 281.005 621.44 281.15C621.47 281.111 621.528 281.079 621.567 281.048C621.637 280.991 621.707 280.935 621.777 280.878C621.853 280.817 621.928 280.756 622.003 280.695C623.034 279.862 624.635 280.442 624.863 281.758C625.09 283.077 623.777 284.158 622.526 283.721Z" fill="#45167A"/>
<path d="M469.247 590.757C469.196 590.829 469.084 590.751 469.135 590.678C469.187 590.606 469.298 590.684 469.247 590.757Z" fill="#45167A"/>
<path d="M622.678 370.54C622.892 370.273 623.106 370.007 623.321 369.739C624.799 367.899 626.942 370.952 624.981 371.743C624.785 371.84 624.588 371.938 624.392 372.036C623.633 372.519 622.801 371.934 623.001 371.055C623.027 370.838 623.053 370.62 623.079 370.402C623.165 368.301 626.77 369.268 625.524 371.293C625.344 371.584 625.165 371.876 624.986 372.167C624.032 373.718 621.536 371.962 622.678 370.54Z" fill="#45167A"/>
<path d="M472.131 573.353C471.703 573.714 471.12 573.982 470.572 574.088C469.515 574.291 468.44 573.889 467.802 573.014C467.44 572.517 467.337 571.784 467.738 571.265C468.155 570.727 468.763 570.573 469.407 570.738C468.965 570.625 469.182 570.696 469.297 570.708C469.625 570.742 469.065 570.746 469.15 570.728C469.262 570.704 469.371 570.688 469.481 570.656C469.339 570.7 469.197 570.744 469.055 570.788C469.145 570.757 469.229 570.718 469.311 570.67C469.177 570.753 469.044 570.836 468.911 570.919C469.008 570.857 469.094 570.784 469.175 570.701C469.059 570.826 468.943 570.951 468.827 571.076C468.933 570.962 469.02 570.836 469.093 570.699C469.01 570.86 468.926 571.02 468.842 571.18C468.861 571.144 468.879 571.108 468.894 571.07C469.377 569.83 470.904 569.306 472.011 570.086C473.102 570.857 473.15 572.492 472.131 573.353Z" fill="#45167A"/>
<path d="M676.538 336.99C676.191 336.745 675.842 336.5 675.495 336.254C674.726 335.713 674.467 334.518 675.061 333.75C675.658 332.979 676.742 332.736 677.566 333.317C677.913 333.562 678.261 333.807 678.609 334.052C679.378 334.594 679.637 335.789 679.042 336.557C678.446 337.327 677.362 337.571 676.538 336.99Z" fill="#45167A"/>
<path d="M396.394 572.909C396.343 572.981 396.231 572.903 396.282 572.83C396.333 572.757 396.445 572.836 396.394 572.909Z" fill="#45167A"/>
<path d="M632.569 427.774C632.696 427.578 632.829 427.387 632.983 427.21C632.901 427.573 632.82 427.936 632.738 428.299C632.73 428.263 632.723 428.226 632.715 428.189C632.6 427.62 632.85 427.011 633.289 426.645C634.068 425.997 635.306 425.939 635.978 426.797C636.387 427.318 636.515 427.972 636.421 428.62C636.248 429.81 635.755 431.105 634.565 431.602C633.704 431.961 632.839 431.316 632.867 430.404C632.87 430.295 632.864 430.032 632.879 430.517C632.874 430.366 632.843 430.235 632.857 430.072C632.867 429.954 632.891 429.838 632.908 429.72C632.962 429.335 633.043 428.962 633.127 428.582C633.097 428.719 633.067 428.856 633.037 428.993C633.087 428.754 633.126 428.511 633.134 428.266C633.144 427.899 633.185 428.74 633.137 428.376C633.133 428.343 633.126 428.309 633.123 428.276C633.11 428.075 633.317 428.76 633.203 428.555C633.278 428.677 633.354 428.798 633.43 428.92C633.422 428.907 633.413 428.895 633.402 428.884C633.511 428.985 633.62 429.086 633.728 429.186C633.718 429.176 633.707 429.168 633.695 429.161C633.826 429.229 633.957 429.297 634.088 429.366C634.076 429.359 634.063 429.354 634.049 429.351C634.189 429.381 634.328 429.411 634.468 429.442C634.56 429.456 634.828 429.416 634.966 429.374C635.284 429.278 635.123 429.325 635.042 429.375C635.162 429.3 635.283 429.225 635.403 429.15C634.843 429.533 634.332 429.616 633.681 429.423C634.154 429.341 634.627 429.259 635.101 429.177C634.841 429.428 635.305 428.925 635.127 429.144C635.052 429.236 634.976 429.326 634.903 429.42C634.444 430.008 633.544 430.253 632.913 429.764C632.282 429.276 632.132 428.446 632.569 427.774Z" fill="#45167A"/>
<path d="M621.079 489.998C621.349 490.27 621.618 490.541 621.887 490.813C622.032 490.96 622.179 491.004 621.774 490.718C622.295 491.086 622.471 491.896 622.068 492.418C621.663 492.941 620.927 493.106 620.368 492.712C620.318 492.676 620.773 492.909 620.637 492.853C620.589 492.833 620.543 492.809 620.496 492.787C620.149 492.625 619.803 492.462 619.457 492.3C618.989 492.081 618.583 491.72 618.512 491.175C618.463 490.79 618.529 490.408 618.758 490.084C618.973 489.778 619.333 489.551 619.702 489.487C620.251 489.391 620.703 489.618 621.079 489.998Z" fill="#45167A"/>
<path d="M340.9 530.436C340.849 530.508 340.737 530.429 340.788 530.357C340.839 530.285 340.951 530.363 340.9 530.436Z" fill="#45167A"/>
<path d="M661.978 517.199C662.128 517.018 662.275 516.836 662.435 516.663C662.604 516.481 662.813 516.368 663.025 516.244C663.19 516.148 663.344 516.061 663.541 516.047C664.001 516.017 664.325 516.242 664.451 516.689C664.506 516.881 664.474 517.053 664.439 517.241C664.404 517.429 664.382 517.626 664.313 517.804C664.213 518.06 664.032 518.312 663.892 518.548C663.58 519.078 662.733 519.196 662.26 518.831C661.792 518.468 661.557 517.702 661.978 517.199Z" fill="#45167A"/>
<path d="M363.706 483.709C363.379 483.465 363.051 483.222 362.724 482.978C361.869 482.342 361.546 481.025 362.232 480.138C362.923 479.245 364.121 479.012 365.072 479.646C365.412 479.873 365.752 480.099 366.092 480.326C366.993 480.927 367.263 482.341 366.591 483.21C365.919 484.079 364.637 484.402 363.706 483.709Z" fill="#45167A"/>
<path d="M715.179 477.636C713.906 479.442 711.097 477.467 712.372 475.658C713.646 473.852 716.454 475.827 715.179 477.636Z" fill="#45167A"/>
<path d="M370.831 513.49C371.805 513.116 372.811 512.846 373.807 512.54C373.622 512.598 373.436 512.655 373.25 512.712C373.356 512.679 373.463 512.646 373.57 512.612C373.128 513.448 372.687 514.285 372.245 515.121C372.241 515.075 372.236 515.029 372.231 514.982C373.059 515.742 373.887 516.501 374.715 517.261C374.01 517.121 373.309 517.077 372.616 516.861C372.829 516.908 373.041 516.954 373.254 517C372.61 516.935 371.996 516.803 371.377 516.611C370.739 516.413 370.098 516.214 369.558 515.804C369.135 515.483 368.896 515.052 368.873 514.523C368.851 514.038 369.035 513.464 369.461 513.175C369.792 512.951 370.108 512.766 370.482 512.633C370.887 512.488 371.306 512.381 371.72 512.264C371.953 512.197 372.19 512.107 372.428 512.066C372.647 512.028 372.884 512.055 373.096 511.991C372.89 512.055 372.683 512.118 372.477 512.182C372.972 512.015 373.413 511.91 373.92 511.85C374.106 511.827 374.292 511.805 374.479 511.793C374.958 511.712 375.425 511.752 375.883 511.915C376.358 512.089 376.758 512.371 377.082 512.76C377.63 513.427 377.803 514.266 377.622 515.095C377.436 515.948 376.901 516.655 376.094 517.022C375.279 517.393 374.071 517.386 373.36 516.766C373.305 516.719 373.25 516.671 373.195 516.623C373.773 516.753 374.351 516.883 374.929 517.013C373.779 517.108 372.62 517.189 371.467 517.161C370.65 517.141 369.838 516.377 369.733 515.571C369.628 514.756 370.016 513.803 370.831 513.49Z" fill="#45167A"/>
<path d="M525.667 563.516C524.382 565.338 521.547 563.345 522.834 561.519C524.119 559.696 526.954 561.69 525.667 563.516Z" fill="#45167A"/>
<path d="M593.878 588.146C592.509 590.088 589.491 587.965 590.862 586.02C592.23 584.079 595.248 586.202 593.878 588.146Z" fill="#45167A"/>
<path d="M597.808 571.401C597.942 572.562 597.915 573.805 596.987 574.638C596.2 575.346 595.205 575.684 594.152 575.613C593.488 575.569 593.386 574.671 593.94 574.389C594.393 574.16 595.024 573.949 595.238 573.452C595.459 572.938 595.431 572.362 595.341 571.828C595.072 570.231 597.622 569.805 597.808 571.401Z" fill="#45167A"/>
<path d="M377.025 529.098C376.974 529.171 376.862 529.092 376.913 529.02C376.964 528.947 377.076 529.026 377.025 529.098Z" fill="#45167A"/>
<path d="M328.807 510.892C328.775 510.857 328.74 510.824 328.705 510.792C328.836 510.913 328.966 511.035 329.097 511.156C328.999 511.072 328.898 510.999 328.784 510.938C328.936 511.017 329.088 511.096 329.24 511.175C329.157 511.136 329.074 511.104 328.985 511.081C329.142 511.115 329.299 511.15 329.456 511.184C329.342 511.16 329.234 511.161 329.119 511.153C329.072 511.15 329.019 511.145 328.973 511.137C328.721 511.099 329.443 511.089 329.222 511.124C329.14 511.137 329.06 511.153 328.979 511.168C328.802 511.201 329.396 511.013 329.228 511.092C329.015 511.193 328.697 511.265 328.46 511.224C327.805 511.111 327.317 510.707 327.176 510.046C327.02 509.322 327.572 508.441 328.118 507.999C328.92 507.351 330.132 507.317 331.055 507.705C331.707 507.98 332.268 508.529 332.363 509.263C332.432 509.796 332.339 510.325 332.023 510.773C331.724 511.196 331.226 511.512 330.715 511.6C329.954 511.732 329.328 511.419 328.807 510.892Z" fill="#45167A"/>
<path d="M437.36 492.787C423.36 477.202 413.508 458.188 410.074 437.443C407.048 419.162 409.139 400.072 416.851 383.162C424.74 365.863 438.206 352.176 454.494 342.559C472.468 331.946 493.611 326.472 514.483 327.448C535.657 328.44 556.146 336.359 571.894 350.663C587.88 365.184 598.982 385.706 604.584 406.416C609.97 426.332 610.156 448.17 602.408 467.509C598.57 477.087 592.847 485.792 585.597 493.13C578.244 500.573 569.344 506.255 560.14 511.136C543.133 520.156 524.102 525.957 504.739 525.829C484.146 525.693 464.443 518.025 448.681 504.863C446.624 503.145 444.634 501.343 442.706 499.481C440.569 497.418 439.204 494.953 437.755 492.376C437.622 492.142 437.944 491.909 438.146 492.052C440.52 493.724 442.902 495.183 445.003 497.194C447.018 499.121 449.116 500.961 451.284 502.714C455.417 506.055 459.819 509.067 464.461 511.66C472.845 516.342 482.081 519.555 491.566 521.057C509.994 523.977 528.794 520.703 545.952 513.693C564.144 506.26 581.783 495.339 592.584 478.509C603.336 461.756 606.411 441.227 603.831 421.71C601.097 401.032 592.43 381.176 579.723 364.689C566.965 348.136 548.622 336.792 528.177 332.46C508.455 328.281 487.377 330.494 468.786 338.215C451.305 345.476 435.21 357.438 424.829 373.426C415.198 388.262 410.517 406.044 410.751 423.675C411.015 443.493 417.737 462.859 428.818 479.203C431.801 483.602 435.094 487.777 438.627 491.747C439.327 492.535 438.065 493.571 437.36 492.787Z" fill="#45167A"/>
<path d="M445.063 498.077C449.37 498.841 453.67 500.591 457.88 501.802C462.352 503.089 466.879 504.163 471.441 505.078C480.651 506.925 489.944 507.476 499.253 508.531C499.6 508.57 499.659 509.142 499.28 509.169C489.867 509.829 480.193 508.622 470.961 506.855C466.564 506.013 462.214 504.918 457.917 503.663C453.588 502.399 448.709 501.074 444.811 498.767C444.493 498.578 444.695 498.012 445.063 498.077Z" fill="#45167A"/>
<path d="M449.954 496.002C451.874 496.111 453.789 496.74 455.679 497.106C457.721 497.501 459.77 497.865 461.822 498.202C465.836 498.86 469.872 499.378 473.916 499.803C482.091 500.663 490.324 501.057 498.478 502.088C498.877 502.139 498.816 502.697 498.426 502.701C490.091 502.77 481.7 502.19 473.414 501.318C469.371 500.892 465.336 500.374 461.324 499.712C459.39 499.393 457.467 499.029 455.55 498.618C453.628 498.205 451.504 497.919 449.712 497.107C449.138 496.846 449.283 495.963 449.954 496.002Z" fill="#45167A"/>
<path d="M460.65 492.47C461.968 492.152 463.381 492.49 464.715 492.648C466.267 492.832 467.816 493.037 469.364 493.25C472.409 493.669 475.45 494.118 478.493 494.549C484.68 495.427 490.915 496.121 497.166 496.273C497.673 496.285 497.721 497.134 497.204 497.171C490.999 497.625 484.846 497.017 478.698 496.186C475.537 495.758 472.388 495.252 469.233 494.786C467.687 494.558 466.139 494.337 464.588 494.137C463.252 493.966 461.798 493.996 460.566 493.428C460.113 493.219 460.151 492.591 460.65 492.47Z" fill="#45167A"/>
<path d="M469.98 489.456C473.892 489.543 477.93 490.661 481.803 491.229C485.818 491.819 489.845 492.251 493.88 492.676C501.992 493.531 510.122 493.934 518.273 494.15C518.617 494.159 518.65 494.734 518.299 494.758C510.126 495.327 501.888 495.139 493.728 494.462C489.689 494.126 485.659 493.572 481.655 492.954C477.783 492.356 473.408 491.954 469.757 490.476C469.195 490.248 469.384 489.442 469.98 489.456Z" fill="#45167A"/>
<path d="M478.767 486.416C483.209 486.26 487.888 487.166 492.317 487.579C496.902 488.006 501.494 488.334 506.085 488.683C515.267 489.381 524.513 489.642 533.651 490.824C534.012 490.871 533.956 491.371 533.604 491.378C524.259 491.542 514.886 490.84 505.568 490.212C500.976 489.902 496.39 489.475 491.813 488.998C487.521 488.551 482.76 488.334 478.637 487.011C478.279 486.896 478.443 486.427 478.767 486.416Z" fill="#45167A"/>
<path d="M487.73 482.116C490.427 482.008 493.328 482.874 496.002 483.25C498.806 483.644 501.621 483.951 504.437 484.247C510.051 484.837 515.69 485.162 521.32 485.557C521.842 485.593 521.746 486.325 521.253 486.343C515.471 486.561 509.697 486.255 503.945 485.659C501.127 485.368 498.322 484.95 495.529 484.476C492.987 484.045 489.945 483.792 487.613 482.654C487.322 482.513 487.412 482.129 487.73 482.116Z" fill="#45167A"/>
<path d="M497.212 478.696C502.146 478.528 507.242 479.432 512.178 479.727C517.288 480.032 522.406 480.163 527.517 480.435C532.531 480.701 537.547 480.978 542.55 481.41C547.467 481.835 552.542 482.215 557.341 483.421C557.473 483.454 557.42 483.656 557.292 483.647C552.223 483.292 547.189 482.631 542.108 482.375C536.965 482.115 531.818 482.032 526.671 481.918C521.679 481.807 516.672 481.612 511.69 481.279C506.924 480.96 501.625 480.879 497.076 479.319C496.706 479.192 496.87 478.707 497.212 478.696Z" fill="#45167A"/>
<path d="M507.653 474.44C509.594 473.221 512.65 473.772 514.85 473.882C519.368 474.108 523.883 474.666 528.395 475.014C538.592 475.799 548.757 476.309 558.975 476.679C559.334 476.692 559.37 477.288 559.002 477.317C549.193 478.083 539.16 477.687 529.359 476.972C524.74 476.635 520.128 476.229 515.52 475.77C512.947 475.514 510.199 475.904 507.766 475.092C507.515 475.008 507.402 474.598 507.653 474.44Z" fill="#45167A"/>
<path d="M512.655 471.167C516.046 469.856 520.449 470.092 524.05 469.991C528.493 469.867 532.94 469.949 537.379 470.141C546.079 470.517 554.923 471.207 563.51 472.686C564.032 472.776 563.969 473.501 563.441 473.502C554.931 473.521 546.397 472.587 537.901 472.174C533.68 471.968 529.451 471.857 525.225 471.925C523.097 471.959 520.968 472.042 518.843 472.161C516.883 472.27 514.83 472.686 512.877 472.449C512.247 472.373 511.996 471.422 512.655 471.167Z" fill="#45167A"/>
<path d="M523.711 465.867C528.161 465.07 532.856 465.449 537.345 465.671C541.928 465.897 546.499 466.309 551.082 466.526C552.051 466.571 551.905 468.022 550.955 468.012C546.476 467.966 542.018 467.684 537.549 467.416C532.955 467.142 528.345 467.296 523.759 466.997C523.109 466.955 523.076 465.981 523.711 465.867Z" fill="#45167A"/>
<path d="M534.345 461.35C536.82 459.832 540.375 459.94 543.182 459.844C546.656 459.726 550.117 459.896 553.582 460.143C560.518 460.637 567.449 461.276 574.407 461.359C574.956 461.366 574.988 462.243 574.448 462.316C567.775 463.215 561.066 462.446 554.394 461.927C551.033 461.665 547.661 461.438 544.289 461.383C541.082 461.33 537.543 462.146 534.388 461.601C534.252 461.578 534.232 461.419 534.345 461.35Z" fill="#45167A"/>
<path d="M543.761 455.405C547.086 454.436 550.892 455.09 554.287 455.362C558.053 455.663 561.8 455.985 565.582 455.95C566.667 455.94 566.489 457.572 565.44 457.612C561.668 457.755 557.882 457.619 554.118 457.341C550.715 457.089 546.951 457.109 543.714 455.94C543.432 455.838 543.51 455.478 543.761 455.405Z" fill="#45167A"/>
<path d="M555.584 449.543C560.824 448.852 566.379 450.066 571.59 450.645C577.291 451.279 583 451.828 588.737 451.967C589.248 451.98 589.289 452.81 588.775 452.865C583.112 453.478 577.419 453.089 571.777 452.44C566.415 451.823 560.751 451.506 555.537 450.078C555.267 450.005 555.317 449.578 555.584 449.543Z" fill="#45167A"/>
<path d="M565.755 444.148C569.698 443.131 574.114 443.981 578.1 444.402C582.326 444.848 586.548 445.356 590.78 445.728C591.351 445.779 591.263 446.605 590.706 446.603C586.446 446.589 582.213 446.263 577.965 445.987C573.928 445.725 569.616 445.992 565.682 444.993C565.217 444.875 565.376 444.246 565.755 444.148Z" fill="#45167A"/>
<path d="M572.619 439.083C576.309 438.29 580.166 439.031 583.856 439.516C587.786 440.033 591.695 440.72 595.575 441.525C595.91 441.595 596.022 442.172 595.604 442.192C591.831 442.374 588.002 441.79 584.278 441.26C580.406 440.71 576.518 440.292 572.647 439.75C572.27 439.697 572.238 439.165 572.619 439.083Z" fill="#45167A"/>
<path d="M580.497 434.166C583.265 433.644 586.125 434.122 588.873 434.543C591.828 434.995 594.794 435.433 597.734 435.966C598.075 436.027 598.145 436.541 597.761 436.603C592.099 437.519 586.351 434.396 580.641 435.002C580.102 435.059 579.954 434.269 580.497 434.166Z" fill="#45167A"/>
<path d="M588.38 429.372C592.535 429.441 596.559 430.583 600.676 430.987C600.981 431.017 601.023 431.502 600.7 431.538C596.611 431.997 592.338 430.624 588.325 430.013C587.914 429.95 587.965 429.365 588.38 429.372Z" fill="#45167A"/>
<path d="M454.137 504.84C462.119 509.954 471.866 511.511 481.171 512.046C485.833 512.315 490.502 512.269 495.167 512.136C499.584 512.011 504.149 511.582 508.55 512.085C508.958 512.132 508.998 512.736 508.581 512.81C504.164 513.59 499.509 513.607 495.033 513.704C490.048 513.811 485.048 513.774 480.074 513.385C470.855 512.664 461.633 510.489 454.103 504.888C454.073 504.866 454.105 504.82 454.137 504.84Z" fill="#45167A"/>
<path d="M471.455 514.487C477.899 515.532 484.31 516.555 490.845 516.805C497.59 517.063 504.081 515.953 510.762 515.388C511.278 515.344 511.581 516.074 511.044 516.303C504.962 518.894 497.825 519.205 491.303 518.988C484.522 518.762 477.639 517.515 471.361 514.911C471.143 514.821 471.198 514.445 471.455 514.487Z" fill="#45167A"/>
<path d="M498.911 523.093C507.867 521.46 516.063 517.618 524.276 513.846C524.751 513.628 525.023 514.305 524.603 514.565C517.209 519.148 508.071 525.148 498.944 523.846C498.526 523.787 498.473 523.173 498.911 523.093Z" fill="#45167A"/>
<path d="M545.301 505.164C544.341 507.59 541.842 509.341 539.772 510.789C537.48 512.391 535.028 513.799 532.555 515.097C527.267 517.873 521.589 520.744 515.879 522.522C515.638 522.598 515.362 522.279 515.618 522.104C520.255 518.931 525.91 517.252 530.919 514.738C533.647 513.37 536.282 511.867 538.722 510.024C540.853 508.414 542.658 506.186 544.964 504.854C545.151 504.745 545.376 504.975 545.301 505.164Z" fill="#45167A"/>
<path d="M557.454 501.979C553.666 506.679 547.878 510.396 542.631 513.269C539.761 514.841 536.832 516.304 533.868 517.688C532.41 518.369 530.948 519.042 529.49 519.722C528.072 520.382 526.571 521.307 525.001 521.477C524.557 521.525 524.368 521.033 524.66 520.731C526.583 518.74 530.107 517.728 532.583 516.545C535.426 515.187 538.283 513.853 541.086 512.413C544.029 510.902 547.027 509.423 549.801 507.614C552.468 505.874 554.828 503.833 557.284 501.821C557.383 501.74 557.538 501.874 557.454 501.979Z" fill="#45167A"/>
<path d="M569.696 493.978C568.208 498.489 564.057 502.413 560.675 505.608C558.761 507.416 556.751 509.12 554.678 510.742C552.907 512.127 550.991 513.865 548.765 514.422C548.536 514.48 548.383 514.189 548.505 514.012C549.784 512.15 551.958 510.938 553.712 509.567C555.688 508.023 557.606 506.404 559.437 504.691C561.296 502.952 563.074 501.114 564.739 499.189C566.304 497.382 567.614 495.379 569.374 493.75C569.528 493.607 569.757 493.796 569.696 493.978Z" fill="#45167A"/>
<path d="M578.487 488.918C578.575 491.77 576.401 494.992 574.852 497.258C573.368 499.428 571.086 502.825 568.384 503.482C568.069 503.559 567.888 503.174 568.038 502.934C568.695 501.882 569.771 501.125 570.643 500.249C571.868 499.018 572.951 497.651 573.93 496.217C575.504 493.911 576.465 490.95 578.249 488.831C578.336 488.727 578.483 488.786 578.487 488.918Z" fill="#45167A"/>
<path d="M585.563 483.842C586.131 487.251 583.866 490.259 581.643 492.557C581.291 492.921 580.653 492.334 580.985 491.946C583.046 489.534 584.234 486.747 585.366 483.825C585.402 483.731 585.546 483.739 585.563 483.842Z" fill="#45167A"/>
<path d="M486.034 331.601C505.772 327.972 526.64 335.321 543.107 345.866C543.505 346.12 543.084 346.708 542.686 346.463C534.25 341.282 525.143 337.09 515.557 334.548C505.826 331.968 496.049 331.579 486.038 331.688C485.987 331.688 485.986 331.609 486.034 331.601Z" fill="#45167A"/>
<path d="M477.23 334.972C484.359 331.877 493.292 335.045 500.053 337.747C507.797 340.841 515.067 344.973 522.286 349.113C522.611 349.3 522.319 349.873 521.978 349.705C514.884 346.188 507.922 342.418 500.576 339.432C493.232 336.446 485.279 334.073 477.273 335.11C477.193 335.121 477.151 335.006 477.23 334.972Z" fill="#45167A"/>
<path d="M462.433 339.169C464.541 337.786 467.169 337.969 469.576 338.253C472.917 338.648 476.199 339.556 479.391 340.593C485.563 342.598 491.422 345.408 497.357 348C497.922 348.247 497.623 349.112 497.031 348.908C491.395 346.971 485.943 344.546 480.31 342.592C477.198 341.513 474.026 340.528 470.771 339.987C468.073 339.538 465.431 339.639 462.716 339.786C462.413 339.802 462.103 339.385 462.433 339.169Z" fill="#45167A"/>
<path d="M448.84 347.453C450.119 346.294 452.283 346.286 453.917 346.233C456.127 346.16 458.337 346.371 460.514 346.74C465.354 347.562 470.056 349.201 474.599 351.025C483.354 354.54 491.494 359.303 499.932 363.476C500.245 363.63 500.084 364.134 499.745 363.999C491.441 360.698 483.515 356.499 475.216 353.173C470.688 351.36 466.068 349.734 461.277 348.771C459.218 348.356 457.135 348.053 455.033 347.995C453.139 347.941 450.917 348.603 449.074 348.203C448.717 348.126 448.545 347.721 448.84 347.453Z" fill="#45167A"/>
<path d="M440.18 354.268C441.799 352.394 446.028 353.278 448.099 353.647C452.138 354.369 456.047 355.716 459.874 357.166C467.128 359.916 473.996 363.456 481.024 366.709C481.396 366.881 481.206 367.443 480.806 367.315C473.941 365.109 467.392 361.854 460.68 359.232C456.976 357.785 453.205 356.449 449.334 355.517C447.713 355.127 446.054 354.819 444.386 354.741C443.105 354.681 441.738 355.103 440.491 354.935C440.202 354.896 439.956 354.527 440.18 354.268Z" fill="#45167A"/>
<path d="M432.259 362.003C440.019 361.946 447.441 365.965 454.192 369.365C454.7 369.622 454.454 370.405 453.885 370.219C446.712 367.88 439.885 363.488 432.14 363.402C431.229 363.392 431.366 362.009 432.259 362.003Z" fill="#45167A"/>
<path d="M427.076 369.314C430.653 373.784 434.522 377.899 438.816 381.691C442.963 385.354 447.479 388.546 451.88 391.888C452.449 392.32 451.856 393.092 451.256 392.772C441.494 387.568 432.277 379.287 426.239 370.001C425.87 369.434 426.629 368.757 427.076 369.314Z" fill="#45167A"/>
<path d="M421.988 376.421C429.226 389.697 438.051 402.079 451.192 410.082C451.597 410.329 451.243 411.02 450.804 410.828C443.739 407.732 437.921 402.547 433.107 396.582C428.268 390.589 424.185 383.863 421.695 376.555C421.629 376.36 421.888 376.237 421.988 376.421Z" fill="#45167A"/>
<path d="M417.295 384.943C420.004 388.953 422.211 393.285 424.926 397.305C427.743 401.476 430.822 405.467 434.12 409.269C440.665 416.812 448.02 423.599 455.739 429.92C456.147 430.254 455.719 430.865 455.268 430.589C446.708 425.365 439.284 418.402 432.796 410.793C429.458 406.877 426.341 402.765 423.517 398.462C420.864 394.419 418.052 390.015 416.606 385.373C416.482 384.977 417.008 384.52 417.295 384.943Z" fill="#45167A"/>
<path d="M413.895 398.632C414.054 402.265 414.585 405.499 416.161 408.824C417.896 412.483 420.35 415.767 422.999 418.811C428.661 425.314 435.307 430.759 441.958 436.202C444.883 438.595 448.064 440.901 450.717 443.598C451.104 443.992 450.516 444.484 450.105 444.256C443.129 440.399 436.669 434.985 430.76 429.688C424.433 424.015 418.091 417.632 414.479 409.816C412.905 406.413 411.607 402.104 412.733 398.378C412.947 397.67 413.868 398.01 413.895 398.632Z" fill="#45167A"/>
<path d="M411.107 415.364C412.147 416.803 412.442 418.993 413.008 420.651C413.758 422.847 414.663 424.987 415.658 427.082C417.963 431.932 420.668 436.617 423.671 441.065C426.573 445.363 429.729 449.518 433.213 453.362C434.785 455.096 436.418 456.792 438.125 458.394C439.578 459.759 441.342 460.95 442.665 462.428C443.209 463.036 442.496 463.944 441.771 463.696C439.896 463.055 438.132 461.504 436.642 460.225C434.801 458.645 433.081 456.945 431.45 455.149C427.769 451.096 424.467 446.709 421.507 442.106C418.593 437.577 415.944 432.873 413.879 427.893C412.961 425.681 412.148 423.424 411.489 421.121C411.005 419.428 410.236 417.147 410.806 415.416C410.847 415.294 411.029 415.256 411.107 415.364Z" fill="#45167A"/>
<path d="M411.466 435.916C412.375 437.529 412.746 439.557 413.498 441.272C414.315 443.136 415.257 444.946 416.294 446.697C418.556 450.514 421.364 454.072 424.325 457.369C430.113 463.811 437.075 469.523 444.653 473.748C445.256 474.084 444.723 475.103 444.091 474.828C435.705 471.179 428.559 465.305 422.642 458.36C419.719 454.929 417.204 451.223 415.056 447.261C414.001 445.317 413.058 443.308 412.273 441.239C411.675 439.664 410.808 437.73 410.825 436.027C410.828 435.66 411.316 435.651 411.466 435.916Z" fill="#45167A"/>
<path d="M527.187 331.182C529.812 330.931 532.456 332.04 534.791 333.133C537.843 334.56 540.708 336.367 543.474 338.282C549.041 342.137 554.131 346.593 559.551 350.64C559.747 350.786 559.535 351.087 559.332 350.95C554.052 347.389 549.185 343.252 543.989 339.571C541.198 337.594 538.314 335.704 535.241 334.188C532.635 332.902 529.938 332.177 527.172 331.351C527.09 331.326 527.1 331.19 527.187 331.182Z" fill="#45167A"/>
<path d="M491.458 330.103C495.012 330.207 498.383 331.353 501.691 332.583C505.492 333.997 509.207 335.663 512.825 337.492C519.583 340.909 526.435 344.583 532.703 348.844C532.971 349.026 532.744 349.49 532.435 349.359C525.512 346.403 519.051 342.271 512.313 338.916C508.864 337.199 505.386 335.542 501.797 334.134C498.368 332.788 494.812 331.828 491.359 330.557C491.104 330.463 491.197 330.096 491.458 330.103Z" fill="#45167A"/>
<path d="M474.682 334.753C477.484 335.116 480.175 336.221 482.81 337.201C485.696 338.272 488.554 339.42 491.353 340.699C496.752 343.168 501.978 345.928 507.154 348.831C507.354 348.943 507.175 349.29 506.967 349.191C501.665 346.669 496.325 344.197 490.918 341.909C488.197 340.758 485.475 339.606 482.714 338.552C480.001 337.515 477.13 336.754 474.527 335.461C474.185 335.292 474.236 334.695 474.682 334.753Z" fill="#45167A"/>
<path d="M458.991 342.453C461.003 341.208 463.627 341.621 465.874 342.034C468.917 342.593 471.881 343.616 474.767 344.712C480.41 346.854 485.856 349.506 491.28 352.142C491.718 352.355 491.501 352.987 491.023 352.858C485.576 351.389 480.438 348.653 475.199 346.593C472.411 345.496 469.571 344.484 466.651 343.798C464.129 343.206 461.625 343.12 459.073 342.928C458.801 342.907 458.795 342.575 458.991 342.453Z" fill="#45167A"/>
<path d="M445.805 350.353C449.253 349.586 452.928 350.678 456.23 351.68C460.093 352.852 463.77 354.513 467.545 355.927C467.936 356.073 467.722 356.646 467.327 356.532C463.748 355.503 460.238 354.261 456.7 353.103C453.123 351.932 449.543 351.331 445.826 350.846C445.544 350.809 445.526 350.415 445.805 350.353Z" fill="#45167A"/>
<path d="M435.184 358.828C436.97 357.732 439.485 358.114 441.431 358.475C444.114 358.973 446.707 359.878 449.237 360.883C454.215 362.861 458.928 365.461 463.937 367.356C464.339 367.508 464.223 368.213 463.77 368.121C458.942 367.141 454.458 364.677 449.955 362.771C447.463 361.716 444.916 360.721 442.279 360.088C439.915 359.521 437.684 359.701 435.304 359.525C434.906 359.496 434.895 359.006 435.184 358.828Z" fill="#45167A"/>
<path d="M429.227 366.017C437.496 371.632 445.725 377.015 454.451 381.901C454.718 382.05 454.481 382.452 454.21 382.363C444.717 379.272 436.822 372.293 428.907 366.471C428.619 366.259 428.931 365.816 429.227 366.017Z" fill="#45167A"/>
<path d="M424.92 372.167C427.047 374.148 428.591 376.703 430.341 379.005C432.109 381.331 433.986 383.579 435.932 385.758C440.058 390.376 444.852 393.948 449.568 397.892C450.035 398.282 449.681 399.148 449.046 398.895C443.331 396.62 438.461 391.972 434.481 387.403C432.401 385.016 430.555 382.449 428.814 379.807C427.249 377.432 425.576 374.99 424.766 372.237C424.738 372.142 424.866 372.116 424.92 372.167Z" fill="#45167A"/>
<path d="M419.946 380.457C422.086 384.59 424.062 388.802 426.451 392.803C428.879 396.869 431.885 400.52 434.376 404.53C434.674 405.012 433.948 405.578 433.528 405.233C430.001 402.335 427.467 398.074 425.233 394.149C422.821 389.911 420.62 385.476 419.174 380.809C419.017 380.3 419.688 379.958 419.946 380.457Z" fill="#45167A"/>
<path d="M415.303 391.424C416.635 394.117 417.643 396.931 419.11 399.571C420.831 402.668 422.79 405.663 424.869 408.53C426.84 411.247 428.947 413.86 431.129 416.41C433.086 418.699 435.259 420.862 437.014 423.312C437.503 423.995 436.684 425.048 435.949 424.459C433.536 422.529 431.495 420.095 429.477 417.767C427.089 415.011 424.8 412.161 422.676 409.196C420.667 406.391 418.821 403.499 417.346 400.376C416.082 397.698 414.735 394.526 414.829 391.507C414.837 391.247 415.198 391.213 415.303 391.424Z" fill="#45167A"/>
<path d="M411.018 407.843C411.271 415.824 416.615 423.435 421.161 429.632C425.774 435.921 430.955 442.013 436.497 447.508C436.943 447.95 436.24 448.692 435.747 448.315C429.142 443.263 423.786 436.485 419.118 429.66C416.575 425.943 414.179 422.064 412.454 417.892C411.172 414.793 409.908 411.195 410.523 407.801C410.581 407.482 411.008 407.525 411.018 407.843Z" fill="#45167A"/>
<path d="M409.995 426.9C411.493 429.26 412.659 431.819 414.062 434.237C415.955 437.5 417.985 440.692 420.059 443.841C422.027 446.828 424.131 449.719 426.464 452.433C428.471 454.765 430.778 456.763 432.849 459.015C433.224 459.423 432.731 460.031 432.248 459.868C429.512 458.948 427.203 456.485 425.32 454.401C422.754 451.56 420.548 448.35 418.493 445.128C416.524 442.041 414.753 438.819 413.207 435.501C411.925 432.751 410.45 429.983 409.737 427.018C409.705 426.882 409.916 426.776 409.995 426.9Z" fill="#45167A"/>
<path d="M414.213 450.584C414.37 451.142 415.121 452.038 415.44 452.572C416.107 453.684 416.82 454.756 417.584 455.804C419.627 458.602 421.821 461.293 424.066 463.931C427.919 468.458 432.211 472.632 435.929 477.267C436.262 477.682 435.747 478.176 435.317 477.925C433.13 476.649 431.298 474.637 429.599 472.788C427.006 469.966 424.513 467.044 422.091 464.073C419.848 461.322 417.639 458.523 415.727 455.527C414.754 454.002 413.528 452.371 413.96 450.563C413.994 450.42 414.182 450.474 414.213 450.584Z" fill="#45167A"/>
<path d="M331.313 515.729C323.893 501.004 377.073 466.287 411.87 443.656L414.655 452.398C403.637 460.322 369.817 488.3 372.125 494.346C374.43 500.392 446.693 486.635 514.737 454.119C571.22 427.126 638.364 370.109 636.475 363.939C634.588 357.773 604.96 365.218 586.616 371.152L580.406 362.813C617.718 349.16 679.272 330.438 689.105 346.193C698.941 361.942 605.026 425.875 523.808 466.428C404.472 526.012 338.736 530.453 331.313 515.729Z" fill="#9747FF"/>
<path d="M330.036 516.311C328.223 512.567 329.747 508.414 331.681 505.051C334.727 499.756 339.251 495.274 343.685 491.14C356.536 479.158 371.189 469.068 385.708 459.244C394.066 453.588 402.519 448.074 410.978 442.571C411.646 442.137 412.843 442.119 413.147 443.073C414.076 445.987 415.004 448.902 415.933 451.816C416.114 452.385 416.088 453.093 415.546 453.483C405.558 460.686 396.063 468.773 387.089 477.196C382.933 481.097 378.66 485.124 375.345 489.79C374.5 490.977 373.697 492.324 373.419 493.593C373.304 494.119 373.567 493.578 373.242 493.62C373.574 493.577 373.444 493.83 373.964 493.968C376.187 494.555 379.584 494.352 382.216 494.137C387.311 493.72 392.375 492.902 397.398 491.975C412.71 489.149 427.813 485.12 442.69 480.554C479.217 469.343 514.81 454.59 547.376 434.501C562.217 425.346 576.567 415.38 590.465 404.852C601.568 396.44 612.476 387.688 622.693 378.211C625.892 375.244 629.076 372.214 631.926 368.904C632.826 367.86 633.717 366.784 634.453 365.614C634.805 365.054 634.788 365.1 634.974 364.652C635.183 364.151 635.012 364.194 635.125 364.352C635.11 364.332 634.952 363.999 634.566 363.768C633.739 363.272 632.592 363.177 631.66 363.097C628.742 362.847 625.775 363.19 622.886 363.589C614.74 364.713 606.704 366.738 598.792 368.946C594.905 370.03 591.039 371.191 587.198 372.43C586.621 372.616 585.929 372.579 585.53 372.043C583.46 369.264 581.39 366.484 579.32 363.705C578.817 363.03 578.927 361.863 579.822 361.536C600.115 354.119 620.8 347.351 641.921 342.711C651.068 340.702 660.4 339.03 669.784 338.813C675.712 338.676 683.049 338.908 687.912 342.815C695.776 349.132 687.241 358.914 682.433 364.164C670.856 376.807 656.715 387.216 642.826 397.144C623.592 410.893 603.579 423.564 583.228 435.588C561.07 448.68 538.42 460.93 515.28 472.198C491.592 483.734 467.439 494.398 442.695 503.471C424.881 510.003 406.712 515.799 388.157 519.832C376.075 522.458 363.591 524.547 351.182 524.202C344.912 524.028 336.928 523.444 332.056 518.94C331.23 518.176 330.551 517.316 330.036 516.311C329.21 514.703 331.766 513.539 332.591 515.146C332.823 515.598 333.74 516.725 334.104 517.032C335.048 517.824 336.021 518.384 336.895 518.784C339.814 520.116 342.962 520.703 346.127 521.053C356.69 522.223 367.545 520.81 377.947 518.985C394.737 516.039 411.21 511.321 427.354 505.9C449.911 498.327 471.951 489.24 493.583 479.344C517.179 468.55 540.311 456.763 562.935 444.056C583.899 432.28 604.488 419.799 624.471 406.422C640.411 395.752 656.231 384.598 670.574 371.822C675.294 367.618 679.955 363.213 683.83 358.197C685.859 355.57 688.605 351.839 688.416 348.587C688.345 347.354 687.53 346.122 686.295 345.109C684.312 343.482 681.71 342.683 679.225 342.229C671.509 340.818 663.369 341.79 655.691 342.966C634.901 346.15 614.537 352.469 594.676 359.249C590.096 360.813 585.533 362.429 580.987 364.09C581.155 363.367 581.322 362.644 581.49 361.921C583.56 364.701 585.63 367.48 587.701 370.26C587.145 370.131 586.589 370.003 586.033 369.874C594.369 367.186 602.813 364.786 611.362 362.878C618.061 361.383 625.586 359.509 632.504 360.36C635.294 360.703 638.942 362.316 637.578 365.696C636.475 368.428 634.065 370.77 632.094 372.876C623.721 381.827 614.138 389.724 604.602 397.387C591.003 408.314 576.882 418.61 562.334 428.237C547.244 438.224 531.654 447.579 515.319 455.396C495.909 464.683 475.845 472.622 455.428 479.406C438.92 484.891 422.141 489.705 405.115 493.304C399.015 494.594 392.869 495.742 386.676 496.493C382.934 496.946 379.016 497.412 375.244 497.026C373.099 496.807 370.504 496.153 370.613 493.492C370.773 489.597 374.865 485.706 377.292 483.057C386.552 472.956 397.29 464.044 408.068 455.618C409.943 454.152 411.833 452.705 413.764 451.313C413.635 451.869 413.506 452.425 413.377 452.98C412.449 450.066 411.521 447.152 410.592 444.238C411.315 444.406 412.038 444.573 412.761 444.74C398.09 454.282 383.418 463.85 369.268 474.157C362.579 479.03 355.988 484.061 349.732 489.483C344.837 493.724 339.976 498.207 336.113 503.436C333.843 506.509 330.676 511.191 332.591 515.146C333.379 516.773 330.825 517.94 330.036 516.311Z" fill="#45167A"/>
<path d="M617.285 355.476C624.626 353.139 632.268 351.694 639.911 350.704C648.075 349.647 656.828 348.9 664.906 350.913C668.323 351.764 671.811 353.201 673.828 356.222C674.038 356.536 673.645 356.86 673.376 356.593C668.269 351.52 660.453 350.809 653.627 350.806C645.107 350.801 636.573 352.118 628.225 353.729C624.598 354.428 621.008 355.144 617.362 355.726C617.22 355.749 617.138 355.524 617.285 355.476Z" fill="#45167A"/>
<path d="M654.301 359.294C659.178 362.244 655.582 368.614 653.203 371.979C647.85 379.554 640.133 385.67 632.941 391.398C614.617 405.994 594.651 418.583 574.829 431.019C570.999 433.423 567.117 435.752 563.23 438.063C561.157 439.296 558.803 440.411 556.881 441.873C556.568 442.112 556.175 441.638 556.491 441.398C560.919 438.029 565.639 435.069 570.311 432.037C579.18 426.283 588.186 420.746 597.016 414.929C606.949 408.384 616.778 401.664 626.283 394.508C634.289 388.48 642.43 382.251 649.187 374.801C652.465 371.185 658.916 364.247 654.242 359.357C654.205 359.32 654.261 359.269 654.301 359.294Z" fill="#45167A"/>
<path d="M383.26 468.322C380.484 472.45 376.617 475.553 372.879 478.796C368.523 482.577 364.174 486.569 360.599 491.113C356.884 495.834 352.634 504.275 360.576 507.048C367.08 509.319 375.041 507.89 381.629 506.78C390.237 505.328 398.73 503.171 407.13 500.816C413.482 499.037 419.81 496.615 426.305 495.409C426.78 495.321 427.043 496.076 426.561 496.241C412.224 501.139 397.389 505.468 382.431 507.95C375.534 509.094 367.35 510.484 360.531 508.197C358.381 507.476 356.318 506.174 355.425 504C354.224 501.077 355.371 497.765 356.824 495.164C359.934 489.599 365.016 485.091 369.671 480.844C374.19 476.722 378.957 472.664 383.175 468.243C383.222 468.194 383.296 468.269 383.26 468.322Z" fill="#45167A"/>
<path d="M347.378 501.145C346.73 504.292 348.112 507.246 349.615 509.938C349.687 510.067 349.481 510.196 349.393 510.076C347.497 507.465 346.165 504.376 346.853 501.1C346.922 500.772 347.447 500.812 347.378 501.145Z" fill="#45167A"/>
<path d="M475.25 475.679C451.742 485.214 426.754 490.291 402.906 498.855C402.644 498.949 402.459 498.564 402.724 498.456C426.202 488.816 451.334 484.13 475.152 475.466C475.293 475.415 475.391 475.621 475.25 475.679Z" fill="#45167A"/>
<path d="M457.408 489.697C444.665 493.644 432.121 498.196 419.412 502.246C406.852 506.248 394.165 510.226 381.135 512.378C380.797 512.434 380.72 511.941 381.045 511.859C394.142 508.593 407.115 504.99 419.974 500.877C432.377 496.91 444.796 492.974 457.365 489.558C457.444 489.537 457.487 489.672 457.408 489.697Z" fill="#45167A"/>
</g>
<defs>
<filter id="filter0_d_171_11606" x="-3.99805" y="-88" width="909.225" height="890.039" filterUnits="userSpaceOnUse" color-interpolation-filters="sRGB">
<feFlood flood-opacity="0" result="BackgroundImageFix"/>
<feColorMatrix in="SourceAlpha" type="matrix" values="0 0 0 0 0 0 0 0 0 0 0 0 0 0 0 0 0 0 127 0" result="hardAlpha"/>
<feOffset dy="4"/>
<feGaussianBlur stdDeviation="2"/>
<feComposite in2="hardAlpha" operator="out"/>
<feColorMatrix type="matrix" values="0 0 0 0 0 0 0 0 0 0 0 0 0 0 0 0 0 0 0.25 0"/>
<feBlend mode="normal" in2="BackgroundImageFix" result="effect1_dropShadow_171_11606"/>
<feBlend mode="normal" in="SourceGraphic" in2="effect1_dropShadow_171_11606" result="shape"/>
</filter>
</defs>
</svg>
