<svg id="eweRtY7V8aG1" xmlns="http://www.w3.org/2000/svg" xmlns:xlink="http://www.w3.org/1999/xlink" viewBox="0 0 902 883" shape-rendering="geometricPrecision" text-rendering="geometricPrecision">
<style><![CDATA[
#eweRtY7V8aG2_tr {animation: eweRtY7V8aG2_tr__tr 2500ms linear 1 normal forwards}@keyframes eweRtY7V8aG2_tr__tr { 0% {transform: translate(510.103836px,475.071152px) rotate(0deg);animation-timing-function: cubic-bezier(0.42,0,0.58,1)} 100% {transform: translate(510.103836px,475.071152px) rotate(-30.000001deg)}} #eweRtY7V8aG20_to {animation: eweRtY7V8aG20_to__to 2500ms linear 1 normal forwards}@keyframes eweRtY7V8aG20_to__to { 0% {transform: translate(406.225205px,380.471787px);animation-timing-function: cubic-bezier(0.42,0,0.58,1)} 100% {transform: translate(396.180241px,307.318503px)}} #eweRtY7V8aG20_ts {animation: eweRtY7V8aG20_ts__ts 2500ms linear 1 normal forwards}@keyframes eweRtY7V8aG20_ts__ts { 0% {transform: scale(1,1);animation-timing-function: cubic-bezier(0.42,0,0.58,1)} 100% {transform: scale(2.181706,2.181708)}} #eweRtY7V8aG40_to {animation: eweRtY7V8aG40_to__to 2500ms linear 1 normal forwards}@keyframes eweRtY7V8aG40_to__to { 0% {transform: translate(375.128998px,327.412064px);animation-timing-function: cubic-bezier(0.42,0,0.58,1)} 100% {transform: translate(249.192461px,166.126295px)}} #eweRtY7V8aG40_tr {animation: eweRtY7V8aG40_tr__tr 2500ms linear 1 normal forwards}@keyframes eweRtY7V8aG40_tr__tr { 0% {transform: rotate(0deg);animation-timing-function: cubic-bezier(0.42,0,0.58,1)} 100% {transform: rotate(-23.302848deg)}}
]]></style>
<defs><filter id="eweRtY7V8aG2-filter" x="-150%" width="400%" y="-150%" height="400%"><feGaussianBlur id="eweRtY7V8aG2-filter-drop-shadow-0-blur" in="SourceAlpha" stdDeviation="2,2"/><feOffset id="eweRtY7V8aG2-filter-drop-shadow-0-offset" dx="0" dy="4" result="tmp"/><feFlood id="eweRtY7V8aG2-filter-drop-shadow-0-flood" flood-color="#000"/><feComposite id="eweRtY7V8aG2-filter-drop-shadow-0-composite" operator="in" in2="tmp"/><feMerge id="eweRtY7V8aG2-filter-drop-shadow-0-merge" result="result"><feMergeNode id="eweRtY7V8aG2-filter-drop-shadow-0-merge-node-1"/><feMergeNode id="eweRtY7V8aG2-filter-drop-shadow-0-merge-node-2" in="SourceGraphic"/></feMerge></filter></defs><g id="eweRtY7V8aG2_tr" transform="translate(510.103836,475.071152) rotate(0)"><g transform="translate(-510.103836,-475.071152)" filter="url(#eweRtY7V8aG2-filter)"><path d="M301.669,304.44l4.495,2.71.32,5.24l3.962-3.441l5.082,1.315-2.045-4.833l2.82-4.428-5.228.457-3.337-4.053-1.186,5.114-4.883,1.919Z" fill="#45167a"/><path d="M422.41,752.573c.304-.323.607-.646.911-.97.288-.306.908-.29,1.224-.045.321.248.575.768.369,1.168-.202.395-.405.789-.607,1.184-.196.382-.467.719-.928.779-.317.041-.632-.015-.899-.203-.252-.177-.439-.474-.492-.778-.08-.464.117-.81.422-1.135Z" fill="#45167a"/><path d="M318.122,625.067l5.245-.136l3.09,4.241l1.488-5.031l4.99-1.629-4.326-2.97-.007-5.25-4.161,3.197-4.993-1.614l1.753,4.945-3.079,4.247Z" fill="#45167a"/><path d="M331.232,358.649l2.245,2.13-.48,3.06l2.719-1.479l2.761,1.401-.566-3.043l2.187-2.191-3.069-.405-1.407-2.755-1.333,2.793-3.057.489Z" fill="#45167a"/><path d="M337.277,728.135c-.051.072-.163-.007-.112-.079.051-.073.163.006.112.079Z" fill="#45167a"/><path d="M221.33,523.784c.557-.205,1.119-.375,1.688-.54c1.691-.488,2.269,2.401.474,2.745-.266.051-.54.083-.808.123-.465.068-1.012-.083-1.298-.482-.359-.5-.404-.74-.232-1.339.136-.473.6-.799,1.061-.891.265-.053.534-.114.803-.156c1.805-.279,2.232,2.637.474,2.745-.593.037-1.175.065-1.771.058-1.17-.011-1.49-1.858-.391-2.263Z" fill="#45167a"/><path d="M463.477,637.66l3.094-.082l1.82,2.504.879-2.971l2.943-.959-2.551-1.753-.004-3.094-2.455,1.885-2.945-.955l1.035,2.92-1.816,2.505Z" fill="#45167a"/><path d="M350.669,587.079c-.361-.049-.723-.098-1.084-.147-.413-.056-.804-.142-1.141-.405-.26-.204-.465-.469-.522-.8-.057-.33.047-.649.223-.929.229-.361.569-.573.939-.764.324-.168.648-.336.971-.504c1.075-.557,2.41.242,2.606,1.376.197,1.135-.793,2.336-1.992,2.173Z" fill="#45167a"/><path d="M344.846,312.246l2.245,2.13-.481,3.059l2.718-1.477l2.762,1.402-.566-3.047l2.188-2.191-3.07-.402-1.408-2.755-1.332,2.792-3.056.489Z" fill="#45167a"/><path d="M589.492,405.737l2.246,2.128-.482,3.059l2.719-1.479l2.762,1.402-.567-3.043l2.188-2.191-3.071-.401-1.405-2.757-1.333,2.794-3.057.488Z" fill="#45167a"/><path d="M557.06,300.887l5.244-.14l3.091,4.245l1.488-5.032l4.99-1.628-4.326-2.972-.006-5.248-4.161,3.197-4.993-1.619l1.755,4.949-3.082,4.248Z" fill="#45167a"/><path d="M284.811,662.194c.268-.271.536-.543.804-.815.142-.144.194-.3-.097.112.368-.522,1.179-.698,1.7-.294.523.405.688,1.14.294,1.699-.037.052.201-.404.141-.268-.022.047-.046.093-.068.139-.166.344-.332.688-.498,1.032-.223.461-.569.864-1.113.934-.381.049-.759-.017-1.078-.243-.303-.213-.528-.569-.591-.934-.095-.547.133-.983.506-1.362Z" fill="#45167a"/><path d="M683.359,239.955c-1.226,1.738-3.929-.163-2.702-1.904c1.225-1.739,3.929.163,2.702,1.904Z" fill="#45167a"/><path d="M378.651,183.553l5.246-.137l3.091,4.244l1.487-5.032L393.466,181l-4.326-2.968-.006-5.25-4.164,3.198-4.992-1.62l1.754,4.948-3.081,4.245Z" fill="#45167a"/><path d="M634.007,564.439l3.807,3.611-.814,5.184l4.611-2.505l4.677,2.379-.955-5.161l3.704-3.716-5.201-.683-2.386-4.675-2.26,4.739-5.183.827Z" fill="#45167a"/><path d="M328.008,338.788c.809.041.584.194,1.181-.083-.235.629-.47,1.259-.706,1.888-.005-.016-.01-.031-.015-.047.271.25.542.499.814.749-.619-.276-1.263-.304-1.888-.653-.552-.309-.426-1.064-.053-1.429.877-.856,3.154-1.3,3.736.197.355.914-.138,1.748-1.054,1.996-.637.172-1.607-.249-2.207-.379-1.375-.299-1.296-2.314.192-2.239Z" fill="#45167a"/><path d="M554.68,179.399c.268-.456.343-.883.788-1.223c1.64-1.253,3.697,1.225,2.044,2.488-.263.201-.527.394-.798.586-1.05.747-2.374-.184-2.023-1.426.09-.32.183-.633.283-.948.633-1.978,3.661-.881,3.031,1.089-.171.532-.548.747-.887,1.153-1.233,1.476-3.416-.058-2.438-1.719Z" fill="#45167a"/><g id="eweRtY7V8aG20_to" transform="translate(406.225205,380.471787)"><g id="eweRtY7V8aG20_ts" transform="scale(1,1)"><g transform="translate(-406.225204,-380.471786)"><path d="M357.24,318.733c3.967-.169,8.127.745,11.988,1.59c4.034.882,8.002,2.042,11.891,3.426c8.193,2.914,16.037,6.798,23.456,11.324c15.05,9.182,28.629,21.139,39.541,34.994c5.549,7.045,10.868,14.779,13.957,23.254.151.412-.413.676-.623.284-3.767-7.065-7.718-13.964-12.532-20.379-5.187-6.913-11.053-13.322-17.398-19.186-12.732-11.769-27.539-21.689-43.705-28.064-4.325-1.705-8.756-3.14-13.271-4.25-2.196-.54-4.413-.997-6.645-1.361-2.234-.364-4.497-.526-6.717-.949-.439-.084-.38-.664.058-.683Z" fill="#45167a"/><path d="M355.17,324.233c8.19,4.351,15.677,10.205,22.346,16.62c6.452,6.207,12.133,13.178,17.025,20.672c9.853,15.091,16.408,32.144,20.202,49.721c2.155,9.979,3.773,20.317,3.742,30.546-.002.558-.916.597-.978.042-1.005-8.988-1.808-17.961-3.547-26.849-1.728-8.83-4.111-17.546-7.238-25.985-6.157-16.614-15.308-32.128-27.703-44.859-7.291-7.488-15.589-13.567-24.436-19.075-.569-.354.024-1.132.587-.833Z" fill="#45167a"/><path d="M361.302,320.737c3.921,2.412,8.019,4.447,12.262,6.228c4.169,1.751,8.404,3.353,12.511,5.251c7.562,3.494,14.153,8.477,20.238,14.124c11.624,10.787,21.214,24.054,27.706,38.53c3.533,7.877,6.488,16.334,7.465,24.945.025.225-.294.28-.345.06-1.743-7.549-3.842-14.95-6.916-22.077-3.181-7.377-7.101-14.44-11.671-21.046-4.481-6.478-9.576-12.54-15.234-18.021-5.865-5.682-12.357-10.991-19.712-14.615-4.5-2.218-9.206-3.971-13.83-5.906-4.479-1.874-9.013-3.93-12.814-6.991-.295-.238.016-.681.34-.482Z" fill="#45167a"/><path d="M360.468,324.922c6.156,2.34,11.936,6.133,17.373,9.799c5.7,3.844,11.14,8.081,16.228,12.707c10.069,9.154,18.811,19.844,24.9,32.06c1.706,3.423,3.197,6.951,4.404,10.581c1.17,3.518,2.246,7.225,2.606,10.926.027.279-.348.337-.424.073-.941-3.264-1.721-6.553-2.818-9.775-1.065-3.127-2.31-6.201-3.714-9.191-2.866-6.104-6.427-11.864-10.486-17.243-8.176-10.833-18.148-20.191-29.21-28.029-3.049-2.159-6.178-4.204-9.38-6.128-3.166-1.903-6.465-3.599-9.588-5.57-.114-.073-.016-.258.109-.21Z" fill="#45167a"/></g></g></g><path d="M510.055,369.42c-.46-1.802.112-3.784-.282-5.661-.375-1.784-1.264-3.406-2.444-4.784-2.581-3.015-6.378-4.832-10.13-5.913-8.277-2.386-18.743-1.702-25.478,4.163-1.785,1.554-3.205,3.501-4.088,5.699-1.069,2.66-1.179,5.426-1.637,8.214-.144.875-1.273.899-1.507.065-1.395-4.969.761-10.692,4.125-14.378c3.319-3.635,7.985-5.706,12.757-6.633c8.966-1.742,20.584-.09,27.047,6.947c1.526,1.661,2.66,3.671,3.175,5.874.475,2.034.646,5.047-.921,6.636-.219.221-.553.018-.617-.229Z" fill="#45167a"/><path d="M478.816,376.981c-1.221-.525-2.132-1.557-3.325-2.162-1.133-.573-2.389-.834-3.657-.809-2.604.053-5.112,1.323-7.157,2.855-2.335,1.75-4.269,3.984-5.769,6.482s-2.125,5.279-3.354,7.868c-.328.693-1.233.611-1.439-.125-.87-3.107.898-6.802,2.477-9.376c1.85-3.016,4.369-5.728,7.339-7.661c2.521-1.64,5.576-2.805,8.631-2.461c2.6.292,6.302,2.036,6.882,4.861.07.337-.302.669-.628.528Z" fill="#45167a"/><path d="M459.989,379.552c-1.999-3.65-5.204-5.747-9.407-5.651-3.981.091-7.111,2.05-10.426,3.996-.562.33-1.045-.442-.753-.909c2.417-3.862,7.96-5.434,12.272-5.218c4.574.229,8.659,2.777,9.627,7.376.17.807-.951,1.067-1.313.406Z" fill="#45167a"/><path d="M445.084,393.401c-1.172-.762-2.083-1.769-3.475-2.15-1.155-.317-2.379-.24-3.524.081-2.812.791-5.229,2.903-6.925,5.216-1.869,2.548-3.081,5.641-3.06,8.828.011,1.638.384,3.252,1.084,4.731.818,1.728,2.436,3.016,3.049,4.802.275.801-.366,1.502-1.187,1.29-3.077-.797-4.887-5.215-5.432-8.05-.587-3.049-.099-6.268,1.134-9.099c2.13-4.892,6.754-9.827,12.378-10.223c2.647-.186,6.066.957,7.109,3.621.279.714-.493,1.382-1.151.953Z" fill="#45167a"/><path d="M377.233,455.847c.057-.854-.345-1.53-.078-2.49.297-1.073.972-2.133,1.578-3.056c1.22-1.856,2.787-3.505,4.525-4.883c3.604-2.86,8.029-4.687,12.558-5.425c4.402-.717,9.14-.47,13.29,1.251c3.383,1.403,8.897,5.004,8.486,9.189-.047.472-.574.701-.962.448-1.611-1.055-2.438-2.853-3.816-4.227-1.412-1.408-3.108-2.513-4.948-3.276-3.833-1.59-8.08-1.82-12.138-1.102-4.145.734-8.176,2.445-11.453,5.109-1.582,1.287-2.966,2.79-4.058,4.515-.485.765-.821,1.609-1.302,2.372-.38.605-1.162,1.084-1.461,1.655-.058.115-.228.03-.221-.08Z" fill="#45167a"/><path d="M405.369,442.341c-3.195-6.89,1.47-13.806,8.195-15.84c7.341-2.221,15.966-.634,22.764,2.606c3.001,1.43,8.407,4.121,8.887,7.888.054.429-.365.869-.809.679-1.766-.755-3.182-2.424-4.728-3.545-1.752-1.27-3.662-2.302-5.655-3.14-4.11-1.726-8.557-2.707-13.019-2.764-3.726-.047-7.914.581-10.887,3.009-3.427,2.799-3.083,6.813-3.117,10.825-.008.886-1.29,1.019-1.631.282Z" fill="#45167a"/><path d="M443.845,413.188c-2.402.104-4.737.02-7.073.71-2.184.646-4.263,1.725-6.041,3.149-1.722,1.38-3.173,3.124-4.055,5.158-.484,1.116-.749,2.253-.893,3.456-.115.953-.159,1.77-.922,2.446-.214.189-.578.198-.806.029-1.899-1.402-.578-5.064.191-6.804c1.079-2.441,2.804-4.57,4.903-6.211c3.811-2.977,10.269-5.273,14.943-3.064.62.292.415,1.102-.247,1.131Z" fill="#45167a"/><path d="M427.324,451.352c-2.91-.692-6.673-.867-9.494.222-3.465,1.339-5.004,4.124-5.247,7.708-.123,1.822-2.718,1.503-2.761-.235-.107-4.293,2.472-8.085,6.434-9.686c1.841-.744,3.832-1.04,5.811-.963c2.28.089,3.889.868,5.692,2.119.47.325.06.953-.435.835Z" fill="#45167a"/><path d="M365.113,461.705c.039-5.62,7.122-6.855,11.476-6.403c4.011.416,12.121,3.306,10.795,8.716-.176.72-1.312.902-1.723.299-1.039-1.528-1.645-3.076-3.202-4.187-1.706-1.218-3.819-1.898-5.882-2.173-3.79-.505-8.393.254-10.28,4.007-.307.611-1.189.466-1.184-.259Z" fill="#45167a"/><path d="M499.795,381.796c-1.689-7.381,5.213-13.544,11.361-15.981c7.299-2.893,16.041-3.013,23.391-.225c2.008.761,3.976,1.768,5.691,3.067c1.302.986,3.391,2.739,3.533,4.48.039.472-.381.939-.881.74-1.661-.662-3.049-2.561-4.547-3.611-1.79-1.253-3.78-2.172-5.854-2.846-4.402-1.429-9.193-1.744-13.769-1.113-4.297.593-8.655,2.025-12.052,4.803-3.469,2.837-4.518,6.374-5.285,10.617-.16.883-1.377.99-1.588.069Z" fill="#45167a"/><path d="M506.583,401.498c-5.041-4.045-12.063-6.216-18.495-5.893-2.9.145-6.18.84-8.324,2.945-1.044,1.025-1.726,2.353-2.027,3.782-.395,1.878.21,3.87-.647,5.623-.213.437-.677.509-1.024.178-2.65-2.524-.93-8.142,1.087-10.603c2.317-2.827,5.967-4.021,9.506-4.266c3.985-.276,8.041.415,11.797,1.744c3.317,1.174,6.737,2.844,8.676,5.898.225.353-.156.906-.549.592Z" fill="#45167a"/><path d="M484.647,407.001c-3.164.08-6.131.379-8.644,2.522-1.161.991-2.115,2.243-2.779,3.618-.544,1.125-.651,2.539-1.952,3.048-.266.104-.497.031-.694-.161-2.464-2.404,2.527-7.613,4.398-8.924c2.847-1.995,6.908-3.065,9.976-.941.408.282.124.827-.305.838Z" fill="#45167a"/><path d="M473.531,410.355c-1.536-.963-2.835-2.071-4.626-2.564-1.916-.528-3.977-.431-5.894.04-2.069.508-4.032,1.5-5.666,2.867-1.525,1.276-2.485,3.148-4.022,4.359-.434.343-.963-.013-.975-.512-.056-2.408,2.171-4.622,3.942-5.991c1.933-1.492,4.2-2.539,6.582-3.067c3.771-.837,10.187-.363,11.648,4.049.204.617-.399,1.189-.989.819Z" fill="#45167a"/><path d="M530.002,388.461c.133-4.253,4.007-8.416,7.456-10.474c3.715-2.217,8.206-2.795,12.458-2.367c8.991.907,18.037,6.126,22.748,13.926c2.585,4.279,3.593,9.575,1.69,14.311-.199.495-.959.346-.921-.201.606-8.632-3.27-15.982-10.36-20.87-6.497-4.479-15.496-6.991-23.091-3.911-1.997.809-3.812,2.016-5.289,3.59-1.751,1.868-2.57,4.196-4.026,6.238-.219.306-.677.113-.665-.242Z" fill="#45167a"/><path d="M376.511,467.612c-3.852.013-7.826.018-10.815,2.81-2.5,2.336-3.551,5.763-3.752,9.099-.234,3.886.694,7.743,2.324,11.255c1.803,3.885,4.667,6.441,7.654,9.372.431.423-.145,1.048-.634.899-4.343-1.317-7.603-5.722-9.497-9.63-1.93-3.984-2.748-8.715-2.234-13.114.445-3.81,1.999-7.821,5.153-10.197c1.543-1.162,3.391-1.899,5.296-2.188c2.433-.369,4.477-.047,6.666.956.397.183.276.736-.161.738Z" fill="#45167a"/><g id="eweRtY7V8aG40_to" transform="translate(375.128998,327.412064)"><g id="eweRtY7V8aG40_tr" transform="rotate(0)"><g transform="translate(-375.128997,-327.412064)"><path d="M369.178,296.519l38.063,3.069c11.454.887,14.714,9.372,6.521,18.56l-9.105,10.206-35.479-31.835Z" fill="#9747ff" stroke="#45167a" stroke-width="4.8711" stroke-linecap="round" stroke-linejoin="round" stroke-miterlimit="10"/><path d="M344.433,324.095l7.158,37.509c2.117,11.292,10.909,13.614,19.158,4.477l9.162-10.153-35.478-31.833Z" fill="#9747ff" stroke="#45167a" stroke-width="4.8711" stroke-linecap="round" stroke-linejoin="round" stroke-miterlimit="10"/><path d="M357.706,283.96c7.417,3.962,9.179,6.231,9.179,6.231l43.218,38.774-28.936,32.245-43.215-38.773c0,0-3.526-2.375-7.296-8.333l27.05-30.144Z" fill="#9747ff" stroke="#45167a" stroke-width="4.8711" stroke-linecap="round" stroke-linejoin="round" stroke-miterlimit="10"/><path d="M357.706,283.96l-27.05,30.144c.111.178-.901-1.447-1.517-2.581-4.642-8.527-8.067-29.013-5.92-31.406c2.146-2.392,22.227-2.306,31.865,2.49c1.999.997,3.522,1.833,2.622,1.353Z" fill="#9747ff" stroke="#45167a" stroke-width="4.8711" stroke-linecap="round" stroke-linejoin="round" stroke-miterlimit="10"/><path d="M349.387,303.614c6.661-7.422,18.076-8.042,25.499-1.383c7.421,6.66,8.039,18.073,1.378,25.495-6.664,7.424-18.075,8.043-25.497,1.385-7.424-6.66-8.041-18.076-1.38-25.497Zm23.809,21.361c5.143-5.727,4.664-14.538-1.062-19.676-5.728-5.138-14.541-4.665-19.68,1.067-5.142,5.728-4.663,14.537,1.066,19.677c5.726,5.14,14.535,4.662,19.676-1.068Z" fill="#9747ff" stroke="#45167a" stroke-width="4.8711" stroke-linecap="round" stroke-linejoin="round" stroke-miterlimit="10"/><path d="M353.519,326.043c5.726,5.14,14.536,4.662,19.677-1.068c5.142-5.727,4.664-14.538-1.063-19.676-5.728-5.139-14.54-4.665-19.68,1.067-5.142,5.728-4.663,14.537,1.066,19.677Z" fill="#9747ff" stroke="#45167a" stroke-width="4.8711" stroke-linecap="round" stroke-linejoin="round" stroke-miterlimit="10"/><path d="M412.084,339.92l-7.661,8.539c8.299,15.601,23.254,14.064,23.254,14.064.628-17.338-15.593-22.603-15.593-22.603Z" fill="#9747ff" stroke="#45167a" stroke-width="4.8711" stroke-linecap="round" stroke-linejoin="round" stroke-miterlimit="10"/><path d="M405.63,347.114l5.255-5.858c3.934,2.769,9.925,8.157,11.41,16.042c0,0-8.706-1.035-16.665-10.184Z" fill="#9747ff" stroke="#45167a" stroke-width="4.8711" stroke-linecap="round" stroke-linejoin="round" stroke-miterlimit="10"/><path d="M403.611,349.361l9.513-10.599-2.504-1.75-9.019,10.051l2.01,2.298Z" fill="#9747ff" stroke="#45167a" stroke-width="4.8711" stroke-linecap="round" stroke-linejoin="round" stroke-miterlimit="10"/><path d="M401.079,347.647l-3.424-3.069c-.478-.43-.52-1.165-.088-1.645l8.514-9.486c.429-.479,1.164-.517,1.645-.088l3.418,3.07-10.065,11.218Z" fill="#9747ff" stroke="#45167a" stroke-width="4.8711" stroke-linecap="round" stroke-linejoin="round" stroke-miterlimit="10"/><path d="M399.807,353.603l-7.66,8.536c8.297,15.605,23.254,14.065,23.254,14.065.624-17.336-15.594-22.601-15.594-22.601Z" fill="#9747ff" stroke="#45167a" stroke-width="4.8711" stroke-linecap="round" stroke-linejoin="round" stroke-miterlimit="10"/><path d="M393.351,360.798l5.256-5.858c3.935,2.768,9.926,8.156,11.411,16.041c0,0-8.708-1.036-16.667-10.183Z" fill="#9747ff" stroke="#45167a" stroke-width="4.8711" stroke-linecap="round" stroke-linejoin="round" stroke-miterlimit="10"/><path d="M391.335,363.045l9.512-10.6-2.503-1.749-9.02,10.05l2.011,2.299Z" fill="#9747ff" stroke="#45167a" stroke-width="4.8711" stroke-linecap="round" stroke-linejoin="round" stroke-miterlimit="10"/><path d="M388.8,361.33l-3.422-3.07c-.477-.429-.519-1.164-.089-1.645l8.512-9.486c.428-.478,1.166-.518,1.646-.088l3.421,3.069L388.8,361.33Z" fill="#9747ff" stroke="#45167a" stroke-width="4.8711" stroke-linecap="round" stroke-linejoin="round" stroke-miterlimit="10"/><path d="M325.938,282.268c1.128,1.825,1.647,4.178,2.212,6.234.608,2.216,1.104,4.457,1.627,6.693.524,2.238,1.095,4.464,1.695,6.683.444,1.639,1.599,3.8.753,5.424-.154.295-.494.343-.775.227-1.699-.701-2.106-3.329-2.571-4.926-.644-2.206-1.101-4.47-1.567-6.719-.467-2.254-.912-4.511-1.357-6.768-.418-2.124-1.13-4.339-1.253-6.496-.038-.677.9-.894,1.236-.352Z" fill="#45167a"/><path d="M347.277,300.284c-.343,2.305-2.262,4.15-3.786,5.784-1.493,1.6-3.035,3.179-4.479,4.824-1.85,2.11-2.841,4.554-.854,6.944c1.809,2.175,3.917,4.211,5.875,6.254c4.278,4.465,8.918,8.545,13.695,12.465c2.39,1.961,4.812,3.882,7.243,5.794c1.166.917,2.334,1.83,3.472,2.783.565.474,1.157.931,1.7,1.43.602.553,1.082,1.332,1.736,1.812.436.319-.034.895-.455.829-2.762-.437-5.316-3.039-7.468-4.714-2.734-2.128-5.461-4.265-8.146-6.453-5.454-4.445-10.777-9.102-15.607-14.226-3.374-3.58-7.825-7.252-4.699-12.51c1.207-2.029,3.072-3.746,4.732-5.401c2.048-2.041,4.016-4.081,5.982-6.196.456-.492,1.145-.001,1.059.581Z" fill="#45167a"/><path d="M382.874,300.377c2.646.489,5.602.314,8.287.353c3.517.053,7.043.05,10.541.459c2.875.337,5.988.894,8.433,2.544c1.933,1.304,4.199,4.067,3.203,6.538-.294.731-1.386.632-1.743.036-.631-1.054-.543-2.351-1.225-3.418-.675-1.056-1.709-1.771-2.815-2.32-2.738-1.361-5.964-1.684-8.97-1.903-3.14-.228-6.289-.218-9.432-.367-2.281-.109-4.453-.28-6.515-1.32-.343-.173-.115-.667.236-.602Z" fill="#45167a"/><path d="M356.292,341.608c1.732.788,3.121,2.661,4.583,3.882c1.642,1.373,3.32,2.701,4.996,4.03c1.687,1.336,3.372,2.685,4.937,4.164c1.037.981,3.488,2.85,3.579,4.386.076,1.283-1.052,3.127-1.723,4.152-.93,1.422-2.148,2.648-3.443,3.738-2.302,1.938-5.536,4.559-8.731,4.107-.672-.095-.778-.962-.407-1.397c1.797-2.112,4.835-3.005,6.987-4.755c1.153-.938,2.191-2.007,3.104-3.179.408-.525,1.06-1.216,1.235-1.876.249-.944-.457-1.412-1.151-2.152-2.482-2.643-5.378-4.844-8.167-7.143-2.146-1.769-5.958-4.499-6.466-7.427-.069-.4.288-.702.667-.53Z" fill="#45167a"/><path d="M369.403,306.539c-1.851,1.425-4.828,1.193-7.035,1.236-2.645.052-5.536.419-8.135-.147-.407-.088-.333-.603-.01-.735c2.399-.983,5.239-.643,7.78-.657c2.33-.013,5.116-.586,7.37.104.097.03.104.142.03.199Z" fill="#45167a"/><path d="M371.958,308.927c-3.367,1.084-7.264.454-10.738.421-1.927-.018-3.858.044-5.765.345-1.218.192-2.88,1.099-4.032.449-.129-.074-.206-.234-.166-.38.37-1.372,2.197-1.564,3.404-1.793c1.827-.346,3.704-.412,5.559-.397c3.831.029,7.984.131,11.733.988.192.043.181.311.005.367Z" fill="#45167a"/><path d="M373.88,311.519c-3.593,1.397-7.316,1.415-11.131,1.446-1.974.015-3.948-.006-5.922-.01-1.588-.004-3.443.228-4.875-.567-.27-.15-.279-.546-.014-.706c1.329-.803,3.022-.628,4.524-.603c1.971.032,3.943.083,5.914.101c3.819.034,7.623-.181,11.439-.114.273.005.303.361.065.453Z" fill="#45167a"/><path d="M375.702,314.388c-3.356,1.989-8.28,1.433-12.013,1.347-2.197-.05-4.395-.15-6.594-.138-1.688.008-4.221.729-5.687-.232-.268-.176-.343-.517-.12-.766c1.104-1.233,3.289-.967,4.806-1.001c2.193-.049,4.388.029,6.578.129c2.079.096,4.16.193,6.242.169c2.183-.026,4.427-.388,6.602-.165.326.034.513.462.186.657Z" fill="#45167a"/></g></g></g><path d="M450.777,712.773l3.805,3.612-.814,5.184l4.61-2.506l4.68,2.377-.959-5.159l3.709-3.715-5.204-.683-2.385-4.675-2.261,4.739-5.181.826Z" fill="#45167a"/><path d="M625.453,542.559c.128-.027.254-.057.38-.093-.162.05-.324.099-.486.149.136-.042.266-.091.39-.16-.146.091-.292.182-.439.274.057-.036.106-.073.153-.121-.121.131-.243.263-.364.394.018-.02.033-.041.047-.064-.083.159-.166.318-.248.477.021-.042.04-.085.054-.13-.037.168-.074.337-.11.505.006-.036.008-.067.007-.105.007.169.014.337.022.506-.005-.04-.013-.076-.024-.114.049.16.098.32.147.479-.026-.074-.061-.142-.101-.209.088.141.176.283.264.424-.329-.512-.7-1.009-.615-1.668.033-.154.067-.307.1-.46.006.126.009.16.009.1.005-.031-.001-.067.001-.098.019-.254.124-.513.328-.676.092-.074.2-.141.314-.176.145-.045-.073.054-.095.061.133-.083.266-.166.399-.249.216-.107.441-.156.676-.147.54-.024,1.093.175,1.502.53.356.31.654.603.847,1.044.301.691.272,1.561-.182,2.184-.557.763-1.395,1.093-2.302,1.232-1.022.158-2.143-.537-2.282-1.608-.141-1.093.528-2.053,1.608-2.281Z" fill="#45167a"/><path d="M515.943,616.046l5.244-.139l3.091,4.243l1.487-5.033l4.992-1.625-4.329-2.973-.004-5.246-4.164,3.193-4.992-1.615l1.752,4.947-3.077,4.248Z" fill="#45167a"/><path d="M242,486.679c-.331-.006-.661-.012-.992-.019-.414-.008-.771-.045-1.123-.312-.06-.046-.121-.093-.182-.139-.397-.302-.49-.832-.216-1.252.041-.064.083-.128.125-.192.234-.36.569-.526.952-.672.31-.117.619-.234.928-.351.499-.189,1.082-.201,1.526.143.324.25.559.585.631.996.067.389-.032.828-.259,1.15-.329.467-.837.659-1.39.648Z" fill="#45167a"/><path d="M306.942,315.248c.86-.074,1.751-.209,2.598.024.607.167,1.093.552,1.566.95c1.443,1.21-.055,3.338-1.683,2.387-.118-.07-.238-.136-.355-.206-.315-.191.277.077-.019-.009-.013-.004-.235-.107-.246-.091-.007.009.411.057.067.034-.278-.019.349-.075.027.007-.116.03-.239.042-.356.067-.338.073-.673.165-1.008.252-.881.23-1.89-.536-2.003-1.412-.112-.865.448-1.92,1.412-2.003Z" fill="#45167a"/><path d="M543.288,334.558c.128-.028.254-.059.379-.096-.317.451-.635.901-.952,1.352-.001-.016-.002-.031-.003-.047-.021-.332-.004-.613.155-.917.163-.313.377-.48.679-.662-.232.153-.291.188-.178.104.114-.103.056-.039-.174.193.084-.125.04-.039-.131.258-.074.207-.092.419-.054.636-.029-.138-.001-.048.084.271-.068-.129-.018-.051.148.235-.046-.038-.086-.1-.13-.143.104.096.207.192.311.288-.17-.155-.357-.28-.503-.461-.081-.124-.159-.249-.235-.376.051.081.101.161.151.242-.214-.344-.403-.69-.348-1.117.029-.131.058-.263.086-.393.053-.219.034-.026-.056.578-.006-.044-.006-.088-.009-.133-.011-.156-.042-.326-.03-.481.022-.302.158-.532.412-.69.158-.098.331-.142.511-.184.078-.018.417-.107.103-.01-.39.121.215-.075.266-.085.281-.061.58-.001.845.093.322.114.624.324.837.59.254.319.478.699.552,1.107.166.914-.346,1.847-1.245,2.139-.313.102-.586.158-.916.086-.294-.064-.648-.227-.821-.488-.02-.03-.039-.06-.059-.09.367.137.735.273,1.103.41-.128.027-.255.049-.384.068-.599.087-1.254-.311-1.335-.941-.083-.644.31-1.198.941-1.336Z" fill="#45167a"/><path d="M640.86,434.998c.13-.254.295-.518.358-.799-.031.141-.061.282-.092.422.038-.239.062.489.018.315.042.138.084.275.127.412-.002-.005-.005-.011-.007-.016.077.123.154.247.231.371-.005-.01-.012-.02-.021-.027.111.102.221.205.333.308-.005-.004-.01-.007-.015-.011.135.07.269.14.403.21-.043-.022-.09-.039-.137-.051.142.032.285.063.428.094-.159-.031-.322-.03-.483-.027-.08.001-.445.015-.172.003.37-.017-.217.021-.372-.004-.187-.03-.373-.081-.558-.122-.225-.05-.495-.276-.638-.45-.204-.248-.307-.553-.32-.87-.028-.641.326-1.077.846-1.4.394-.244.933-.387,1.4-.461.708-.11,1.428.046,1.9.631.54.668.493,1.564.031,2.25-.23.343-.55.634-.831.933-.219.232-.614.322-.912.336-.328.014-.687-.061-.954-.268-.216-.167-.39-.376-.514-.62-.151-.294-.205-.853-.049-1.159Z" fill="#45167a"/><path d="M457.876,328.423c.283-.186.566-.373.85-.558.262-.172.551-.328.795-.525-.112.121-.223.241-.335.362.208-.235.418-.528.66-.715.132-.101.281-.188.422-.278.346-.222.692-.446,1.053-.642-.288.239-.577.479-.865.718.481-.712,1.318-1.113,2.174-1.043c1.227.101,2.18,1.205,2.074,2.437-.083.962-.769,1.602-1.5,2.131-.816.592-1.791.641-2.643.097-.006-.003-.011-.006-.017-.01.7.065,1.399.13,2.098.196-.259.098-.52.195-.783.283-.397.133-.747.202-1.166.11-.393-.085-.797-.291-1.045-.621-.495-.66-.567-1.561-.083-2.255.155-.222.315-.44.469-.663-.066.699-.131,1.399-.197,2.098-.001-.005-.003-.011-.005-.016-.155-.465-.236-.875-.128-1.367.106-.487.347-.893.729-1.225.175-.153.351-.306.511-.475-.134.145-.269.29-.403.435.042-.045.084-.092.116-.145-.092.176-.184.352-.276.528.006-.011.011-.021.014-.033-.041.187-.082.375-.123.563.001-.003.001-.006.002-.009.008.189.016.378.025.568c0-.002-.001-.005-.001-.008.056.181.112.362.168.544-.001-.002-.002-.004-.003-.006.102.162.204.326.305.489-.001-.002-.002-.004-.003-.006.145.136.291.271.437.406-.002-.001-.004-.003-.005-.004.176.092.352.184.528.276-.002-.001-.004-.002-.007-.003.188.041.376.082.564.123-.011-.002-.02-.002-.031-.002.19-.008.379-.017.569-.025-.028.003-.055.01-.081.019.181-.056.363-.113.545-.168-.495.163-.928.245-1.438.134-.153-.034-.234-.057-.361-.09.365.032.73.063,1.095.094-.079.02-.157.043-.235.067.173-.053.345-.106.518-.159-.221.069-.439.145-.657.224-.27.098-.548.219-.831.258-.144.019-.295.019-.435.06.149-.046.297-.092.446-.138-.593.246-1.184.498-1.775.75-.761.324-1.638.068-2.077-.636-.396-.637-.348-1.691.342-2.145Z" fill="#45167a"/><path d="M276.723,461.364c-.051.073-.163-.006-.112-.078.051-.073.163.006.112.078Z" fill="#45167a"/><path d="M575.435,719.57l3.808,3.611-.817,5.185l4.611-2.505l4.678,2.378-.956-5.161l3.707-3.715-5.206-.682-2.386-4.673-2.259,4.736-5.18.826Z" fill="#45167a"/><path d="M730.173,415.197c.243-.04.487-.077.729-.126.093-.018.186-.039.279-.061-.305.104-.386.129-.242.074.409-.166-.327.318-.142.08.207-.267.846-.466,1.15-.493-.479.403-.958.805-1.438,1.207.04-.088.187-.529.06-.082.064-.226.09-.471.163-.697.217-.676.796-1.17,1.527-1.128c1.084.063,1.657,1.283,1.843,2.22-.132-.289-.264-.577-.396-.866c1.1,1.05.477,2.715-.642,3.413-.647.404-1.423.528-2.164.664-1.1.202-2.32-.603-2.467-1.739-.146-1.138.563-2.272,1.74-2.466Z" fill="#45167a"/><path d="M407.079,307.667c.278-.262.555-.524.833-.786.178-.168.176-.279-.136.164.44-.624,1.41-.835,2.034-.352.626.485.824,1.366.352,2.035-.044.062.229-.48.171-.326-.018.048-.042.095-.062.142-.154.349-.308.699-.461,1.048-.245.558-.699,1.039-1.336,1.122-.456.059-.91-.021-1.294-.291-.363-.256-.633-.683-.709-1.121-.11-.641.15-1.202.608-1.635Z" fill="#45167a"/><path d="M662.301,578.962c-.18-.351-.36-.702-.536-1.056-.418-.838.332-1.901,1.262-1.789.392.047.783.098,1.174.15.686.09,1.283.467,1.576,1.11.279.613.211,1.342-.177,1.893-.388.55-1.053.859-1.723.803-.705-.06-1.26-.496-1.576-1.111Z" fill="#45167a"/><path d="M618.751,697.031c-1,1.418-3.205-.133-2.203-1.553.999-1.418,3.204.132,2.203,1.553Z" fill="#45167a"/><path d="M407.295,645.324c-.103-.075-.206-.15-.309-.225-.641-.468-.874-1.46-.366-2.116.497-.643,1.428-.868,2.115-.366.438.319.876.637,1.312.956.63.46.86,1.434.36,2.08-.503.649-1.387.83-2.079.359-.448-.304-.895-.609-1.342-.913-.657-.448-.863-1.474-.366-2.116.51-.66,1.412-.846,2.115-.366.106.072.211.143.317.215.659.45.866,1.48.367,2.124-.499.645-1.433.871-2.124.368Z" fill="#45167a"/><path d="M689.051,300.931c-1.14,1.381-3.189,2.417-4.979,2.482-.41.015-.747-.392-.824-.756-.208-.992.391-1.713,1.101-2.335.566-.496,1.427-.8,1.869-1.388c1.348-1.791,4.244.286,2.833,1.997Z" fill="#45167a"/><path d="M501.73,219.143c.031-.054.057-.116.092-.166-.062.087-.127.256-.035.06.046-.097.088-.196.128-.297.079.458.158.915.237,1.373-.385-.45-.572-.984-.442-1.577.028-.132.067-.259.096-.39-.032.145-.063.289-.095.434.011-.059.016-.117.014-.177.007.145.013.29.02.435-.003-.029-.007-.056-.015-.085.043.138.086.277.129.415-.009-.025-.018-.048-.03-.071.077.124.155.249.233.373-.014-.021-.027-.039-.044-.057.111.103.222.206.333.309-.025-.022-.05-.04-.079-.055.134.07.268.139.402.209-.032-.014-.064-.024-.098-.032.142.032.284.062.427.094-.09-.015-.282-.003.068-.018.355-.015.141,0,.048.014-.265.039.417-.163.208-.064-.057.027-.116.048-.172.076-.053.027-.102.059-.155.086-.263.132-.398.127-.653.138.035-.001-.548.023-.081.003.341-.014.083-.001.001.011-.065.01-.129.023-.193.039-.794.194-1.647-.604-1.531-1.405.088-.613.283-1.283.833-1.642.423-.277.854-.519,1.368-.582.738-.092,1.44.139,1.933.711.533.618.501,1.436.312,2.175-.14.543-.769,1.06-1.323,1.111-.061.005-.123.01-.184.016.304-.192.608-.384.913-.577-.145.229-.312.442-.487.649-.45.529-1.251.789-1.856.321-.62-.48-.688-1.204-.322-1.857Z" fill="#45167a"/><path d="M372.466,238.595c-.051.072-.163-.006-.112-.079.051-.072.163.007.112.079Z" fill="#45167a"/><path d="M767.916,427.602l3.805,3.612-.813,5.183l4.61-2.506l4.679,2.379-.956-5.163l3.705-3.713-5.204-.684-2.384-4.673-2.26,4.737-5.182.828Z" fill="#45167a"/><path d="M646.719,341.459c-.051.072-.163-.006-.112-.079.051-.072.163.007.112.079Z" fill="#45167a"/><path d="M372.461,281.255c-.197-.143-.417-.27-.607-.422-.263-.211.47.173.153.081-.219-.063-.416-.205-.615-.319-.568-.323-.903-1.141-.825-1.77.001-.004.001-.007.002-.011.054.314.108.627.162.94-.014-.042-.029-.084-.043-.126.312.287.624.574.935.861-.093-.032-.185-.055-.279-.083.385.113-.265-.059-.344-.082-.333-.096-.627-.264-.901-.471-.376-.285-.465-.789-.205-1.185.38-.58.951-.98,1.604-1.208-.22.182-.439.365-.658.547-.055.107-.11.214-.164.321.267-.865,1.167-1.314,2.013-1.292.776.02,1.468.519,2.084.94.867.592,1.141,1.946.483,2.795-.658.851-1.885,1.145-2.795.484Z" fill="#45167a"/><path d="M813.358,383.715c-.265-.065-.538-.117-.798-.198.404.126.058.013-.057-.011-.104-.022-.208-.044-.312-.065-.093-.02-.186-.039-.278-.059-.828-.173-.991-1.117-.27-1.56.081-.05.162-.099.243-.149.083-.051.166-.102.25-.153.051-.031.102-.063.153-.094.092-.056.184-.178-.082.051.203-.175.461-.308.685-.457.469-.313.974-.465,1.53-.265.528.19.922.66,1.017,1.212.096.553-.117,1.127-.551,1.484-.456.375-.982.401-1.53.264Z" fill="#45167a"/><path d="M207.35,567.853c-1.059,1.502-3.395-.141-2.334-1.646c1.059-1.502,3.395.141,2.334,1.646Z" fill="#45167a"/><path d="M788.525,550.207c-.32-.024-.643-.034-.961-.073-.371-.046-.749-.168-1.115-.251-.614-.14-.787-1.147-.257-1.485.317-.203.631-.443.965-.613.285-.146.588-.263.88-.393.869-.386,1.905.152,2.067,1.092.163.938-.631,1.793-1.579,1.723Z" fill="#45167a"/><path d="M356.096,672.712c-.976,1.384-3.128-.13-2.151-1.516.976-1.385,3.129.129,2.151,1.516Z" fill="#45167a"/><path d="M570.181,773.098c.401.304.806.637,1.117,1.036.421.539.472,1.318.069,1.885-.003.004-.006.008-.008.012-.023-.609-.045-1.218-.067-1.826.267.401.463.775.485,1.266.024.541-.182,1.098-.618,1.445-.632.504-1.395.528-2.145.325-.394-.107-.74-.342-.969-.681-.096-.14-.194-.285-.268-.439-.2-.413-.132-.957.243-1.255.188-.148.395-.207.623-.252.039-.008.078-.019.118-.027.215-.047-.324.103-.13.039.305-.101.55-.141.873-.124.043.003.086.001.128.003.192.009-.413.047-.165.003.094-.017.412-.1.094-.002-.364.112.13-.114-.207.097-.272.172-.161.109-.117.072.116-.097-.249.283-.215.239.128-.168-.172.369-.129.247.019-.055-.087.419-.073.314.019-.143.048.454.008.285.01.042.16.438.06.225.047.099.248.352.073.135.597.138,1.194.276,1.791.414-.003.002-.007.003-.011.004-.667.257-1.371.117-1.849-.428-.065-.074-.134-.143-.205-.21.102.095.205.19.307.285-.201-.181-.419-.34-.644-.491-.69-.463-.9-1.545-.383-2.213.512-.662,1.504-.921,2.214-.383Z" fill="#45167a"/><path d="M500.549,666.88c-1.675.301-3.126,1.506-4.917,1.201-.622-.107-1.138-1.049-.459-1.477c1.583-.997,3.024-2.124,4.89-2.538c1.791-.398,2.304,2.487.486,2.814Z" fill="#45167a"/><path d="M364.615,511.574c.255-.05.564-.13.837-.154.169.975.338,1.951.507,2.927-.317.028-.624.058-.942.016-1.39-.182-1.704-2.001-.457-2.642.285-.146.584-.221.892-.301c1.852-.483,2.347,2.447.507,2.927-.266.069-.584.097-.841.136-1.881.287-2.371-2.544-.503-2.909Z" fill="#45167a"/><path d="M348.472,381.208c.012-.022.024-.044.035-.066-.076.147-.153.294-.23.441.058-.12.103-.239.135-.368-.035.16-.07.32-.105.48.017-.089.025-.177.024-.268.007.164.014.328.021.492-.008-.102-.024-.211-.051-.31.048.158.097.315.145.472-.017-.051-.039-.098-.067-.144.088.14.175.281.263.421-.023-.032-.045-.06-.073-.088.125.115.25.231.375.347-.038-.035-.078-.063-.123-.088.15.078.3.156.45.234-.048-.023-.096-.039-.148-.051.159.035.318.069.477.104-.043-.006-.082-.01-.125-.011.159-.007.318-.014.477-.021-.262.012-.523.003-.783.014.15-.007.299-.014.449-.02-.043.004-.084.013-.127.016-.23.022.191-.064.214-.071-.348.102-.636.175-1.005.095-.239-.052-.371-.074-.594-.246-.428-.332-.737-.885-.665-1.445.047-.367.174-.64.36-.959.452-.773,1.33-1.195,2.216-1.088c1.024.124,1.938.913,2.118,1.951.141.811-.116,1.674-.647,2.303-.323.382-.687.668-1.194.755-.446.078-1.014-.028-1.378-.31-.378-.292-.692-.705-.755-1.193-.007-.157-.014-.314-.021-.472.03-.331.141-.633.332-.906Z" fill="#45167a"/><path d="M403.899,383.056c.728-.934,1.492-2.193,2.784-2.334.779-.085,1.417.361,1.6,1.128.301,1.261-.628,2.408-1.262,3.406-.537.844-1.872,1.071-2.662.46-.786-.608-1.117-1.816-.46-2.66Z" fill="#45167a"/><path d="M521.733,386.127c-.416.569-.857,1.223-1.612,1.33-.848.121-2.039-.614-2.083-1.509-.025-.513.21-.851.706-1.001.474-.144.901.074,1.306.303.038.021.088.045.123.071-.244-.185-.231-.109-.12-.067.026.009.075.016.097.033-.233-.044-.298-.059-.194-.045.067.003.038.005-.087.007-.29.013.105-.055-.174.028-.118.041-.146.048-.085.021-.202.133-.259.168-.17.106.021-.023.052-.049.078-.067.133-.092-.204.253-.096.103.149-.208.304-.413.448-.626.336-.493,1.107-.647,1.588-.275.482.373.652,1.072.275,1.588Z" fill="#45167a"/><path d="M279.211,315.629c.305-.358.58-.737.912-1.071-.1.108-.2.215-.3.323.033-.036.063-.074.089-.116-.066.125-.131.251-.197.376.128-.251-.054.451-.039.22-.028.427.033.423.004.276.094.3.123.393.087.279-.038-.122-.076-.243-.113-.365-.009-.042-.011-.164-.044-.195.064.06.128.416.01.035-.079-.256-.079-.501.01-.759.218-.631.866-.837,1.491-.754.826.11,1.537.74,1.659,1.584.059.405.034.826-.143,1.199-.163.342-.352.673-.541,1.002-.212.37-.735.652-1.141.722-.427.074-.97-.027-1.318-.297-.699-.541-1.068-1.707-.426-2.459Z" fill="#45167a"/><path d="M267.77,455.053c-.051.072-.163-.006-.112-.079.051-.072.163.007.112.079Z" fill="#45167a"/><path d="M434.544,330.941c.314-.433.607-.945,1.007-1.302c1.014-.905,2.702.283,2.19,1.544-.202.497-.586.944-.888,1.385-.419.609-1.37.804-1.968.341-.599-.464-.805-1.327-.341-1.968Z" fill="#45167a"/><path d="M515.201,342.565c-1.023,1.452-3.28-.136-2.255-1.59c1.023-1.452,3.28.136,2.255,1.59Z" fill="#45167a"/><path d="M459.357,309.473c-.178.03-.356.06-.535.089-.744.125-1.565-.399-1.665-1.174-.101-.775.38-1.527,1.174-1.666.333-.058.667-.112,1.001-.168.618-.104,1.432-.361,2.026-.118.999.408,1.214,1.657.411,2.376-.476.428-1.332.46-1.948.571-.333.06-.666.117-.999.179-.163-.946-.327-1.893-.491-2.84.178-.032.356-.064.533-.096.745-.133,1.57.407,1.67,1.177.1.773-.381,1.536-1.177,1.67Z" fill="#45167a"/><path d="M557.333,289.911c.052.03-.137.003-.055-.02.068-.019.164.012.243-.017.223-.084.283-.364.117.012-.232.523-.189,1.092-.418,1.609-.265.596-1.009.761-1.458.252-.747-.846-.768-2.549-.068-3.426.769-.963,2.012-.994,2.97-.299c1.222.887-.061,2.623-1.331,1.889Z" fill="#45167a"/><path d="M563.222,386.471c-1.166,1.654-3.739-.156-2.571-1.812c1.166-1.654,3.739.155,2.571,1.812Z" fill="#45167a"/><path d="M622.525,371.721c-.091-.032-.182-.064-.274-.095-.078-.028-.156-.055-.234-.082-.018-.006-.165-.07-.174-.061.016-.016.404.078.136.027-.368-.069-.698-.137-1.027-.337-.067-.041-.133-.084-.2-.126-.354-.222-.451-.79-.193-1.118.049-.062.097-.124.146-.186.243-.301.528-.472.854-.664.174-.103-.007-.074-.12.071.03-.039.088-.071.127-.102.07-.057.14-.113.21-.17.076-.061.151-.122.226-.183c1.031-.833,2.632-.253,2.86,1.063.227,1.319-1.086,2.4-2.337,1.963Z" fill="#45167a"/><path d="M469.245,678.757c-.051.072-.163-.006-.112-.079.052-.072.164.006.112.079Z" fill="#45167a"/><path d="M622.677,458.54c.214-.267.428-.533.643-.801c1.478-1.84,3.621,1.213,1.66,2.004-.196.097-.393.195-.589.293-.759.483-1.591-.102-1.391-.981.026-.217.052-.435.078-.653.086-2.101,3.691-1.134,2.445.891-.18.291-.359.583-.538.874-.954,1.551-3.45-.205-2.308-1.627Z" fill="#45167a"/><path d="M472.13,661.353c-.428.361-1.011.629-1.559.735-1.057.203-2.132-.199-2.769-1.074-.363-.497-.466-1.23-.065-1.749.417-.538,1.025-.692,1.669-.527-.442-.113-.225-.042-.11-.03.328.034-.232.038-.147.02.112-.024.221-.04.331-.072-.142.044-.284.088-.426.132.09-.031.174-.07.256-.118-.134.083-.267.166-.4.249.097-.062.183-.135.264-.218-.116.125-.232.25-.348.375.106-.114.193-.24.266-.377-.083.161-.167.321-.251.481.019-.036.037-.072.052-.11.483-1.24,2.01-1.764,3.117-.984c1.091.771,1.139,2.406.12,3.267Z" fill="#45167a"/><path d="M676.537,424.99c-.347-.245-.696-.49-1.043-.736-.769-.541-1.028-1.736-.433-2.504.596-.771,1.68-1.014,2.504-.433.347.245.695.49,1.043.735.769.542,1.028,1.737.433,2.505-.596.77-1.68,1.014-2.504.433Z" fill="#45167a"/><path d="M396.392,660.909c-.051.072-.163-.006-.112-.079s.163.006.112.079Z" fill="#45167a"/><path d="M632.568,515.774c.127-.196.261-.387.414-.564-.082.363-.163.726-.245,1.089-.008-.036-.015-.073-.023-.11-.115-.569.135-1.178.574-1.544.779-.648,2.017-.706,2.689.152.409.521.537,1.175.443,1.823-.173,1.19-.666,2.485-1.856,2.982-.861.359-1.726-.286-1.698-1.198.003-.109-.003-.372.012.113-.005-.151-.035-.282-.022-.445.01-.118.034-.234.051-.352.054-.385.135-.758.219-1.138-.03.137-.06.274-.09.411.05-.239.089-.482.097-.727.01-.367.051.474.003.11-.004-.033-.011-.067-.014-.1-.013-.201.194.484.08.279.075.122.151.243.227.365-.008-.013-.017-.025-.028-.036.109.101.218.202.326.302-.01-.01-.021-.018-.033-.025.131.068.262.136.393.205-.012-.007-.025-.012-.039-.015.14.03.279.06.419.091.092.014.36-.026.499-.068.317-.096.156-.049.075.001.121-.075.241-.15.361-.225-.56.383-1.071.466-1.722.273.473-.082.946-.164,1.42-.246-.26.251.204-.252.026-.033-.075.092-.151.182-.224.276-.459.588-1.359.833-1.99.344-.631-.488-.781-1.318-.344-1.99Z" fill="#45167a"/><path d="M621.078,577.998c.27.272.539.543.808.815.145.147.292.191-.113-.095.521.368.697,1.178.294,1.7-.405.523-1.141.688-1.7.294-.05-.036.405.197.269.141-.048-.02-.094-.044-.141-.066-.347-.162-.692-.325-1.039-.487-.468-.219-.874-.58-.945-1.125-.049-.385.018-.767.246-1.091.215-.306.575-.533.944-.597.549-.096,1.001.131,1.377.511Z" fill="#45167a"/><path d="M340.9,618.436c-.051.072-.163-.007-.112-.079s.163.006.112.079Z" fill="#45167a"/><path d="M661.978,605.199c.15-.181.297-.363.457-.536.169-.182.378-.295.59-.419.165-.096.319-.183.516-.197.46-.03.784.195.91.642.055.192.023.364-.012.552s-.057.385-.126.563c-.1.256-.281.508-.421.744-.312.53-1.159.648-1.632.283-.468-.363-.703-1.129-.282-1.632Z" fill="#45167a"/><path d="M363.705,571.709c-.327-.244-.655-.487-.982-.731-.855-.636-1.178-1.953-.492-2.84.691-.893,1.889-1.126,2.84-.492.34.227.68.453,1.02.68.901.601,1.171,2.015.499,2.884s-1.954,1.192-2.885.499Z" fill="#45167a"/><path d="M715.178,565.636c-1.273,1.806-4.082-.169-2.807-1.978c1.274-1.806,4.082.169,2.807,1.978Z" fill="#45167a"/><path d="M370.83,601.49c.974-.374,1.98-.644,2.977-.95-.186.058-.372.115-.558.172.106-.033.213-.066.32-.1-.442.836-.883,1.673-1.325,2.509-.004-.046-.009-.092-.014-.139.828.76,1.656,1.519,2.484,2.279-.705-.14-1.406-.184-2.099-.4.213.047.426.093.638.139-.644-.065-1.258-.197-1.877-.389-.638-.198-1.279-.397-1.819-.807-.423-.321-.662-.752-.685-1.281-.022-.485.162-1.059.588-1.348.331-.224.647-.409,1.021-.542.405-.145.824-.252,1.238-.369.233-.067.47-.157.708-.198.219-.038.456-.011.668-.075-.206.064-.413.127-.619.191.495-.167.936-.272,1.443-.332.186-.023.372-.045.559-.057.479-.081.946-.041,1.404.122.475.174.875.456,1.199.845.548.667.721,1.506.54,2.335-.186.853-.721,1.56-1.528,1.927-.815.371-2.023.364-2.734-.256-.055-.047-.11-.095-.165-.143.578.13,1.156.26,1.734.39-1.15.095-2.309.176-3.462.148-.817-.02-1.629-.784-1.734-1.59-.105-.815.283-1.768,1.098-2.081Z" fill="#45167a"/><path d="M525.667,651.516c-1.285,1.822-4.12-.171-2.833-1.997c1.285-1.823,4.12.171,2.833,1.997Z" fill="#45167a"/><path d="M593.877,676.146c-1.369,1.942-4.387-.181-3.016-2.126c1.368-1.941,4.386.182,3.016,2.126Z" fill="#45167a"/><path d="M597.807,659.401c.134,1.161.107,2.404-.821,3.237-.787.708-1.782,1.046-2.835.975-.664-.044-.766-.942-.212-1.224.453-.229,1.084-.44,1.298-.937.221-.514.193-1.09.103-1.624-.269-1.597,2.281-2.023,2.467-.427Z" fill="#45167a"/><path d="M555.585,689.361c-.051.072-.163-.006-.111-.079.05-.072.162.007.111.079Z" fill="#45167a"/><path d="M377.023,617.098c-.051.073-.163-.006-.112-.078.051-.073.163.006.112.078Z" fill="#45167a"/><path d="M328.806,598.892c-.033-.035-.068-.068-.103-.1.131.121.262.243.392.364-.098-.084-.199-.157-.313-.218.152.079.304.158.456.237-.083-.039-.166-.071-.255-.094.157.034.314.069.471.103-.114-.024-.222-.023-.337-.031-.047-.003-.1-.008-.146-.016-.252-.038.47-.048.249-.013-.082.013-.162.029-.243.044-.177.033.417-.155.25-.076-.214.101-.532.173-.769.132-.655-.113-1.142-.517-1.284-1.178-.156-.724.396-1.605.942-2.047.802-.648,2.015-.682,2.937-.294.652.275,1.213.824,1.308,1.558.069.533-.024,1.062-.34,1.51-.299.423-.797.739-1.307.827-.762.132-1.388-.181-1.908-.708Z" fill="#45167a"/><path d="M414.106,522.447c-1.24-20.913,2.901-41.925,13.14-60.29c9.024-16.184,22.554-29.813,39.122-38.234c16.949-8.616,36.009-10.931,54.741-8.304c20.672,2.898,40.62,11.789,56.337,25.558c15.944,13.967,27.035,32.927,30.44,53.928c3.457,21.318-.646,44.287-9.168,63.976-8.196,18.934-21.657,36.131-39.767,46.429-8.97,5.101-18.869,8.344-29.112,9.567-10.39,1.239-20.891.138-31.131-1.778-18.922-3.542-37.423-10.862-52.488-23.026-16.022-12.938-26.656-31.211-30.783-51.327-.539-2.626-.973-5.275-1.321-7.933-.385-2.945.083-5.723.554-8.642.043-.266.439-.247.508-.01.816,2.787,1.769,5.413,2.16,8.295.375,2.763.87,5.509,1.473,8.231c1.152,5.189,2.718,10.287,4.733,15.207c3.641,8.886,8.863,17.154,15.345,24.238c12.596,13.766,29.34,22.919,47.128,28.126c18.861,5.522,39.462,7.97,58.397,1.536c18.848-6.405,34.043-20.546,44.185-37.419c10.746-17.878,16.338-38.808,16.672-59.621.335-20.896-6.945-41.199-20.237-57.325-12.822-15.557-30.687-26.959-50.04-32.504-18.196-5.212-38.238-5.884-56.32.154-16.777,5.602-31.518,16.595-42.32,30.531-12.142,15.666-18.95,35.001-20.466,54.689-.407,5.3-.433,10.617-.143,15.923.056,1.053-1.577,1.077-1.639.025Z" fill="#45167a"/><path d="M416.834,531.383c2.893,3.281,5.166,7.33,7.704,10.9c2.697,3.793,5.568,7.453,8.566,11.011c6.053,7.184,12.978,13.405,19.602,20.03.247.247-.063.731-.375.516-7.774-5.349-14.589-12.32-20.709-19.455-2.915-3.398-5.635-6.965-8.214-10.623-2.598-3.687-5.589-7.763-7.2-11.996-.132-.346.379-.663.626-.383Z" fill="#45167a"/><path d="M421.954,532.809c1.433,1.282,2.539,2.967,3.79,4.431c1.35,1.581,2.727,3.142,4.122,4.684c2.728,3.016,5.563,5.936,8.462,8.788c5.858,5.766,12.052,11.204,17.787,17.091.28.288-.114.687-.422.446-6.563-5.138-12.764-10.82-18.702-16.665-2.898-2.852-5.73-5.771-8.456-8.789-1.314-1.455-2.591-2.937-3.835-4.453-1.246-1.52-2.729-3.067-3.624-4.82-.287-.562.377-1.161.878-.713Z" fill="#45167a"/><path d="M432.519,536.709c1.229.572,2.124,1.718,3.069,2.672c1.099,1.111,2.183,2.237,3.262,3.368c2.12,2.225,4.219,4.471,6.33,6.704c4.292,4.542,8.737,8.969,13.532,12.983.389.326-.102,1.019-.53.726-5.136-3.511-9.571-7.821-13.861-12.301-2.206-2.304-4.353-4.662-6.531-6.992-1.068-1.142-2.141-2.28-3.229-3.402-.938-.967-2.094-1.849-2.704-3.06-.224-.446.197-.914.662-.698Z" fill="#45167a"/><path d="M441.696,540.166c3.006,2.506,5.467,5.895,8.142,8.753c2.773,2.963,5.654,5.811,8.545,8.657c5.813,5.723,11.921,11.103,18.162,16.351.263.221-.07.691-.359.492-6.747-4.647-13.074-9.928-19.034-15.542-2.95-2.778-5.757-5.723-8.504-8.701-2.656-2.88-5.828-5.92-7.762-9.351-.298-.529.352-1.041.81-.659Z" fill="#45167a"/><path d="M450.461,543.262c3.572,2.646,6.667,6.27,9.874,9.353c3.32,3.191,6.708,6.308,10.081,9.442c6.747,6.267,13.816,12.231,20.228,18.849.253.262-.103.619-.382.404-7.412-5.694-14.306-12.083-21.203-18.38-3.398-3.103-6.719-6.294-10.002-9.519-3.079-3.024-6.668-6.161-9.068-9.764-.209-.313.212-.577.472-.385Z" fill="#45167a"/><path d="M460.152,545.484c2.177,1.596,3.906,4.081,5.764,6.041c1.947,2.055,3.957,4.05,5.976,6.035c4.024,3.96,8.232,7.728,12.39,11.544.385.354-.147.866-.543.574-4.659-3.433-8.984-7.27-13.112-11.32-2.022-1.983-3.956-4.058-5.845-6.168-1.72-1.922-3.941-4.015-5.057-6.358-.14-.292.17-.536.427-.348Z" fill="#45167a"/><path d="M469.701,548.717c3.964,2.943,7.386,6.826,11.062,10.132c3.808,3.422,7.729,6.713,11.558,10.11c3.756,3.333,7.506,6.674,11.15,10.129c3.582,3.396,7.314,6.856,10.317,10.789.082.108-.085.234-.18.147-3.743-3.436-7.269-7.089-11.083-10.456-3.861-3.407-7.835-6.68-11.791-9.976-3.835-3.197-7.629-6.469-11.319-9.834-3.529-3.219-7.623-6.583-10.209-10.638-.211-.33.22-.607.495-.403Z" fill="#45167a"/><path d="M480.518,551.894c2.278.255,4.324,2.59,5.976,4.047c3.394,2.992,6.577,6.242,9.89,9.325c7.487,6.967,15.119,13.7,22.881,20.356.273.234-.071.722-.376.515-8.15-5.513-15.751-12.073-22.971-18.739-3.403-3.142-6.757-6.333-10.076-9.562-1.852-1.804-4.245-3.211-5.643-5.362-.143-.222.024-.613.319-.58Z" fill="#45167a"/><path d="M486.47,552.45c3.469,1.087,6.766,4.015,9.645,6.18c3.553,2.671,6.979,5.506,10.332,8.422c6.57,5.715,13.058,11.765,18.854,18.273.352.395-.149.923-.563.594-6.668-5.287-12.761-11.334-19.149-16.952-3.174-2.791-6.412-5.512-9.76-8.092-1.686-1.299-3.402-2.561-5.138-3.792-1.601-1.136-3.467-2.09-4.847-3.492-.445-.452-.049-1.352.626-1.141Z" fill="#45167a"/><path d="M498.419,555.192c3.977,2.15,7.414,5.372,10.787,8.342c3.443,3.033,6.762,6.203,10.212,9.228.729.639-.289,1.683-1.026,1.084-3.475-2.828-6.785-5.826-10.115-8.82-3.422-3.076-7.123-5.829-10.524-8.92-.483-.438.099-1.22.666-.914Z" fill="#45167a"/><path d="M509.552,558.285c2.881.355,5.595,2.655,7.85,4.329c2.791,2.072,5.392,4.361,7.949,6.713c5.117,4.708,10.139,9.527,15.53,13.927.425.347-.096,1.053-.563.774-5.781-3.455-10.549-8.236-15.444-12.8-2.466-2.298-4.962-4.577-7.564-6.721-2.477-2.04-5.753-3.606-7.881-5.999-.092-.102-.008-.239.123-.223Z" fill="#45167a"/><path d="M520.621,559.502c3.204,1.313,5.774,4.197,8.26,6.524c2.757,2.582,5.488,5.169,8.467,7.498.856.669-.3,1.834-1.146,1.211-3.04-2.238-5.916-4.703-8.687-7.266-2.505-2.317-5.461-4.647-7.264-7.578-.158-.255.127-.489.37-.389Z" fill="#45167a"/><path d="M533.52,562.284c4.53,2.724,8.118,7.135,11.833,10.835c4.064,4.047,8.188,8.034,12.588,11.717.392.328-.094,1.003-.53.727-4.811-3.05-9.021-6.901-13.031-10.924-3.809-3.823-8.042-7.6-11.231-11.966-.164-.225.14-.528.371-.389Z" fill="#45167a"/><path d="M544.837,564.401c3.718,1.661,6.642,5.077,9.498,7.89c3.027,2.981,6.013,6.009,9.092,8.938.415.395-.169.986-.603.638-3.324-2.666-6.431-5.558-9.583-8.421-2.994-2.719-6.533-5.197-8.988-8.43-.29-.382.227-.775.584-.615Z" fill="#45167a"/><path d="M553.362,564.716c3.38,1.679,5.935,4.661,8.52,7.34c2.751,2.852,5.381,5.826,7.914,8.873.218.263-.053.784-.393.54-3.065-2.209-5.696-5.051-8.278-7.786-2.686-2.843-5.466-5.592-8.156-8.428-.262-.276.044-.712.393-.539Z" fill="#45167a"/><path d="M562.587,565.779c2.49,1.316,4.429,3.472,6.317,5.513c2.029,2.195,4.077,4.386,6.044,6.634.228.261-.037.706-.376.516-4.999-2.812-7.55-8.836-12.393-11.92-.458-.291-.08-1.001.408-.743Z" fill="#45167a"/><path d="M571.74,566.94c3.207,2.643,5.643,6.043,8.611,8.925.22.214-.049.618-.324.446-3.485-2.189-5.971-5.925-8.729-8.903-.283-.305.122-.732.442-.468Z" fill="#45167a"/><path d="M419.717,542.327c3.057,8.973,9.711,16.265,16.656,22.481c3.479,3.114,7.16,5.987,10.891,8.79c3.533,2.654,7.371,5.163,10.5,8.299.29.291-.055.789-.427.586-3.941-2.142-7.593-5.029-11.154-7.742-3.967-3.022-7.854-6.167-11.502-9.569-6.762-6.308-12.62-13.756-15.02-22.828-.009-.037.044-.052.056-.017Z" fill="#45167a"/><path d="M427.252,560.662c4.39,4.833,8.767,9.628,13.723,13.895c5.114,4.404,10.883,7.581,16.461,11.301.431.288.213,1.047-.349.892-6.372-1.763-12.148-5.966-17.115-10.2-5.162-4.402-9.769-9.666-13.057-15.614-.114-.206.162-.466.337-.274Z" fill="#45167a"/><path d="M443.367,584.502c8.022,4.302,16.826,6.404,25.6,8.571.508.125.299.824-.191.766-8.64-1.022-19.525-2.023-25.853-8.728-.29-.307.051-.82.444-.609Z" fill="#45167a"/><path d="M490.823,599.382c-2.263,1.3-5.309,1.112-7.83.955-2.79-.175-5.585-.602-8.329-1.127-5.866-1.124-12.095-2.416-17.67-4.582-.235-.092-.253-.512.057-.49c5.603.407,11.073,2.617,16.557,3.773c2.987.629,5.984,1.095,9.04,1.174c2.671.068,5.471-.55,8.104-.155.215.031.247.351.071.452Z" fill="#45167a"/><path d="M502.312,604.463c-5.891,1.316-12.734.617-18.628-.405-3.225-.559-6.427-1.239-9.608-2.004-1.564-.376-3.127-.76-4.691-1.137-1.52-.367-3.271-.578-4.605-1.424-.377-.239-.218-.741.198-.796c2.745-.358,6.132,1.045,8.805,1.662c3.07.709,6.136,1.447,9.225,2.067c3.244.651,6.511,1.363,9.807,1.676c3.17.301,6.288.175,9.463.132.127-.002.166.199.034.229Z" fill="#45167a"/><path d="M516.874,605.833c-3.975,2.601-9.667,3.084-14.303,3.476-2.624.222-5.257.302-7.89.279-2.248-.02-4.829.145-6.917-.805-.215-.098-.154-.421.052-.484c2.16-.659,4.615-.253,6.842-.232c2.507.023,5.016-.048,7.516-.247c2.538-.202,5.073-.532,7.575-.999c2.351-.439,4.623-1.189,7.014-1.367.21-.016.271.274.111.379Z" fill="#45167a"/><path d="M526.903,607.352c-1.709,2.286-5.417,3.452-8.04,4.259-2.513.773-6.414,2.008-8.937.839-.294-.137-.196-.551.07-.645c1.17-.413,2.483-.336,3.711-.477c1.726-.2,3.425-.594,5.083-1.106c2.669-.823,5.264-2.54,7.98-3.086.134-.027.211.111.133.216Z" fill="#45167a"/><path d="M535.599,607.791c-1.679,3.02-5.324,3.962-8.496,4.374-.502.066-.635-.791-.133-.888c3.114-.602,5.78-2.041,8.486-3.622.087-.051.194.045.143.136Z" fill="#45167a"/><path d="M552.607,426.699c17.7,9.46,29.443,28.21,35.753,46.718.153.447-.542.644-.702.205-3.37-9.309-7.881-18.262-13.795-26.223-6.004-8.081-13.409-14.477-21.307-20.63-.04-.031.009-.093.051-.07Z" fill="#45167a"/><path d="M543.62,423.85c7.504,2.021,12.517,10.065,16.122,16.391c4.129,7.245,7.241,15.007,10.308,22.743.138.349-.448.615-.609.271-3.359-7.171-6.455-14.457-10.34-21.37-3.883-6.911-8.626-13.723-15.534-17.9-.069-.042-.03-.157.053-.135Z" fill="#45167a"/><path d="M529.431,417.913c2.51.232,4.452,2.013,6.157,3.734c2.368,2.391,4.369,5.146,6.219,7.946c3.579,5.414,6.411,11.262,9.438,16.988.288.545-.485,1.036-.821.507-3.201-5.027-5.955-10.321-9.144-15.359-1.761-2.783-3.628-5.53-5.837-7.981-1.831-2.032-3.96-3.599-6.175-5.176-.247-.176-.23-.696.163-.659Z" fill="#45167a"/><path d="M513.638,415.924c1.722-.11,3.42,1.232,4.732,2.208c1.773,1.321,3.37,2.862,4.843,4.508c3.274,3.658,5.93,7.87,8.347,12.127c4.658,8.204,8.057,17.001,12.057,25.523.149.316-.291.609-.473.292-4.437-7.755-8.021-15.978-12.44-23.75-2.411-4.24-5.012-8.39-8.159-12.129-1.353-1.607-2.793-3.141-4.401-4.497-1.448-1.222-3.598-2.089-4.791-3.551-.231-.282-.113-.706.285-.731Z" fill="#45167a"/><path d="M502.618,415.859c2.434-.457,5.191,2.869,6.581,4.449c2.71,3.08,4.928,6.569,7.017,10.089c3.96,6.67,7.127,13.718,10.598,20.642.183.366-.315.687-.548.338-3.996-6.004-7.09-12.629-10.706-18.863-1.996-3.44-4.113-6.834-6.56-9.974-1.025-1.316-2.13-2.59-3.386-3.691-.965-.845-2.297-1.366-3.168-2.275-.202-.211-.164-.652.172-.715Z" fill="#45167a"/><path d="M491.603,416.973c6.104,4.791,9.406,12.559,12.567,19.424.238.518-.442.977-.772.477-4.153-6.299-6.756-13.988-12.76-18.881-.706-.575.262-1.571.965-1.02Z" fill="#45167a"/><path d="M482.993,419.462c.013,5.726.475,11.355,1.471,16.996.962,5.449,2.505,10.759,3.865,16.115.176.693-.769.927-1.039.303-4.393-10.152-6.443-22.372-5.379-33.398.064-.674,1.08-.73,1.082-.016Z" fill="#45167a"/><path d="M474.587,421.852c-2.61,14.893-3.423,30.077,1.869,44.524.163.445-.544.765-.768.341-3.597-6.822-4.917-14.503-4.966-22.168-.05-7.703.946-15.508,3.553-22.775.069-.194.348-.129.312.078Z" fill="#45167a"/><path d="M465.604,425.593c-.378,4.824-1.351,9.587-1.733,14.423-.395,5.018-.474,10.058-.262,15.087.419,9.978,1.943,19.869,4.042,29.623.111.515-.604.726-.786.229-3.439-9.419-4.909-19.491-5.242-29.485-.171-5.143-.047-10.301.426-15.426.443-4.816.988-10.013,2.749-14.545.15-.387.846-.416.806.094Z" fill="#45167a"/><path d="M454.417,434.181c-2.14,2.941-3.739,5.802-4.578,9.384-.923,3.943-1.05,8.041-.873,12.072.376,8.614,2.182,17.014,3.992,25.416.797,3.694,1.848,7.479,2.243,11.242.058.549-.708.567-.888.134-3.054-7.364-4.733-15.624-6.054-23.449-1.414-8.379-2.398-17.323-.354-25.687.89-3.642,2.559-7.821,5.761-10.034.609-.421,1.117.419.751.922Z" fill="#45167a"/><path d="M441.811,445.532c-.082,1.773-1.216,3.67-1.807,5.32-.781,2.184-1.407,4.423-1.934,6.681-1.219,5.229-2.022,10.579-2.445,15.93-.408,5.17-.528,10.385-.198,15.563.149,2.336.37,4.68.706,6.997.286,1.972.924,4.003,1.038,5.984.047.814-1.076,1.08-1.489.435-1.067-1.67-1.481-3.982-1.849-5.911-.456-2.383-.742-4.785-.899-7.205-.353-5.464-.203-10.953.35-16.398.543-5.358,1.401-10.687,2.889-15.869.661-2.302,1.431-4.575,2.35-6.787.676-1.625,1.496-3.889,3.02-4.887.108-.07.275.013.268.147Z" fill="#45167a"/><path d="M429.286,461.83c-.293,1.828-1.266,3.645-1.747,5.455-.523,1.967-.913,3.97-1.193,5.986-.61,4.395-.63,8.927-.368,13.351.513,8.645,2.4,17.451,5.695,25.476.262.639-.79,1.104-1.113.495-4.286-8.079-6.215-17.126-6.516-26.244-.149-4.505.193-8.971.981-13.408.387-2.179.901-4.337,1.576-6.445.514-1.604,1.041-3.657,2.115-4.979.231-.285.619.012.57.313Z" fill="#45167a"/><path d="M585.057,452.013c2.209,1.439,3.586,3.954,4.732,6.263c1.498,3.018,2.613,6.217,3.584,9.439c1.952,6.483,3.157,13.14,4.875,19.682.062.236-.292.34-.365.106-1.911-6.075-3.14-12.343-4.911-18.459-.951-3.286-2.029-6.562-3.488-9.662-1.238-2.63-2.895-4.877-4.544-7.246-.049-.071.044-.171.117-.123Z" fill="#45167a"/><path d="M557.783,428.908c2.714,2.295,4.637,5.291,6.458,8.315c2.092,3.474,3.96,7.092,5.65,10.776c3.157,6.883,6.228,14.027,8.475,21.265.096.31-.37.531-.53.236-3.573-6.626-6.053-13.884-9.232-20.706-1.628-3.492-3.316-6.955-5.246-10.292-1.844-3.189-4.027-6.156-5.935-9.302-.141-.232.16-.461.36-.292Z" fill="#45167a"/><path d="M541.763,422.091c1.966,2.03,3.381,4.571,4.833,6.979c1.589,2.635,3.109,5.314,4.501,8.059c2.685,5.295,5.053,10.709,7.293,16.205.086.212-.269.373-.371.165-2.575-5.275-5.212-10.537-8.016-15.695-1.411-2.596-2.822-5.193-4.324-7.737-1.477-2.501-3.248-4.886-4.478-7.519-.162-.345.249-.78.562-.457Z" fill="#45167a"/><path d="M524.692,418.338c2.35.279,4.145,2.237,5.645,3.96c2.033,2.334,3.713,4.981,5.287,7.636c3.08,5.192,5.687,10.658,8.287,16.1.21.439-.354.798-.647.4-3.345-4.542-5.659-9.884-8.473-14.76-1.498-2.595-3.088-5.156-4.945-7.511-1.604-2.035-3.509-3.663-5.385-5.403-.2-.186.002-.45.231-.422Z" fill="#45167a"/><path d="M509.456,416.3c3.175,1.549,5.369,4.693,7.327,7.534c2.291,3.324,4.133,6.914,6.205,10.371.215.359-.31.673-.548.338-2.158-3.035-4.13-6.193-6.176-9.303-2.068-3.144-4.493-5.845-7.099-8.541-.197-.204.035-.524.291-.399Z" fill="#45167a"/><path d="M495.87,416.313c2.079.255,3.809,2.121,5.106,3.616c1.788,2.061,3.252,4.384,4.605,6.747c2.662,4.649,4.728,9.62,7.465,14.222.219.369-.31.848-.607.494-3.166-3.774-5.138-8.495-7.472-12.792-1.293-2.378-2.665-4.743-4.333-6.881-1.496-1.916-3.352-3.165-5.104-4.786-.294-.271.003-.661.34-.62Z" fill="#45167a"/><path d="M486.729,418.223c2.969,9.544,6.052,18.882,9.833,28.14.116.284-.32.45-.477.212-5.499-8.332-7.325-18.71-9.89-28.196-.092-.345.428-.498.534-.156Z" fill="#45167a"/><path d="M479.53,420.35c.429,2.875.045,5.835-.021,8.726-.066,2.921.001,5.849.166,8.766.35,6.182,1.874,11.963,3.105,17.987.122.595-.694,1.053-1.033.459-3.053-5.341-3.966-12.01-4.233-18.063-.139-3.164.016-6.321.301-9.473.255-2.833.469-5.785,1.55-8.443.038-.092.154-.033.165.041Z" fill="#45167a"/><path d="M470.475,423.736c-.902,4.566-1.981,9.092-2.605,13.71-.634,4.693-.558,9.422-1.108,14.11-.067.563-.988.553-1.101.022-.953-4.464-.28-9.376.417-13.838.754-4.818,1.797-9.658,3.574-14.209.194-.496.932-.346.823.205Z" fill="#45167a"/><path d="M460.009,429.421c-.636,2.936-1.601,5.765-2.098,8.744-.584,3.495-.917,7.058-1.077,10.596-.152,3.353-.132,6.71-.015,10.064.106,3.01.458,6.056.303,9.065-.043.839-1.339,1.152-1.547.234-.684-3.013-.765-6.189-.893-9.267-.151-3.644-.165-7.299.021-10.942.176-3.445.535-6.857,1.327-10.219.679-2.883,1.602-6.203,3.557-8.505.168-.199.472-.001.422.23Z" fill="#45167a"/><path d="M446.428,439.593c-4.776,6.4-5.338,15.683-5.643,23.363-.31,7.792-.054,15.786.857,23.537.074.624-.938.766-1.089.164-2.019-8.067-1.985-16.706-1.384-24.952.328-4.492.87-9.019,2.12-13.357.929-3.223,2.182-6.824,4.777-9.096.244-.214.552.086.362.341Z" fill="#45167a"/><path d="M433.753,453.862c-.298,2.78-.98,5.507-1.39,8.273-.552,3.731-.953,7.493-1.292,11.249-.323,3.562-.478,7.135-.344,10.711.116,3.074.676,6.075.893,9.127.039.552-.726.72-1.002.292-1.567-2.424-1.838-5.789-2.012-8.593-.237-3.82.037-7.706.437-11.507.384-3.641,1.006-7.265,1.864-10.823.711-2.949,1.282-6.034,2.572-8.797.059-.127.29-.078.274.068Z" fill="#45167a"/><path d="M422.295,475.015c-.225.534-.196,1.702-.278,2.319-.172,1.285-.283,2.568-.337,3.864-.145,3.461-.106,6.933.006,10.395.193,5.942.95,11.88.969,17.822.002.533-.708.598-.888.134-.916-2.361-1.095-5.076-1.272-7.58-.269-3.824-.399-7.662-.442-11.495-.041-3.55-.025-7.115.346-10.649.19-1.8.247-3.84,1.711-4.985.116-.09.23.069.185.175Z" fill="#45167a"/><path d="M316.864,474.317c3.371-16.14,66.597-10.16,107.915-6.181l-3.268,8.573c-13.555-.667-57.44.145-59.403,6.311-1.964,6.166,63.13,40.43,136.612,57.392c60.997,14.08,149.04,11.318,151.407,5.315c2.366-5.998-25.447-18.636-43.492-25.423l.338-10.392c37.691,12.568,97.502,36.277,95.377,54.726-2.12,18.448-115.412,9.939-204.205-8.946-130.466-27.749-184.65-65.234-181.281-81.375Z" fill="#9747ff"/><path d="M315.502,473.977c.915-4.059,4.694-6.358,8.302-7.783c5.682-2.243,12.014-2.93,18.057-3.401c17.517-1.365,35.265-.128,52.743,1.234c10.061.784,20.108,1.738,30.154,2.705.792.076,1.74.807,1.383,1.744-1.089,2.858-2.179,5.715-3.268,8.573-.213.559-.675,1.096-1.341,1.064-12.301-.589-24.767-.18-37.034.817-5.68.461-11.532.949-17.032,2.532-1.401.403-2.868.956-3.876,1.776-.418.339.125.08-.155-.09.286.174.027.291.348.722c1.373,1.844,4.156,3.803,6.349,5.274c4.245,2.848,8.714,5.364,13.222,7.769c13.737,7.329,28.061,13.588,42.542,19.286c35.555,13.99,72.587,24.627,110.576,29.205c17.312,2.086,34.746,3.232,52.176,3.657c13.925.338,27.91.289,41.807-.758c4.351-.327,8.729-.713,13.02-1.526c1.355-.257,2.723-.543,4.027-1c.624-.219.583-.193,1.007-.427.476-.262.315-.336.304-.141.002-.025.086-.384-.072-.805-.338-.904-1.176-1.693-1.855-2.335-2.127-2.014-4.661-3.594-7.169-5.083-7.072-4.196-14.62-7.619-22.183-10.822-3.717-1.574-7.464-3.074-11.24-4.499-.567-.214-1.085-.673-1.064-1.341.113-3.464.225-6.928.338-10.392.027-.84.84-1.685,1.745-1.383c20.493,6.842,40.889,14.437,60.3,23.968c8.406,4.127,16.747,8.634,24.222,14.311c4.723,3.587,10.317,8.339,11.687,14.425c2.214,9.841-10.556,12.174-17.588,13.285-16.933,2.676-34.479,2.006-51.528,1.118-23.611-1.23-47.16-3.788-70.569-7.063-25.489-3.566-50.837-8.097-75.957-13.701-25.716-5.737-51.252-12.444-76.26-20.765-18.003-5.989-35.825-12.777-52.851-21.183-11.087-5.474-22.153-11.619-31.644-19.62-4.795-4.042-10.676-9.475-11.68-16.033-.171-1.112-.166-2.208.057-3.314.356-1.772,3.08-1.091,2.724.68-.1.498-.085,1.951.009,2.418.245,1.208.657,2.252,1.092,3.109c1.452,2.861,3.549,5.282,5.806,7.528c7.534,7.496,16.904,13.154,26.178,18.208c14.968,8.157,30.792,14.73,46.797,20.549c22.362,8.131,45.263,14.755,68.348,20.493c25.183,6.259,50.619,11.453,76.232,15.61c23.735,3.851,47.615,6.917,71.58,8.905c19.116,1.586,38.44,2.718,57.618,1.662c6.312-.348,12.703-.889,18.858-2.398c3.224-.79,7.697-1.998,9.576-4.659.712-1.009.842-2.48.507-4.042-.537-2.508-2.075-4.754-3.736-6.658-5.155-5.911-12.128-10.223-18.866-14.087-18.246-10.463-38.111-18.208-57.87-25.28-4.557-1.63-9.132-3.209-13.723-4.742.582-.461,1.163-.922,1.745-1.384-.113,3.465-.225,6.928-.338,10.392-.354-.447-.709-.893-1.063-1.34c8.194,3.091,16.294,6.475,24.17,10.309c6.171,3.005,13.224,6.228,18.105,11.203c1.969,2.007,3.817,5.542.644,7.335-2.565,1.45-5.909,1.78-8.763,2.2-12.126,1.784-24.542,1.99-36.776,2.042-17.445.074-34.904-.672-52.281-2.205-18.026-1.591-36.049-3.987-53.696-8.051-20.969-4.829-41.609-11.121-61.805-18.536-16.329-5.995-32.453-12.685-48.012-20.478-5.576-2.792-11.098-5.723-16.409-8.994-3.21-1.978-6.565-4.054-9.275-6.706-1.541-1.508-3.163-3.636-1.42-5.65c2.551-2.947,8.177-3.441,11.726-4c13.536-2.132,27.488-2.412,41.168-2.287c2.38.022,4.76.067,7.137.181-.447.355-.894.71-1.341,1.064c1.09-2.858,2.18-5.715,3.269-8.573.461.581.922,1.163,1.383,1.744-17.42-1.677-34.858-3.335-52.347-4.09-8.268-.356-16.558-.527-24.829-.185-6.472.268-13.067.746-19.347,2.429-3.689.989-9.084,2.677-10.051,6.963-.397,1.764-3.122,1.086-2.724-.679Z" fill="#45167a"/><path d="M640.391,527.151c7.198,2.746,14.076,6.377,20.671,10.365c7.044,4.26,14.356,9.129,19.42,15.737c2.142,2.794,3.976,6.092,3.671,9.711-.032.376-.541.385-.585.009-.834-7.15-6.504-12.576-11.841-16.832-6.661-5.312-14.157-9.599-21.69-13.54-3.273-1.713-6.527-3.39-9.741-5.206-.125-.071-.049-.299.095-.244Z" fill="#45167a"/><path d="M666.965,553.2c1.977,5.346-4.805,8.088-8.762,9.239-8.908,2.589-18.754,2.565-27.948,2.564-23.427-.001-46.888-2.594-70.14-5.218-4.494-.506-8.981-1.102-13.461-1.717-2.39-.327-4.926-.922-7.34-.976-.394-.008-.406-.623-.009-.614c5.562.123,11.099.749,16.641,1.289c10.523,1.025,21.017,2.305,31.548,3.257c11.847,1.07,23.722,1.938,35.615,2.263c10.019.273,20.267.473,30.194-1.144c4.817-.785,14.186-2.193,13.577-8.93-.006-.052.069-.057.085-.013Z" fill="#45167a"/><path d="M387.034,469.603c-4.744,1.499-9.701,1.517-14.646,1.725-5.763.243-11.652.655-17.28,1.982-5.847,1.378-14.43,5.333-9.946,12.449c3.673,5.829,10.789,9.672,16.634,12.908c7.637,4.228,15.625,7.832,23.662,11.225c6.077,2.565,12.536,4.614,18.367,7.718.427.227.162.982-.318.81-14.266-5.102-28.566-10.959-41.812-18.338-6.108-3.402-13.376-7.414-17.284-13.452-1.232-1.903-2.035-4.207-1.379-6.464.882-3.034,3.843-4.911,6.599-6.039c5.9-2.415,12.685-2.775,18.971-3.196c6.104-.409,12.36-.612,18.414-1.443.068-.009.079.096.018.115Z" fill="#45167a"/><path d="M338.517,472.92c-2.467,2.058-3.227,5.229-3.729,8.271-.024.146-.266.119-.26-.03.144-3.224,1.027-6.47,3.607-8.604.258-.213.643.145.382.363Z" fill="#45167a"/><path d="M454.401,532.672c-24.329-7.188-47.037-18.787-71.026-26.947-.263-.09-.168-.506.107-.425c24.37,7.089,46.947,19.082,70.976,27.145.141.048.09.271-.057.227Z" fill="#45167a"/><path d="M431.713,532.521c-12.426-4.852-25.074-9.107-37.538-13.858-12.319-4.695-24.72-9.489-36.253-15.924-.299-.167-.052-.601.254-.462c12.279,5.605,24.671,10.871,37.291,15.665c12.173,4.626,24.339,9.285,36.299,14.444.075.033.024.166-.053.135Z" fill="#45167a"/></g></g></svg>
