<svg width="48" height="48" viewBox="0 0 48 48" fill="none" xmlns="http://www.w3.org/2000/svg">
<path fill-rule="evenodd" clip-rule="evenodd" d="M24 45C35.598 45 45 35.598 45 24C45 12.402 35.598 3 24 3C12.402 3 3 12.402 3 24C3 35.598 12.402 45 24 45ZM24 48C37.2548 48 48 37.2548 48 24C48 10.7452 37.2548 0 24 0C10.7452 0 0 10.7452 0 24C0 37.2548 10.7452 48 24 48Z" fill="#6236FF" fill-opacity="0.8"/>
<path fill-rule="evenodd" clip-rule="evenodd" d="M15 14C15.5523 14 16 14.4477 16 15V32H33C33.5523 32 34 32.4477 34 33C34 33.5523 33.5523 34 33 34H15C14.4477 34 14 33.5523 14 33V15C14 14.4477 14.4477 14 15 14Z" fill="#6438FF"/>
<path fill-rule="evenodd" clip-rule="evenodd" d="M30.2929 20.2929C30.6834 19.9024 31.3166 19.9024 31.7071 20.2929C32.0976 20.6834 32.0976 21.3166 31.7071 21.7071L26.7071 26.7071C26.3166 27.0976 25.6834 27.0976 25.2929 26.7071L22 23.4142L19.7071 25.7071C19.3166 26.0976 18.6834 26.0976 18.2929 25.7071C17.9024 25.3166 17.9024 24.6834 18.2929 24.2929L21.2929 21.2929C21.6834 20.9024 22.3166 20.9024 22.7071 21.2929L26 24.5858L30.2929 20.2929Z" fill="#6438FF"/>
</svg>
