<svg width="1400" height="600" viewBox="0 0 1400 600" fill="none" xmlns="http://www.w3.org/2000/svg">
<g clip-path="url(#clip0_171_12178)">
<g filter="url(#filter0_f_171_12178)">
<mask id="mask0_171_12178" style="mask-type:luminance" maskUnits="userSpaceOnUse" x="-1" y="-297" width="1401" height="934">
<path d="M-0.00195312 636.333L1400 636.333L1400 -297L-0.00195312 -297L-0.00195312 636.333Z" fill="white"/>
</mask>
<g mask="url(#mask0_171_12178)">
<path d="M41.0072 149.224L48.388 132V149.224L38 138.561L56.0432 140.613L41.0072 149.224Z" fill="#9747FF"/>
<path d="M1309.14 582.06L1316.52 564.836V582.06L1306.13 571.398L1324.18 573.449L1309.14 582.06Z" fill="#9747FF"/>
<path d="M242.191 485.3L250.28 463.588V491.745L239.703 468.1L260.236 474.324L242.191 485.3Z" fill="#9747FF"/>
<path d="M1359.09 262.722L1367.18 241.011V269.168L1356.6 245.524L1377.14 251.746L1359.09 262.722Z" fill="#9747FF"/>
<path d="M101.369 602.033L106.347 573.449L113.192 602.033L93.9023 582.782L118.792 580.292L101.369 602.033Z" fill="#9747FF"/>
<path d="M1174.4 482.122L1179.38 453.536L1186.23 482.122L1166.94 462.87L1191.83 460.381L1174.4 482.122Z" fill="#9747FF"/>
<path d="M301.412 251.961L303.279 238.845L308.179 251.961L298.846 243.833L308.179 243.366L301.412 251.961Z" fill="#9747FF"/>
<path d="M392 338.466L398.907 324L398.283 340.333L392 327.89L402.328 332.166L392 338.466Z" fill="#9747FF"/>
<path d="M1281.73 112.616L1283.65 108.94L1284.53 113.316L1281.73 109.758L1286.04 110.574L1281.73 112.616Z" fill="#9747FF"/>
<g filter="url(#filter1_f_171_12178)">
<path d="M406 57.042L410.736 47.9999L412.888 58.7649L406 50.0103L416.619 52.0188L406 57.042Z" fill="#9747FF"/>
</g>
</g>
</g>
<g filter="url(#filter2_f_171_12178)">
<mask id="mask1_171_12178" style="mask-type:luminance" maskUnits="userSpaceOnUse" x="-1" y="-297" width="1401" height="934">
<path d="M-0.00195312 636.333L1400 636.333L1400 -297L-0.00195312 -297L-0.00195312 636.333Z" fill="white"/>
</mask>
<g mask="url(#mask1_171_12178)">
<path d="M75.7815 549.566C136.597 541.098 179.034 484.933 170.566 424.117C162.098 363.301 105.933 320.864 45.1169 329.332C-15.699 337.8 -58.1355 393.966 -49.6677 454.781C-41.1999 515.597 14.9656 558.034 75.7815 549.566Z" fill="#A656CB"/>
<path d="M66.9088 518.369C49.0971 515.081 30.4286 512.126 15.7715 501.483C3.43843 492.526 -5.03437 478.775 -18.1309 470.974C-27.3952 465.456 -38.1136 463.41 -48.6621 460.84C-47.432 467.091 -45.6157 473.311 -43.2469 479.449C-42.2053 480.199 -41.1786 480.964 -40.1874 481.746C-29.2506 490.376 -19.2565 500.951 -6.07784 505.466C-0.25571 507.462 6.27763 508.335 10.823 512.485C13.371 514.813 15.079 518.014 17.892 520.011C21.127 522.307 25.3064 522.666 29.2638 522.949C52.752 524.626 76.2422 526.302 99.7304 527.978C103.538 528.251 107.468 528.555 110.854 530.321C113.193 531.54 115.125 533.38 117.096 535.14C119.287 533.847 121.427 532.495 123.501 531.071C104.806 526.132 85.9264 521.88 66.9088 518.369Z" fill="#BE60DF"/>
<path d="M77.399 386.858C94.7684 391.247 109.614 402.236 123.836 413.128C127.844 416.197 131.881 419.228 136.022 422.116C141.792 426.14 147.772 429.907 154.11 432.98C159.551 435.617 165.59 438.087 171.653 438.863C171.619 432.338 171.014 425.767 169.793 419.219C167.658 418.815 165.564 418.05 164.152 416.435C163.43 415.609 162.902 414.582 161.987 413.973C161.196 413.445 160.217 413.303 159.282 413.131C151.491 411.707 144.928 407.248 139.216 401.958C129.574 393.027 122.248 381.346 110.73 374.562C101.246 368.974 90.2958 368.277 80.2718 364.245C63.6492 357.557 58.5849 340.824 49.3822 328.838C38.787 329.904 28.1694 332.501 17.8281 336.796C15.8924 337.599 13.9996 338.461 12.1348 339.359C18.362 343.777 18.9164 348.104 26.3494 357.286C37.9806 371.652 60.0558 382.387 77.399 386.858Z" fill="#BE60DF"/>
<path d="M168.45 465.919C164.776 461.805 161.026 457.864 155.983 455.818C148.417 452.748 139.356 454.633 132.147 450.799C118.638 443.618 120.861 422.984 111.255 411.074C100.531 397.778 80.0391 400.005 63.2783 403.303C46.5175 406.602 25.8199 408.317 15.654 394.588C10.7055 387.905 9.68067 378.994 5.0196 372.108C0.198 364.985 -7.35266 361.307 -15.5585 358.33C-28.3359 370.305 -37.9679 385.04 -43.8945 401.175C-43.3924 401.459 -42.866 401.687 -42.3732 401.993C-28.5393 410.539 -20.8337 426.497 -7.61213 435.961C11.0657 449.332 36.8537 447.314 57.374 457.637C73.334 465.665 84.6572 480.361 97.6156 492.659C110.346 504.74 127.141 515.221 144.37 512.425C156.014 499.013 164.246 483.027 168.45 465.919Z" fill="#BE60DF"/>
</g>
</g>
<g filter="url(#filter3_f_171_12178)">
<mask id="mask2_171_12178" style="mask-type:luminance" maskUnits="userSpaceOnUse" x="-1" y="-297" width="1401" height="934">
<path d="M-0.00195312 636.333L1400 636.333L1400 -297L-0.00195312 -297L-0.00195312 636.333Z" fill="white"/>
</mask>
<g mask="url(#mask2_171_12178)">
<path d="M1273.04 187.88C1364.14 187.88 1437.99 114.029 1437.99 22.9299C1437.99 -68.1694 1364.14 -142.02 1273.04 -142.02C1181.94 -142.02 1108.09 -68.1694 1108.09 22.9299C1108.09 114.029 1181.94 187.88 1273.04 187.88Z" fill="#8722EC"/>
<path fill-rule="evenodd" clip-rule="evenodd" d="M1175.25 155.754L1433.65 60.4163C1436.91 46.5096 1438.37 32.112 1437.89 17.5651L1144.2 125.925C1153.28 137.297 1163.74 147.297 1175.25 155.754Z" fill="#B03EF6"/>
<path d="M1118.28 80.0274C1120.89 87.0965 1123.97 93.852 1127.41 100.331L1434.04 -12.8019C1432.44 -19.9587 1430.4 -27.095 1427.79 -34.1659C1420.3 -54.451 1409.22 -72.3486 1395.57 -87.4816L1108.15 18.5656C1107.6 38.9346 1110.8 59.7424 1118.28 80.0274Z" fill="#6E28A6"/>
<path d="M1196.26 168.909C1203.94 172.945 1211.94 176.359 1220.16 179.147L1414.7 107.37C1419.15 99.9093 1423 92.1216 1426.22 84.0651L1196.26 168.909Z" fill="#6E28A6"/>
<path d="M1436.68 2.31439L1135.22 113.538C1138.96 119.246 1143 124.704 1147.36 129.828L1438.03 22.5845C1438.01 15.857 1437.53 9.08666 1436.68 2.31439Z" fill="#6E28A6"/>
</g>
</g>
<g filter="url(#filter4_f_171_12178)">
<mask id="mask3_171_12178" style="mask-type:luminance" maskUnits="userSpaceOnUse" x="-1" y="-297" width="1401" height="934">
<path d="M-0.00195312 636.333L1400 636.333L1400 -297L-0.00195312 -297L-0.00195312 636.333Z" fill="white"/>
</mask>
<g mask="url(#mask3_171_12178)">
<path d="M302.673 111.363C351.513 62.5233 351.513 -16.6614 302.673 -65.501C253.833 -114.341 174.649 -114.341 125.809 -65.501C76.9693 -16.6614 76.9693 62.5233 125.809 111.363C174.649 160.203 253.833 160.203 302.673 111.363Z" fill="#C214FF"/>
<path d="M118.525 -26.968C122.695 -20.9219 129.482 -17.3155 136.004 -13.9387C155.871 -3.65148 175.923 6.6936 197.485 12.6595C225.866 20.5107 256.408 20.6432 283.383 32.4517C302.084 40.6371 318.262 54.4037 329.526 71.4165C330.619 68.82 331.629 66.2029 332.537 63.5616C326.685 59.1525 321.196 54.26 316.164 48.9288C304.604 36.6816 295.492 22.3531 284.604 9.50665C273.714 -3.33975 260.405 -15.04 244.148 -19.436C219.017 -26.2325 190.364 -14.7544 167.062 -26.367C149.09 -35.3232 140.223 -55.3469 137.362 -75.7067C128.696 -68.9456 120.767 -60.9488 113.89 -51.7013C112.774 -50.2005 111.714 -48.6736 110.674 -47.1411C110.836 -46.7397 111.015 -46.344 111.167 -45.939C113.539 -39.5587 114.659 -32.5736 118.525 -26.968Z" fill="#910ECF"/>
<path d="M303.513 110.49C295.023 105.291 286.123 100.83 276.655 97.4752C265.634 93.5701 254.05 91.2125 243.412 86.3573C228.15 79.3928 215.652 67.6888 203.28 56.36C182.108 36.9765 159.512 17.5874 131.975 9.48609C120.047 5.97675 107.486 4.69437 95.8441 0.328239C94.3955 -0.214961 92.9731 -0.812304 91.5638 -1.44324C87.3526 19.8256 88.7993 41.7813 95.5305 62.1933C110.589 69.7346 126.149 76.1877 142.298 81.1586C166.275 88.5394 191.72 92.7525 213.138 105.812C228.678 115.285 241.142 128.848 254.425 141.346C272.591 135.202 289.479 124.835 303.513 110.49Z" fill="#910ECF"/>
<path d="M380.835 98.2629C385.356 85.2709 368.216 66.1507 337.149 46.1157C336.634 48.9661 335.996 51.7941 335.26 54.5979C351.564 66.5837 359.928 77.2947 357.313 84.8173C354.496 92.8888 339.498 95.9464 316.782 94.5221C287.143 92.648 244.361 83.1411 198.32 67.0672C152.853 51.1893 113.831 32.3118 89.396 15.4632C70.1301 2.20615 59.9493 -9.78532 62.8035 -17.9688C65.4672 -25.6184 79.1181 -28.7731 99.9464 -27.8453C101.096 -30.4549 102.356 -33.0552 103.715 -35.6032C66.3595 -39.4243 40.6088 -35.172 36.0243 -22.0661C31.0085 -7.7208 52.4808 14.1117 89.9243 36.3979C117.116 52.5725 152.736 68.9899 192.783 82.9544C233.31 97.0888 271.842 106.461 303.396 110.643C345.982 116.287 375.857 112.496 380.835 98.2629Z" fill="#DFCAF4"/>
</g>
</g>
<g filter="url(#filter5_f_171_12178)">
<mask id="mask4_171_12178" style="mask-type:luminance" maskUnits="userSpaceOnUse" x="-1" y="-297" width="1401" height="934">
<path d="M-0.00195312 636.333L1400 636.333L1400 -297L-0.00195312 -297L-0.00195312 636.333Z" fill="white"/>
</mask>
<g mask="url(#mask4_171_12178)">
<path d="M1381.8 501.765C1436.02 501.765 1479.97 457.81 1479.97 403.588C1479.97 349.366 1436.02 305.411 1381.8 305.411C1327.57 305.411 1283.62 349.366 1283.62 403.588C1283.62 457.81 1327.57 501.765 1381.8 501.765Z" fill="#C214FF"/>
<path d="M1435.44 349.527C1439.35 349.779 1443.29 351.008 1447.12 350.188C1451.91 349.163 1455.38 344.997 1456.77 340.226C1438.76 318.94 1411.86 305.411 1381.8 305.411C1358.16 305.411 1336.48 313.766 1319.54 327.68C1321.64 329.599 1324.27 330.795 1327.1 330.626C1322.87 340.485 1326.09 353.013 1334.56 359.602C1336.2 360.879 1338.1 362.049 1338.93 363.955C1340.14 366.723 1338.68 369.839 1337.69 372.693C1335.73 378.341 1335.72 384.858 1338.66 390.064C1341.59 395.27 1347.79 398.759 1353.65 397.589C1353.49 388.233 1366.09 381.559 1373.74 386.943C1376.97 389.211 1379.48 393.109 1383.41 393.353C1390.78 393.812 1391.93 382.581 1397.44 377.673C1401.56 374.011 1407.71 374.36 1413.21 373.983C1418.71 373.606 1425.21 371.218 1426.1 365.781C1426.73 361.928 1424.17 357.868 1425.53 354.209C1426.9 350.539 1431.52 349.275 1435.44 349.527Z" fill="#910ECF"/>
<path d="M1459.04 464.156C1458.46 461.15 1457.38 458.253 1455.64 455.575C1450.47 447.61 1437.11 444.332 1431.83 452.224C1429.87 455.142 1429.29 459.134 1426.37 461.098C1424.39 462.435 1421.84 462.451 1419.45 462.423C1410.41 462.311 1401.37 462.201 1392.32 462.089C1392.07 452.887 1399.52 444.104 1408.64 442.842C1410.75 442.549 1413.1 442.545 1414.71 441.145C1417.43 438.79 1416.25 434.446 1415.18 431.013C1412.05 420.912 1411.91 409.897 1414.81 399.724C1410.22 395.946 1403.78 402.425 1403.1 408.329C1402.44 414.232 1403.8 421.026 1399.88 425.486C1396.17 429.701 1389.72 429.529 1384.11 429.828C1378.5 430.126 1371.73 432.394 1370.89 437.946C1370.54 440.268 1371.39 442.603 1371.41 444.951C1371.46 450.943 1365.97 455.823 1360.13 457.165C1354.29 458.507 1348.21 457.169 1342.37 455.83C1345.48 447.113 1340.73 436.368 1332.19 432.799C1329.23 431.562 1325.93 431.099 1323.18 429.436C1318.62 426.675 1316.52 421.26 1313.03 417.228C1309.54 413.196 1302.43 410.911 1299.28 415.208C1298.03 416.905 1297.84 419.128 1297.69 421.226C1296.95 431.588 1296.31 442.305 1296.84 452.775C1313.83 482.059 1345.5 501.769 1381.79 501.769C1413.16 501.767 1441.06 487.047 1459.04 464.156Z" fill="#910ECF"/>
</g>
</g>
<g filter="url(#filter6_f_171_12178)">
<mask id="mask5_171_12178" style="mask-type:luminance" maskUnits="userSpaceOnUse" x="-1" y="-297" width="1401" height="934">
<path d="M-0.00195312 636.333L1400 636.333L1400 -297L-0.00195312 -297L-0.00195312 636.333Z" fill="white"/>
</mask>
<g mask="url(#mask5_171_12178)">
<path d="M1219.57 636.333C1075.31 526.562 895.266 461.384 700 461.384C504.733 461.384 324.693 526.562 180.43 636.333H1219.57Z" fill="#DFCAF4"/>
<path d="M704.714 562.29C782.838 562.29 846.17 543.347 846.17 519.978C846.17 496.61 782.838 477.667 704.714 477.667C626.59 477.667 563.258 496.61 563.258 519.978C563.258 543.347 626.59 562.29 704.714 562.29Z" fill="#461978"/>
<path d="M704.714 487.622C777.204 487.622 836.921 503.934 845.162 524.955C845.802 523.322 846.17 521.662 846.17 519.977C846.17 496.61 782.838 477.665 704.716 477.665C626.592 477.665 563.26 496.608 563.26 519.977C563.26 521.662 563.626 523.322 564.268 524.955C572.507 503.934 632.224 487.622 704.714 487.622Z" fill="#F2F2F2"/>
<path d="M412.969 642.692C448.921 630.827 475.188 612.49 471.639 601.736C468.09 590.982 436.068 591.883 400.116 603.748C364.164 615.613 337.897 633.95 341.446 644.704C344.995 655.458 377.017 654.557 412.969 642.692Z" fill="#461978"/>
<path d="M403.262 608.677C434.426 598.393 462.622 596.353 471.896 602.993C471.846 602.575 471.767 602.164 471.637 601.765C468.088 591.011 436.065 591.91 400.113 603.775C364.159 615.64 337.892 633.976 341.44 644.73C341.913 646.161 342.906 647.382 344.33 648.401C343.012 637.526 368.639 620.103 403.262 608.677Z" fill="#F2F2F2"/>
<path d="M508.826 540.594C509.823 545.541 497.221 552.251 480.678 555.581C464.138 558.911 449.921 557.599 448.924 552.652C447.928 547.706 460.53 540.995 477.072 537.665C493.612 534.335 507.829 535.647 508.826 540.594Z" fill="#461978"/>
<path d="M508.826 540.594C509.823 545.541 497.221 552.251 480.678 555.581C464.138 558.911 449.921 557.599 448.924 552.652C447.928 547.706 460.53 540.995 477.072 537.665C493.612 534.335 507.829 535.647 508.826 540.594Z" fill="#461978"/>
<path d="M478.238 539.901C492.505 537.029 505.021 537.617 508.839 541.006C508.831 540.87 508.854 540.73 508.826 540.596C507.829 535.647 493.614 534.337 477.072 537.667C460.531 540.997 447.929 547.708 448.924 552.654C449.06 553.334 449.469 553.939 450.078 554.48C449.82 549.574 462.146 543.14 478.238 539.901Z" fill="#F2F2F2"/>
<path d="M934.38 605.785C932.386 613.65 909.458 614.622 883.166 607.958C856.874 601.294 837.177 589.517 839.17 581.653C841.164 573.789 864.092 572.816 890.384 579.48C916.676 586.144 936.373 597.921 934.38 605.785Z" fill="#461978"/>
<path d="M890.386 579.48C864.094 572.816 841.166 573.791 839.172 581.653C838.937 582.585 839.014 583.574 839.363 584.601C845.276 579.118 865.83 579.055 889.007 584.927C912.181 590.802 930.225 600.646 932.812 608.285C933.607 607.548 934.147 606.715 934.382 605.784C936.373 597.921 916.676 586.144 890.386 579.48Z" fill="#F2F2F2"/>
<path d="M306.68 594.981C308.959 599.64 298.181 609.597 282.604 617.221C267.028 624.844 252.552 627.246 250.271 622.587C247.99 617.928 258.77 607.971 274.346 600.35C289.925 592.724 304.399 590.322 306.68 594.981Z" fill="#461978"/>
<path d="M276.484 604.716C289.531 598.332 301.776 595.627 306.76 597.649C307.044 596.644 307.051 595.737 306.68 594.981C304.4 590.322 289.924 592.724 274.347 600.348C258.772 607.971 247.992 617.926 250.271 622.585C250.642 623.341 251.363 623.894 252.33 624.286C253.791 619.111 263.438 611.102 276.484 604.716Z" fill="#F2F2F2"/>
<path d="M1135.8 651.198C1142.44 638.054 1112.2 609.406 1068.26 587.209C1024.32 565.013 983.315 557.674 976.676 570.817C970.037 583.961 1000.27 612.609 1044.21 634.806C1088.15 657.002 1129.16 664.341 1135.8 651.198Z" fill="#461978"/>
<path d="M1068.24 587.257C1024.3 565.06 983.301 557.719 976.661 570.862C975.991 572.189 975.715 573.681 975.771 575.303C987.691 567.155 1024.8 575.092 1064.3 595.048C1103.81 615.005 1132.22 640.168 1132.73 654.597C1134.07 653.682 1135.11 652.573 1135.78 651.246C1142.42 638.103 1112.18 609.455 1068.24 587.257Z" fill="#F2F2F2"/>
</g>
</g>
</g>
<defs>
<filter id="filter0_f_171_12178" x="34" y="43.9999" width="1347.14" height="562.033" filterUnits="userSpaceOnUse" color-interpolation-filters="sRGB">
<feFlood flood-opacity="0" result="BackgroundImageFix"/>
<feBlend mode="normal" in="SourceGraphic" in2="BackgroundImageFix" result="shape"/>
<feGaussianBlur stdDeviation="2" result="effect1_foregroundBlur_171_12178"/>
</filter>
<filter id="filter1_f_171_12178" x="402" y="43.9999" width="18.6191" height="18.7651" filterUnits="userSpaceOnUse" color-interpolation-filters="sRGB">
<feFlood flood-opacity="0" result="BackgroundImageFix"/>
<feBlend mode="normal" in="SourceGraphic" in2="BackgroundImageFix" result="shape"/>
<feGaussianBlur stdDeviation="2" result="effect1_foregroundBlur_171_12178"/>
</filter>
<filter id="filter2_f_171_12178" x="-4.00195" y="324.256" width="179.654" height="230.386" filterUnits="userSpaceOnUse" color-interpolation-filters="sRGB">
<feFlood flood-opacity="0" result="BackgroundImageFix"/>
<feBlend mode="normal" in="SourceGraphic" in2="BackgroundImageFix" result="shape"/>
<feGaussianBlur stdDeviation="2" result="effect1_foregroundBlur_171_12178"/>
</filter>
<filter id="filter3_f_171_12178" x="1104.09" y="-146.02" width="299.912" height="337.9" filterUnits="userSpaceOnUse" color-interpolation-filters="sRGB">
<feFlood flood-opacity="0" result="BackgroundImageFix"/>
<feBlend mode="normal" in="SourceGraphic" in2="BackgroundImageFix" result="shape"/>
<feGaussianBlur stdDeviation="2" result="effect1_foregroundBlur_171_12178"/>
</filter>
<filter id="filter4_f_171_12178" x="31.3027" y="-106.131" width="354.248" height="258.123" filterUnits="userSpaceOnUse" color-interpolation-filters="sRGB">
<feFlood flood-opacity="0" result="BackgroundImageFix"/>
<feBlend mode="normal" in="SourceGraphic" in2="BackgroundImageFix" result="shape"/>
<feGaussianBlur stdDeviation="2" result="effect1_foregroundBlur_171_12178"/>
</filter>
<filter id="filter5_f_171_12178" x="1279.62" y="301.411" width="124.379" height="204.358" filterUnits="userSpaceOnUse" color-interpolation-filters="sRGB">
<feFlood flood-opacity="0" result="BackgroundImageFix"/>
<feBlend mode="normal" in="SourceGraphic" in2="BackgroundImageFix" result="shape"/>
<feGaussianBlur stdDeviation="2" result="effect1_foregroundBlur_171_12178"/>
</filter>
<filter id="filter6_f_171_12178" x="176.43" y="457.384" width="1047.14" height="182.949" filterUnits="userSpaceOnUse" color-interpolation-filters="sRGB">
<feFlood flood-opacity="0" result="BackgroundImageFix"/>
<feBlend mode="normal" in="SourceGraphic" in2="BackgroundImageFix" result="shape"/>
<feGaussianBlur stdDeviation="2" result="effect1_foregroundBlur_171_12178"/>
</filter>
<clipPath id="clip0_171_12178">
<rect width="1400" height="933.333" fill="white" transform="translate(0 -297)"/>
</clipPath>
</defs>
</svg>
