<svg width="24" height="24" viewBox="0 0 24 24" fill="none" xmlns="http://www.w3.org/2000/svg">
<g id="warning">
<g id="Icon">
<path d="M12.0007 13.9999C11.4484 13.9999 11.0007 13.5522 11.0007 12.9999V9.99988C11.0007 9.4476 11.4484 8.99988 12.0007 8.99988C12.5529 8.99988 13.0007 9.4476 13.0007 9.99988V12.9999C13.0007 13.5522 12.5529 13.9999 12.0007 13.9999Z" fill="#ED2E7E"/>
<path d="M10.5007 16.4999C10.5007 15.6715 11.1722 14.9999 12.0007 14.9999C12.8291 14.9999 13.5007 15.6715 13.5007 16.4999C13.5007 17.3283 12.8291 17.9999 12.0007 17.9999C11.1722 17.9999 10.5007 17.3283 10.5007 16.4999Z" fill="#ED2E7E"/>
<path d="M10.2308 3.21548C10.9806 1.79081 13.0207 1.7908 13.7705 3.21548L22.1141 19.0684C22.8151 20.4002 21.8493 21.9999 20.3443 21.9999H3.65702C2.152 21.9999 1.18623 20.4002 1.88719 19.0684L10.2308 3.21548ZM20.3443 19.9999L12.0007 4.14697L3.65702 19.9999L20.3443 19.9999Z" fill="#ED2E7E"/>
</g>
</g>
</svg>
